<svg width="273" height="156" viewBox="0 0 273 156" fill="none" xmlns="http://www.w3.org/2000/svg">
<g clip-path="url(#clip0_20_250)">
<path d="M280.851 -8.504H-8.15698V164.41H280.851V-8.504Z" fill="#E6E4E1"/>
<path d="M237.949 90.218C238.545 90.631 238.203 91.458 238.427 92.055C238.734 92.986 238.659 93.976 238.711 94.944C239.243 94.098 239.915 93.358 240.519 92.568C240.653 92.561 240.925 92.551 241.061 92.544C241.155 92.84 241.224 93.143 241.271 93.458C240.805 94.355 240.112 95.098 239.416 95.823C239.416 95.823 238.888 96.331 238.762 96.43C238.801 97.411 238.813 98.393 238.855 99.379C240.009 98.704 240.748 97.538 241.871 96.844C242.351 96.495 242.544 95.63 243.246 95.717C244.036 96.248 243.131 97.018 242.799 97.543C242.029 98.697 240.879 99.489 239.952 100.499C243.181 103.113 246.069 106.117 249.102 108.946C250.094 110.244 251.504 111.139 252.479 112.453C253.475 113.34 254.16 114.494 255.04 115.486C255.703 116.456 256.214 117.557 257.117 118.343C258.312 117.532 259.117 116.278 260.339 115.504C261.132 115.311 262.119 114.424 262.777 115.294C262.493 116.482 261.294 116.892 260.43 117.58C259.757 118.073 259.295 118.813 258.556 119.232C258.803 119.322 259.05 119.415 259.302 119.516C260.102 119.234 260.957 119.225 261.799 119.2C262.151 118.378 262.799 117.741 263.457 117.159C263.927 116.81 264.42 117.179 264.885 117.343C264.89 117.632 264.898 117.929 264.911 118.231C264.431 118.733 263.909 119.193 263.349 119.601C264.32 119.702 265.324 119.59 266.279 119.834C266.272 120.154 266.258 120.477 266.234 120.805C265.418 121.133 264.528 121.164 263.673 120.978C264.233 121.532 264.881 121.974 265.531 122.419C265.593 122.605 265.658 122.793 265.729 122.991C265.547 123.162 265.386 123.356 265.249 123.571C264.977 123.492 264.703 123.418 264.434 123.361C263.266 122.777 262.487 121.698 261.468 120.931C260.832 120.814 260.172 120.981 259.527 120.951C260.006 121.378 260.391 121.926 260.971 122.233C261.497 122.532 262.112 122.772 262.371 123.37C262.527 123.692 262.688 124.014 262.857 124.341C262.544 124.542 262.237 124.766 261.884 124.898C260.811 124.57 259.721 124.258 258.833 123.54C258.316 122.982 257.804 122.421 257.319 121.839C254.717 124.669 251.654 127.031 248.692 129.47C245.952 131.569 243.335 133.828 240.563 135.882C240.215 136.163 239.232 136.525 239.852 137.034C241.343 138.218 242.456 139.781 243.888 141.026C243.837 141.076 243.733 141.179 243.682 141.229C243.901 141.551 243.9 141.945 243.954 142.327C243.64 142.353 243.327 142.392 243.016 142.441C242.138 141.586 241.209 140.788 240.344 139.927C239.912 139.404 239.509 138.857 238.987 138.426C238.859 139.192 238.747 139.973 238.81 140.758C239.848 141.339 240.753 142.155 241.429 143.137C241.246 143.344 241.227 143.758 240.912 143.813C240.129 143.432 239.494 142.834 238.86 142.257C238.858 143.372 239.185 144.508 238.863 145.605C238.475 145.969 238.16 145.406 237.827 145.245C237.727 144.418 237.675 143.59 237.593 142.768C236.919 143.307 236.563 144.228 235.747 144.569C234.847 143.892 235.914 142.961 236.284 142.288C236.646 141.679 237.24 141.234 237.553 140.604C237.526 140.054 237.474 139.51 237.445 138.97C236.306 140.091 235.612 141.578 234.465 142.689C234.106 143.034 233.719 142.847 233.397 142.576C233.548 141.515 234.132 140.596 234.75 139.749C235.43 138.877 235.629 137.581 236.777 137.16C236.735 136.974 236.696 136.792 236.657 136.618C236.484 136.604 236.137 136.575 235.964 136.561C235.174 135.809 234.178 135.291 233.508 134.418C232.769 133.682 232.119 132.806 231.12 132.407C227.851 130.262 225.428 127.107 222.887 124.2C221.437 122.745 220.207 121.095 218.935 119.491C218.698 119.108 218.222 119.211 217.852 119.156C217.852 119.577 217.859 120.016 217.719 120.43C217.156 121.392 216.783 122.476 216.072 123.349C215.877 123.427 215.484 123.583 215.286 123.663C215.286 123.663 215.216 123.046 215.118 122.989C215.345 121.577 216.2 120.39 217.014 119.259C216.08 119.119 215.111 119.14 214.207 118.849C213.849 120.166 213.093 121.843 211.561 122.026C211.493 121.615 211.256 121.227 211.255 120.821C211.601 120.04 212.248 119.451 212.648 118.701C211.292 118.545 209.873 118.991 208.573 118.47C208.742 118.137 208.863 117.769 209.131 117.506C210.154 117.414 211.182 117.419 212.209 117.396C211.423 116.545 210.292 116.074 209.754 115.001C209.981 114.744 210.211 114.493 210.446 114.251C210.745 114.299 211.044 114.36 211.346 114.433C212.455 115.28 213.745 116.04 214.442 117.295C215.176 117.726 216.069 117.439 216.876 117.477C216.769 117.255 216.665 117.038 216.564 116.823C216.21 116.366 215.924 115.865 215.632 115.373C215.31 114.737 214.921 114.144 214.575 113.529C214.664 113.011 214.739 112.325 215.434 112.382C216.913 113.379 217.734 115.074 218.582 116.596C218.971 116.174 219.386 115.771 219.884 115.482C219.821 115.423 224.103 111.039 224.103 111.039C224.712 110.155 228.836 106.908 230.061 105.929C231.266 105.11 232.29 104.049 233.535 103.282C234.379 102.79 235.187 102.239 236.001 101.7C236.313 101.613 236.625 101.526 236.937 101.441C235.156 100.231 233.218 99.126 231.945 97.337C232.291 97.135 232.434 96.8 232.5 96.429C232.863 96.51 233.231 96.571 233.606 96.624C234.762 97.302 235.814 98.144 236.963 98.837C236.705 97.993 236.735 97.111 236.998 96.279C235.654 95.663 234.795 94.419 234 93.233C234.095 92.973 234.185 92.716 234.27 92.46C235.684 92.172 236.064 93.822 236.913 94.569C237.252 93.109 236.936 91.457 237.949 90.218ZM239.294 101.476C239.416 103.883 239.262 106.293 239.445 108.704C240.891 109.994 242.277 111.352 243.713 112.655C245.354 113.981 246.757 115.57 248.022 117.255C248.32 117.707 248.816 118.042 248.952 118.591C250.198 118.809 251.454 118.783 252.71 118.84C253.674 119.116 254.72 118.747 255.653 119.161C254.148 117.652 252.857 115.943 251.397 114.392C249.843 112.481 247.824 111.023 246.174 109.202C243.793 106.712 240.968 104.551 239.294 101.476ZM225.827 112.774C224.734 113.83 223.362 114.538 222.249 115.572C221.685 116.135 221.025 116.59 220.382 117.056C221.702 117.127 223.036 116.94 224.352 117.126C225.655 117.212 226.975 117.288 228.254 117.564C228.981 116.564 229.997 115.861 230.906 115.049C232.772 113.461 234.654 111.884 236.699 110.528C236.711 108.461 236.542 106.398 236.554 104.333C236.609 104.024 236.677 103.722 236.764 103.43C233.196 106.64 229.491 109.681 225.827 112.774ZM239.265 110.673C239.259 111.747 239.406 112.826 239.312 113.901C239.064 115.242 239.242 116.612 239.259 117.967C240.5 118.238 241.776 118.077 243.027 118.272C244.272 118.218 245.487 118.503 246.73 118.47C244.449 115.684 241.89 113.14 239.265 110.673ZM230.488 117.725C231.093 117.737 232.789 117.812 233.177 117.954C234.262 117.975 235.345 118.086 236.429 118.031C236.481 116.105 236.273 114.157 236.656 112.253C234.574 114.043 232.555 115.911 230.488 117.725ZM220.495 119.249C220.979 119.651 221.379 120.198 221.998 120.418C223.078 120.878 223.62 122.007 224.508 122.722C225.433 123.489 226.099 124.51 227.007 125.298C228.225 126.365 229.222 127.65 230.432 128.725C232.394 130.601 234.457 132.38 236.271 134.401C236.628 134.295 236.041 130.436 236.35 128.582C234.895 127.346 233.777 125.78 232.608 124.288C232.162 123.867 231.674 123.483 231.37 122.945C230.634 121.785 229.568 120.909 228.713 119.852C227.663 119.986 222.23 119.336 220.495 119.249ZM231.026 120.199C231.194 120.419 231.524 120.855 231.691 121.075L232.439 121.986C233.843 123.222 235.073 124.631 236.255 126.077C236.245 125.146 236.299 124.22 236.277 123.294C236.548 122.33 236.287 121.326 236.309 120.348C234.545 120.414 232.795 120.163 231.026 120.199ZM239.11 120.432C239.219 122.754 239.191 125.073 239.061 127.395C240.14 126.225 241.423 125.302 242.684 124.351C243.823 123.377 246.17 121.51 246.17 121.51C246.17 121.51 247.195 121.126 247.609 120.767C244.788 120.452 241.942 120.536 239.11 120.432ZM249.361 121.214C247.69 123.011 245.743 124.537 243.751 125.967C242.052 126.887 240.647 128.233 239.179 129.468C238.754 130.674 239.086 131.959 238.982 133.204C238.93 133.754 238.916 134.303 238.916 134.864C242.339 131.967 245.767 129.078 249.354 126.383C251.209 124.828 252.997 123.186 254.982 121.794C255.417 121.525 255.82 121.211 256.236 120.915C254.687 120.989 253.137 121.021 251.591 120.872C250.854 120.913 249.931 120.582 249.361 121.214Z" fill="#EF986E"/>
<path d="M23.8361 13.949C24.1231 13.72 24.4141 13.498 24.7051 13.279C25.2041 14.068 25.1771 15.024 25.3671 15.916C25.7951 15.575 26.1811 15.188 26.5741 14.813C26.8201 14.927 27.0691 15.048 27.3191 15.174C26.9971 16.357 25.9321 17.099 25.4051 18.182C25.4101 18.545 25.4311 18.923 25.3511 19.294C25.3461 19.637 25.3551 19.986 25.3751 20.342C26.5031 19.065 27.1031 17.441 28.0171 16.018C28.2061 15.916 28.3961 15.816 28.5881 15.721C28.7391 15.803 29.0401 15.966 29.1911 16.051C28.6881 17.382 28.2091 18.739 27.4881 19.971C26.9591 20.862 26.0121 21.404 25.4441 22.253C25.5151 24.312 25.5291 26.373 25.5351 28.435C26.2871 27.866 26.9141 27.16 27.6481 26.572C28.2841 26.033 28.9611 25.544 29.6101 25.022C29.7091 24.018 29.4061 22.921 29.9501 22.007C30.2231 22.091 30.4941 22.183 30.7671 22.286C30.7021 22.889 30.6401 23.498 30.5451 24.102C31.4731 23.409 32.2121 22.483 33.1681 21.825C33.7231 21.458 34.2521 21.945 34.2671 22.524C33.6081 22.868 33.3071 23.587 32.7691 24.069C32.3071 24.474 31.8241 24.85 31.3481 25.241L31.3641 25.405C32.4241 25.17 33.5091 25.115 34.5851 24.984C34.8381 25.213 35.0881 25.441 35.3431 25.688C35.1681 25.96 34.9911 26.239 34.8111 26.514C33.3601 26.849 31.9111 26.545 30.4891 26.243C29.6931 27.015 28.9801 27.865 28.1371 28.591C30.0631 28.836 32.0071 28.536 33.9341 28.713C34.4321 27.826 35.1271 27.078 35.8871 26.411C36.3651 26.116 36.9021 25.953 37.4571 25.869C37.6311 26.236 37.8211 26.603 37.9801 26.99C37.5071 27.57 37.0501 28.169 36.4631 28.647C36.9781 28.695 37.4951 28.74 38.0181 28.732C38.6831 27.71 39.6031 26.854 40.1011 25.726C40.3361 25.94 41.0881 25.895 40.9171 26.363C40.7051 26.87 40.4041 27.335 40.0921 27.79C40.1511 27.842 39.7241 28.556 39.4361 28.861C40.1021 28.936 40.7731 29.024 41.4441 29.08C41.7231 29.213 42.0081 29.352 42.2961 29.492C42.4231 29.712 42.5531 29.934 42.6891 30.163C41.3301 30.413 39.9621 30.328 38.5951 30.392C38.7261 30.624 38.8561 30.864 38.9831 31.11C39.5321 31.48 40.1151 31.802 40.7041 32.118C40.7011 32.5 40.5451 32.839 40.3261 33.153C38.7821 32.831 37.7131 31.622 36.8721 30.376C36.3901 30.443 35.9081 30.511 35.4321 30.595C36.2931 31.797 37.8301 32.305 38.6221 33.583C37.8691 33.662 37.1641 33.408 36.4631 33.184C35.4001 32.467 34.2221 31.766 33.6331 30.575C32.5041 30.573 31.3761 30.537 30.2481 30.648C29.2831 30.446 28.2861 30.784 27.3111 30.547C28.3911 31.739 29.5441 32.87 30.5981 34.085C31.4411 33.922 32.2971 34.162 33.1431 33.996C33.6851 33.872 34.5501 34.785 34.6831 34.934C33.8211 35.793 32.6161 35.281 31.5631 35.227C31.9351 35.677 32.3771 36.067 32.7551 36.519C33.0301 36.839 33.2991 37.16 33.5851 37.481C33.5781 37.627 33.5591 37.925 33.5501 38.074C32.2901 37.92 31.4821 36.706 30.5311 35.972C31.1121 37.054 31.0421 38.286 30.9011 39.464C30.5561 39.503 30.2161 39.547 29.8751 39.596C29.8741 39.508 29.8721 39.332 29.8711 39.241C29.0631 38.006 28.8091 36.396 29.2071 34.98C28.0931 33.847 26.8041 32.923 25.5911 31.909C25.6721 32.682 25.7961 33.46 25.7731 34.247C25.4031 35.024 25.5801 35.927 25.5891 36.764C25.5351 37.391 26.1561 37.677 26.5761 38.002C27.1411 38.378 27.6571 38.836 28.0681 39.387C28.1401 39.58 28.2831 39.967 28.3541 40.16C28.3231 40.343 28.2611 40.704 28.2271 40.887C27.3001 40.236 26.4271 39.508 25.6611 38.672C25.7391 39.596 25.7811 40.527 25.8751 41.455C26.4841 41.914 27.1341 42.328 27.7181 42.829C28.0801 43.304 28.2071 43.905 28.4361 44.454C28.0471 45.015 27.4151 44.622 26.9861 44.337C26.5541 44.042 26.1911 43.669 25.8391 43.294C25.7311 44.029 25.6241 44.77 25.7391 45.515C25.4721 45.863 24.9861 46.44 24.5251 46.037C24.0391 45.55 24.1911 44.754 24.0741 44.131C24.3881 43.59 24.1211 42.968 24.0971 42.4C23.4901 43.044 22.9621 43.761 22.3131 44.364C22.2721 43.824 22.2561 43.297 22.1911 42.771C22.1911 42.771 23.3491 41.63 24.0161 41.306C24.0611 40.994 24.1541 39.096 24.2081 38.91C23.3981 39.871 22.8611 41.061 21.8881 41.89C21.6351 42.164 21.3031 41.903 21.0281 41.845C21.3141 40.178 22.4901 38.691 23.8861 37.784C24.3561 36.073 24.1051 34.289 24.0721 32.544C23.0441 33.403 22.2041 34.459 21.1891 35.339C20.1981 36.188 21.2221 37.546 20.6611 38.591C20.4381 38.757 20.2161 38.923 19.9891 39.093C19.1481 38.649 19.5971 37.62 19.5301 36.882C18.5931 37.563 17.7891 38.451 16.7461 38.977C16.5831 38.736 16.4321 38.496 16.2951 38.254C16.9281 37.269 17.8431 36.513 18.5981 35.629C17.5501 35.629 16.5361 35.918 15.5041 36.023C15.4661 35.851 15.3861 35.511 15.3481 35.34C16.6861 34.807 18.1621 34.385 19.6051 34.648C20.8151 33.228 22.1901 31.956 23.3171 30.472C21.6071 30.436 18.0751 30.287 18.0751 30.411C16.7881 30.374 15.5041 30.353 14.2191 30.288C13.6621 31.403 13.0031 32.57 11.9391 33.27C11.7201 33.184 11.5091 33.094 11.2981 33.007C11.5791 32.031 11.9901 31.088 12.6781 30.33C12.2031 30.127 11.7041 30.245 11.2201 30.316C10.6161 31.229 9.89111 32.107 8.84511 32.527C8.96911 31.66 9.34311 30.875 9.91211 30.215C9.21411 30.217 8.51611 30.156 7.82111 30.176C7.54211 29.963 7.25211 29.767 6.96411 29.586C7.04711 29.443 7.21311 29.16 7.29611 29.019C8.13711 28.9 8.98411 28.866 9.83311 28.829C9.10211 28.147 8.23511 27.626 7.53411 26.917C7.63011 25.95 8.61711 26.419 9.01311 26.895C9.01311 26.895 10.4811 28.115 11.1781 28.77C11.8571 28.703 12.5371 28.665 13.2081 28.532C12.1531 27.633 10.6141 27.048 10.2481 25.579C10.5751 25.155 11.1321 25.011 11.6331 25.188C12.7261 25.779 13.5931 26.702 14.3381 27.688C14.5081 27.98 14.6881 28.273 14.8631 28.58C15.8651 28.744 16.8741 28.523 17.8841 28.642C19.3951 28.748 20.9101 28.465 22.4161 28.673C21.6701 27.9 20.8851 27.163 20.2261 26.316C19.8401 25.8 19.2031 25.506 19.3471 25.635C18.5981 25.706 17.8531 25.804 17.1051 25.893C17.1741 25.801 16.8191 25.144 17.0721 24.833C17.3511 24.343 17.9891 24.414 18.4501 24.253C18.2391 23.805 18.0281 23.358 17.8701 22.898C18.9831 22.612 19.5971 23.695 20.4861 24.128C20.3551 23.291 20.2661 22.439 19.9511 21.651C19.6471 21.086 19.9481 20.484 20.0061 19.905C20.2171 19.974 20.4321 20.047 20.6491 20.126C21.0831 21.02 21.3671 21.987 21.5671 22.96C21.3211 23.565 21.6241 24.266 21.2641 24.836C22.1871 25.776 23.1411 26.691 24.2041 27.475C23.8941 25.592 24.0491 21.563 23.9891 21.498C22.6591 20.484 21.2561 19.559 20.0321 18.42C19.6181 17.923 19.1401 17.3 19.4791 16.644C19.6371 16.603 19.9591 16.52 20.1171 16.479C21.4231 17.429 22.6571 18.471 23.7371 19.676C23.7051 19.044 23.7521 18.421 23.7801 17.797C22.7341 17.094 20.9641 16.891 20.8781 15.335C21.0351 15.343 21.6801 15.278 21.7411 15.247C22.4591 15.627 23.2211 15.957 23.8391 16.505C23.6951 15.651 23.8941 14.8 23.8361 13.949Z" fill="#E4C194"/>
<path d="M245.851 10.536C245.945 10.538 246.133 10.541 246.227 10.541C246.547 11.085 246.573 11.709 246.57 12.325C246.938 11.909 247.209 11.421 247.557 10.992C247.701 10.959 247.848 10.94 247.997 10.934C248.009 11.093 248.022 11.255 248.034 11.418C247.899 11.613 247.771 11.816 247.639 12.016C247.461 12.434 247.041 12.639 246.698 12.897C246.682 13.173 246.792 14.251 246.814 14.504C247.38 13.697 247.932 12.881 248.553 12.115C248.627 12.264 248.699 12.421 248.765 12.577C248.365 13.033 248.228 13.664 247.778 14.083C247.412 14.455 247.182 14.927 246.834 15.312C246.807 16.401 246.864 17.495 246.786 18.585C246.721 19.016 246.715 19.455 246.676 19.892C247.391 19.141 248.225 18.516 248.941 17.769C248.852 17.583 248.752 17.409 248.65 17.237C248.47 16.736 248.614 16.216 248.637 15.706C248.781 15.639 248.924 15.572 249.068 15.507C249.258 15.92 249.336 16.372 249.49 16.8C249.503 16.901 249.529 17.105 249.54 17.207C250.148 16.605 250.698 15.911 251.45 15.484C251.37 15.597 251.498 15.873 251.621 15.851C251.221 16.331 250.796 16.79 250.334 17.214C250.416 17.3 251.486 17.317 251.788 17.657C251.627 17.794 251.451 17.913 251.272 18.03C251.065 17.993 249.921 17.974 249.589 18.116C248.706 18.772 247.923 19.549 247.257 20.426C248.528 20.396 250.756 20.71 250.756 20.71C251.244 20.636 251.792 20.744 252.221 20.447C252.234 20.37 252.7 19.625 252.943 19.404C253.335 19.093 253.634 18.679 254.055 18.401C254.103 18.483 254.201 18.645 254.248 18.725C253.698 19.34 253.361 20.133 252.629 20.581C252.938 20.554 253.249 20.53 253.558 20.496C253.956 20.063 254.48 19.775 254.939 19.414C255.23 19.088 255.297 19.644 255.418 19.821C255.088 20.112 254.694 20.328 254.395 20.658C254.941 20.659 255.486 20.646 256.03 20.697C255.773 21.214 255.046 21.079 254.571 21.263C254.84 21.516 255.133 21.746 255.439 21.957C255.427 22.07 255.418 22.187 255.411 22.306C255.256 22.238 255.1 22.172 254.943 22.114C254.577 21.873 254.201 21.644 253.905 21.319C253.514 21.359 253.122 21.399 252.731 21.451C253.103 21.836 253.56 22.127 253.914 22.533C253.896 22.704 253.881 22.876 253.869 23.053C253.267 22.802 252.776 22.357 252.252 21.984C252.06 21.862 251.956 21.672 251.921 21.456C250.301 21.689 248.661 21.562 247.032 21.636C247.756 22.531 248.609 23.317 249.407 24.145C250.03 23.86 250.736 24.032 251.397 23.998C251.416 24.102 251.456 24.309 251.476 24.413C250.997 24.859 250.309 24.709 249.716 24.77C250.199 25.311 250.721 25.833 251.076 26.472C250.251 26.457 249.82 25.644 249.235 25.183C249.214 25.657 249.242 26.134 249.21 26.611C249.063 26.875 248.788 26.873 248.642 26.609C248.649 25.933 248.678 25.256 248.649 24.58C248.33 24.292 248.025 23.988 247.734 23.673C247.385 23.322 247.032 22.977 246.71 22.604C246.599 23.847 246.471 25.086 246.41 26.336C246.866 27.055 247.476 27.666 247.932 28.389C248.067 28.594 248.2 28.801 248.345 29.003C248.3 29.162 248.251 29.324 248.198 29.486C248.095 29.48 247.889 29.468 247.785 29.461C247.311 29.017 246.893 28.516 246.514 27.989C246.539 28.468 246.532 28.948 246.548 29.428C246.835 29.701 247.147 29.963 247.343 30.315C247.557 30.782 247.906 31.208 247.921 31.746C247.756 31.808 247.535 31.982 247.404 31.758C247.064 31.424 246.81 31.015 246.47 30.68C246.436 30.867 246.403 31.056 246.372 31.248C246.24 31.349 246.109 31.455 245.978 31.559C245.942 31.47 245.605 31.207 245.529 31.21C245.492 30.825 245.474 30.442 245.476 30.058C244.972 30.697 244.653 31.491 244.027 32.029C243.801 31.767 243.667 31.478 243.902 31.173C244.014 30.929 244.124 30.687 244.263 30.463C244.609 29.972 244.948 29.449 245.48 29.142C245.486 28.518 245.414 27.896 245.41 27.274C245.175 27.616 244.991 27.989 244.811 28.364C244.592 28.789 244.309 29.179 244.077 29.598C243.909 29.597 243.741 29.592 243.575 29.588C243.736 29.059 244.043 28.592 244.275 28.096C244.404 27.837 244.535 27.582 244.653 27.32C244.864 26.937 245.148 26.601 245.365 26.225C245.386 24.957 245.341 23.688 245.423 22.424C244.858 22.92 244.29 23.414 243.726 23.912C243.928 24.514 243.97 25.306 243.491 25.788C243.057 25.489 243.381 24.813 243.269 24.363C242.893 24.555 242.568 24.833 242.325 25.18C242.077 25.262 241.817 25.293 241.557 25.309C241.883 24.847 242.258 24.422 242.642 24.007C242.146 23.965 241.652 24.001 241.159 24.043C241.117 23.97 241.033 23.826 240.99 23.753C241.708 23.45 242.512 23.497 243.275 23.389C243.847 22.82 244.308 22.152 244.87 21.576C243.465 21.637 242.058 21.592 240.652 21.6C240.453 22.269 240.092 22.872 239.659 23.416C239.478 23.391 239.298 23.366 239.118 23.342C239.216 22.698 239.574 22.152 239.894 21.602C239.705 21.58 239.518 21.56 239.331 21.544C239.062 21.493 238.79 21.467 238.518 21.449C238.288 21.877 237.956 22.234 237.674 22.628C237.628 22.583 237.537 22.496 237.491 22.451C237.509 22.053 237.695 21.702 237.94 21.402C237.591 21.237 236.998 21.293 236.86 20.868C237.083 20.758 237.322 20.687 237.553 20.597C237.748 20.594 237.944 20.594 238.142 20.595C237.888 20.311 237.628 20.035 237.351 19.775C237.332 19.716 237.294 19.597 237.275 19.537C237.329 19.433 237.606 19.421 237.694 19.379C238.06 19.697 238.44 20.006 238.721 20.409C238.819 20.562 239.035 20.494 239.186 20.543C239.448 20.491 239.714 20.461 239.978 20.421C239.468 19.928 238.872 19.537 238.376 19.028C238.379 18.842 238.381 18.658 238.384 18.477C239.378 18.926 240.26 19.607 240.969 20.436C242.164 20.436 243.361 20.421 244.556 20.421C244.002 19.807 243.458 19.189 242.818 18.66C242.396 18.647 241.993 18.514 241.578 18.45C241.34 18.322 241.065 18.346 240.807 18.334C240.681 18.191 240.556 18.052 240.433 17.913C241.032 17.631 241.692 17.999 242.307 18.081C241.86 17.585 241.472 17.042 241.186 16.437C241.249 16.372 241.312 16.311 241.376 16.251C242.022 16.511 242.449 17.079 242.96 17.525C243.208 17.069 242.753 16.444 243.193 16.11C243.324 16.126 243.452 16.156 243.578 16.202C243.45 16.788 243.639 17.401 243.416 17.975C244.101 18.676 244.815 19.348 245.498 20.051C245.705 18.423 245.844 16.783 245.782 15.14C245.513 14.954 243.924 13.474 243.436 12.89C243.564 12.817 243.693 12.747 243.823 12.679C244.519 13.229 245.107 13.896 245.792 14.457C245.808 13.934 245.798 13.414 245.804 12.892C245.712 12.858 245.527 12.791 245.435 12.757C244.921 12.426 244.461 11.995 244.187 11.442C244.181 11.275 244.177 11.11 244.171 10.95C244.308 10.896 244.444 10.843 244.583 10.792C245.048 11.024 245.282 11.508 245.631 11.87C245.681 11.42 245.758 10.976 245.851 10.536Z" fill="#1E5F3F"/>
<path d="M28.6852 109.024C29.1582 109.339 29.1692 109.891 29.2762 110.397C29.7992 110.104 30.3232 109.813 30.8502 109.524C30.9672 109.765 31.0622 110.027 31.0922 110.306C30.6972 110.925 30.1212 111.364 29.4752 111.697C29.4582 111.875 29.4272 112.226 29.4112 112.404C30.2182 111.925 30.8762 111.176 31.7922 110.908C32.0022 111.075 32.2632 111.439 31.9102 111.636C31.1232 112.377 30.3052 113.095 29.3612 113.635C29.3902 113.764 29.4492 114.021 29.4782 114.152C29.4932 114.37 29.5092 114.593 29.5232 114.824C29.9092 114.96 30.2922 115.124 30.6532 115.328C31.5722 115.708 32.5042 116.058 33.4132 116.47C34.7042 117.052 36.1712 117.157 37.4282 117.795C37.9482 117.319 38.5482 116.879 38.8712 116.237C38.9012 115.591 38.6702 114.968 38.3862 114.405C38.3892 114.196 38.3962 113.996 38.4052 113.801C38.6122 113.561 38.8112 113.32 39.0082 113.08C39.5092 113.761 39.6682 114.603 39.9202 115.397C40.4522 114.596 40.4892 113.584 40.6872 112.672C40.7312 112.797 40.8212 113.044 40.8652 113.167C40.9432 113.128 41.1002 113.047 41.1802 113.006C41.1792 113.335 41.1792 113.667 41.1812 114.005C41.3662 113.822 41.5532 113.643 41.7412 113.469C41.7822 113.542 41.8642 113.687 41.9082 113.76C42.1192 113.727 42.5442 113.661 42.7572 113.628C42.7852 113.89 42.8222 114.183 42.8562 114.458C42.7632 114.578 42.5752 114.819 42.4822 114.94C43.1492 114.914 43.6232 115.513 43.4162 116.154C42.7962 116.116 42.2192 115.879 41.6192 115.757C41.4172 115.971 41.2152 116.19 41.0112 116.411C41.1342 116.485 41.4832 117.112 41.3732 117.205C41.8402 117.503 42.1992 117.932 42.5402 118.367C42.5562 118.503 42.5902 118.777 42.6082 118.914C41.5842 118.754 40.8872 117.905 40.0362 117.389C39.4502 117.954 38.8582 118.517 38.3242 119.132C38.4392 119.418 38.5272 119.723 38.6352 120.02C38.7612 120.385 38.8712 120.757 38.9982 121.128C39.1112 121.561 39.2172 122 39.3432 122.435C39.4582 122.803 39.5742 123.174 39.7152 123.541C39.7972 123.843 39.8892 124.147 39.9792 124.458C40.1052 124.702 40.2082 124.964 40.3782 125.196C40.7222 125.246 41.0722 125.259 41.4212 125.301C41.7242 124.709 41.9432 124.071 42.3152 123.52C42.5112 123.105 43.1662 123.207 43.2902 123.632C43.3422 123.973 43.1792 124.293 43.0162 124.587C42.8672 124.891 42.7242 125.184 42.6062 125.511C43.3372 125.271 43.5712 124.403 44.2672 124.09C44.5732 123.866 44.9502 123.965 45.3002 123.987C45.3032 124.235 45.3082 124.487 45.3112 124.745C45.0562 124.95 44.8052 125.16 44.5542 125.376C44.8632 125.727 45.3442 125.69 45.7672 125.77C45.5892 126.21 45.1862 126.488 44.7252 126.57C45.1302 127.013 45.5172 127.481 45.7892 128.026C45.5492 128.191 45.2792 128.281 44.9862 128.292C44.3892 127.806 43.8472 127.265 43.3722 126.663C42.9672 126.7 42.5742 126.803 42.1762 126.87C42.8142 127.656 43.4952 128.435 44.3872 128.947C44.3212 129.079 44.1902 129.343 44.1242 129.475C43.9492 129.379 43.7752 129.291 43.6012 129.213C43.0872 128.854 42.7462 128.316 42.2412 127.956C41.6092 127.569 41.2572 126.752 40.4172 126.793C39.8752 127.229 39.7232 127.944 39.4362 128.55C38.8482 130.133 37.2792 133.368 37.1432 133.388C37.6932 134.117 38.4022 134.713 38.9662 135.438C39.8452 135.133 40.8202 135.169 41.7442 135.052C42.3722 134.913 42.8882 135.374 43.4352 135.603C43.3902 135.82 43.3392 136.041 43.2812 136.266C42.2692 136.413 41.2392 136.427 40.2382 136.652C40.4192 136.843 40.5942 137.045 40.7862 137.239C41.5472 136.776 42.4432 137.323 43.2752 137.207C43.2622 137.471 43.2532 137.742 43.2502 138.017C42.7252 138.168 42.1802 138.236 41.6372 138.181C42.1092 138.671 42.6872 139.182 42.5332 139.946C42.3892 139.938 42.0972 139.925 41.9512 139.919C41.7092 139.746 41.4672 139.577 41.2312 139.409C41.2172 139.548 41.1922 139.827 41.1782 139.964C41.0342 140.229 40.9292 140.514 40.8692 140.818C40.3212 140.201 40.5072 139.357 40.4482 138.611C40.2252 138.443 40.0042 138.28 39.7822 138.125C39.4772 138.831 39.5402 139.607 39.4502 140.358C39.2572 140.569 38.9832 140.62 38.7102 140.647C38.6392 140.492 38.4972 140.185 38.4262 140.032C38.4422 138.958 38.5352 137.891 38.5922 136.825C37.9182 136.369 37.4242 135.71 36.8712 135.129C36.5042 135.188 34.7782 135.287 34.7772 135.341C34.2352 135.525 31.9612 136.242 31.3902 136.483C31.2832 136.501 30.0152 136.837 29.5332 136.948C29.5072 137.323 29.4882 137.703 29.4702 138.09C29.6322 138.235 29.7932 138.384 29.9572 138.54C30.7172 139.145 31.4962 139.758 32.0932 140.533C32.1012 140.772 32.0932 141.015 32.0712 141.266C31.8352 141.259 31.5982 141.256 31.3652 141.258C30.7162 140.782 30.0342 140.355 29.3452 139.95C29.1752 140.86 30.0962 141.324 30.5362 141.975C30.6352 142.325 30.2462 142.232 30.0232 142.284C29.8102 142.087 29.5942 141.917 29.3742 141.741C29.1542 142.271 28.9522 142.918 28.3422 143.118C28.1172 142.761 27.9602 142.386 27.9272 141.971C27.8452 142.02 27.6822 142.118 27.5992 142.168C27.1162 142.446 26.6722 142.783 26.2152 143.101C26.1332 143.068 25.9292 142.68 25.6732 142.794C26.3642 142.043 26.9602 141.186 27.8252 140.617C27.8872 140.25 27.8782 139.881 27.9022 139.525C27.3922 139.853 26.8172 140.051 26.2512 140.268C25.8582 140.51 25.4412 140.536 25.0392 140.309C25.0552 140.024 25.0732 139.743 25.0912 139.468C25.4902 139.2 25.8982 138.948 26.3372 138.758C26.8182 138.521 27.3232 138.317 27.7582 137.999C27.8072 137.634 27.8042 137.267 27.8242 136.911C27.6052 136.862 27.3882 136.817 27.1712 136.775C26.4742 136.356 25.6332 136.373 24.8612 136.2C23.9422 136.077 23.0702 135.745 22.1972 135.454C22.1382 135.39 22.0202 135.267 21.9642 135.204C21.2472 135.962 20.6462 136.828 19.8822 137.542C20.2362 138.837 20.2922 140.209 20.2392 141.545C20.1692 141.457 19.7282 141.326 19.6552 141.37C19.5482 141.063 19.4482 140.766 19.3672 140.46C19.1392 139.777 19.0122 139.068 19.1232 138.353C18.8122 138.602 18.5002 138.851 18.1872 139.1C18.2362 140.016 18.7102 141.218 17.9352 141.932C17.4122 141.394 17.3852 140.628 17.1102 139.975C16.4662 140.352 15.8452 140.859 15.0592 140.864C15.4742 140.261 15.9172 139.681 16.3572 139.102C15.6762 139.104 14.9932 139.117 14.3202 138.999C14.5052 138.734 14.6512 138.439 14.8942 138.227C15.3982 138.144 15.9102 138.238 16.4172 138.282C16.9222 138.862 17.3502 138.012 17.7232 137.726C17.0712 137.374 16.3192 137.166 15.7802 136.642C15.6142 136.045 16.3302 135.612 16.7712 136.066C17.3432 136.338 17.9372 136.567 18.5142 136.835C19.2462 135.932 20.0052 135.04 20.8782 134.268C20.6182 133.801 20.3152 133.353 20.1452 132.846C19.7062 131.413 18.9402 130.116 18.3112 128.765C18.1792 128.43 18.0502 128.096 17.9312 127.766C17.1202 127.873 16.3032 127.89 15.4902 127.945C14.7822 128.475 14.4072 129.334 13.8462 130.009C13.5952 130.41 13.3132 130.79 13.0302 131.175C12.8652 131.163 12.5392 131.14 12.3762 131.129C12.4072 130.999 12.4712 130.743 12.5022 130.613C12.8912 129.692 13.4502 128.865 13.9452 128.004C13.7672 127.99 13.4132 127.965 13.2382 127.951C12.9002 128.472 12.5112 128.956 12.0602 129.387C11.9592 129.338 11.3622 129.175 11.4142 129.019C11.5952 128.706 11.7852 128.401 11.9852 128.106C11.2722 128.115 10.5312 128.012 10.0332 127.45C10.3362 126.97 10.8392 126.764 11.3822 126.709C10.9532 126.461 10.7592 126.006 10.7952 125.524C10.9842 125.449 11.1742 125.378 11.3652 125.311C11.7312 125.72 12.1522 126.077 12.5922 126.412C12.7332 126.424 13.0162 126.447 13.1582 126.457C12.9682 126.054 12.8002 125.644 12.6142 125.244C12.5642 124.983 12.4972 124.723 12.4582 124.473C12.5802 124.224 12.7832 124.024 12.9542 123.819C13.8502 124.307 14.1782 125.308 14.7292 126.099C15.6732 126.31 16.6542 126.03 17.6132 126.083C17.9422 125.344 18.2582 124.6 18.6072 123.872C18.6782 123.652 19.0122 122.808 19.1012 122.602C19.1792 122.376 19.6772 121.119 19.7582 120.9C19.9742 120.477 20.1622 120.04 20.3932 119.629C20.4102 119.518 20.4422 119.3 20.4572 119.191C20.1842 118.921 19.9342 118.625 19.6052 118.43C18.5922 118.635 17.5582 118.464 16.5392 118.617C16.1992 118.647 15.8812 118.483 15.5612 118.402C15.5612 118.258 15.5562 117.969 15.5532 117.825C16.4502 117.581 17.3452 117.32 18.2712 117.207C18.0722 117.028 17.8712 116.861 17.6692 116.701C17.0732 116.318 16.2472 117.02 15.7542 116.424C16.1392 116.28 16.5332 116.158 16.9312 116.056C16.3962 115.461 16.0012 114.728 16.2762 113.919C16.8362 113.917 17.3182 114.194 17.8102 114.431C17.8322 114.312 18.3972 113.347 18.7082 113.106C18.7642 113.856 18.7602 114.612 18.7252 115.368C18.9032 115.568 19.0772 115.773 19.2492 115.99C19.3722 115.53 19.5372 115.087 19.6692 114.636C19.8752 114.045 20.3852 113.854 20.9672 114.032C20.9222 115.082 20.4072 116.035 20.2962 117.077C20.7442 117.529 21.2332 117.936 21.7132 118.357C23.3642 117.461 25.0022 116.534 26.5902 115.53C27.0472 115.22 28.1102 114.443 28.2272 114.467C28.2402 114.272 28.2672 113.884 28.2782 113.691C27.4662 113.016 26.6542 112.343 25.8932 111.615C25.5912 111.438 25.6122 111.108 25.6052 110.813C25.8852 110.82 26.1642 110.834 26.4452 110.852C27.0372 111.26 27.4732 111.849 28.0542 112.276C28.0212 112.052 27.9892 111.831 27.9562 111.618C27.3522 111.297 26.9092 110.766 26.4042 110.326C26.8562 109.798 27.4512 110.394 27.9532 110.533C27.8762 110.079 27.8762 109.62 28.0092 109.182C28.2462 109.333 28.4802 109.493 28.7142 109.659C28.7052 109.494 28.6912 109.182 28.6852 109.024ZM27.6282 116.159C26.0922 117.352 24.3002 118.146 22.6512 119.165C23.3212 119.845 24.0222 120.498 24.7212 121.15C24.7212 121.15 27.2602 118.642 28.0552 118.38C28.1162 117.531 28.0802 116.663 28.3252 115.842C28.0642 115.876 27.8272 115.983 27.6282 116.159ZM29.6162 115.945C29.8452 116.914 29.7302 117.909 29.8502 118.893C30.1462 118.871 34.1352 120.731 34.1332 120.845C34.8602 120.223 35.5602 119.572 36.2782 118.941C35.2452 118.447 34.1502 118.092 33.1142 117.604C32.4162 117.269 31.7152 116.945 31.0052 116.64C30.5562 116.38 30.0772 116.178 29.6162 115.945ZM25.5802 122.045C26.3822 122.825 27.1972 123.591 27.9652 124.405C28.0422 122.835 28.4902 121.27 28.1362 119.702C27.4702 120.687 26.3042 121.126 25.5802 122.045ZM29.8692 119.779C29.8332 120.485 29.7622 121.194 29.7582 121.908C29.5792 123.125 29.6292 124.359 29.6232 125.591C30.9422 124.058 32.3632 122.617 33.8742 121.276C33.2852 121.1 32.7002 120.905 32.0972 120.793C31.6102 120.574 31.1052 120.405 30.6222 120.188C30.3662 120.057 30.1132 119.92 29.8692 119.779ZM35.2212 122.1C35.3902 122.956 35.7122 124.363 36.0712 125.161C36.2362 125.394 38.1112 125.323 38.8932 125.32C38.6842 124.684 38.4502 124.059 38.2192 123.436C38.0822 123 37.9502 122.566 37.7622 122.157C37.6632 121.852 37.5712 121.548 37.4912 121.244C37.4392 121.133 37.3352 120.912 37.2822 120.801C37.2362 120.659 37.1432 120.373 37.0952 120.231C36.5672 120.947 35.8322 121.463 35.2212 122.1ZM21.4712 120.293C20.8922 121.881 20.2412 123.439 19.5252 124.97C19.3952 125.32 19.2342 125.655 19.0982 126.007C19.8352 126.107 20.5872 126.204 21.3332 126.111C21.6562 125.66 23.1312 122.756 23.4232 122.422C22.8682 121.626 22.1632 120.961 21.4712 120.293ZM32.0702 125.399C32.9632 125.521 33.8802 125.485 34.7692 125.338C34.4272 124.688 34.2312 123.977 34.1432 123.253C33.4292 123.946 32.7692 124.692 32.0702 125.399ZM23.2542 125.006C23.0362 125.347 22.8122 125.691 22.5942 126.038C24.0912 126.033 25.5762 125.855 27.0602 125.688C26.0402 124.805 25.0712 123.871 24.1202 122.919C23.7282 123.567 23.5102 124.298 23.2542 125.006ZM35.9112 127.126C36.0442 128.376 34.7772 131.234 34.7772 131.234C35.3652 131.832 36.0132 132.368 36.6242 132.946C37.2622 130.905 37.8682 128.838 38.7902 126.901C37.8282 126.973 36.8682 127.008 35.9112 127.126ZM31.0432 127.277C32.0022 128.285 32.8652 129.411 34.0212 130.214C33.9762 129.798 33.9802 127.764 34.1902 127.179C33.1432 127.274 32.0942 127.352 31.0432 127.277ZM23.1772 127.676C23.7522 128.727 24.2852 129.802 24.8142 130.878C24.6572 130.268 27.5982 127.586 27.6082 127.422C27.4472 127.458 27.1282 127.528 26.9692 127.562C25.7032 127.624 24.4362 127.5 23.1772 127.676ZM19.0562 127.68C19.7592 129.096 20.5022 130.495 21.1512 131.94C21.3482 132.416 21.5222 132.902 21.6732 133.402C22.3742 132.809 22.9822 132.12 23.6222 131.47C22.9892 130.573 22.5712 129.56 22.0972 128.582C22.0012 128.271 21.9072 127.953 21.8382 127.646C20.9122 127.704 19.9822 127.703 19.0562 127.68ZM29.5352 128.099C29.3472 129.352 29.4882 130.618 29.4012 131.881C29.6542 131.788 29.9102 131.712 30.1702 131.647C30.3852 131.577 30.5992 131.519 30.8202 131.467C31.4602 131.305 32.1122 131.162 32.7782 131.193C31.6672 130.189 30.6792 129.064 29.5352 128.099ZM25.9772 131.623C26.6242 131.753 27.2462 131.978 27.8922 132.129C27.8532 132.021 27.7752 131.808 27.7382 131.7C27.7602 131.057 27.7512 130.413 27.7962 129.776C27.1402 130.337 26.5252 130.952 25.9772 131.623ZM29.5032 133.252C29.4972 133.958 29.4702 134.665 29.4762 135.378C30.4522 135.149 31.3902 134.783 32.3742 134.581C33.1712 134.349 33.9842 134.178 34.7882 133.972C34.9622 133.95 35.3112 133.903 35.4842 133.88C34.8492 133.239 34.2092 132.601 33.5872 131.95C32.2962 132.569 30.8882 132.902 29.5032 133.252ZM25.0712 132.519C24.6142 132.639 24.2162 132.901 23.9402 133.288C23.6212 133.561 23.3102 133.849 23.0272 134.162C24.5962 134.557 26.1502 135.008 27.7242 135.384C27.7312 134.771 27.7612 134.163 27.7982 133.558C26.9102 133.158 26.0232 132.739 25.0712 132.519Z" fill="#2D504D"/>
<path d="M213.472 21.284C213.55 21.285 213.707 21.288 213.785 21.288C214.051 21.74 214.073 22.259 214.071 22.771C214.378 22.425 214.602 22.02 214.891 21.663C215.011 21.636 215.133 21.62 215.257 21.615C215.267 21.747 215.278 21.882 215.288 22.018C215.175 22.18 215.069 22.349 214.959 22.515C214.811 22.862 214.462 23.033 214.177 23.248C214.163 23.478 214.255 24.374 214.273 24.584C214.744 23.913 215.202 23.235 215.719 22.598C215.781 22.722 215.84 22.853 215.896 22.982C215.564 23.361 215.45 23.885 215.075 24.234C214.771 24.543 214.58 24.936 214.29 25.256C214.268 26.162 214.315 27.071 214.25 27.977C214.196 28.335 214.191 28.7 214.159 29.063C214.753 28.439 215.447 27.919 216.042 27.298C215.968 27.144 215.885 26.999 215.8 26.856C215.65 26.439 215.77 26.007 215.789 25.583C215.909 25.527 216.027 25.472 216.147 25.417C216.305 25.761 216.369 26.136 216.498 26.492C216.509 26.576 216.53 26.745 216.54 26.831C217.045 26.331 217.503 25.753 218.128 25.399C218.061 25.493 218.168 25.723 218.27 25.704C217.938 26.103 217.584 26.485 217.2 26.837C217.268 26.909 218.158 26.922 218.409 27.205C218.276 27.319 218.128 27.418 217.98 27.515C217.808 27.484 216.857 27.468 216.581 27.587C215.847 28.132 215.196 28.778 214.642 29.507C215.699 29.482 217.551 29.743 217.551 29.743C217.956 29.681 218.412 29.771 218.769 29.524C218.78 29.46 219.167 28.841 219.37 28.657C219.696 28.399 219.945 28.054 220.294 27.823C220.334 27.891 220.415 28.026 220.455 28.092C219.998 28.604 219.717 29.262 219.109 29.635C219.366 29.613 219.624 29.593 219.881 29.565C220.212 29.205 220.647 28.966 221.029 28.665C221.271 28.394 221.327 28.857 221.427 29.004C221.153 29.246 220.825 29.425 220.577 29.7C221.031 29.701 221.484 29.69 221.936 29.732C221.722 30.162 221.118 30.05 220.722 30.203C220.946 30.413 221.189 30.605 221.444 30.78C221.434 30.874 221.427 30.972 221.421 31.07C221.293 31.013 221.163 30.959 221.032 30.911C220.728 30.711 220.415 30.521 220.169 30.25C219.844 30.283 219.518 30.317 219.193 30.36C219.502 30.68 219.883 30.922 220.177 31.26C220.162 31.402 220.15 31.545 220.14 31.692C219.639 31.483 219.232 31.114 218.796 30.803C218.637 30.702 218.55 30.544 218.52 30.364C217.173 30.558 215.81 30.452 214.456 30.513C215.058 31.257 215.767 31.911 216.431 32.599C216.949 32.362 217.536 32.505 218.086 32.477C218.102 32.564 218.135 32.735 218.152 32.822C217.754 33.193 217.182 33.068 216.689 33.119C217.091 33.569 217.524 34.002 217.82 34.534C217.134 34.522 216.776 33.846 216.289 33.463C216.272 33.857 216.295 34.254 216.268 34.651C216.146 34.871 215.917 34.868 215.796 34.65C215.802 34.088 215.826 33.525 215.802 32.963C215.536 32.723 215.283 32.471 215.041 32.209C214.751 31.917 214.458 31.631 214.19 31.321C214.097 32.354 213.991 33.385 213.94 34.424C214.319 35.022 214.826 35.53 215.205 36.131C215.317 36.302 215.427 36.473 215.549 36.641C215.512 36.773 215.471 36.908 215.427 37.043C215.342 37.038 215.17 37.028 215.083 37.022C214.689 36.653 214.342 36.236 214.026 35.799C214.047 36.197 214.041 36.596 214.054 36.995C214.292 37.222 214.552 37.44 214.715 37.733C214.893 38.121 215.183 38.476 215.196 38.923C215.059 38.975 214.875 39.119 214.766 38.933C214.483 38.655 214.272 38.315 213.99 38.037C213.962 38.193 213.934 38.35 213.909 38.509C213.799 38.593 213.69 38.681 213.582 38.767C213.552 38.693 213.272 38.474 213.209 38.477C213.178 38.157 213.163 37.838 213.164 37.519C212.745 38.05 212.48 38.71 211.959 39.158C211.771 38.941 211.66 38.7 211.855 38.446C211.948 38.243 212.039 38.042 212.155 37.855C212.443 37.447 212.725 37.012 213.167 36.756C213.172 36.237 213.113 35.72 213.109 35.203C212.914 35.487 212.76 35.797 212.611 36.109C212.429 36.462 212.193 36.786 212 37.135C211.86 37.134 211.721 37.13 211.582 37.126C211.715 36.686 211.971 36.298 212.164 35.885C212.272 35.67 212.38 35.457 212.478 35.24C212.653 34.921 212.889 34.642 213.07 34.329C213.087 33.275 213.05 32.22 213.118 31.169C212.648 31.582 212.176 31.992 211.707 32.406C211.875 32.906 211.91 33.565 211.512 33.965C211.151 33.717 211.421 33.154 211.328 32.78C211.015 32.939 210.745 33.171 210.543 33.46C210.337 33.528 210.12 33.554 209.904 33.567C210.175 33.183 210.487 32.829 210.806 32.484C210.393 32.449 209.983 32.479 209.573 32.514C209.538 32.453 209.468 32.333 209.432 32.273C210.029 32.021 210.697 32.061 211.331 31.97C211.807 31.497 212.19 30.942 212.657 30.462C211.489 30.513 210.319 30.476 209.15 30.482C208.985 31.038 208.684 31.54 208.325 31.992C208.174 31.971 208.025 31.95 207.875 31.93C207.956 31.395 208.254 30.94 208.52 30.483C208.363 30.464 208.207 30.448 208.052 30.435C207.828 30.393 207.602 30.371 207.376 30.356C207.184 30.712 206.909 31.008 206.674 31.336C206.636 31.299 206.56 31.226 206.522 31.189C206.537 30.858 206.691 30.566 206.895 30.316C206.605 30.179 206.112 30.226 205.997 29.872C206.182 29.781 206.381 29.721 206.573 29.647C206.735 29.644 206.898 29.644 207.062 29.646C206.851 29.41 206.635 29.18 206.405 28.964C206.389 28.915 206.358 28.816 206.342 28.766C206.387 28.679 206.618 28.67 206.691 28.635C206.995 28.899 207.311 29.156 207.545 29.491C207.626 29.618 207.806 29.561 207.932 29.602C208.149 29.559 208.371 29.534 208.591 29.501C208.167 29.091 207.672 28.766 207.259 28.343C207.261 28.188 207.263 28.035 207.265 27.885C208.092 28.258 208.824 28.824 209.414 29.514C210.408 29.514 211.402 29.502 212.396 29.502C211.935 28.992 211.483 28.478 210.952 28.038C210.601 28.027 210.266 27.917 209.921 27.864C209.723 27.758 209.495 27.777 209.28 27.768C209.175 27.649 209.071 27.533 208.969 27.418C209.467 27.183 210.016 27.49 210.527 27.558C210.155 27.145 209.833 26.694 209.595 26.191C209.647 26.137 209.7 26.086 209.753 26.037C210.29 26.253 210.645 26.725 211.07 27.096C211.276 26.717 210.898 26.198 211.264 25.92C211.373 25.934 211.479 25.958 211.584 25.997C211.478 26.484 211.635 26.994 211.449 27.471C212.019 28.054 212.612 28.613 213.18 29.197C213.352 27.844 213.468 26.48 213.416 25.114C213.192 24.96 211.871 23.729 211.466 23.243C211.572 23.182 211.68 23.124 211.787 23.067C212.365 23.524 212.855 24.079 213.424 24.545C213.438 24.11 213.429 23.677 213.434 23.244C213.357 23.216 213.204 23.16 213.127 23.132C212.699 22.856 212.318 22.498 212.089 22.038C212.084 21.899 212.08 21.762 212.075 21.629C212.189 21.585 212.302 21.54 212.417 21.498C212.804 21.691 212.998 22.094 213.288 22.394C213.331 22.019 213.395 21.649 213.472 21.284Z" fill="#EAB293"/>
<path d="M257.182 85.221C257.727 84.902 257.949 85.645 258.101 86.035C258.701 88.023 258.948 90.331 260.59 91.791C260.989 92.044 260.948 92.511 260.953 92.927C260.799 92.946 260.488 92.985 260.334 93.004C259.16 94.258 258.912 96.007 258.579 97.622C258.439 98.186 258.428 98.769 258.4 99.344C258.13 99.495 257.869 99.649 257.611 99.8C257.141 98.29 256.888 96.698 255.917 95.394C255.4 94.613 254.787 93.895 254.308 93.089C254.732 92.091 255.664 91.444 256.217 90.526C256.853 88.827 257.007 87.012 257.182 85.221Z" fill="#CEC7CC"/>
<path d="M161.845 16.81C162.412 16.933 162.705 17.434 162.773 17.979C162.946 19.209 163.921 20.063 164.378 21.17C164.107 21.381 163.866 21.608 163.688 21.896C163.603 22.014 163.439 22.249 163.357 22.37C163.042 22.83 162.807 23.345 162.886 23.92L162.609 23.983C162.653 24.388 162.702 24.796 162.762 25.205C162.576 25.345 162.206 25.619 162.02 25.758C161.502 24.769 161.415 23.591 161.05 22.532C160.905 22.477 160.617 22.365 160.472 22.31C160.308 22.206 159.976 21.998 159.812 21.894C160.176 21.242 160.834 20.782 161.053 20.048C161.566 19.023 161.347 17.834 161.845 16.81Z" fill="#CEC7CC"/>
<path d="M254.179 40.41C254.427 40.406 254.918 40.398 255.165 40.395C256.078 41.335 256.681 42.542 257.687 43.397C259.087 43.126 260.468 42.573 261.923 42.724C262.53 42.596 262.565 43.304 262.755 43.683C261.749 44.333 260.786 45.048 259.881 45.83C260.423 46.948 261.045 48.031 261.633 49.133C261.846 49.632 261.861 50.177 261.919 50.715C261.66 50.742 261.145 50.792 260.886 50.819C260.058 49.504 258.6 48.9 257.292 48.196C255.969 49.167 254.797 50.366 253.196 50.88C253.049 50.613 252.755 50.079 252.608 49.812C252.778 49.197 252.937 48.582 253.095 47.963C253.35 47.456 253.35 46.892 253.404 46.342C252.267 45.866 251.083 45.398 250.259 44.45C251.172 43.568 252.522 43.963 253.671 43.881C253.943 42.743 254.218 41.598 254.179 40.41Z" fill="#EB4B2E"/>
<path d="M14.2921 61.032C15.0121 60.664 15.9221 60.245 16.7171 60.633C17.8831 60.831 18.7981 61.817 19.0981 62.935C19.0901 63.277 19.0851 63.618 19.0741 63.962C18.8941 64.478 18.9651 65.146 18.4591 65.487C17.4841 66.105 16.2431 66.517 15.1141 66.092C14.4621 65.709 14.1131 65.005 13.7401 64.381C13.6511 63.261 13.4861 61.945 14.2921 61.032Z" fill="#EB4B2E"/>
<path d="M97.1822 139.599C97.7022 138.845 98.6872 138.721 99.5252 138.899C99.9742 139.018 100.238 139.418 100.445 139.804C100.452 139.98 100.463 140.155 100.476 140.331C101.51 141.545 100.174 143.72 98.6272 143.298C97.7622 143.095 97.3262 142.273 96.9822 141.536C96.9592 141.084 96.9561 140.632 96.9911 140.181C97.0741 139.993 97.1362 139.8 97.1822 139.599Z" fill="#2D504D"/>
<path d="M185.765 9.53899C185.905 8.64299 186.381 7.76999 187.206 7.34199C187.852 7.32799 188.252 7.88999 188.603 8.35499C189.06 9.46199 187.77 10.875 186.628 10.461C186.239 10.341 186.017 9.95399 185.735 9.70199L186.365 9.61199C186.215 9.59399 185.916 9.55799 185.765 9.53899Z" fill="#A24F2C"/>
<path d="M73.345 114.797C73.52 114.927 73.871 115.188 74.047 115.319C74.483 117.064 74.517 118.881 75.083 120.6C75.107 120.403 75.152 120.014 75.173 119.82C75.92 120.671 76.081 121.866 76.662 122.829C77.049 123.692 77.933 124.285 78.087 125.259C77.212 126.07 76.162 126.777 75.661 127.901C74.893 128.361 74.52 129.163 74.072 129.9C73.939 130.298 73.769 130.687 73.581 131.069C73.334 131.882 72.986 132.66 72.656 133.445C72.497 133.718 72.016 134.586 71.779 133.912C71.414 133.791 71.316 133.417 71.222 133.092C71.068 132.269 70.892 131.451 70.845 130.616C70.61 129.656 70.466 128.674 70.16 127.733C69.672 126.282 68.458 125.255 68.009 123.79C69.206 123.301 69.866 122.142 70.617 121.16C71.428 119.908 71.826 118.454 72.533 117.148C72.863 116.671 73.398 116.185 73.13 115.55L73.365 115.654C73.362 115.437 73.352 115.01 73.345 114.797Z" fill="#EAB293"/>
<path d="M49.3522 13.279C49.7812 13.346 50.2752 13.494 50.5172 13.891C50.7422 14.358 51.3792 14.584 51.3552 15.171C51.4392 15.559 51.0642 15.743 50.8612 16.001C50.5922 16.273 50.4152 16.666 50.0312 16.798C49.6412 16.852 49.2702 16.696 48.8902 16.638C48.1972 16.469 47.8852 15.781 47.5922 15.205C47.4742 14.985 47.4842 14.733 47.4722 14.5C47.9492 13.879 48.6742 13.607 49.3522 13.279Z" fill="#A24F2C"/>
<path d="M25.9111 83.166C26.0981 83.213 26.4691 83.306 26.6561 83.353C27.1531 84.243 27.3631 85.272 27.9471 86.118C29.0541 86.196 30.2041 86.059 31.2671 86.465C31.7491 86.491 31.6331 87.031 31.6991 87.354C30.8121 87.64 29.9441 87.984 29.1061 88.389C29.2881 89.338 29.5381 90.278 29.7581 91.225C29.8171 91.643 29.7191 92.056 29.6541 92.472C29.4541 92.44 29.0571 92.374 28.8571 92.342C28.5001 91.187 27.5251 90.439 26.6841 89.646C25.4941 90.11 24.3711 90.775 23.0641 90.839C23.0071 90.609 22.8941 90.148 22.8371 89.918C23.0891 89.49 23.3321 89.06 23.5761 88.626C23.8701 88.297 23.9841 87.872 24.1351 87.47C23.3761 86.883 22.5801 86.293 22.1521 85.415C23.0161 84.936 23.9511 85.504 24.8311 85.675C25.2641 84.872 25.7011 84.067 25.9111 83.166Z" fill="#CEC7CC"/>
<path d="M246.385 68.386C246.767 68.446 247.207 68.578 247.423 68.932C247.624 69.348 248.191 69.549 248.17 70.072C248.244 70.418 247.911 70.582 247.73 70.812C247.49 71.054 247.332 71.404 246.99 71.522C246.643 71.57 246.311 71.432 245.974 71.38C245.357 71.23 245.079 70.616 244.818 70.103C244.713 69.907 244.722 69.683 244.711 69.475C245.134 68.921 245.781 68.678 246.385 68.386Z" fill="#A24F2C"/>
<path d="M213.912 139.664C214.258 139.718 214.657 139.838 214.852 140.158C215.034 140.535 215.548 140.717 215.528 141.191C215.596 141.504 215.293 141.653 215.129 141.861C214.912 142.08 214.769 142.397 214.459 142.505C214.144 142.548 213.844 142.423 213.538 142.376C212.979 142.24 212.727 141.684 212.491 141.219C212.396 141.042 212.404 140.838 212.395 140.65C212.779 140.148 213.365 139.929 213.912 139.664Z" fill="#967346"/>
</g>
<defs>
<clipPath id="clip0_20_250">
<rect width="272.693" height="155.906" fill="white"/>
</clipPath>
</defs>
</svg>
