<svg width="150" height="130" viewBox="0 0 150 130" fill="none" xmlns="http://www.w3.org/2000/svg">
<path d="M101.943 52.2885C101.683 52.3585 97.923 53.4285 96.323 51.4685C94.703 49.4885 97.743 42.0485 97.893 41.6785C97.673 41.8385 94.383 44.1485 92.033 41.6685C89.593 39.1085 92.033 32.1185 92.033 32.1185C92.033 32.1185 85.343 33.5685 83.313 32.0185C80.243 29.6685 81.603 24.8285 81.683 24.5285C81.423 24.6585 77.353 26.8185 74.603 25.8885C71.763 24.9285 72.373 17.0285 72.373 17.0285C72.373 17.0285 69.243 22.0785 63.663 21.8785C58.083 21.6685 52.523 18.2385 52.523 18.2385C52.523 18.2385 52.723 28.3685 44.013 25.8885C44.013 25.8885 45.213 37.2885 36.913 35.2585C36.913 35.2585 41.373 45.3385 34.433 46.1985C34.433 46.1985 38.103 54.8885 31.653 57.3585C31.653 57.3585 34.493 62.3885 34.183 66.4585C33.813 71.2585 30.983 75.7785 30.643 76.1885C30.633 76.1885 30.623 76.1885 30.623 76.1885C30.603 76.2285 30.613 76.2285 30.643 76.1885C31.093 76.2885 38.863 78.0285 36.073 85.3085C36.073 85.3085 45.213 88.5485 41.983 95.0285C41.983 95.0285 49.073 93.6085 50.293 97.8685C50.293 97.8685 53.393 94.4985 55.753 94.6185C59.713 94.8185 63.253 97.8685 63.253 97.8685C63.253 97.8685 66.293 93.0085 71.363 93.0085C76.423 93.0085 81.083 97.8685 81.083 97.8685C81.083 97.8685 82.503 88.9485 90.203 87.1285C90.203 87.1285 86.153 81.0485 96.283 75.7785C96.283 75.7785 91.623 69.4285 101.953 63.9985C101.953 63.9985 98.313 58.9785 101.943 52.2885ZM118.523 46.9085C118.523 46.9085 123.783 56.1485 122.563 62.2285C121.353 68.3085 117.173 66.8185 117.173 66.8185C117.173 66.8185 122.563 79.7385 118.523 88.3985C115.463 94.9385 111.263 91.0385 111.263 91.0385C111.263 91.0385 110.773 102.069 105.453 107.699C100.133 113.319 93.843 109.059 93.843 109.059C93.843 109.059 93.143 113.519 86.913 116.709C80.683 119.899 75.333 115.289 75.333 115.289C75.333 115.289 72.873 119.779 64.793 119.789C58.043 119.789 52.013 113.739 52.013 113.739C52.013 113.739 49.683 118.029 43.143 117.119C36.613 116.209 31.753 108.459 31.753 108.459C31.753 108.459 30.343 111.479 27.193 110.279C22.783 108.609 22.173 101.309 22.173 101.309C22.173 101.309 18.223 104.199 15.183 100.249C11.313 95.2185 14.423 83.5285 14.423 83.5285C14.423 83.5285 13.513 85.6585 10.323 83.5285C7.13298 81.4085 10.803 69.1385 10.803 69.1385C10.803 69.1385 6.86298 68.9385 6.83298 65.7585C6.76298 58.4585 13.063 50.0985 13.063 50.0985C13.063 50.0985 8.16299 51.7285 8.95299 47.0585C10.023 40.8285 18.073 37.1885 18.073 37.1885C18.073 37.1885 13.903 36.4685 14.123 34.4485C14.583 30.2885 22.483 27.4585 22.483 27.4585C22.483 27.4585 18.103 26.6085 19.893 23.9685C23.393 18.7985 31.443 17.4285 31.443 17.4285C31.443 17.4285 26.733 16.3285 28.713 14.0885C32.053 10.3085 43.603 10.3085 43.603 10.3085C43.603 10.3085 39.873 8.33853 43.903 6.02853C51.353 1.77853 63.203 8.91853 63.203 8.91853C69.433 5.42853 79.313 5.87853 83.413 6.94853C87.523 8.00853 80.833 11.3085 80.833 11.3085C85.693 10.7985 102.873 12.1085 103.173 15.1485C103.473 18.1885 99.073 18.1885 99.073 18.1885C99.073 18.1885 109.703 19.8585 112.293 25.8885C113.583 28.8985 109.103 29.2785 109.103 29.2785C116.393 31.2585 122.753 40.9885 121.633 45.3385C120.973 47.9185 118.523 46.9085 118.523 46.9085Z" fill="#255E27"/>
<path d="M121.633 45.3385C121.853 44.4785 121.783 43.4185 121.463 42.2485C123.073 43.3885 123.683 45.0485 122.853 47.4385C121.783 48.3185 120.593 48.8685 119.613 49.0385H119.603C118.983 47.7285 118.523 46.9085 118.523 46.9085C118.523 46.9085 120.973 47.9185 121.633 45.3385Z" fill="#7F2C2C"/>
<path d="M101.953 63.9985C95.803 67.2285 94.963 70.7985 95.293 73.1385C95.273 73.1085 95.253 73.0785 95.233 73.0485C91.233 66.6685 98.813 60.1285 99.203 59.8085V59.7985C99.873 59.5985 100.323 59.5185 100.403 59.5085C100.703 62.2785 101.953 63.9985 101.953 63.9985Z" fill="#7F2C2C"/>
<path d="M36.793 77.1685C37.303 78.1285 36.993 79.0185 36.093 79.9085C35.333 78.4085 33.923 77.4685 32.723 76.9085C32.943 76.8785 34.833 76.6785 36.793 77.1685Z" fill="#7F2C2C"/>
<path d="M4.943 70.6185C4.333 69.2885 4.07301 67.5885 4.60301 65.4485C5.00301 63.7985 6.01301 62.3885 7.51301 61.0985C7.08301 62.6385 6.813 64.2185 6.833 65.7585C6.863 68.9385 10.803 69.1385 10.803 69.1385C10.803 69.1385 10.033 71.7185 9.503 74.7285C9.503 74.7285 6.33301 73.6385 4.95301 70.6385C4.95301 70.6285 4.943 70.6285 4.943 70.6185Z" fill="#7F2C2C"/>
<path d="M13.303 90.8685C22.073 86.0085 32.863 83.0385 36.093 79.9085C36.993 79.0185 37.303 78.1285 36.793 77.1685C39.373 77.8185 42.073 79.6885 41.173 84.7985C39.893 92.0485 15.033 96.2985 9.413 109.369C3.793 122.439 14.883 128.969 14.883 128.969C14.883 128.969 10.483 130.189 7.82301 128.969C5.15301 127.759 -4.117 115.449 2.113 101.309C4.023 96.9785 8.343 93.6185 13.303 90.8685Z" fill="#D14B4B"/>
<path d="M99.203 59.8085C98.813 60.1285 91.233 66.6685 95.233 73.0485C95.253 73.0785 95.273 73.1085 95.293 73.1385C98.613 78.1985 109.363 76.3785 119.183 73.4885C121.783 72.7185 124.313 71.8785 126.623 71.0685C138.343 66.9685 144.533 68.0985 145.613 68.8385C150.083 71.8985 149.863 78.7185 149.863 78.7185C143.593 70.9685 136.753 78.3685 120.033 85.0485C103.323 91.7385 86.613 86.8785 88.133 73.9585C89.333 63.7185 96.343 60.6285 99.203 59.7985V59.8085Z" fill="#D14B4B"/>
<path d="M121.463 42.2485C117.473 39.3885 107.363 39.6385 97.883 39.6985C92.923 39.7385 88.133 39.7085 84.483 39.1585C72.143 37.2985 64.645 23.9255 62.303 17.9385C61.635 16.2305 62.343 15.4625 62.303 15.3185C62.583 15.7985 69.503 27.4685 86.913 27.9185C104.693 28.3685 116.323 26.9285 122.753 34.2985C127.883 40.1885 125.783 45.0185 122.853 47.4385C123.683 45.0485 123.073 43.3885 121.463 42.2485Z" fill="#D14B4B"/>
<path d="M35.703 34.5485C58.733 25.7985 62.043 16.1285 62.283 15.3485C62.232 15.5725 63.944 15.3985 63.451 16.9675C61.896 21.9205 55.912 33.3385 47.703 39.6185C43.483 42.8485 39.153 45.4585 34.923 47.6585C23.343 53.7085 12.613 56.6985 7.51298 61.0985C6.01298 62.3885 5.00298 63.7985 4.60298 65.4485C4.07298 67.5885 4.33297 69.2885 4.94297 70.6185C-4.18703 56.3185 9.51298 44.4985 35.703 34.5485Z" fill="#D14B4B"/>
<path d="M61.007 17.3245C63.481 14.7915 53.308 -0.100489 49.053 0.000511339C44.798 0.101511 45.589 5.87651 44.991 6.78851C44.393 7.70051 38.351 9.36551 39.226 12.8665C40.341 17.3245 57.344 21.0755 61.007 17.3245Z" fill="#D14B4B"/>
<path d="M65.777 16.7025C63.476 14.0125 74.608 -0.177485 78.847 0.203515C83.086 0.584515 81.917 6.29451 82.453 7.24351C82.99 8.19251 88.909 10.2525 87.805 13.6885C86.398 18.0635 69.185 20.6865 65.777 16.7025Z" fill="#D14B4B"/>
<path d="M50.394 8.53449C50.394 8.53449 51.042 8.82749 51.975 9.33149C52.912 9.83149 54.123 10.5605 55.308 11.3385C56.49 12.1195 57.62 12.9865 58.418 13.7075C59.223 14.4205 59.671 15.0045 59.671 15.0045C59.757 15.1165 59.735 15.2765 59.623 15.3625C59.529 15.4345 59.4 15.4315 59.31 15.3615L59.304 15.3575C59.304 15.3575 59.168 15.2515 58.931 15.0665C58.699 14.8765 58.343 14.6305 57.922 14.3245C57.074 13.7215 55.911 12.9505 54.753 12.1665C54.173 11.7745 53.592 11.3825 53.048 11.0145C52.501 10.6505 52.002 10.2905 51.565 9.9965C50.699 9.3935 50.134 8.97349 50.134 8.97349C50.021 8.88949 49.997 8.72949 50.081 8.61649C50.156 8.51649 50.287 8.48549 50.394 8.53449Z" fill="#953635"/>
<path d="M49.533 13.1095C49.533 13.1095 50.194 13.1835 51.163 13.3745C52.135 13.5595 53.412 13.8825 54.677 14.2535C55.94 14.6275 57.177 15.0925 58.087 15.4835C58.999 15.8685 59.581 16.1885 59.581 16.1885C59.706 16.2545 59.753 16.4095 59.687 16.5345C59.631 16.6395 59.508 16.6885 59.397 16.6625C59.397 16.6625 58.761 16.4985 57.821 16.2275C56.881 15.9555 55.632 15.5915 54.388 15.2055C53.766 15.0125 53.144 14.8195 52.56 14.6375C51.975 14.4595 51.436 14.2715 50.967 14.1285C50.035 13.8235 49.419 13.6045 49.419 13.6045C49.286 13.5575 49.216 13.4115 49.264 13.2775C49.305 13.1635 49.418 13.0965 49.533 13.1095Z" fill="#953635"/>
<path d="M75.783 9.5735C75.783 9.5735 75.156 9.91349 74.216 10.4235C73.747 10.6775 73.201 10.9745 72.615 11.2925C72.029 11.6075 71.4081 11.9485 70.8031 12.3135C70.1891 12.6645 69.589 13.0325 69.034 13.3855C68.483 13.7435 67.968 14.0745 67.558 14.3965C67.344 14.5495 67.171 14.7075 67.004 14.8375C66.836 14.9675 66.698 15.0875 66.597 15.1965C66.378 15.4045 66.253 15.5235 66.253 15.5235L66.228 15.5475C66.127 15.6435 65.967 15.6395 65.87 15.5385C65.786 15.4495 65.7781 15.3155 65.8461 15.2195C65.8461 15.2195 65.953 15.0655 66.142 14.7965C66.335 14.5285 66.639 14.1735 67.046 13.7955C67.454 13.4205 67.94 12.9945 68.503 12.6035C69.058 12.2015 69.675 11.8125 70.306 11.4535C71.571 10.7395 72.8771 10.1185 73.8851 9.7195C74.8891 9.3155 75.587 9.10651 75.587 9.10651C75.722 9.06551 75.864 9.14151 75.906 9.27651C75.941 9.39251 75.886 9.5165 75.783 9.5735Z" fill="#953635"/>
<path d="M75.931 13.5115C75.931 13.5115 75.282 13.6325 74.308 13.8155C73.338 14.0115 72.047 14.2695 70.789 14.6245C70.159 14.7975 69.538 14.9925 68.962 15.1885C68.39 15.3955 67.859 15.5905 67.415 15.7905C66.985 16.0095 66.605 16.1615 66.368 16.3155C66.116 16.4505 65.973 16.5275 65.973 16.5275L65.95 16.5395C65.827 16.6055 65.673 16.5595 65.607 16.4355C65.55 16.3285 65.577 16.1985 65.666 16.1225C65.666 16.1225 65.797 16.0105 66.027 15.8145C66.258 15.6155 66.606 15.3605 67.049 15.0895C67.499 14.8385 68.028 14.5415 68.626 14.3025C69.22 14.0565 69.871 13.8425 70.529 13.6635C71.191 13.5005 71.855 13.3535 72.482 13.2475C73.109 13.1375 73.701 13.0915 74.206 13.0415C75.217 12.9665 75.901 13.0035 75.901 13.0035C76.042 13.0105 76.15 13.1315 76.143 13.2725C76.136 13.3935 76.045 13.4905 75.931 13.5115Z" fill="#953635"/>
<path d="M19.34 66.2095C18.631 66.3105 17.901 69.3435 17.901 69.3435C17.901 69.3435 15.541 70.0085 15.541 70.5155C15.541 71.0225 17.516 72.2375 17.516 72.2375C17.516 72.2375 17.161 75.8335 17.668 75.8335C18.175 75.8335 19.795 73.5035 19.795 73.5035C19.795 73.5035 23.442 75.0935 23.847 74.7295C24.252 74.3655 22.733 71.6295 22.733 71.6295C22.733 71.6295 24.759 69.5025 24.455 68.9955C24.151 68.4885 21.361 68.7045 21.361 68.7045C21.361 68.7045 20.05 66.1085 19.34 66.2095Z" fill="#F4CE30"/>
<path d="M110.541 45.2215C110.055 44.8865 107.917 46.3135 107.917 46.3135C107.917 46.3135 106.116 45.3955 105.833 45.7025C105.55 46.0095 106.065 47.8495 106.065 47.8495C106.065 47.8495 103.839 49.8275 104.145 50.1115C104.451 50.3945 106.736 49.8915 106.736 49.8915C106.736 49.8915 108.054 52.8935 108.503 52.8995C108.952 52.9055 109.562 50.4005 109.562 50.4005C109.562 50.4005 111.978 50.2465 112.078 49.7695C112.177 49.2925 110.368 47.8625 110.368 47.8625C110.368 47.8625 111.027 45.5565 110.541 45.2215Z" fill="#F4CE30"/>
<path d="M79.04 101.336C78.47 101.49 78.179 104.044 78.179 104.044C78.179 104.044 76.316 104.826 76.367 105.241C76.418 105.655 78.156 106.45 78.156 106.45C78.156 106.45 78.229 109.427 78.643 109.376C79.057 109.325 80.148 107.256 80.148 107.256C80.148 107.256 83.291 108.188 83.586 107.85C83.881 107.512 82.362 105.427 82.362 105.427C82.362 105.427 83.805 103.483 83.505 103.099C83.205 102.715 80.945 103.173 80.945 103.173C80.945 103.173 79.61 101.181 79.04 101.336Z" fill="#F4CE30"/>
<path d="M41.875 104.219C41.528 104.313 41.351 105.868 41.351 105.868C41.351 105.868 40.217 106.344 40.248 106.596C40.279 106.848 41.337 107.332 41.337 107.332C41.337 107.332 41.381 109.145 41.634 109.113C41.886 109.082 42.55 107.822 42.55 107.822C42.55 107.822 44.464 108.39 44.643 108.183C44.822 107.977 43.898 106.708 43.898 106.708C43.898 106.708 44.776 105.524 44.594 105.291C44.412 105.058 43.036 105.336 43.036 105.336C43.036 105.336 42.222 104.125 41.875 104.219Z" fill="#F4CE30"/>
<path d="M35.3 20.9915C34.953 21.0855 34.776 22.6405 34.776 22.6405C34.776 22.6405 33.642 23.1165 33.673 23.3685C33.704 23.6205 34.762 24.1045 34.762 24.1045C34.762 24.1045 34.806 25.9175 35.059 25.8855C35.312 25.8535 35.9751 24.5945 35.9751 24.5945C35.9751 24.5945 37.889 25.1625 38.068 24.9555C38.247 24.7495 37.323 23.4805 37.323 23.4805C37.323 23.4805 38.201 22.2965 38.019 22.0635C37.837 21.8295 36.461 22.1085 36.461 22.1085C36.461 22.1085 35.647 20.8975 35.3 20.9915Z" fill="#F4CE30"/>
<path d="M113.811 57.0655C113.464 57.1595 113.287 58.7145 113.287 58.7145C113.287 58.7145 112.153 59.1905 112.184 59.4425C112.215 59.6945 113.273 60.1785 113.273 60.1785C113.273 60.1785 113.317 61.9915 113.57 61.9595C113.822 61.9285 114.486 60.6685 114.486 60.6685C114.486 60.6685 116.4 61.2365 116.579 61.0295C116.758 60.8235 115.834 59.5545 115.834 59.5545C115.834 59.5545 116.712 58.3705 116.53 58.1375C116.348 57.9035 114.972 58.1825 114.972 58.1825C114.972 58.1825 114.158 56.9715 113.811 57.0655Z" fill="#F4CE30"/>
<path d="M89.969 19.4305C89.622 19.5245 89.4451 21.0795 89.4451 21.0795C89.4451 21.0795 88.3111 21.5555 88.3421 21.8075C88.3731 22.0595 89.431 22.5435 89.431 22.5435C89.431 22.5435 89.475 24.3565 89.727 24.3245C89.979 24.2935 90.643 23.0335 90.643 23.0335C90.643 23.0335 92.557 23.6015 92.736 23.3945C92.915 23.1885 91.991 21.9195 91.991 21.9195C91.991 21.9195 92.869 20.7355 92.687 20.5025C92.505 20.2685 91.129 20.5475 91.129 20.5475C91.129 20.5475 90.316 19.3365 89.969 19.4305Z" fill="#F4CE30"/>
<path d="M71.637 100.985C71.29 101.079 71.113 102.634 71.113 102.634C71.113 102.634 69.979 103.11 70.01 103.362C70.041 103.614 71.099 104.098 71.099 104.098C71.099 104.098 71.143 105.911 71.396 105.879C71.648 105.848 72.312 104.588 72.312 104.588C72.312 104.588 74.225 105.156 74.405 104.949C74.585 104.742 73.66 103.474 73.66 103.474C73.66 103.474 74.538 102.29 74.356 102.057C74.174 101.823 72.798 102.102 72.798 102.102C72.798 102.102 71.983 100.891 71.637 100.985Z" fill="#F4CE30"/>
<path d="M59.619 12.3915C57.698 13.4945 58.511 17.9935 59.321 18.6005C60.131 19.2085 64.776 20.0395 65.697 18.7225C66.618 17.4055 67.179 13.1545 65.434 12.3345C63.936 11.6325 61.019 11.5875 59.619 12.3915Z" fill="#A72C3B"/>
<path d="M26.388 62.4385C26.388 61.8265 25.873 61.3165 25.263 61.3135C24.732 61.3105 24.304 61.5315 24.035 61.9935C23.726 62.5245 23.912 63.2395 24.443 63.5495C24.845 63.7845 25.43 63.7225 25.784 63.3985C26.134 63.2125 26.388 62.8795 26.388 62.4385Z" fill="white"/>
<path d="M27.013 66.2585C26.46 66.2585 26.459 67.1175 27.013 67.1175C27.566 67.1185 27.567 66.2585 27.013 66.2585Z" fill="white"/>
<path d="M14.513 81.7665C13.97 81.7665 13.969 82.6105 14.513 82.6105C15.056 82.6105 15.057 81.7665 14.513 81.7665Z" fill="white"/>
<path d="M36.263 99.2355C35.036 99.2355 35.034 101.142 36.263 101.142C37.49 101.142 37.492 99.2355 36.263 99.2355Z" fill="white"/>
<path d="M43.665 99.0005C43.381 98.8305 43.107 98.7895 42.795 98.8975C42.018 99.1655 42.017 100.212 42.795 100.48C43.111 100.589 43.384 100.546 43.665 100.377C44.181 100.068 44.181 99.3095 43.665 99.0005Z" fill="white"/>
<path d="M56.263 109.384C55.549 109.384 55.548 110.493 56.263 110.493C56.977 110.494 56.978 109.384 56.263 109.384Z" fill="white"/>
<path d="M61.763 109.869C60.707 109.869 60.705 111.51 61.763 111.51C62.819 111.509 62.82 109.869 61.763 109.869Z" fill="white"/>
<path d="M64.763 105.236C64.18 105.236 64.179 106.142 64.763 106.142C65.346 106.142 65.347 105.236 64.763 105.236Z" fill="white"/>
<path d="M91.513 94.8685C90.779 94.8685 90.778 96.0095 91.513 96.0095C92.247 96.0085 92.248 94.8685 91.513 94.8685Z" fill="white"/>
<path d="M97.513 97.7115C96.578 97.7115 96.576 99.1645 97.513 99.1645C98.448 99.1645 98.449 97.7115 97.513 97.7115Z" fill="white"/>
<path d="M102.263 92.4775C101.348 92.4775 101.346 93.8995 102.263 93.8995C103.178 93.8995 103.179 92.4775 102.263 92.4775Z" fill="white"/>
<path d="M107.067 55.9925C107.026 56.0345 106.985 56.0775 106.944 56.1195C106.638 56.4355 106.637 56.9405 106.944 57.2575C106.985 57.2995 107.026 57.3425 107.067 57.3845C107.667 58.0045 108.747 57.5305 108.747 56.6885C108.747 55.8475 107.665 55.3745 107.067 55.9925Z" fill="white"/>
<path d="M106.763 61.4465C106.129 61.4465 106.128 62.4305 106.763 62.4305C107.396 62.4305 107.397 61.4465 106.763 61.4465Z" fill="white"/>
<path d="M115.763 52.2975C114.617 52.2975 114.615 54.0785 115.763 54.0785C116.909 54.0795 116.911 52.2975 115.763 52.2975Z" fill="white"/>
<path d="M95.749 23.4555C95.762 23.4935 95.775 23.5315 95.788 23.5695C95.949 24.0355 96.576 24.0365 96.737 23.5695C96.75 23.5315 96.763 23.4935 96.776 23.4555C97.072 22.6005 95.452 22.5945 95.749 23.4555Z" fill="white"/>
<path d="M101.456 24.4975C101.428 24.4215 101.401 24.3465 101.373 24.2705C101.155 23.6715 100.371 23.6705 100.152 24.2705C100.124 24.3465 100.097 24.4215 100.069 24.4975C99.65 25.6485 101.879 25.6565 101.456 24.4975Z" fill="white"/>
<path d="M30.012 22.7845C29.972 22.7765 29.933 22.7685 29.894 22.7615C29.287 22.6405 28.676 23.0345 28.676 23.6895C28.676 24.3395 29.287 24.7375 29.894 24.6175C29.933 24.6095 29.973 24.6015 30.012 24.5935C30.906 24.4145 30.907 22.9625 30.012 22.7845Z" fill="white"/>
<path d="M32.111 28.3405C32.028 28.2535 31.943 28.1915 31.836 28.1355C31.412 27.9125 30.872 28.1865 30.872 28.6885C30.872 29.1905 31.412 29.4655 31.836 29.2415C31.943 29.1855 32.027 29.1235 32.111 29.0365C32.298 28.8415 32.298 28.5355 32.111 28.3405Z" fill="white"/>
<path d="M25.263 31.0945C24.499 31.0945 24.498 32.2825 25.263 32.2825C26.027 32.2825 26.028 31.0945 25.263 31.0945Z" fill="white"/>
<path opacity="0.11" d="M24.577 35.7155C24.196 35.6095 23.749 35.5565 23.423 35.3205C23.362 35.2765 23.283 35.1915 23.212 35.0925C23.44 34.7655 23.565 34.3615 23.525 33.8835C23.481 33.3505 22.716 32.9645 22.375 33.4365C21.924 33.8065 21.484 33.9865 21.12 33.8175C20.936 33.7315 20.856 33.6665 20.841 33.4775C20.814 33.1275 21.071 32.6805 21.159 32.3225C21.322 31.6575 20.607 31.0835 20 31.4315C18.347 32.3795 18.226 34.8765 19.974 35.7775C20.554 36.0765 21.281 36.1195 21.928 35.9425C21.963 36.0175 21.983 36.0985 22.026 36.1695C22.602 37.1045 23.78 37.3575 24.738 36.9425C25.291 36.7035 25.089 35.8575 24.577 35.7155Z" fill="#5A287F"/>
<path opacity="0.11" d="M95.877 16.6875C95.445 15.8555 94.552 15.5365 93.685 15.3235C92.336 14.9915 91.761 17.0865 93.112 17.4025C93.819 17.5675 94.417 17.9125 95.149 17.9565C95.822 17.9985 96.154 17.2195 95.877 16.6875Z" fill="#5A287F"/>
<path opacity="0.11" d="M97.485 19.6335C97.136 18.7335 96.295 18.4845 95.595 17.9185C95.182 17.5845 94.607 17.5145 94.203 17.9185C93.82 18.3015 93.834 18.9255 94.203 19.3105C94.911 20.0485 95.783 20.9065 96.88 20.7005C97.308 20.6195 97.645 20.0445 97.485 19.6335Z" fill="#5A287F"/>
<path opacity="0.11" d="M82.908 21.8355C82.632 20.6585 80.887 20.9585 80.852 22.1135C80.836 22.6245 81.065 23.1295 81.55 23.3475C82.186 23.6325 83.027 23.3085 83.008 22.5105C83.002 22.2815 82.961 22.0585 82.908 21.8355Z" fill="#5A287F"/>
<path opacity="0.11" d="M105.59 70.1085C105.209 69.8855 104.597 69.9935 104.393 70.4225C104.026 71.1945 103.727 72.1965 104.532 72.7885C104.791 72.9785 105.153 72.8655 105.37 72.6805C105.788 72.3245 105.695 71.7685 105.904 71.3055C106.099 70.8745 106.028 70.3635 105.59 70.1085Z" fill="#5A287F"/>
<path opacity="0.11" d="M108.586 70.1145C108.208 69.8935 107.602 70.0015 107.4 70.4255C106.998 71.2695 106.606 72.6625 107.341 73.4215C107.68 73.7715 108.349 73.7125 108.58 73.2615C108.897 72.6425 108.618 71.9455 108.897 71.3005C109.084 70.8725 109.024 70.3705 108.586 70.1145Z" fill="#5A287F"/>
<path opacity="0.11" d="M110.319 67.6285C109.938 68.2545 109.779 68.9905 109.937 69.7105C110.178 70.8085 111.81 70.5175 111.844 69.4525C111.854 69.1305 111.822 68.8875 111.979 68.5985C112.571 67.5115 110.963 66.5695 110.319 67.6285Z" fill="#5A287F"/>
<path opacity="0.11" d="M96.747 91.7115C95.502 92.9225 94.018 92.0415 93.75 90.4585C93.58 89.4515 92.272 89.5435 91.792 90.2025C91.249 90.9485 90.992 90.2375 91.55 89.7645C92.412 89.0355 91.313 87.9235 90.433 88.3165C88.899 89.0015 88.566 90.8975 89.685 92.1435C90.479 93.0285 91.52 93.0825 92.374 92.6305C93.798 94.7105 96.864 95.7465 98.195 92.8285C98.611 91.9155 97.542 90.9385 96.747 91.7115Z" fill="#5A287F"/>
<path opacity="0.11" d="M102.771 102.247C101.952 103.331 100.242 105.238 98.982 103.631C98.933 103.538 98.863 103.447 98.798 103.356C98.776 103.32 98.753 103.293 98.731 103.255C98.729 103.256 98.728 103.257 98.726 103.258C98.675 103.193 98.64 103.125 98.581 103.061C97.852 102.265 96.487 103.303 97.078 104.221C97.089 104.238 97.103 104.252 97.114 104.269C96.911 104.314 96.708 104.307 96.503 104.235C95.799 103.931 95.463 103.515 95.209 102.77C94.963 102.048 93.752 101.893 93.585 102.77C93.242 104.573 91.605 104.954 91.545 102.863C91.517 101.875 90.031 101.612 89.78 102.624C89.368 104.287 89.765 106.327 91.759 106.61C93.011 106.788 93.849 106.15 94.41 105.252C95.113 106.078 96.186 106.547 97.438 106.343C98.022 106.248 98.458 106.003 98.762 105.683C100.87 106.632 103.612 105.552 104.097 102.807C104.247 101.972 103.271 101.587 102.771 102.247Z" fill="#5A287F"/>
<path opacity="0.11" d="M56.738 100.534C56.064 100.152 55.409 101.03 55.924 101.589C56.271 101.966 56.584 102.437 56.801 102.903C56.889 103.093 57.17 103.714 57.078 103.955C56.946 104.301 57.07 104.133 56.701 104.134C55.942 104.134 54.818 103.195 54.152 102.838C53.286 102.373 52.509 103.442 53.13 104.163C53.722 104.85 54.438 106.158 53.185 106.572C51.855 107.011 51.199 105.473 50.995 104.451C50.861 103.779 49.691 103.921 49.783 104.615C50.045 106.601 51.55 108.852 53.876 108.079C55.103 107.671 55.539 106.785 55.512 105.812C56.447 106.255 57.43 106.399 58.241 105.704C59.992 104.199 58.306 101.424 56.738 100.534Z" fill="#5A287F"/>
<path opacity="0.11" d="M33.138 105.748C32.305 105.431 31.144 104.638 31.138 103.805C31.555 103.451 31.905 102.972 32.127 102.355C32.37 101.68 31.539 101.172 30.981 101.474C30.55 101.706 30.219 101.981 29.965 102.279C29.497 102.373 28.982 102.143 28.595 101.735C27.814 100.913 28.132 100.261 28.71 99.4415C29.039 98.9745 28.494 98.3295 27.978 98.4885C25.637 99.2105 25.621 101.979 27.191 103.493C27.879 104.156 28.656 104.459 29.399 104.461C29.679 105.954 31.114 107.355 32.901 107.514C33.979 107.608 34.015 106.082 33.138 105.748Z" fill="#5A287F"/>
<path opacity="0.11" d="M28.022 80.9045C27.186 81.2135 26.38 81.2305 25.539 80.9075C25.1 80.7385 24.15 80.2445 23.779 79.6815C23.769 79.4055 23.732 79.1385 23.667 78.8865C23.665 78.8625 23.657 78.8415 23.651 78.8195C23.649 78.8135 23.649 78.8075 23.647 78.8015H23.646C23.54 78.4205 22.959 78.2815 22.703 78.6775C22.338 79.2415 21.761 81.0445 20.977 81.1415C19.983 81.2645 19.667 79.2325 19.586 78.6135C19.471 77.7355 18.318 77.7255 18.211 78.6135C17.987 80.4655 18.487 83.3205 20.891 83.3825C22.38 83.4205 23.322 82.2375 23.651 80.9015C24.021 81.4705 24.492 81.9395 25.406 82.2935C26.597 82.7555 27.781 82.6695 28.56 81.6045C28.8 81.2755 28.399 80.7645 28.022 80.9045Z" fill="#5A287F"/>
<path opacity="0.11" d="M42.678 38.3925C38.394 42.0685 33.483 44.6095 28.816 47.7215C28.642 47.8375 28.796 48.1095 28.982 48.0045C33.783 45.2935 39.886 43.5145 43.169 38.7705C43.382 38.4625 42.932 38.1745 42.678 38.3925Z" fill="#5A287F"/>
<path opacity="0.11" d="M38.762 37.9765C37.122 39.4125 35.199 41.3555 32.999 41.8205C32.275 41.9735 32.602 43.0015 33.298 42.9055C35.725 42.5695 38.288 40.6355 39.621 38.6395C39.983 38.0985 39.207 37.5865 38.762 37.9765Z" fill="#5A287F"/>
<path opacity="0.11" d="M88.542 36.5935C83.865 35.8335 80.523 33.5075 76.496 31.2695C75.804 30.8845 75.137 31.7735 75.663 32.3495C78.795 35.7725 83.735 38.0795 88.399 37.6525C88.953 37.6025 89.188 36.6985 88.542 36.5935Z" fill="#5A287F"/>
<path opacity="0.11" d="M89.586 33.9355C87.241 33.1515 84.915 32.1175 82.399 32.1445C81.471 32.1545 81.476 33.5465 82.399 33.5825C84.782 33.6735 86.879 34.9395 89.212 35.2915C90.091 35.4245 90.464 34.2295 89.586 33.9355Z" fill="#5A287F"/>
<path opacity="0.11" d="M99.482 36.3125C96.953 35.7775 94.341 35.7495 91.809 35.2835C90.953 35.1255 90.772 36.4005 91.649 36.4655C94.31 36.6625 96.786 37.4235 99.482 36.9155C99.784 36.8585 99.776 36.3745 99.482 36.3125Z" fill="#5A287F"/>
<path opacity="0.11" d="M35.771 84.3925C33.632 87.6495 30.624 90.0605 27.234 91.9125C24.289 93.5215 20.88 94.4855 18.119 96.3845C17.61 96.7345 17.913 97.5505 18.546 97.3985C25.1 95.8195 34.102 91.3935 36.57 84.7295C36.75 84.2445 36.03 83.9975 35.771 84.3925Z" fill="#5A287F"/>
<path opacity="0.11" d="M27.583 88.3235C25.5 89.8385 22.813 90.1995 20.817 91.7815C20.415 92.1005 20.866 92.6435 21.273 92.5655C23.741 92.0905 26.361 90.8415 28.34 89.3055C28.896 88.8745 28.158 87.9065 27.583 88.3235Z" fill="#5A287F"/>
<path opacity="0.11" d="M120.15 78.9385C115.77 80.9875 112.101 82.6865 107.186 82.7715C103.576 82.8335 100.01 82.1545 96.399 82.1215C95.84 82.1165 95.736 82.9345 96.268 83.0885C103.996 85.3295 114.422 85.3735 120.747 79.7115C121.19 79.3155 120.627 78.7155 120.15 78.9385Z" fill="#5A287F"/>
<path opacity="0.11" d="M117.739 77.0335C115.989 77.3435 114.438 78.1685 112.767 78.7375C111.301 79.2365 109.585 79.3235 108.265 80.1345C108.092 80.2405 108.095 80.4865 108.265 80.5935C110.996 82.3175 115.905 79.7455 118.203 78.1335C118.77 77.7355 118.419 76.9135 117.739 77.0335Z" fill="#5A287F"/>
<path opacity="0.11" d="M105.065 80.2615C104.576 80.1315 104.079 80.0555 103.588 79.9285C102.797 79.7245 102.363 80.7945 103.04 81.2275C103.731 81.6695 104.475 81.7285 105.214 81.4035C105.723 81.1795 105.547 80.3885 105.065 80.2615Z" fill="#5A287F"/>
<path opacity="0.11" d="M142.547 72.4655C140.802 71.0335 137.59 72.1185 136.407 73.8255C136.122 74.2365 136.594 74.8055 137.051 74.6635C138.786 74.1225 140.295 73.4155 142.149 73.4265C142.602 73.4285 142.936 72.7855 142.547 72.4655Z" fill="#5A287F"/>
<path opacity="0.11" d="M44.987 13.5665C44.508 13.3835 43.794 13.2905 43.357 13.6145C42.993 13.8845 42.982 14.3455 43.357 14.6125C43.633 14.8095 44.001 14.8525 44.306 15.0025C44.626 15.1595 44.9 15.3195 45.245 15.4205C45.585 15.5215 46.004 15.2375 45.977 14.8635C45.931 14.2325 45.583 13.7935 44.987 13.5665Z" fill="#5A287F"/>
<path opacity="0.11" d="M48.946 14.3885C48.536 13.6735 47.653 13.6505 46.947 13.8835C46.267 14.1075 46.187 15.1575 46.947 15.3445C47.455 15.4705 47.934 15.7465 48.464 15.5725C48.959 15.4115 49.215 14.8565 48.946 14.3885Z" fill="#5A287F"/>
<path opacity="0.11" d="M46.524 11.0745C46.482 11.0695 46.441 11.0635 46.399 11.0585C45.365 10.9275 45.363 12.7995 46.399 12.6675C46.441 12.6625 46.482 12.6575 46.524 12.6515C47.536 12.5245 47.538 11.2035 46.524 11.0745Z" fill="#5A287F"/>
<path opacity="0.11" d="M75.768 4.2835C75.345 3.9685 74.787 4.1145 74.414 4.4365C74.045 4.7545 73.916 5.14151 73.867 5.61351C73.796 6.30751 74.758 6.61651 75.201 6.16651C75.663 5.69651 76.606 4.9085 75.768 4.2835Z" fill="#5A287F"/>
<path opacity="0.11" d="M78.399 1.68351C78.042 1.65351 77.813 1.79251 77.574 2.03851C76.845 2.78951 77.971 3.91751 78.723 3.18751C78.97 2.94751 79.107 2.71251 79.078 2.36251C79.046 1.97351 78.792 1.71651 78.399 1.68351Z" fill="#5A287F"/>
<path opacity="0.11" d="M78.227 3.98853C77.761 4.07053 77.387 4.40553 77.321 4.88553C77.151 6.11853 78.931 6.36353 79.009 5.11353C79.015 5.01653 79.001 4.88354 79.025 4.78554C79.15 4.27454 78.71 3.90353 78.227 3.98853Z" fill="#5A287F"/>
<path opacity="0.11" d="M22.751 59.4475C22.657 58.8535 21.888 58.9225 21.609 59.2985C21.021 60.0875 20.615 61.5305 19.639 61.9385C18.496 62.4165 17.573 61.0745 17.08 60.2585C16.743 59.7005 15.946 59.7135 15.606 60.2585C15.416 60.5635 15.231 60.8715 15.039 61.1745C15.037 61.1785 15.034 61.1815 15.032 61.1855C15.062 60.9925 15.088 60.8215 15.104 60.7305C15.126 60.6105 15.298 59.9305 15.141 60.1515C15.562 59.5545 14.501 58.9185 14.156 59.5755C14.244 59.4075 13.685 59.9515 13.584 60.0895C13.306 60.4685 13.09 60.9995 12.954 61.4435C12.688 62.3115 12.695 63.3015 13.512 63.8705C14.979 64.8925 15.761 63.5875 16.387 62.3675C17.259 63.4855 18.488 64.2935 20.002 63.9135C21.932 63.4285 23.046 61.3185 22.751 59.4475Z" fill="#5A287F"/>
</svg>
