<svg width="192" height="153" viewBox="0 0 192 153" fill="none" xmlns="http://www.w3.org/2000/svg">
<path d="M92.3302 30.2382L91.3087 4.08728H101.729V30.2382H92.3302Z" fill="#C18666"/>
<path d="M116.493 30.2382L117.515 4.08728H101.729V30.2382H116.493Z" fill="#AC775B"/>
<path d="M2.87109 91.4176H23.1332C23.1332 91.4176 13.4962 73.3163 13.0029 73.3163C12.5096 73.3163 2.87109 91.4176 2.87109 91.4176Z" fill="#A17F59"/>
<path d="M146.106 26.1204L107.494 82.7599H86.4428L79.8848 152.999H114.052H146.106H178.159L184.717 82.7599L146.106 26.1204Z" fill="#AC775B"/>
<path d="M178.817 145.95H80.5425L80.4901 146.512H178.764L178.817 145.95Z" fill="#C18666"/>
<path d="M178.764 146.512H80.4901L80.4377 147.074H178.712L178.764 146.512Z" fill="#9B6C52"/>
<path d="M179.743 136.024H81.4693L81.4169 136.585H179.691L179.743 136.024Z" fill="#C18666"/>
<path d="M179.691 136.585H81.4169L81.3646 137.147H179.639L179.691 136.585Z" fill="#9B6C52"/>
<path d="M180.67 126.097H82.3962L82.3439 126.66H180.618L180.67 126.097Z" fill="#C18666"/>
<path d="M180.618 126.66H82.3439L82.2915 127.222H180.566L180.618 126.66Z" fill="#9B6C52"/>
<path d="M181.597 116.172H83.3232L83.2708 116.733H181.545L181.597 116.172Z" fill="#C18666"/>
<path d="M181.545 116.733H83.2708L83.2184 117.295H181.492L181.545 116.733Z" fill="#9B6C52"/>
<path d="M182.524 106.245H84.25L84.1976 106.807H182.472L182.524 106.245Z" fill="#C18666"/>
<path d="M182.472 106.807H84.1977L84.1453 107.368H182.419L182.472 106.807Z" fill="#9B6C52"/>
<path d="M183.451 96.3185H85.1769L85.1245 96.8801H183.399L183.451 96.3185Z" fill="#C18666"/>
<path d="M183.399 96.8801H85.1246L85.0722 97.4432H183.346L183.399 96.8801Z" fill="#9B6C52"/>
<path d="M184.378 86.3932H86.1038L86.0514 86.9549H184.325L184.378 86.3932Z" fill="#C18666"/>
<path d="M184.325 86.9549H86.0514L85.9991 87.5166H184.273L184.325 86.9549Z" fill="#9B6C52"/>
<path d="M47.8321 26.1204L9.21973 82.7599L15.7779 152.999H47.8321H79.8849L86.4429 82.7599L47.8321 26.1204Z" fill="#C18666"/>
<path d="M80.5426 145.95H15.1202L15.1725 146.512H80.4902L80.5426 145.95Z" fill="#D29D74"/>
<path d="M80.4901 146.512H15.1725L15.2249 147.074H80.4377L80.4901 146.512Z" fill="#AC775B"/>
<path d="M81.4695 136.024H14.1933L14.2457 136.585H81.4171L81.4695 136.024Z" fill="#D29D74"/>
<path d="M81.417 136.585H14.2456L14.298 137.147H81.3647L81.417 136.585Z" fill="#AC775B"/>
<path d="M82.3963 126.097H13.2664L13.3188 126.66H82.344L82.3963 126.097Z" fill="#D29D74"/>
<path d="M82.344 126.66H13.3187L13.3711 127.222H82.2916L82.344 126.66Z" fill="#AC775B"/>
<path d="M83.3233 116.172H12.3395L12.3919 116.733H83.2709L83.3233 116.172Z" fill="#D29D74"/>
<path d="M83.2709 116.733H12.3919L12.4443 117.295H83.2185L83.2709 116.733Z" fill="#AC775B"/>
<path d="M84.2502 106.245H11.4126L11.465 106.807H84.1978L84.2502 106.245Z" fill="#D29D74"/>
<path d="M84.1977 106.807H11.465L11.5173 107.368H84.1453L84.1977 106.807Z" fill="#AC775B"/>
<path d="M85.177 96.3185H10.4857L10.538 96.8816H85.1246L85.177 96.3185Z" fill="#D29D74"/>
<path d="M85.1246 96.8816H10.538L10.5904 97.4432H85.0722L85.1246 96.8816Z" fill="#AC775B"/>
<path d="M86.1039 86.3932H9.56024L9.61264 86.9549H86.0515L86.1039 86.3932Z" fill="#D29D74"/>
<path d="M86.0515 86.9549H9.61261L9.66501 87.5166H85.9991L86.0515 86.9549Z" fill="#AC775B"/>
<path d="M82.1533 76.4666H13.5108L13.1267 77.0282H82.536L82.1533 76.4666Z" fill="#D29D74"/>
<path d="M82.536 77.0282H13.1266L12.744 77.5899H82.9187L82.536 77.0282Z" fill="#AC775B"/>
<path d="M75.3857 66.5399H20.277L19.8943 67.1031H75.7684L75.3857 66.5399Z" fill="#D29D74"/>
<path d="M75.7684 67.1031H19.8943L19.5102 67.6648H76.1526L75.7684 67.1031Z" fill="#AC775B"/>
<path d="M68.6196 56.6149H27.0432L26.6605 57.1765H69.0022L68.6196 56.6149Z" fill="#D29D74"/>
<path d="M69.0022 57.1765H26.6605L26.2778 57.7382H69.3849L69.0022 57.1765Z" fill="#AC775B"/>
<path d="M61.8519 46.6882H33.8108L33.4266 47.2498H62.236L61.8519 46.6882Z" fill="#D29D74"/>
<path d="M62.2361 47.2498H33.4267L33.044 47.8115H62.6188L62.2361 47.2498Z" fill="#AC775B"/>
<path d="M55.0857 36.7615H40.577L40.1943 37.3232H55.4684L55.0857 36.7615Z" fill="#D29D74"/>
<path d="M55.4685 37.3231H40.1943L39.8116 37.8862H55.8526L55.4685 37.3231Z" fill="#AC775B"/>
<path opacity="0.13" d="M107.494 82.7598H86.4428L85.3035 94.9607H183.578L184.717 82.7598L178.977 74.3392H113.235L107.494 82.7598Z" fill="#231F20"/>
<path opacity="0.13" d="M9.7639 88.5802C18.2515 76.7372 46.8425 36.8691 48.6731 34.7025C50.8237 32.1561 52.4636 34.5017 54.1529 36.9142C55.0798 38.2384 55.4902 38.0565 55.675 37.6258L47.832 26.1218L9.22113 82.7598L9.7639 88.5802Z" fill="#231F20"/>
<path d="M190.748 83.2444C189.124 80.3371 155.158 32.6028 145.843 19.5215C145.234 18.6674 144.366 18.241 143.497 18.241H47.8321L93.6224 91.876H189.853L189.759 91.7246C191.226 90.7628 191.898 85.3019 190.748 83.2444Z" fill="white"/>
<path d="M95.0832 83.2444C93.4594 80.3371 59.4931 32.6043 50.1776 19.5216C48.9612 17.8133 46.7029 17.8133 45.4864 19.5216C36.1695 32.6028 2.20327 80.3357 0.580842 83.2444C-0.868429 85.8403 0.580816 93.868 2.87259 91.4162C4.83842 89.3136 36.491 44.0966 45.4733 31.2511C46.6912 29.5108 48.9758 29.5108 50.1922 31.2511C59.1745 44.0966 90.8271 89.3136 92.793 91.4162C95.0833 93.8695 96.5325 85.8403 95.0832 83.2444Z" fill="#ECF8FE"/>
<path d="M124.043 103.623H107.511C106.65 103.623 105.93 104.281 105.854 105.141L103.706 129.313C103.619 130.286 104.387 131.124 105.363 131.124H121.585C122.439 131.124 123.155 130.478 123.241 129.628L125.698 105.456C125.797 104.474 125.028 103.623 124.043 103.623Z" fill="#63594D"/>
<path d="M107.488 105.139L105.34 129.311C105.253 130.285 106.021 131.123 106.998 131.123H123.219C124.073 131.123 124.789 130.477 124.875 129.627L127.332 105.455C127.431 104.474 126.662 103.622 125.677 103.622H109.145C108.284 103.623 107.564 104.281 107.488 105.139Z" fill="#726658"/>
<path d="M108.383 128.191L110.305 106.554H124.274L122.075 128.191H108.383Z" fill="#3B352C"/>
<path d="M115.897 104.559L113.732 129.529L116.424 129.471L118.644 104.5L115.897 104.559Z" fill="#726658"/>
<path d="M108.383 115.916H125.029L124.274 118.573H107.988L108.383 115.916Z" fill="#726658"/>
<path d="M116.428 101.219H105.406C104.783 101.219 104.259 101.683 104.183 102.302L103.943 104.273C103.853 105.007 104.426 105.653 105.166 105.653H127.698C128.328 105.653 128.857 105.177 128.923 104.55L129.128 102.578C129.204 101.852 128.633 101.219 127.904 101.219H116.428Z" fill="#ECF8FE"/>
<path d="M117.416 101.219H107.252C106.679 101.219 106.194 101.647 106.124 102.217L105.903 104.036C105.82 104.713 106.349 105.309 107.031 105.309H127.81C128.392 105.309 128.879 104.87 128.939 104.292L129.128 102.475C129.198 101.804 128.673 101.222 127.999 101.222H117.416V101.219Z" fill="white"/>
<path d="M70.9519 103.623H54.4206C53.5592 103.623 52.8389 104.281 52.7633 105.141L51.6778 129.313C51.5919 130.286 52.3588 131.124 53.3351 131.124H69.5565C70.4106 131.124 71.1265 130.478 71.2124 129.628L72.6078 105.456C72.7068 104.474 71.937 103.623 70.9519 103.623Z" fill="#63594D"/>
<path d="M54.3974 105.139L53.3119 129.311C53.226 130.285 53.9929 131.123 54.9692 131.123H71.1906C72.0447 131.123 72.7607 130.477 72.8465 129.627L74.2419 105.455C74.3423 104.474 73.5726 103.622 72.586 103.622H56.0547C55.1919 103.623 54.473 104.281 54.3974 105.139Z" fill="#726658"/>
<path d="M56.3544 128.191L57.2144 106.554H71.1833L70.0469 128.191H56.3544Z" fill="#3B352C"/>
<path d="M62.8064 104.559L61.7034 129.529L64.3954 129.471L65.5536 104.5L62.8064 104.559Z" fill="#726658"/>
<path d="M55.2923 115.916H71.9371L71.1833 118.573H54.8979L55.2923 115.916Z" fill="#726658"/>
<path d="M63.3375 101.219H52.3151C51.6923 101.219 51.1685 101.683 51.0928 102.302L50.8528 104.273C50.764 105.007 51.3359 105.653 52.0751 105.653H74.6071C75.2372 105.653 75.7669 105.177 75.8323 104.55L76.0375 102.578C76.1132 101.852 75.5442 101.219 74.8123 101.219H63.3375Z" fill="#ECF8FE"/>
<path d="M64.3255 101.219H54.1617C53.5884 101.219 53.1038 101.647 53.034 102.217L52.8128 104.036C52.7299 104.713 53.258 105.309 53.939 105.309H74.7177C75.2998 105.309 75.7858 104.87 75.8469 104.292L76.036 102.475C76.1059 101.804 75.5806 101.222 74.9069 101.222H64.3255V101.219Z" fill="white"/>
<path d="M167.765 103.904H151.234C150.372 103.904 149.652 104.561 149.576 105.421L147.429 129.593C147.343 130.567 148.11 131.405 149.086 131.405H165.307C166.162 131.405 166.877 130.759 166.963 129.909L169.421 105.737C169.521 104.755 168.75 103.904 167.765 103.904Z" fill="#63594D"/>
<path d="M151.21 105.42L149.063 129.592C148.977 130.565 149.744 131.404 150.72 131.404H166.941C167.796 131.404 168.511 130.758 168.597 129.908L171.055 105.736C171.155 104.755 170.384 103.902 169.399 103.902H152.868C152.006 103.904 151.286 104.561 151.21 105.42Z" fill="#726658"/>
<path d="M152.105 128.473L154.028 106.834H167.998L165.798 128.473H152.105Z" fill="#3B352C"/>
<path d="M159.619 104.839L157.454 129.81L160.148 129.752L162.367 104.781L159.619 104.839Z" fill="#726658"/>
<path d="M152.105 116.196H168.752L167.998 118.853H151.711L152.105 116.196Z" fill="#726658"/>
<path d="M160.151 101.5H149.128C148.505 101.5 147.982 101.964 147.906 102.583L147.666 104.554C147.576 105.288 148.149 105.935 148.888 105.935H171.42C172.05 105.935 172.58 105.459 172.645 104.832L172.851 102.86C172.926 102.134 172.356 101.501 171.627 101.501H160.151V101.5Z" fill="#ECF8FE"/>
<path d="M161.14 101.5H150.976C150.403 101.5 149.918 101.928 149.85 102.498L149.629 104.316C149.546 104.992 150.074 105.589 150.757 105.589H171.535C172.117 105.589 172.605 105.149 172.664 104.572L172.854 102.753C172.923 102.083 172.398 101.5 171.724 101.5H161.14Z" fill="white"/>
<path d="M25.3334 152.999L22.3374 103.082H42.7684L40.8607 152.999H25.3334Z" fill="#3B352C"/>
<path d="M24.9245 152.999L21.5458 103.597C21.4585 102.313 22.4101 101.221 23.6149 101.221H43.4639C44.6439 101.221 45.5868 102.27 45.5374 103.528L43.5846 152.999H40.1797L41.6072 106.799C41.6465 105.548 40.7064 104.512 39.5336 104.512H26.1744C24.9725 104.512 24.0209 105.6 24.1053 106.881L27.1042 153H24.9245V152.999Z" fill="#63594D"/>
<path d="M24.1067 152.999L20.728 103.597C20.6407 102.313 21.5924 101.221 22.7972 101.221H42.6461C43.8262 101.221 44.769 102.27 44.7196 103.528L42.7683 152.999H39.3634L40.7908 106.799C40.8301 105.548 39.8901 104.512 38.7173 104.512H25.3581C24.1562 104.512 23.2046 105.6 23.289 106.881L26.2879 153H24.1067V152.999Z" fill="#726658"/>
<path d="M48.772 77.5491C54.8522 77.5491 59.7812 72.6201 59.7812 66.5399C59.7812 60.4597 54.8522 55.5307 48.772 55.5307C42.6917 55.5307 37.7628 60.4597 37.7628 66.5399C37.7628 72.6201 42.6917 77.5491 48.772 77.5491Z" fill="#63594D"/>
<path d="M47.5453 77.5491C53.6255 77.5491 58.5546 72.6201 58.5546 66.5399C58.5546 60.4597 53.6255 55.5307 47.5453 55.5307C41.4651 55.5307 36.5361 60.4597 36.5361 66.5399C36.5361 72.6201 41.4651 77.5491 47.5453 77.5491Z" fill="#726658"/>
<path d="M47.5453 75.0624C52.2521 75.0624 56.0678 71.2468 56.0678 66.5399C56.0678 61.8331 52.2521 58.0175 47.5453 58.0175C42.8385 58.0175 39.0228 61.8331 39.0228 66.5399C39.0228 71.2468 42.8385 75.0624 47.5453 75.0624Z" fill="#3B352C"/>
<path d="M48.4999 56.6656H46.5923V76.4156H48.4999V56.6656Z" fill="#726658"/>
<path d="M55.2033 60.2265L53.8544 58.8776L39.8892 72.8428L41.2381 74.1916L55.2033 60.2265Z" fill="#726658"/>
<path d="M57.4202 67.4952V65.5876H37.6702V67.4952H57.4202Z" fill="#726658"/>
<path d="M53.857 74.2352L55.2059 72.8863L41.2407 58.9211L39.8918 60.27L53.857 74.2352Z" fill="#726658"/>
<path d="M92.3302 0C89.97 0 88.0391 1.93087 88.0391 4.29103V4.90365C88.0391 7.26381 89.97 9.19473 92.3302 9.19473H101.729V0.00142099L92.3302 0Z" fill="white"/>
<path d="M116.44 0H101.729V9.19326H116.44C118.8 9.19326 120.731 7.26235 120.731 4.90219V4.29103C120.729 1.93087 118.8 0 116.44 0Z" fill="#ECF8FE"/>
</svg>
