<svg width="116" height="137" viewBox="0 0 116 137" fill="none" xmlns="http://www.w3.org/2000/svg">
<path opacity="0.39" d="M42.3557 132.986C42.3707 133.004 42.3883 133.019 42.4084 133.031C42.3833 132.994 42.3557 132.964 42.3281 132.928C42.3331 132.951 42.3431 132.971 42.3557 132.986Z" fill="#3F98A7"/>
<path opacity="0.39" d="M75.9856 133.451L75.9881 133.448C75.9957 133.441 76.0032 133.436 76.0032 133.446C75.9956 133.443 75.9906 133.441 75.9856 133.441C75.9831 133.453 75.9806 133.466 75.9781 133.478C75.9756 133.471 75.9806 133.461 75.9856 133.451Z" fill="#3F98A7"/>
<path opacity="0.39" d="M115.796 113.793C115.613 113.619 115.349 113.559 115.073 113.549C114.935 113.542 114.794 113.549 114.661 113.557C114.528 113.564 114.4 113.577 114.287 113.584C113.999 113.599 113.705 113.63 113.411 113.647C113.117 113.662 112.824 113.665 112.538 113.625C112.415 113.607 112.279 113.599 112.136 113.594C111.704 113.579 111.212 113.592 110.873 113.481C111.092 113.175 111.476 113.067 111.687 112.776C111.817 112.593 111.95 112.269 112.051 112.048C112.136 111.862 112.164 111.762 112.211 111.667C112.256 111.571 112.319 111.481 112.47 111.32C112.618 111.162 112.683 110.964 112.866 110.821C112.56 110.906 112.229 110.559 111.968 110.459C111.654 110.341 111.185 110.346 110.906 110.168C110.705 110.037 110.602 109.904 110.477 109.831C110.414 109.794 110.349 109.771 110.261 109.771C110.173 109.771 110.067 109.794 109.927 109.847C109.749 109.914 109.593 110.042 109.445 110.173C109.294 110.303 109.151 110.437 108.998 110.509C108.827 110.592 108.652 110.657 108.476 110.708C108.122 110.808 107.761 110.851 107.379 110.876C107.188 110.888 106.995 110.898 106.797 110.908C106.659 110.916 106.518 110.929 106.38 110.941C106.242 110.954 106.104 110.964 105.968 110.966C105.833 110.969 105.697 110.964 105.564 110.941C105.431 110.918 105.298 110.881 105.167 110.821C105.082 110.78 105.009 110.748 104.942 110.718C104.741 110.63 104.598 110.585 104.311 110.512C104.158 110.474 104.03 110.452 103.912 110.442C103.681 110.421 103.498 110.452 103.27 110.499C103.154 110.524 103.029 110.554 102.878 110.585C102.755 110.61 102.63 110.612 102.497 110.617C102.366 110.622 102.228 110.632 102.085 110.675C101.841 110.675 101.628 110.75 101.445 110.903C101.314 110.906 101.071 110.783 101.003 110.785C100.732 110.793 100.759 110.891 100.511 110.949C100.041 111.059 99.5118 110.939 99.0575 111.064C98.5855 111.195 98.2567 111.441 97.6718 111.398C97.3455 111.375 97.0568 111.2 96.7279 111.185C96.5773 111.202 96.4242 111.217 96.2736 111.235C96.1054 111.21 96.0477 111.117 95.9247 111.052C95.8845 111.029 95.8368 111.011 95.7765 110.999C95.7063 110.986 95.6335 110.986 95.5607 110.991C95.3398 111.014 95.1138 111.099 94.9005 111.069C94.7925 111.054 94.6971 111.024 94.5967 110.999C94.5591 110.989 94.5214 110.981 94.4838 110.971C94.421 110.655 94.1123 110.401 94.0144 110.12C93.9767 110.012 93.9692 109.902 93.9641 109.789C94.0118 109.734 94.052 109.678 94.1123 109.618C94.1148 109.508 94.057 109.44 93.9466 109.41C93.9466 109.402 93.9466 109.395 93.9466 109.387C93.9792 109.093 94.4888 108.554 94.7599 108.453C94.9733 108.373 95.2494 108.506 95.4678 108.438C95.6736 108.376 95.7339 108.202 95.9347 108.099C96.7781 107.665 97.845 107.567 98.6232 107.156C99.0299 106.942 99.444 106.528 99.8181 106.272C100.508 105.805 101.063 105.449 101.831 105.15C102.429 104.919 104.924 103.739 104.505 102.778C103.784 102.77 103.051 103.684 102.311 103.295C102.173 103.222 102.12 103.016 101.984 102.938C101.789 102.901 101.59 102.876 101.389 102.858C100.995 102.78 100.564 102.803 100.185 102.702C100.177 102.318 100.679 102.143 100.82 101.769C100.938 101.452 100.923 101.043 101.081 100.739C101.292 100.333 101.711 100.2 102.082 100.049C102.497 99.8833 102.828 99.6825 103.212 99.444C104.472 98.6684 105.659 97.7697 106.483 96.4845C106.217 95.9146 104.557 96.5848 103.988 96.1129C103.784 95.9447 103.993 95.8293 103.709 95.6837C103.634 95.646 103.169 95.7113 103.066 95.7238C102.391 95.8042 101.231 96.3866 100.579 96.0552C100.968 95.7163 101.565 95.3423 101.839 94.908C102.025 94.6118 102.075 94.2805 102.205 93.9341C101.869 93.8211 101.47 94.1072 101.154 94.2403C100.875 94.3582 100.792 94.426 100.433 94.4512C99.7854 94.4963 99.3286 95.0185 98.829 94.5465C98.5429 94.2754 98.6182 93.9315 98.0709 94.1423C97.8877 94.2428 97.7421 94.3809 97.6316 94.5591C97.5061 94.6068 97.3806 94.6419 97.2501 94.6696C96.9514 94.8854 96.7229 95.1967 96.3665 95.3298C95.9623 95.4829 95.9322 95.3021 95.6259 95.2319C94.9733 95.0838 94.3156 94.8402 93.6077 95.0988C92.9073 95.3523 92.5935 96.1154 91.8505 96.3313C91.2054 96.5196 90.4121 96.6978 89.8222 97.0769C89.5888 97.2275 89.4306 97.4434 89.1846 97.5915C88.306 98.1287 86.589 97.5136 85.7355 97.3555C85.6778 97.4208 85.6226 97.486 85.5648 97.5513C85.6125 97.5889 85.5196 93.683 85.8259 94.7498C86.2878 94.662 87.0007 94.401 87.4199 94.1926C87.7337 94.037 87.8843 93.8386 88.296 93.8989C88.5093 93.929 88.6725 94.0093 88.8382 94.0595C89.0039 94.1097 89.172 94.1299 89.3929 94.042C89.516 93.9943 89.6691 93.8939 89.8247 93.791C89.9804 93.688 90.1385 93.5801 90.2791 93.5123C90.5979 93.3567 90.7912 93.1358 90.9644 92.9023C90.9669 92.9048 90.9719 92.9048 90.9744 92.9073C91.0121 92.8571 91.0472 92.8019 91.0824 92.7492C91.1803 92.6011 91.2807 92.4504 91.3886 92.3023C91.4087 92.2772 91.4313 92.2497 91.4514 92.2246C91.5618 92.084 91.6823 91.9459 91.843 91.8229C92.2496 91.5066 92.5258 91.6697 92.9726 91.4915C93.2939 91.3635 93.4345 91.0899 93.6654 90.859C93.8462 90.6782 94.0445 90.5175 94.2403 90.3544C94.3658 90.3343 94.4963 90.3192 94.6243 90.2791C94.7574 90.2389 94.7674 90.1436 94.8954 90.0934C95.1189 90.0055 95.5356 89.9226 95.7841 89.885C96.3715 89.7946 96.8886 89.8674 97.1497 89.1997C97.3354 88.7202 97.7496 88.2533 97.8425 87.7462C97.973 87.0182 97.0718 86.4309 96.5422 86.1849C96.3338 86.0895 96.133 86.0995 95.9322 86.1246C95.9297 86.1246 95.9272 86.1246 95.9272 86.1246C95.8217 86.1371 95.7188 86.1547 95.6159 86.1623C95.5105 86.1698 95.405 86.1698 95.2996 86.1497C95.1515 86.1196 95.1415 86.0267 94.9783 85.9916C94.8754 85.969 94.534 86.0267 94.4712 86.0392C94.406 85.9363 94.3783 85.8108 94.2955 85.7205C94.5139 85.5146 94.3407 84.9598 94.6043 84.7163C94.4963 84.5556 94.4461 84.3423 94.3407 84.1666C94.3457 84.0938 94.3482 84.0235 94.3733 83.9482C94.2629 83.9205 94.1499 83.9155 94.0369 83.9181C93.816 83.8327 93.5826 83.8628 93.3466 83.898C93.3215 83.9005 93.2964 83.903 93.2738 83.908C93.1508 83.9256 93.0278 83.9356 92.9073 83.9155C92.8395 83.903 92.7768 83.8929 92.7165 83.8829H92.7115C92.6839 83.8779 92.6588 83.8729 92.6337 83.8704L92.6312 83.8679C92.6237 83.8679 92.6187 83.8653 92.6111 83.8653C92.5283 83.8227 92.4454 83.78 92.3425 83.77C92.1969 83.7549 92.0488 83.785 91.9032 83.8101C91.8831 83.8101 91.8656 83.8076 91.843 83.8101C91.7626 83.8151 91.6848 83.8177 91.6045 83.8227C91.3786 83.775 91.4564 83.6319 91.1426 83.6445C90.9318 83.6545 90.8238 83.7599 90.7184 83.8679C90.0858 83.898 89.4281 83.8804 88.8056 83.9658C88.4566 84.0135 88.2357 84.1089 87.9019 84.1842C87.7588 84.2168 87.6232 84.1942 87.4801 84.2318C87.4099 84.2519 87.4425 84.2745 87.4776 84.2946C87.4048 84.3096 87.3245 84.3247 87.2617 84.3398C87.1036 84.3799 86.968 84.4001 86.825 84.4302C86.3254 84.4954 85.7255 84.5808 85.3288 84.5983C85.1908 84.2268 84.7841 84.6259 84.5808 84.6736C84.3624 84.7238 84.134 84.7163 83.908 84.7214C83.7825 84.6059 83.6871 84.4051 83.6344 84.0486C83.0495 83.9381 82.3341 83.9106 81.822 83.5767C81.8521 83.1349 82.7634 83.0043 83.0947 82.9114C83.5616 82.7809 83.7499 82.7031 84.1139 82.3792C84.6661 81.8872 85.123 81.5584 85.8736 81.5283C86.3279 81.5082 86.5564 81.6137 86.9555 81.6714C87.4726 81.7467 87.7964 81.2924 88.2558 81.1543C88.7001 81.0187 89.29 81.1267 89.6992 80.8079C89.9477 80.6146 90.0331 80.3334 90.2389 80.1125C89.3603 79.6607 88.9863 79.9594 89.8122 79.1411C89.9628 78.993 90.1962 78.757 90.4046 78.4909C90.6807 78.137 90.9091 77.7278 90.8213 77.409C90.7987 77.3287 90.756 77.2558 90.6908 77.188C90.5878 77.0851 90.4774 77.035 90.3619 77.0199C90.1285 76.9898 89.8749 77.1052 89.644 77.2257C89.5285 77.286 89.4181 77.3487 89.3151 77.3964C89.1068 77.4943 88.8758 77.5948 88.6349 77.6826C88.3964 77.7705 88.1504 77.8433 87.9144 77.8885C87.4601 77.9738 86.8877 78.0039 86.9053 77.4692C86.9229 77.0023 87.4425 76.691 87.8291 76.6483C87.7513 76.2392 87.0584 76.1815 87.1513 75.6669C87.1664 75.5815 87.2291 75.4936 87.317 75.4133C87.4952 75.2551 87.7763 75.1297 87.9972 75.1071C88.1077 75.097 88.2006 75.1146 88.2583 75.1648C88.5847 75.0242 91.3183 73.4478 90.5125 72.7524C90.0732 72.8277 90.1611 73.1741 89.659 72.9683C89.3202 72.8277 89.1695 72.3483 88.8407 72.1575C88.2633 71.8236 87.1136 71.8889 86.6643 71.4145C86.4735 72.2529 85.5146 72.3533 84.8895 72.5491C84.3122 72.7323 83.4662 73.0813 82.8512 72.898C82.7533 72.8679 82.673 72.8327 82.6002 72.7951C82.3843 72.6821 82.2437 72.5541 81.94 72.5139C81.586 72.4662 81.1041 72.6997 80.7677 72.5968C80.2682 72.4462 80.1401 71.7182 79.5828 71.5626C78.8649 73.1365 76.1212 71.3693 77.0073 70.5811C77.4039 70.2296 77.7378 70.3852 78.0792 69.8857C78.2951 69.5694 78.3654 69.326 78.7796 69.1879C79.3594 68.9946 80.0824 68.5779 80.715 68.5779C80.6924 68.5578 80.6924 68.5377 80.6824 68.5176C80.6648 68.4875 80.6472 68.4598 80.6497 68.4322C80.6497 68.4197 80.6598 68.4096 80.6623 68.3996C80.6723 68.3695 80.6823 68.3394 80.71 68.3118C80.7175 68.3043 80.73 68.2967 80.7376 68.2892C80.7702 68.2566 80.8079 68.2264 80.8581 68.1988C80.8606 68.1963 80.8656 68.1938 80.8706 68.1938C81.1693 68.018 81.6864 67.88 81.8471 67.8072C82.4671 67.526 82.5399 67.2524 82.7031 66.5772C82.7809 66.2509 82.8638 65.9421 82.9617 65.6384C83.0018 65.5555 83.052 65.4752 83.1198 65.4125C83.2252 65.2367 83.1725 65.2342 83.2453 65.0484C83.401 64.6518 83.4963 64.1498 83.1499 63.7983C82.8487 63.4946 82.4797 63.2838 82.0956 63.216C81.9902 63.2235 81.8848 63.2335 81.7793 63.2461C81.6362 63.2386 81.5635 63.1858 81.458 63.1557L81.4605 63.1532C81.443 63.1481 81.4254 63.1432 81.4053 63.1381C81.1241 63.093 80.843 63.1331 80.5593 63.1482C80.238 63.1632 80.0447 63.226 79.7385 63.3139C79.4096 63.4068 79.0607 63.3088 78.7444 63.3942C78.4658 63.4695 78.3001 63.5749 78.0014 63.6C77.6675 63.6276 77.5219 63.6578 77.2508 63.7983C77.1127 63.8686 76.9847 63.9163 76.8517 63.9464C76.7387 63.974 76.6232 63.9916 76.4902 63.9942C76.1839 64.0017 76.0233 64.1322 75.7396 64.2C75.338 64.2954 74.7129 64.2853 74.3665 64.0795C74.2912 64.0343 74.2209 63.979 74.1481 63.9238C74.1532 63.9138 74.1531 63.9113 74.1582 63.9012C74.3439 63.5849 74.6954 63.3188 75.0267 63.1984C75.3857 63.0678 75.8074 63.0703 76.1739 62.9147C76.5605 62.749 76.8642 62.4553 77.2081 62.2018C77.5169 61.9733 77.6248 61.9558 77.8683 61.642C78.0415 61.4236 78.1696 61.1224 78.393 60.9466C78.7545 60.6605 79.3569 60.5777 79.7284 60.4195C80.0021 60.304 80.2631 60.1359 80.5317 60.0129C80.7652 59.9049 81.0514 59.9024 81.2748 59.807C81.576 59.6765 82.0504 59.3552 82.3241 59.1468C82.8362 58.7577 83.032 57.9695 83.5591 57.5553C83.3005 57.1712 82.9818 57.6983 82.5399 57.3093C82.3341 57.1285 82.0881 56.3152 81.7818 56.8273C81.576 56.6315 81.4078 56.9302 81.1518 56.9302C81.1995 56.9302 81.1216 56.9002 81.0137 56.865C80.9409 56.8424 80.853 56.8148 80.7802 56.7972C80.6698 56.7671 80.5895 56.7495 80.6296 56.7671C80.1828 56.5588 80.1728 56.3755 80.0975 55.8785C79.8213 55.8207 79.5427 55.8684 79.2666 55.8358C79.0934 55.8157 79.0331 55.7127 78.8072 55.7203C78.6741 55.7253 78.5612 55.9011 78.3102 55.8885C78.1118 55.8785 77.8483 55.7053 77.6274 55.6827C77.6725 55.4392 78.0541 55.1429 78.2775 55.3538C78.4809 55.1404 78.875 55.1002 79.1536 55.0827C78.3102 54.6434 79.977 53.7196 80.2882 53.5314C80.7024 53.2829 81.3451 52.5875 81.5961 51.9298C81.6789 51.7114 81.7216 51.4956 81.6965 51.3023C81.5133 51.2646 81.3275 51.2571 81.1367 51.2696C80.5669 51.3048 79.9745 51.493 79.4297 51.3976C79.1737 51.3525 78.9277 51.0637 78.6942 51.0035C78.5135 50.9583 78.3302 50.9533 78.142 50.9634C77.9562 50.9734 77.7704 50.9985 77.5847 51.0086C77.4818 51.0161 77.3588 51.0362 77.2383 51.0512C77.1178 51.0663 76.9948 51.0738 76.8944 51.0587C76.7663 51.0437 76.671 50.9784 76.6107 50.8604C76.2241 50.9357 76.2517 51.252 76.0308 51.5709C75.589 52.2085 74.8636 52.3289 74.1682 52.3716C73.882 52.3892 73.5331 52.4821 73.252 52.3817C73.0612 52.3013 72.9056 52.1808 72.78 52.0152C72.5114 51.9173 72.2152 52.0202 71.9366 52.0252C71.5601 52.0302 71.1233 51.9574 70.7768 51.852C70.4555 51.7541 70.1468 51.7466 69.8355 51.6662C69.5092 51.5809 69.2933 51.483 68.9268 51.4177C68.6732 51.3725 68.2942 51.2872 68.2013 51.0487C68.1637 50.9483 68.1486 50.8629 68.1536 50.7876C68.1586 50.7349 68.1838 50.6922 68.2063 50.6496C68.2289 50.6094 68.259 50.5718 68.2942 50.5416C68.3193 50.5215 68.3419 50.4965 68.3695 50.4789C68.4021 50.4588 68.4398 50.4462 68.4774 50.4286C68.5076 50.4161 68.5377 50.4036 68.5728 50.391C68.6155 50.3785 68.6582 50.3659 68.7034 50.3559C68.7385 50.3483 68.7711 50.3408 68.8063 50.3333C68.854 50.3232 68.9017 50.3157 68.9469 50.3081C68.982 50.3031 69.0172 50.2981 69.0498 50.2931C69.1376 50.2831 69.218 50.2705 69.2933 50.2605C69.3134 50.258 69.336 50.2555 69.356 50.253C69.4213 50.2429 69.479 50.2329 69.5242 50.2178C69.5443 50.0044 69.4088 49.8212 69.2707 49.6555C69.2255 49.6003 69.1778 49.5501 69.1376 49.4999C69.2481 49.4095 69.3586 49.3116 69.4715 49.2162C69.8079 48.925 70.1643 48.6364 70.5961 48.5309C71.1459 48.3979 71.7508 48.5937 72.2554 48.5862C72.3156 48.5862 72.3935 48.5736 72.4763 48.5535C72.4989 48.5485 72.524 48.5409 72.5491 48.5359C72.6144 48.5208 72.6771 48.5033 72.7449 48.4857C72.9156 48.4355 73.0863 48.3803 73.2043 48.3527C73.5733 48.2648 74.0151 48.1845 74.3716 48.0489C74.4293 48.0263 74.492 47.9811 74.5523 47.9535C74.5648 47.9535 74.5724 47.9535 74.5849 47.9535C74.6828 47.9033 74.7782 47.8406 74.8761 47.7803C75.1171 47.6322 75.3556 47.4741 75.5689 47.3411C76.0509 47.0423 76.4701 46.5377 76.932 46.1336C77.0776 46.1085 77.2132 46.0533 77.3362 45.968C77.4793 45.7772 77.542 45.5638 77.5244 45.3228C77.5897 45.1847 77.7303 45.0517 77.788 44.9211C77.9587 44.5396 78.0114 44.6275 77.7077 44.3739C77.778 44.4317 77.7002 44.4241 77.5872 44.3915C77.542 44.3789 77.4893 44.3614 77.4366 44.3438C77.4265 44.3413 77.4165 44.3363 77.4065 44.3312C77.3688 44.3162 77.3337 44.3036 77.301 44.2886L77.2985 44.286C77.2558 43.8342 77.1102 43.3799 76.9069 43.0435C76.799 43.0309 76.7437 42.9706 76.7362 42.8652C76.7086 42.8225 76.6509 42.5866 76.6157 42.5163C76.43 42.1674 76.4651 41.9891 76.3823 41.6201C76.2542 41.0528 75.5714 40.857 75.1271 40.7365C75.1246 40.7365 75.1246 40.7365 75.1221 40.7365C75.0845 40.7265 75.0468 40.724 75.0092 40.7139C74.7255 40.6537 74.4469 40.6361 74.1682 40.6085C73.985 40.5884 73.8042 40.5633 73.6185 40.5056C73.3248 40.4127 73.0888 40.4403 72.8001 40.4002C72.6595 40.3801 72.6194 40.2822 72.4663 40.247C72.2253 40.1918 72.1926 40.2922 71.9893 40.1617C71.8236 40.0537 71.7408 39.9082 71.5626 39.8228C71.3617 39.7249 71.0379 39.8755 70.7994 39.868C69.833 39.8353 68.377 39.5291 67.6742 40.5357C67.6516 40.5684 67.639 40.6035 67.6215 40.6386C67.5788 40.4629 67.5512 40.2621 67.5763 40.1918C67.6089 40.0989 67.6541 40.0387 67.7068 40.001C67.87 39.8856 68.1109 39.9609 68.3293 39.8755C68.5954 39.7701 68.7561 39.5241 68.9745 39.3559C69.3335 39.0798 69.828 38.6581 70.2823 38.6078C70.2848 38.2765 70.0589 38.0506 70.074 37.7192C70.1091 37.7493 70.2497 37.8196 70.2522 37.8221C70.4856 37.6514 70.6714 37.438 70.8195 37.1845C70.6463 37.0113 71.6404 35.6508 71.7132 35.2993C71.5124 35.2793 71.2312 35.3319 71.0429 35.2491C70.9275 35.1186 70.8095 34.988 70.6865 34.8625C70.5986 34.8374 70.448 34.8951 70.2974 34.9654C70.1468 35.0382 69.9962 35.1261 69.9083 35.1688C69.5318 35.3495 69.2205 35.3721 68.8264 35.4549C68.6155 35.5001 68.603 35.8365 68.3444 35.5278C67.5888 35.8692 64.6568 37.4154 64.2577 36.1578C64.2225 36.0499 64.2 35.9294 64.2075 35.7787C64.3707 35.2918 65.2693 34.963 65.2618 34.4433C65.2141 34.4735 65.1513 34.4985 65.0911 34.5261C65.0309 34.5538 64.9706 34.5839 64.9305 34.6316C65.1187 34.4157 65.4124 34.2852 65.7036 34.1571C66.1906 33.9438 66.6751 33.743 66.6525 33.1857C66.9412 33.3388 66.9964 33.1731 67.275 33.0652C67.501 32.9798 67.747 32.9397 67.9603 32.8644C68.0859 32.8217 68.1762 32.7463 68.2565 32.661C68.2741 32.6409 68.2942 32.6234 68.3118 32.6033C68.3444 32.5631 68.377 32.5229 68.4072 32.4777C68.5051 32.5129 68.6582 32.5355 68.746 32.5707C69.2581 32.769 69.7351 32.6711 70.2623 32.4653C70.6539 32.3121 70.9978 31.7623 71.2714 31.4636C71.5224 31.1875 71.6329 31.1122 71.9717 30.9491C72.1249 30.8763 72.411 30.7281 72.4261 30.5298C72.1926 30.3792 71.9491 30.2888 71.7006 30.226C72.1198 29.8972 72.6621 29.7366 73.1867 29.5583C73.7867 29.355 74.3515 29.1165 74.6527 28.5417C74.7155 28.4212 74.7606 28.3007 74.7857 28.1802C74.8133 28.0597 74.8209 27.9417 74.8083 27.8288C74.7958 27.7158 74.7631 27.6079 74.7079 27.51C74.6527 27.4121 74.5774 27.3242 74.477 27.2489C74.0176 26.905 73.2871 26.9678 72.9507 26.3829C73.2871 26.2247 73.3674 25.8356 73.4779 25.5369C72.9859 24.8742 71.801 25.3511 71.186 24.8415C70.8572 24.5679 70.7668 24.1788 70.6212 23.7897C70.571 23.6567 70.5308 23.6115 70.4957 23.5538C70.4605 23.496 70.4355 23.4207 70.4129 23.23C70.4078 23.004 70.4028 22.7781 70.4003 22.5497C70.3074 22.2836 69.9786 21.9071 69.6698 21.882C69.1979 21.8418 69.1402 22.2209 69.0674 22.6401C68.9971 23.0543 69.0046 24.6985 68.2415 24.5478C68.2189 24.1713 67.9428 23.8876 67.885 23.4985C67.2273 23.7772 66.8759 24.0358 66.3864 24.5504C65.9321 25.0298 65.8166 24.8315 65.2543 24.9545C64.7648 25.0625 64.3556 25.4088 63.846 25.5193C63.851 25.5193 63.1331 25.7453 63.1833 25.7453C63.0352 25.7804 62.8996 25.7402 62.7817 25.6298C62.3624 25.6097 62.0261 25.5319 61.6244 25.449C61.278 25.3762 60.8287 25.6072 60.6781 25.2206C60.5475 24.8867 60.8688 24.573 61.1023 24.4148C61.4864 24.1538 61.8378 24.2817 62.242 24.1361C62.621 23.9981 62.9699 23.742 63.3565 23.5939C63.4494 23.5588 63.5448 23.5312 63.6427 23.5036C63.9339 23.4208 64.2326 23.348 64.4284 23.1271C64.5338 23.0116 64.5941 22.8735 64.6468 22.7355C64.6744 22.6627 64.7095 22.5974 64.7397 22.5271C64.7798 22.5371 64.8225 22.5522 64.8627 22.5547C65.0334 22.5597 65.317 22.5748 65.4777 22.5271C66.1831 22.3213 66.2433 21.4577 66.7579 21.0209C67.0064 20.8101 67.27 20.795 67.4608 20.4887C67.6214 20.2302 67.6014 19.9014 67.6089 19.6503C67.3529 19.3115 66.7504 19.2989 66.3663 19.3215C66.2709 19.3265 66.173 19.3366 66.0751 19.3466C65.7312 19.3792 65.3698 19.4144 65.0309 19.3818C65.0108 19.3792 64.9932 19.3742 64.9756 19.3717C64.9656 19.3667 64.9581 19.3617 64.943 19.3592C64.9279 19.3566 64.9129 19.3516 64.8953 19.3491C64.8777 19.3466 64.8602 19.3416 64.8401 19.3391C64.82 19.3366 64.8024 19.334 64.7849 19.3315C64.7372 19.3265 64.6945 19.3215 64.6819 19.319C64.7773 19.3491 64.8802 19.3642 64.9807 19.3767C64.9882 19.3817 65.0033 19.3868 65.0007 19.3943C64.3205 19.6378 63.8234 19.811 63.1783 20.0068C62.975 20.067 62.8419 20.19 62.6034 20.1574C62.2721 20.1122 61.9909 19.9365 61.6822 19.8838C61.5642 19.6654 61.4035 19.4671 61.2404 19.324C60.7634 18.9098 60.8714 19.437 60.3743 19.3517C59.802 19.2537 60.3316 18.7466 60.3141 18.5634C60.2865 18.222 59.8748 18.0563 59.6991 17.8053C59.6689 17.7626 59.6463 17.7174 59.6338 17.6697C59.6212 17.622 59.6162 17.5694 59.6263 17.5116C59.8271 17.4765 60.0028 17.4011 60.1785 17.3308C60.3542 17.2605 60.5299 17.1903 60.7333 17.1702C60.9467 17.1476 61.2278 17.2129 61.4286 17.1526C61.5516 17.1301 61.637 17.0623 61.6847 16.9443C62.0361 16.8489 61.8604 16.9593 62.2043 16.8163C62.5532 16.6707 62.9247 16.3443 63.2636 16.1586C63.8636 15.8247 64.4987 15.4457 65.0108 15.0014C65.2643 14.783 65.6885 14.4967 65.5028 14.0725C65.3296 13.6784 65.0258 14.0499 64.7924 13.7587C64.569 13.9545 63.605 13.9771 63.6552 13.5353C63.6577 13.5027 63.9339 13.0885 64.0895 12.8626C64.1422 12.7873 64.1799 12.7345 64.1899 12.722C63.9439 12.7546 63.6301 12.8099 63.3163 12.845C63.0026 12.8802 62.6863 12.8927 62.4378 12.845C62.2445 12.8074 62.1792 12.5865 61.9784 12.5965C61.7826 12.6066 61.7349 12.83 61.5491 12.8902C61.1776 13.0107 60.899 12.8375 60.6103 12.6743C60.5149 12.6216 60.4195 12.5689 60.3166 12.5287C60.1383 12.4584 59.9626 12.4132 59.7869 12.373C59.6087 12.3304 59.4305 12.2928 59.2397 12.2375C59.2723 12.112 59.3527 11.9313 59.4506 11.758C59.5485 11.5823 59.6614 11.4167 59.7568 11.3213C59.5509 10.7841 59.1167 10.6862 58.6548 10.4276C58.4163 10.2921 57.9846 10.1214 57.7787 9.95318C57.3595 9.61179 57.6331 9.14993 58.1226 9.02693C58.331 8.97421 58.4992 9.02186 58.6548 9.07457C58.7577 9.10972 58.8556 9.14489 58.956 9.15493C59.0564 9.16498 59.1593 9.1449 59.2723 9.0696C59.33 9.03194 59.3903 8.98169 59.4531 8.9114C59.6388 8.71058 60.0405 8.06796 59.8698 7.80941C59.7744 7.66632 59.3526 7.84454 59.1995 7.76421C58.956 7.63619 59.0112 7.43035 58.7452 7.34249C58.4414 7.24208 58.3661 7.36514 58.0398 7.16683C57.8641 7.0614 57.5227 6.80787 57.3645 6.65976C57.3344 6.53676 57.3018 6.41622 57.2616 6.29573C57.2014 6.28067 57.1411 6.26812 57.0809 6.25306C57.0507 6.21791 56.9805 6.19278 56.9077 6.16266C56.8349 6.13254 56.757 6.09746 56.7093 6.04223C56.8449 5.82635 56.265 4.95021 56.1345 4.64898C55.9362 4.19462 55.6525 3.97375 55.3463 3.68005C55.2433 3.58215 55.1404 3.47671 55.035 3.35371C54.9321 3.2307 54.8492 3.09763 54.7764 2.95956C54.7539 2.91689 54.7338 2.87178 54.7137 2.8291C54.666 2.72869 54.6233 2.6232 54.5882 2.51777C54.5731 2.47259 54.5555 2.42742 54.5405 2.37972C54.5003 2.2517 54.4652 2.11864 54.435 1.98811C54.43 1.96803 54.425 1.95051 54.42 1.93042C54.3823 1.76726 54.3472 1.60154 54.312 1.43838C54.307 1.41829 54.2919 1.39317 54.2844 1.37058C54.2869 1.37309 54.292 1.37559 54.2945 1.38061C54.2744 1.31535 54.2367 1.24261 54.2041 1.17232C54.1338 1.02421 54.0535 0.873598 53.9757 0.717962C53.9681 0.7029 53.9656 0.687843 53.9581 0.675292C53.9079 0.569861 53.8652 0.466899 53.8401 0.366489C53.8301 0.326324 53.8401 0.291165 53.8351 0.256021C53.8276 0.168162 53.8175 0.0778181 53.8577 0C53.8301 0.0602463 53.7949 0.127995 53.7648 0.190752C53.6744 0.384042 53.5765 0.5799 53.4686 0.783231C53.1699 1.34553 52.8385 1.93289 52.6503 2.46506C52.4545 3.01481 52.2612 3.56712 52.0654 4.11687C52.0854 4.47081 51.99 4.67412 51.7767 4.72934C51.7114 4.98288 51.5909 5.05066 51.7591 5.31424C51.3148 5.37197 51.0813 4.9678 50.7876 5.46232C50.6947 5.61795 50.9583 5.87149 50.6621 6.12252C51.119 6.57939 51.6813 6.80533 52.2185 7.02373C51.9599 7.63874 51.5257 7.37261 51.0889 7.55837C51.6487 8.12066 50.4437 8.5023 50.0898 8.50983C49.9818 8.51234 49.5727 8.44454 49.5024 8.5826C49.4246 8.73824 49.4572 8.80854 49.5149 8.86628C49.3969 8.86377 49.2764 8.84613 49.1911 8.84613C48.8949 8.84864 48.6539 8.96917 48.3928 9.08967C48.4154 9.08967 48.4983 9.16749 48.5033 9.21017C48.5058 9.22523 48.4983 9.23524 48.4807 9.23775C48.3502 9.25783 48.187 9.29302 48.0012 9.33067C47.449 9.44865 46.7185 9.60426 46.2365 9.52142C46.1336 9.53397 46.0608 9.49127 46.0231 9.39839C45.7721 9.3758 45.6767 9.46369 45.4408 9.52142C45.2199 9.57665 44.9211 9.63185 44.6927 9.60424C44.3814 9.56407 44.1003 9.36581 43.7639 9.48128C43.5455 9.55659 43.3723 9.82262 43.184 9.96069C43.1238 10.0059 43.041 10.046 42.9581 10.0912C42.9205 10.1113 42.8803 10.1315 42.8452 10.154C42.8301 10.1641 42.8201 10.1816 42.805 10.1917C42.7899 10.2017 42.7724 10.2092 42.7598 10.2218C42.7648 10.2218 42.7698 10.2193 42.7749 10.2193C42.697 10.2896 42.6343 10.3724 42.6268 10.5005C42.6243 10.5783 42.6669 10.6686 42.7247 10.7665C42.7397 10.7916 42.7548 10.8167 42.7749 10.8444C42.7899 10.8644 42.7975 10.8845 42.815 10.9046C42.82 10.9071 42.8251 10.9071 42.8301 10.9096C43.0585 11.2058 43.4225 11.5196 43.5807 11.6652C43.6434 11.7229 43.7288 11.8032 43.8141 11.8785C43.8518 11.9438 43.8769 12.0066 43.9447 12.0744C44.0551 12.1873 44.1229 12.2375 44.1781 12.3003C44.2333 12.363 44.281 12.4333 44.3488 12.5915C44.4844 12.9052 44.3664 12.958 44.6299 13.2241C44.9337 13.5328 45.373 13.4801 45.6341 13.8416C45.6792 13.7713 45.7244 13.7312 45.7721 13.701C45.7847 13.6935 45.7972 13.6884 45.8098 13.6834C45.8524 13.6658 45.8976 13.6583 45.9403 13.6659C45.9453 13.6659 45.9478 13.6659 45.9529 13.6659C46.0031 13.6759 46.0533 13.701 46.1035 13.7337C46.116 13.7412 46.1286 13.7512 46.1411 13.7587C46.1863 13.7914 46.234 13.8265 46.2792 13.8667C46.2842 13.8717 46.2892 13.8742 46.2917 13.8792C46.3545 13.9344 46.4173 13.9922 46.4825 14.05C46.5026 14.0675 46.5202 14.0851 46.5403 14.1027C46.6934 14.2332 46.8515 14.3361 47.0097 14.306C47.1653 14.2759 47.3034 14.1278 47.449 13.9947C47.4791 13.9671 47.5117 13.9395 47.5419 13.9144C47.5594 13.8993 47.5795 13.8868 47.5971 13.8717C47.6272 13.8516 47.6573 13.8341 47.6875 13.819C47.7075 13.809 47.7251 13.8014 47.7452 13.7939C47.7778 13.7838 47.813 13.7813 47.8481 13.7813C47.8657 13.7813 47.8832 13.7763 47.9008 13.7813C47.956 13.7914 48.0113 13.8115 48.0715 13.8542C48.0791 13.8592 48.0941 13.8893 48.1117 13.9269C48.1192 13.947 48.1293 13.9696 48.1393 13.9947C48.1895 14.1228 48.2523 14.2934 48.2824 14.3386C48.3953 14.5068 48.5886 14.6825 48.7618 14.7327C49.161 14.8507 49.7936 14.7302 49.9793 14.2809V14.2783C50.1877 14.4039 50.1601 14.67 50.1651 14.8758C50.1776 15.3829 50.1475 15.4155 49.6254 15.4833C49.3518 15.9025 50.0797 16.4623 50.1776 16.9568C50.2379 17.2581 50.9081 17.2681 50.6772 17.6446C50.6019 17.7676 50.4111 18.0614 50.3031 18.1367C49.7408 18.5207 49.0053 18.0011 48.4732 17.8555C47.9962 17.725 47.8255 17.9634 47.587 18.3375C47.341 18.3851 46.6633 18.0187 46.4574 17.853C46.3068 17.7325 45.6265 17.5342 45.4684 17.4287C45.4056 17.3158 45.3128 17.253 45.1948 17.2455C45.0793 17.2756 44.999 17.3535 44.9563 17.479C44.4869 17.4991 44.7253 17.0372 44.6099 17.8254C44.5973 17.9032 44.5998 18.0161 44.6124 18.1442C44.65 18.5257 44.7881 19.0429 44.9688 19.1885C44.4693 19.2512 44.2082 19.0328 43.8417 18.699C43.5706 18.4555 42.5966 17.8229 42.2226 17.8756C42.308 17.9534 42.3933 18.0413 42.4711 18.1367C42.6268 18.3249 42.7548 18.5358 42.8 18.7265C42.8226 18.8219 42.8251 18.9123 42.8 18.9901C42.9129 19.0554 42.9908 19.2035 43.1087 19.2638C43.0636 19.3291 43.0134 19.4294 42.9631 19.5373C42.9506 19.5624 42.9456 19.5826 42.933 19.6102C42.8903 19.7156 42.8577 19.8235 42.8401 19.9315C42.8376 19.9415 42.8326 19.9541 42.8301 19.9641C42.8301 19.9641 42.8326 19.9641 42.8326 19.9667C42.8201 20.0671 42.8226 20.1624 42.8602 20.2352C42.9908 20.5013 43.302 20.4059 43.4451 20.657C43.6083 20.9431 43.4075 21.2519 43.661 21.5155C43.9447 21.2469 44.389 21.2945 44.7831 21.292L44.7856 21.2946C44.8207 21.2946 44.8584 21.2945 44.8935 21.292C44.9011 21.2895 44.9136 21.287 44.9212 21.2845C44.9739 21.282 45.0316 21.2845 45.0793 21.277C44.8885 21.4603 44.9036 22.9012 45.0793 23.1371C45.2048 23.225 45.3379 23.2902 45.4784 23.3329C45.6667 23.466 45.7294 23.6467 45.9077 23.7948C46.2014 24.0408 46.3545 24.0483 46.711 24.0809C46.7386 24.2089 46.7687 24.337 46.8013 24.4625C48.1443 24.6608 47.4138 25.68 46.5905 25.8833C46.0357 26.0214 45.7244 25.695 45.2249 25.4791C44.758 25.2758 44.2082 25.4666 43.7539 25.0826C43.5706 24.9269 43.5154 24.7612 43.2895 24.6834C42.9556 24.568 42.6192 24.9068 42.3029 24.8817C41.7984 24.8415 41.6151 24.2793 41.1984 24.0307C40.7064 23.7345 40.1918 23.6392 39.7023 23.2877C39.4011 23.0718 38.8413 22.389 38.4723 22.6024C38.289 23.2877 38.6078 23.594 38.9216 24.0258C39.3936 24.6734 39.3509 25.2382 39.4337 26.0314C39.4914 26.5837 39.7575 26.536 39.9107 26.9879C39.991 27.2288 39.8755 27.4924 39.883 27.7208C39.8906 27.9693 39.9483 28.0923 40.0086 28.3659C41.3214 28.3107 40.0663 29.7215 39.7299 30.0855C40.2998 30.3716 40.0236 31.2 40.35 31.7021C40.5307 31.9782 40.7642 32.1891 41.0077 32.3824C41.2135 32.548 41.472 32.8393 41.7005 32.9949C41.703 32.9974 41.703 32.9974 41.7055 32.9974C41.7256 33.0099 41.7482 33.02 41.7682 33.03C41.9389 33.1279 42.1222 33.1807 42.3055 33.2635C42.3406 33.2986 42.3757 33.3288 42.4109 33.374C42.5615 33.5622 42.692 33.8007 42.8301 34.0316C43.0133 34.3429 43.2066 34.6466 43.4677 34.8248C43.6911 34.978 43.9246 35.1186 44.158 35.2617C44.3112 35.4323 44.4743 35.5955 44.6224 35.7336C44.3814 35.8189 44.1731 35.8892 43.9572 35.9445C43.789 35.9871 43.6183 36.0223 43.4175 36.0298C43.1715 36.0398 42.4912 36.2256 42.2703 36.0549C42.0343 35.8742 42.062 35.3872 41.7457 35.2717C41.6076 35.2215 40.8545 35.45 40.7642 35.5905C40.4529 35.4474 40.247 35.2341 39.9609 35.0257C39.2053 34.4709 39.7274 35.2516 39.7249 35.7211C39.1099 36.1478 38.0229 35.0784 37.4431 34.9203C37.0766 34.8199 36.562 34.6768 36.1754 34.6944C35.9821 34.7019 35.972 34.6316 35.7737 34.7697C35.5528 34.9228 35.6382 35.0634 35.4775 35.2642C35.7587 35.6257 36.3009 35.9243 36.459 36.341C36.1704 36.5871 35.5177 36.8808 35.3194 37.2147C35.0006 37.7544 35.5905 38.2137 35.8214 38.5526C35.962 38.7559 36.1528 39.012 36.2733 39.2304C36.4741 39.5918 36.3637 39.8203 36.4565 40.1843C36.5871 40.6939 37.1268 40.9022 37.1996 41.5122C37.5937 41.4645 37.6941 41.8436 37.5887 42.2226C37.1519 42.2779 36.68 42.0469 36.208 42.0821C35.6457 42.1247 35.6056 41.9113 35.1161 41.7206C34.5613 41.5022 33.4869 40.9122 32.9045 41.0804C32.5455 40.9624 32.3523 40.35 31.9481 40.1742C31.5816 40.0136 31.18 39.6697 30.7783 39.7651C30.7608 39.7726 30.6152 39.8931 30.5775 39.9458C30.6829 40.1541 30.7306 40.36 30.8712 40.5382C31.1298 40.867 31.298 40.6888 31.3507 41.2035C31.3908 41.6176 31.1172 41.8812 31.2653 42.3356C31.3808 42.687 31.7096 42.9406 31.9431 43.1866C32.1715 43.4276 32.4276 43.6359 32.6108 43.9245C32.8468 44.2986 32.8794 44.2936 33.2108 44.5396C33.8032 44.9814 33.7178 46.0131 34.3203 46.3897C34.6366 46.588 34.7722 46.4173 35.0307 46.8089C35.2466 47.1327 35.1914 47.4038 35.224 47.813C35.2541 48.1995 35.2215 48.561 35.6332 48.6363C35.8189 48.669 35.9695 48.3452 36.2532 48.5109C36.6724 48.7569 36.4967 49.3543 36.9636 49.6656C37.3201 49.904 38.3242 50.3634 38.6355 49.8538C38.756 49.9994 38.9542 50.3107 39.1124 50.391C39.5216 50.5969 39.7274 50.1852 40.0914 50.1325C41.0177 50.0019 40.4278 51.006 39.9835 51.2319C39.9307 51.1642 39.868 51.1391 39.7952 51.1566C39.5693 51.242 39.376 51.4202 39.1099 51.4529C38.8187 51.488 38.6304 51.5959 38.3141 51.6737C38.1736 51.6712 38.033 51.6713 37.8924 51.6688C37.7142 51.7265 37.7016 51.9399 37.5184 51.9625C37.1971 52.0026 37.0214 51.7139 36.6624 51.8469C36.7176 52.2862 36.7829 53.0494 36.1478 52.6754C35.7913 52.4645 35.5754 51.8269 35.1788 51.6336C34.7797 51.4403 34.3781 51.5005 33.9965 51.124C33.876 51.006 33.8961 50.8027 33.7429 50.6521C33.63 50.5442 33.2785 50.3408 33.148 50.3006C32.9422 50.6822 32.8543 51.0763 32.7916 51.4905C32.7966 51.4503 32.7062 52.0604 32.7087 51.9951C32.6937 52.3716 32.7112 52.5474 32.8192 52.9038C33.0551 53.6669 33.3287 54.2317 34.0944 54.2769C34.3153 55.0702 34.117 55.3613 34.978 55.4115C35.0056 55.6274 35.0382 55.8283 35.0759 56.0416C35.3219 56.0341 35.4524 56.2174 35.6658 56.2902C35.8114 56.2123 35.9394 56.2349 36.0524 56.3604C36.1955 56.5035 36.0875 56.8599 36.2683 57.0407C36.4139 57.1863 36.6046 57.2164 36.7678 57.3194C36.5042 57.3646 36.2432 57.4172 35.9746 57.5001C35.7888 57.5578 35.5001 57.731 35.3119 57.7812C35.0332 57.8565 34.7295 57.8465 34.4358 57.8615C34.2023 57.8741 33.9287 57.8691 33.6802 57.9243C33.4317 57.9796 33.2108 58.0925 33.0827 58.3435C33.0827 58.336 33.1129 58.336 33.1505 58.341C33.1581 58.341 33.1656 58.3435 33.1756 58.3435C33.2233 58.3486 33.2811 58.3561 33.3388 58.3661C33.3689 58.3712 33.3965 58.3737 33.4216 58.3787C32.7037 58.3536 31.9858 58.341 31.2678 58.341C31.2302 58.213 31.0444 58.1678 30.8888 58.1326C30.8361 58.1201 30.7884 58.1101 30.7507 58.0975C30.4871 58.0072 30.211 57.9368 29.975 57.8289C29.8345 57.7636 29.6889 57.6934 29.5433 57.6306C29.1165 57.4449 28.6672 57.3118 28.1978 57.4398C28.5668 56.9428 27.7484 56.9027 27.51 56.9403C27.1435 56.9981 26.8272 57.5051 26.5736 57.47C26.3527 57.4449 25.4792 57.9645 25.4792 58.2431C25.4792 58.7527 26.6289 58.7778 26.5937 59.3652C26.5159 60.6253 23.5086 58.3987 24.3169 60.668C24.5002 61.1826 24.6006 61.8378 24.8591 62.3047C24.9369 62.4478 25.208 62.857 25.3486 62.9298C25.6247 63.0729 25.9009 62.9548 26.1569 63.2184C26.4632 63.5347 26.2498 63.7632 26.4356 64.1121C26.5536 64.3305 26.8447 64.4008 26.9979 64.5966C27.2589 64.9305 27.2213 65.4777 27.643 65.686C27.3619 65.8768 27.3066 66.0927 26.9803 66.2132C26.6665 66.3287 26.4281 66.1806 26.1871 66.5446C26.2649 66.6349 26.3603 66.6901 26.4682 66.7127C25.8632 66.5922 25.9486 67.1746 25.5469 67.2524C25.1729 67.3227 24.711 66.7905 24.2742 67.0365C23.7697 67.3227 24.4976 68.3544 24.7763 68.6807C25.0524 69.0046 25.4616 69.1578 25.7101 69.5117C25.936 69.8355 26.1243 70.0991 26.3753 70.4279C26.4858 70.5735 26.5937 70.8296 26.7017 70.9526C26.9226 71.2061 26.9175 71.0304 27.1761 71.1986C27.4547 71.3793 28.0221 71.7483 28.1426 72.0596C28.3057 72.0018 28.4739 71.9994 28.6346 72.0621C28.6421 72.5466 29.4906 73.0059 29.3525 73.518C29.832 73.7665 29.3224 74.2661 29.7767 74.6226C30.1231 74.8911 30.0077 74.6728 30.334 74.5824C30.5047 74.5046 30.6804 74.472 30.8637 74.4795C31.2402 74.5649 31.0896 74.7255 31.3306 74.964C31.6343 75.2627 31.9883 75.1246 32.3573 75.3028C32.4552 75.3631 32.5355 75.4434 32.6008 75.5438C32.8116 75.6091 32.9648 75.5238 33.1731 75.5489C33.763 75.6192 33.999 76.1187 34.2274 76.6208C34.2274 76.6233 34.2249 76.6232 34.2249 76.6232C34.2124 76.6257 34.2023 76.6333 34.1898 76.6333C34.0316 76.6509 34.004 76.5931 33.9388 76.5504C33.9187 76.5354 33.891 76.5253 33.8559 76.5178C33.7555 76.4977 33.6601 76.4952 33.5647 76.4952C33.4693 76.4977 33.3739 76.5053 33.271 76.5128C32.8744 76.5404 32.5757 76.4149 32.1991 76.4073C31.8678 76.4023 31.4762 76.4099 31.1649 76.5003C31.0645 76.5304 30.9892 76.6158 30.8461 76.6434C30.6503 76.681 30.4369 76.6433 30.2386 76.6684C30.1081 76.6835 29.8094 76.8191 29.6964 76.7915C29.5357 76.7538 29.5709 76.6634 29.4479 76.5956C29.2496 76.4852 29.0387 76.435 28.8253 76.4024C28.612 76.3697 28.3986 76.3521 28.1902 76.3145C28.0271 76.2819 27.8965 76.2492 27.766 76.2241C27.6355 76.199 27.4999 76.1865 27.3242 76.199C26.8598 76.2267 26.5059 76.2618 26.0741 76.3873C25.7553 76.4801 25.5043 76.5479 25.2106 76.6257C24.8968 76.7061 24.6282 76.9245 24.3119 76.9948C23.6567 77.1429 22.8484 77.065 22.1782 77.1002C21.4728 77.1378 20.8 77.3086 20.2302 76.8492C19.6478 76.3773 19.3717 76.3019 18.6412 76.3421C19.2989 76.3069 16.8363 76.3949 16.7836 76.4275C16.6581 76.5103 16.6054 76.6056 16.5627 76.7638C16.5552 76.7914 16.5602 76.814 16.5552 76.8391C16.4999 76.8542 16.4447 76.8743 16.3543 76.9169C16.0858 77.0475 15.9201 76.9671 15.8573 77.4265C16.0732 77.6399 16.0305 78.0666 16.269 78.3026C16.392 78.4231 16.5677 78.3804 16.7309 78.4758C16.7334 78.4833 16.7284 78.4909 16.7309 78.4984C16.766 78.6641 16.8464 78.7946 16.9091 78.9453C16.9543 79.0507 16.9895 79.1561 17.0246 79.2565C16.9443 79.3343 16.8715 79.4197 16.8439 79.5452C16.7711 80.0246 16.879 79.8213 16.9895 80.1301C17.0372 80.2656 17.2706 80.7024 17.3359 80.8329C17.5016 81.1668 17.5894 81.1492 17.7877 81.3978C18.2597 81.9927 18.0638 82.9215 18.9851 82.9315C19.4345 82.9365 19.8009 82.7583 20.0018 83.3332C20.0972 83.6018 19.9089 83.8353 20.2277 84.011C20.431 84.1239 20.6042 84.0335 20.6946 83.8202C20.9431 84.0812 20.9431 83.7699 21.1364 83.7976C21.5431 83.8553 21.8518 84.2243 22.2761 84.2092C22.3338 84.6109 22.4192 84.9824 22.6777 85.2837C22.9764 85.6326 23.2124 85.3464 23.5663 85.5623C23.7119 85.6501 23.8249 85.9313 23.9981 86.0418C24.214 86.1773 24.2366 86.1095 24.4675 86.1823C24.8441 86.3003 25.2683 86.4811 25.6775 86.5614C25.9687 85.6652 26.7544 85.8233 27.4447 85.7882C28.0949 85.5924 28.3785 86.3305 28.4363 87.0283C28.5015 87.8215 28.366 87.942 27.8865 88.424C27.402 88.911 26.8899 88.8809 26.2599 88.9236C25.9662 88.9436 25.8005 88.8081 25.5871 88.7779C25.2306 88.7252 24.8993 88.8457 24.5504 88.8432C23.9831 88.8407 23.2475 88.9612 22.7304 88.5847C22.4041 88.3487 22.5396 88.1705 22.1029 88.1881C21.8142 88.2006 21.5631 88.3939 21.3021 88.5345C21.0059 88.6951 20.8201 88.7654 20.4862 88.7604C20.067 88.7529 19.9466 88.532 19.6026 88.3813C19.0906 88.1604 18.5383 88.2358 18.0864 88.1554C17.4011 89.1294 18.1166 89.7544 18.7592 90.3042C19.0855 90.5828 19.1884 90.6807 19.3867 91.1276C19.447 91.228 19.5073 91.3258 19.57 91.4262C19.6102 91.5568 19.5725 91.6422 19.4545 91.6823C19.4621 92.2798 19.3767 92.5207 19.8562 92.8571C20.047 92.9902 20.5816 93.0956 20.7046 93.2863C20.8327 93.4872 20.6871 93.7382 20.7498 93.9516C20.913 94.5064 21.1565 94.3105 21.4427 94.1976C21.8041 94.057 22.0225 93.9365 22.2008 94.5792C22.2309 94.6846 22.1932 94.9231 22.2033 95.0335C22.2334 95.3875 22.379 95.6561 22.4694 95.9774C22.4894 96.0477 22.497 96.1054 22.512 96.1682C22.1631 96.3188 21.8117 96.4142 21.4452 96.4443C20.9456 96.4845 20.4235 96.4493 19.8562 96.4468C19.6528 96.4443 19.3391 96.3891 19.0278 96.3339C18.8721 96.3062 18.714 96.2786 18.5709 96.256C18.4278 96.2334 18.2948 96.2184 18.1919 96.2159C17.9785 96.2109 17.735 96.2535 17.4915 96.2887C17.4639 96.2912 17.4388 96.2936 17.4112 96.2962C17.2079 96.0928 17.0196 95.877 16.7384 95.7389C16.2841 95.5155 16.0858 95.6585 15.7469 95.7966C15.5159 95.7113 15.285 95.6259 15.054 95.5531C14.8683 95.4954 14.6951 95.4427 14.5169 95.3874C14.4742 95.3448 14.4365 95.3021 14.3913 95.2594C14.3637 95.277 14.321 95.2971 14.2859 95.3172C13.8265 95.1766 13.3772 95.026 12.9078 94.8001C12.6743 94.6871 12.3881 94.5792 12.1221 94.5239C12.117 94.4938 12.1095 94.4637 12.1045 94.4335C11.6702 94.4135 11.3313 94.0972 10.892 94.2152C10.6285 94.2855 9.8603 94.5516 9.87788 94.9909C9.88792 95.2569 10.1791 95.2419 10.2971 95.4226C10.3222 95.4603 10.3372 95.518 10.3573 95.5657C10.3699 95.7816 10.3925 95.9924 10.3975 96.1556C10.4076 96.4292 10.513 96.6326 10.6636 96.8008C10.8569 97.2802 11.1104 97.3982 11.0426 98.0508C10.9824 98.6332 10.9272 98.4449 11.133 98.8918C11.2786 98.9043 11.3589 98.9922 11.3715 99.1503C11.369 99.311 11.374 99.4742 11.3815 99.6348C11.3966 100.17 11.5673 100.574 11.8585 100.975C12.1597 101.392 12.6793 101.753 13.1111 101.979C13.2441 102.05 13.3671 102.117 13.5127 102.18C13.7939 102.303 14.3562 102.165 14.5922 102.351C14.7779 102.497 14.7352 102.612 14.8382 102.815C14.8206 103.034 14.8959 103.192 15.0641 103.287C15.2348 103.363 15.3703 103.488 15.4657 103.666C15.777 104.118 15.8975 104.786 16.4447 104.992C16.6556 105.07 16.8112 104.984 17.0221 105.002C17.3083 105.027 17.4262 105.1 17.6923 105.21C18.1517 105.401 18.6211 105.544 19.1031 105.662C19.3717 105.727 19.9064 105.815 20.1323 105.963C20.416 106.149 20.5063 106.47 20.8051 106.659C21.0862 106.834 21.7464 106.985 22.0677 107.053C22.2284 107.085 22.502 107.013 22.6426 107.11C22.8735 107.271 22.9564 107.803 23.1923 107.956C23.5312 108.177 24.1688 107.864 24.5529 107.956C24.5805 108.82 25.3436 108.747 25.8708 108.79C26.1645 108.815 26.2322 108.88 26.4883 109.008C26.6188 108.96 26.7443 108.963 26.8724 109.021C26.9502 109.091 26.9652 109.352 27.0506 109.45C26.9677 109.535 26.8975 109.633 26.8247 109.726C26.7669 109.691 26.7067 109.641 26.6515 109.628C26.0038 109.457 25.3486 109.932 24.8566 110.246C24.696 110.349 24.4349 110.459 24.2567 110.514C24.0609 110.575 23.86 110.517 23.6718 110.572C23.3781 110.66 23.112 110.826 22.7831 110.908C22.3363 111.021 21.8669 110.956 21.4125 111.011C20.9356 111.069 20.5239 111.225 20.0093 111.245C19.816 111.252 19.6227 111.275 19.4269 111.305C19.3667 111.282 19.2989 111.267 19.206 111.262C18.8646 111.25 18.4153 111.443 18.0086 111.717C17.8354 111.795 17.6622 111.875 17.499 111.97C17.2857 112.093 17.0974 112.206 16.9192 112.322C16.889 112.284 16.8664 112.239 16.8338 112.204C16.52 112.455 16.2991 112.462 16.0732 112.864C16.1083 112.914 16.151 112.939 16.1937 112.969C16.1385 113.04 16.0782 113.102 16.0255 113.185C15.8623 113.436 15.5661 113.755 15.3176 113.911C15.2574 113.948 15.0289 114.021 14.9913 114.059C14.921 114.124 14.8783 114.207 14.8432 114.297C14.808 114.38 14.7754 114.463 14.7377 114.546C14.7227 114.578 14.7126 114.614 14.6951 114.644C14.6599 114.706 14.6148 114.762 14.552 114.807C14.5093 114.837 14.4214 114.872 14.3286 114.905C14.2834 114.92 14.2407 114.935 14.198 114.947C14.1805 114.952 14.1629 114.957 14.1478 114.962C14.0926 114.978 14.0399 114.993 14.0098 114.998C13.6985 115.053 13.8466 114.95 13.6132 114.927C13.4801 114.915 13.3571 114.917 13.2316 114.922C13.1061 114.927 12.9806 114.937 12.8475 114.94C12.5714 114.945 12.3078 114.915 12.0442 114.877C11.9664 114.867 11.8861 114.857 11.8083 114.845C11.5673 114.804 11.3263 114.757 11.0703 114.714C11.1004 114.714 11.2811 114.706 11.3112 114.706C11.1129 114.443 10.6234 114.573 10.3046 114.596C10.1791 114.606 10.0762 114.578 9.97829 114.551C9.89545 114.526 9.81763 114.503 9.7373 114.501C9.56911 114.501 9.25283 114.601 9.07962 114.661C8.97168 114.699 8.86373 114.734 8.75579 114.767C8.45707 114.855 8.15333 114.91 7.79938 114.85C7.67387 114.829 7.57597 114.759 7.43288 114.742C7.2898 114.754 7.1442 114.762 6.99861 114.769C6.87058 114.774 6.78775 114.797 6.71495 114.824C6.64215 114.852 6.57689 114.887 6.4815 114.92C6.06982 115.055 5.66818 115.219 5.27657 115.409C4.88748 115.6 4.50843 115.816 4.14193 116.062C4.1118 116.082 4.0842 116.102 4.05659 116.122C3.88338 116.255 3.83066 116.358 3.71519 116.587C3.55202 116.91 3.41144 116.9 3.54198 117.199C3.59218 117.315 3.81058 117.578 3.90346 117.653C3.94613 117.689 4.02144 117.716 4.0867 117.749C4.09925 117.809 4.11181 117.869 4.13189 117.927C4.21975 118.156 4.36283 118.258 4.52349 118.326C4.526 118.326 4.52851 118.329 4.53353 118.329C4.61888 118.364 4.70674 118.389 4.7946 118.417C4.83979 118.429 4.88246 118.444 4.92513 118.459C4.95023 118.469 4.97534 118.482 5.00044 118.492C5.04563 118.512 5.0883 118.537 5.12846 118.567C5.14855 118.58 5.16863 118.595 5.1862 118.61C5.24142 118.66 5.29414 118.72 5.33431 118.801C5.22386 118.936 5.09081 119.039 4.96027 119.147C4.91007 119.19 4.85736 119.23 4.80966 119.275C4.81217 119.278 4.8197 119.278 4.82221 119.28C4.772 119.328 4.71678 119.366 4.67411 119.423C4.72431 119.596 4.82724 119.739 4.9653 119.827C4.59378 120.076 4.36032 120.134 3.93358 120.058C3.26836 119.943 2.98721 119.935 2.38223 120.141C2.3245 120.161 2.26677 120.169 2.20903 120.179C2.03834 120.214 1.86512 120.226 1.69192 120.229C1.51118 120.232 1.33044 120.229 1.14719 120.252C0.74806 120.304 0.391601 120.505 0 120.595C0.311273 121.59 1.78731 121.994 2.50524 122.308C2.72866 122.405 2.82907 122.601 3.06503 122.712C3.39639 122.865 3.83568 122.792 4.17707 122.93C4.41806 123.028 4.56867 123.226 4.79962 123.329C5.17365 123.497 5.44978 123.425 5.81376 123.731C6.27565 124.12 6.1401 124.921 6.73754 125.114C7.38519 125.325 7.95502 124.903 8.57003 125.355C9.03192 125.694 9.25533 126.306 9.76994 126.61C9.97076 126.728 10.1992 126.839 10.4176 126.964C10.4201 126.967 10.4251 126.967 10.4276 126.969C10.5029 127.014 10.5757 127.064 10.646 127.115C10.6862 127.142 10.7263 127.167 10.764 127.197C10.8268 127.248 10.8795 127.305 10.9347 127.361C10.9949 127.423 11.0577 127.479 11.1079 127.551C11.0326 127.506 11.005 127.436 11.02 127.336C11.5221 127.469 11.9062 127.705 12.4886 127.684C13.214 127.657 14.2407 127.91 14.8783 128.315C15.054 128.538 15.2574 128.719 15.4908 128.859C15.6666 128.97 15.8448 128.99 16.023 128.917C16.2891 129.015 16.397 129.349 16.6456 129.389C16.8865 129.427 16.9568 129.289 17.0823 129.181C17.125 129.143 17.1702 129.11 17.233 129.088C17.3986 129.025 17.5593 129.063 17.7124 129.068C17.8655 129.073 18.0086 129.05 18.1316 128.862C18.1994 128.834 18.2471 128.859 18.2697 128.935C18.6362 128.751 18.9475 128.254 19.2939 128.094C19.4696 128.013 19.7332 127.936 19.939 127.873C20.0068 127.853 20.0695 127.835 20.1197 127.818C20.4059 127.727 20.5942 127.664 20.8327 127.521C20.8779 127.873 21.1088 128.136 21.3347 128.36C21.6987 128.721 21.6485 128.618 21.7841 129.158C21.8694 129.494 21.9974 129.876 22.2334 130.087C22.4317 130.263 22.6551 130.22 22.8459 130.451C22.984 130.619 23.0819 130.955 23.1823 131.159C23.4333 131.663 23.4986 131.688 23.9479 131.427C24.0985 131.339 24.2366 131.242 24.3696 131.149C24.5002 131.056 24.6257 130.973 24.7537 130.913C24.8817 130.852 25.0098 130.82 25.1453 130.83C25.2809 130.84 25.4289 130.895 25.5896 131.011C25.8105 131.171 26.0164 131.342 26.2247 131.508C26.4331 131.673 26.649 131.831 26.8899 131.967C27.2263 132.155 27.5351 132.303 27.5777 132.783C28.4287 132.539 28.8178 131.957 29.4755 131.352C29.7893 131.063 30.2687 130.383 30.7131 130.378C30.9791 130.375 30.9967 130.627 31.1825 130.684C31.2879 130.717 31.3808 130.714 31.4712 130.707C31.564 130.699 31.6544 130.684 31.7598 130.694C32.0385 130.717 32.2544 130.832 32.4577 130.955C32.7941 131.161 33.0953 131.392 33.5898 131.259C33.7706 131.211 33.7505 131.104 33.9889 131.101C34.0166 131.101 34.363 131.262 34.4559 131.272C34.7571 131.302 35.2642 131.053 35.4926 131.342C35.7235 131.066 36.3612 130.737 36.6875 130.672C37.3678 130.531 37.7368 130.983 38.3618 131.073C38.6279 131.111 38.9241 131.028 39.1726 130.96C39.3258 130.82 39.5015 130.765 39.6948 130.795C39.7801 130.89 39.8805 130.955 39.996 130.988C40.2671 131.016 40.5081 130.885 40.7792 130.98C41.0227 131.066 41.1608 131.302 41.3942 131.365C41.472 131.385 41.5599 131.387 41.6679 131.357C41.8109 131.317 41.8963 131.365 41.9841 131.425C42.072 131.485 42.1599 131.558 42.3055 131.568C42.549 131.588 42.6368 131.693 42.815 131.731C43.184 131.811 43.538 131.944 43.8618 131.917C43.912 131.796 43.9974 131.724 44.1229 131.701C44.281 131.698 44.4392 131.701 44.5973 131.708C44.9387 131.605 44.8559 131.45 45.0793 131.237C45.1471 131.174 45.4282 131.051 45.5136 131.003C45.7746 130.852 45.9604 130.647 46.1888 130.476C46.962 129.899 48.2297 129.05 49.0857 129.976C49.2639 130.17 49.3693 130.34 49.5375 130.536C49.7283 130.757 50.0697 130.895 50.2806 131.101C50.4563 131.272 50.5793 131.462 50.6947 131.658C50.8102 131.857 50.9182 132.062 51.0638 132.268C51.237 132.213 51.4579 132.16 51.6712 132.103C51.7767 132.072 51.8871 132.047 51.98 132.01C51.98 132.007 51.9775 132.002 51.975 132C52.0076 131.985 52.0553 131.977 52.0854 131.962C52.4695 131.759 52.826 131.344 53.2602 131.156C53.8401 130.903 55.0752 130.624 55.4969 131.334C55.6299 131.56 55.6952 131.967 55.8107 132.216C55.9763 132.394 56.0868 132.605 56.142 132.846C56.3127 133.315 56.501 133.762 56.6717 134.229C56.9503 134.982 57.2064 135.655 57.4373 136.423C58.0724 136.626 59.0564 135.86 59.4756 135.461C59.8221 135.13 60.0304 134.771 60.2086 134.359C60.3944 133.935 60.6329 133.543 60.8237 133.144C61.2002 132.366 61.4663 132.389 62.0838 132.896C62.3951 133.149 62.5206 133.38 62.8871 133.287C62.9975 133.26 63.4469 132.848 63.5674 132.75C63.836 132.529 64.2652 132.133 64.4334 131.831C64.707 131.339 64.7798 130.724 65.1187 130.215C65.3547 129.858 65.6509 129.477 65.9546 129.183C66.1329 129.01 66.3061 129.028 66.3764 128.741C66.8809 129.321 67.5712 130.682 68.5277 130.446C68.9946 130.333 69.3058 129.796 69.8656 129.926C70.438 130.059 70.5334 130.617 70.8923 130.97C71.1584 131.234 71.5199 131.39 71.8287 131.621C71.9667 131.724 72.155 131.764 72.3006 131.872C72.5491 132.055 72.6545 132.241 72.9583 132.386C73.4754 132.635 74.0201 132.685 74.5146 132.936C75.0267 133.197 75.4384 133.36 75.9882 133.461C76.1137 133.014 76.0911 132.524 76.4249 132.19C76.5203 132.095 76.8743 131.954 76.9973 131.872C77.1805 131.749 77.1454 131.57 77.4516 131.573C77.5018 130.747 77.8884 129.873 78.3277 129.151C78.6038 128.696 78.772 128.134 79.3594 128.239C80.0322 128.36 80.4639 128.937 81.2296 128.829C81.566 128.782 82.3492 128.518 82.3542 128.043C82.3567 127.883 82.0831 127.692 82.0153 127.556C81.8295 127.175 81.8772 126.871 81.7994 126.48C81.6789 125.885 81.4655 125.48 81.1995 124.988C81.0764 124.76 80.6623 124.163 80.7602 123.907C81.8019 123.721 81.9274 124.833 82.5801 125.265C83.1499 125.641 83.8302 125.727 84.3498 126.229C84.5733 126.444 84.887 126.645 85.0753 126.894C85.3665 127.275 85.2159 127.353 85.7204 127.401C85.9439 127.421 86.1999 127.303 86.4183 127.348C86.5438 127.356 86.6342 127.416 86.6944 127.529C87.1337 127.592 87.4174 127.597 87.5981 127.09C87.7563 127.157 87.9169 127.208 88.0801 127.243C88.0801 127.243 88.0751 127.245 88.0726 127.245C88.0851 127.248 88.0977 127.248 88.1102 127.25C88.1931 127.268 88.2809 127.275 88.3688 127.28C88.4039 127.283 88.4365 127.288 88.4717 127.288C88.5947 127.288 88.7202 127.275 88.8583 127.245C89.1796 127.172 89.3754 126.989 89.7118 126.992C89.8523 126.992 90.0783 127.165 90.2741 127.17C90.5025 127.172 90.7937 127.122 90.9694 126.957C91.2556 126.683 91.0723 126.766 91.1476 126.412C91.1903 126.208 91.2681 126.023 91.3585 125.844C91.3911 125.782 91.4263 125.721 91.4639 125.661C91.5643 125.498 91.6748 125.34 91.8179 125.189C92.3877 124.589 93.0805 124.424 93.801 124.419C94.0093 124.419 94.2227 124.431 94.4336 124.451C94.4787 124.456 94.5239 124.459 94.5691 124.464C94.7674 124.484 94.9657 124.509 95.159 124.534C95.7163 124.607 96.2058 124.808 96.7781 124.697C97.0292 124.65 97.2953 124.429 97.4559 124.562C97.353 123.779 97.9379 123.613 98.5429 123.47C99.2231 123.309 99.5369 123.41 100.036 122.872C100.556 122.31 101.058 122.373 101.728 122.119C102.341 121.886 102.803 121.577 103.383 121.213C103.722 121 104.171 120.648 104.575 120.54C104.803 120.48 104.999 120.525 105.22 120.478C105.654 120.382 105.991 120.106 106.405 119.978C106.704 119.885 106.945 119.933 107.241 119.9C107.745 119.845 108.137 119.561 108.591 119.396C108.976 119.258 109.377 119.265 109.761 119.104C110.155 118.941 110.552 118.766 110.908 118.572C111.692 118.143 112.422 117.706 112.982 116.941C113.635 116.044 114.531 115.309 115.429 114.674C115.849 114.347 116.258 114.234 115.796 113.793Z" fill="#3F98A7"/>
<path opacity="0.39" d="M63.8135 18.1642C63.9139 18.1943 64.0193 18.2119 64.1273 18.2245C64.0921 18.1868 63.8436 18.1742 63.8135 18.1642Z" fill="#3F98A7"/>
</svg>
