<svg width="109" height="164" viewBox="0 0 109 164" fill="none" xmlns="http://www.w3.org/2000/svg">
<path d="M55.8733 163.995C76.5337 163.995 93.2823 160.065 93.2823 155.217C93.2823 150.369 76.5337 146.439 55.8733 146.439C35.2129 146.439 18.4643 150.369 18.4643 155.217C18.4643 160.065 35.2129 163.995 55.8733 163.995Z" fill="#AD2429"/>
<path d="M13.7473 100.154C16.5373 100.294 18.4473 96.7687 22.0473 95.5687C23.2273 95.1687 49.1073 100.464 50.4273 100.274C51.7473 100.074 75.1173 98.7037 76.2973 98.3037C77.4773 97.9137 79.0713 99.7487 86.1413 98.3697C87.8513 98.0397 92.2273 101.364 93.4573 100.714C100.257 119.714 110.937 123.274 107.597 127.374C102.787 133.264 95.2473 127.764 94.3673 128.154C92.9573 128.784 91.5073 133.504 85.9173 134.834C78.0673 136.704 72.2673 128.944 70.6973 129.234C70.0473 129.354 69.4273 130.194 68.5673 131.244C67.1373 132.974 65.0473 135.264 61.0773 135.814C53.3473 136.884 47.9573 129.134 46.8173 129.054C46.2073 129.014 44.1673 131.854 40.5773 134.074C38.4173 135.414 35.6973 136.534 32.3873 136.684C23.5473 137.084 19.5473 128.054 18.5673 128.644C13.6073 131.614 2.55726 131.494 0.137265 125.414C-0.942735 122.704 4.61728 119.324 7.46728 113.984C10.9273 107.514 13.7473 100.164 13.7473 100.164V100.154Z" fill="#255E27"/>
<path d="M68.5673 131.244L69.0273 152.114C69.0273 152.114 65.5073 156.284 56.3773 156.244C46.1573 156.184 41.2573 153.194 41.2573 153.194L40.5773 134.084V134.074C44.1673 131.854 46.2073 129.014 46.8173 129.054C47.9573 129.134 53.3473 136.884 61.0773 135.814C65.0473 135.264 67.1373 132.974 68.5673 131.244Z" fill="#6B4726"/>
<path d="M98.8772 94.5737C98.8772 95.6237 97.2972 98.6937 93.4572 100.714C92.2272 101.364 90.7672 101.904 89.0572 102.234C81.9872 103.614 77.4772 97.9137 76.2972 98.3037C75.1172 98.7037 73.3472 105.184 64.9072 106.164C56.4672 107.154 51.7472 100.074 50.4272 100.274C49.1072 100.464 44.0872 105.964 36.4372 106.164C28.7772 106.354 24.6472 98.3037 23.4672 98.7037C19.8672 99.9037 16.5372 100.294 13.7472 100.154C9.31724 99.9537 6.27723 98.4237 5.79723 96.7337C5.01723 93.9837 10.9072 87.5037 14.0472 82.4037C17.1172 77.4037 21.3072 67.7337 21.4972 67.3237C26.9972 69.1737 32.0122 60.7727 33.2722 60.7727C35.5222 60.7727 53.0662 61.0857 54.6462 61.0857C56.2162 61.0857 72.6543 60.2897 72.6543 60.2897C72.6543 60.2897 76.1373 68.1637 80.1973 66.7737C85.4873 77.4537 98.8772 93.2037 98.8772 94.5737Z" fill="#326D32"/>
<path d="M80.1973 66.7737C76.1373 68.1637 72.5673 63.4937 72.5673 63.4937C72.5673 63.4937 69.0273 69.4437 64.5173 69.4437C59.9973 69.4437 55.8773 64.3337 54.3073 64.3337C52.7273 64.3337 51.1573 68.0637 45.6573 68.4537C40.1673 68.8537 36.9173 63.4937 34.6673 63.4937C33.4073 63.4937 26.9973 69.1737 21.4973 67.3237C20.1573 66.8637 18.8673 65.9737 17.7273 64.4337C13.8473 59.2337 25.7473 44.0137 31.1273 37.1637C37.4173 29.1637 47.0873 15.1537 50.4273 15.0937C54.1073 15.0337 60.3873 22.9137 66.6773 32.3437C73.8073 43.0437 86.5473 60.2637 83.4073 64.2837C82.3373 65.6437 81.2473 66.4137 80.1973 66.7737Z" fill="#559350"/>
<path d="M10.7853 107.549C11.5183 110.429 12.9533 113.198 15.0853 115.264C16.1553 116.288 17.3943 117.13 18.7573 117.707C19.0983 117.846 19.4573 117.944 19.8053 118.065L20.3323 118.236L20.8773 118.338L21.9593 118.54C22.3323 118.566 22.7213 118.625 23.0793 118.619C26.0123 118.745 29.0073 117.58 30.9333 115.356C31.4123 114.805 31.8243 114.194 32.1303 113.54C32.4313 112.899 32.6473 112.159 32.5313 111.541C32.4603 111.238 32.2983 111.05 32.0353 110.994C31.9853 110.987 31.8463 110.988 31.8663 110.974L31.5883 111.03C31.4953 111.099 31.3853 111.143 31.2553 111.271C30.7583 111.714 30.4243 112.407 30.1423 113.072C29.0943 115.823 28.8653 118.95 29.5373 121.825C29.9043 123.25 30.5183 124.636 31.5143 125.711C32.4803 126.814 33.8073 127.55 35.2253 127.928C36.6413 128.29 38.1793 128.355 39.6113 128.122C41.0493 127.882 42.4003 127.221 43.4593 126.243C44.5383 125.28 45.3153 124.017 45.8703 122.673C46.4313 121.326 46.7513 119.879 46.9163 118.42C47.0793 116.96 47.0583 115.472 46.8043 114.038C46.6683 113.327 46.4893 112.62 46.1943 111.992C45.9093 111.375 45.4523 110.813 44.9743 110.783C44.8543 110.78 44.7303 110.782 44.5993 110.845L44.5013 110.874C44.5353 110.844 44.4403 110.907 44.4163 110.919L44.1713 111.062C43.9343 111.241 43.7153 111.442 43.5453 111.734C43.2013 112.285 43.0573 112.985 43.0623 113.688C43.0673 115.107 43.5493 116.536 44.2413 117.814C45.6363 120.378 48.0283 122.434 50.8463 123.221C52.2483 123.621 53.7363 123.715 55.1913 123.524C56.6563 123.352 58.0563 122.862 59.2413 122.011C61.6253 120.307 62.7543 117.158 62.3933 114.264C62.2983 113.544 62.1163 112.818 61.7413 112.224C61.3973 111.608 60.7793 111.212 60.1883 111.377C59.4903 111.521 59.1793 112.071 59.2933 112.734C59.3983 113.386 59.7543 114.033 60.1963 114.587C61.9943 116.83 65.1493 117.966 67.8663 116.779C70.5553 115.821 72.4433 113.111 73.0793 110.322L73.0823 110.309C73.1283 110.106 73.3303 109.98 73.5323 110.026C73.7163 110.068 73.8373 110.238 73.8243 110.42C73.7213 111.84 73.7203 113.298 73.8723 114.714C73.9503 115.423 74.0743 116.125 74.2833 116.788C74.4973 117.438 74.8023 118.086 75.2983 118.443C75.5423 118.615 75.8273 118.717 76.1323 118.7C76.3133 118.701 76.5103 118.716 76.6343 118.662C76.7753 118.623 76.9173 118.614 77.0663 118.529C77.6653 118.281 78.1863 117.808 78.6293 117.274C79.5003 116.183 80.1413 114.861 80.6123 113.533C80.6703 113.369 80.8503 113.283 81.0153 113.341C81.1503 113.389 81.2323 113.521 81.2253 113.657C81.1153 115.741 81.4663 118.027 82.7343 119.656C83.3683 120.456 84.2523 121.028 85.2523 121.241C85.4983 121.301 85.7603 121.309 86.0123 121.347C86.1313 121.358 86.2853 121.388 86.3753 121.385L86.7853 121.375C87.2753 121.327 87.7633 121.241 88.2423 121.042C89.1963 120.678 90.0553 120.055 90.8173 119.343C91.5693 118.615 92.2363 117.784 92.7693 116.874C93.3163 115.974 93.7543 115.003 94.0033 113.996C94.2393 113.007 94.3113 111.91 93.8423 111.121C93.4173 110.323 92.3043 110.073 91.3693 110.188C90.9063 110.257 90.5003 110.466 90.2383 110.825C89.9783 111.186 89.8513 111.665 89.8283 112.16C89.7903 113.159 90.0893 114.201 90.5503 115.14C91.0053 116.088 91.6373 116.957 92.3783 117.709C93.1233 118.46 93.9863 119.095 94.9403 119.551C95.4073 119.79 95.9233 119.963 96.4093 120.115C96.9403 120.251 97.4713 120.391 97.9893 120.468C99.0383 120.64 100.121 120.682 101.172 120.521C102.208 120.347 103.27 119.986 104.06 119.334L104.08 119.317C104.159 119.251 104.277 119.263 104.342 119.342C104.406 119.42 104.397 119.535 104.321 119.601C103.434 120.375 102.352 120.754 101.251 120.978C100.143 121.178 99.0123 121.166 97.9013 121.015C97.3333 120.944 96.8033 120.819 96.2713 120.698C95.7093 120.539 95.1843 120.362 94.6723 120.113C93.6453 119.638 92.7143 118.97 91.9083 118.179C91.1063 117.386 90.4203 116.469 89.9153 115.451C89.4083 114.44 89.0533 113.319 89.0793 112.126C89.1013 111.535 89.2393 110.907 89.6153 110.37C89.9923 109.83 90.6313 109.498 91.2433 109.406C91.8933 109.313 92.4373 109.366 93.0533 109.538C93.6503 109.713 94.2233 110.129 94.5533 110.686C95.2213 111.824 95.0903 113.092 94.8553 114.197C94.5903 115.319 94.1333 116.369 93.5543 117.343C92.9743 118.317 92.2553 119.204 91.4323 119.991C90.6033 120.768 89.6363 121.436 88.5323 121.826C87.9943 122.035 87.3903 122.135 86.7943 122.17L86.3843 122.169C86.2013 122.168 86.0853 122.135 85.9333 122.119C85.6463 122.072 85.3553 122.054 85.0743 121.98C83.9303 121.716 82.8843 121.011 82.1843 120.083C81.4743 119.153 81.0743 118.055 80.8433 116.956C80.6283 115.847 80.5333 114.74 80.5993 113.599L81.2113 113.723C80.7143 115.137 80.0743 116.483 79.1313 117.681C78.6493 118.264 78.0683 118.815 77.3183 119.133C76.9633 119.295 76.4503 119.387 76.1273 119.359C75.7023 119.381 75.2593 119.231 74.9113 118.983C74.2103 118.466 73.8823 117.709 73.6323 116.998C73.3963 116.272 73.2593 115.532 73.1703 114.794C72.9973 113.313 72.9833 111.842 73.0753 110.355L73.8203 110.453C73.4723 112.013 72.8393 113.452 71.8843 114.719C70.9503 116 69.6553 116.998 68.1343 117.591C67.7513 117.763 67.4003 117.812 67.0313 117.929C66.6083 118.038 66.2273 118.08 65.8173 118.108C65.0083 118.154 64.1953 118.032 63.4293 117.792C61.8913 117.306 60.5633 116.305 59.6073 115.034C59.1383 114.393 58.7403 113.664 58.6343 112.81C58.5883 112.389 58.6453 111.904 58.9213 111.509C59.0513 111.31 59.2403 111.158 59.4343 111.041C59.6423 110.924 59.8723 110.85 60.0393 110.816C60.4873 110.709 60.9703 110.786 61.3473 111.024C61.7303 111.253 61.9973 111.592 62.2023 111.94C62.6153 112.644 62.8243 113.415 62.9323 114.189C63.3453 117.268 62.1803 120.609 59.6223 122.522C58.3613 123.466 56.8243 124.025 55.2903 124.229C53.7483 124.462 52.1533 124.385 50.6413 123.955C47.6013 123.119 45.0383 120.932 43.5343 118.199C42.7883 116.83 42.2513 115.307 42.2343 113.686C42.2273 112.883 42.3803 112.038 42.8203 111.289C43.0233 110.92 43.3553 110.578 43.7253 110.313L43.9673 110.165C44.0273 110.133 44.0053 110.131 44.1313 110.076L44.3023 110.014C44.4183 109.977 44.5283 109.928 44.6513 109.909L45.0353 109.893C45.5423 109.937 46.0263 110.197 46.3093 110.531C46.6303 110.851 46.8413 111.217 47.0303 111.582C47.3893 112.32 47.5993 113.089 47.7493 113.861C48.0323 115.408 48.0623 116.975 47.9003 118.522C47.7543 120.071 47.3633 121.601 46.7313 123.037C46.1143 124.475 45.1983 125.816 43.9733 126.829C42.7653 127.859 41.2613 128.519 39.7023 128.719C38.1453 128.938 36.5983 128.831 35.0903 128.43C33.5913 128.036 32.1593 127.248 31.1193 126.067C30.0473 124.915 29.3953 123.445 29.0083 121.954C28.6443 120.449 28.5353 118.896 28.6443 117.362C28.7483 115.828 29.0423 114.303 29.6083 112.854C29.9133 112.14 30.2343 111.412 30.8653 110.829C31.0063 110.685 31.2283 110.548 31.4743 110.448L31.7523 110.39C31.9603 110.381 32.0113 110.397 32.1483 110.408C32.6513 110.482 33.0473 110.971 33.1193 111.408C33.2783 112.293 33.0063 113.08 32.6893 113.797C32.3573 114.515 31.9173 115.172 31.4073 115.766C29.3673 118.173 26.1483 119.384 23.0473 119.216C22.6483 119.215 22.2863 119.155 21.9053 119.125L20.7573 118.903L20.1883 118.79L19.6373 118.607C19.2723 118.478 18.8993 118.37 18.5423 118.222C17.1173 117.605 15.8273 116.711 14.7233 115.635C12.5083 113.464 11.1193 110.6 10.4203 107.626C10.3973 107.525 10.4593 107.425 10.5593 107.401C10.6583 107.378 10.7583 107.438 10.7833 107.537L10.7853 107.549Z" fill="white"/>
<path d="M15.5723 80.0657C15.6603 81.5387 16.4143 83.0497 17.7543 83.6757C18.4093 83.9967 19.1693 84.0997 19.8953 84.1077C20.6323 84.0897 21.3373 83.8427 22.0133 83.5117C23.3613 82.8407 24.5463 81.8347 25.5743 80.7177C26.5793 79.5957 27.5193 78.3147 27.9073 76.9107C27.9963 76.5647 28.0323 76.2077 27.9533 75.9097C27.8923 75.6237 27.6383 75.3857 27.4223 75.3137C26.9543 75.1487 26.4013 75.8697 26.0733 76.4827C25.3573 77.7867 24.9693 79.2947 24.7123 80.7907C24.2563 83.7897 24.3863 86.9787 25.6373 89.7467C26.2573 91.1227 27.1933 92.3557 28.4143 93.2357C29.6253 94.1307 31.0543 94.6867 32.5713 94.9347C34.0303 95.1567 35.6083 95.0647 36.9463 94.3997C38.3023 93.7717 39.4023 92.6527 40.1663 91.3557C40.9503 90.0637 41.4453 88.5987 41.6993 87.1087C41.9553 85.6287 42.0013 84.0627 41.6333 82.6717C41.4593 81.9967 41.0553 81.3307 40.6593 81.4007L40.6213 81.3967C40.5553 81.4067 40.6913 81.3777 40.6633 81.3857L40.6283 81.3957L40.4883 81.4347L40.3483 81.4737L40.2843 81.5257C40.2103 81.5637 40.0853 81.6677 39.9663 81.7777C39.7343 82.0047 39.5293 82.2917 39.3453 82.5977C38.6053 83.8387 38.1843 85.3277 37.9313 86.8017C37.6993 88.2857 37.6323 89.8117 37.8463 91.2897C38.0483 92.7637 38.5373 94.2147 39.4363 95.3617C40.3293 96.5197 41.6633 97.2507 43.1063 97.5377C43.4683 97.6027 43.8383 97.6427 44.2063 97.6807C44.5793 97.6807 44.9513 97.7107 45.3263 97.6887C45.6933 97.6547 46.0933 97.6437 46.4333 97.5927C46.8113 97.5217 47.2073 97.4737 47.5703 97.3847C48.9903 97.0507 50.3803 96.3647 51.5093 95.4017C52.6483 94.4387 53.5653 93.2167 54.2553 91.8747C55.6093 89.1677 56.1773 86.0627 56.0853 83.0137C56.0263 81.4907 55.8353 79.9537 55.3393 78.5257C55.0873 77.8227 54.7703 77.1177 54.2723 76.6127C54.0373 76.3417 53.7323 76.1917 53.4343 76.1187C53.1623 76.0707 52.7333 76.1647 52.4883 76.2947C51.9033 76.5927 51.6883 77.3057 51.6943 78.0097C51.6953 78.7237 51.8853 79.4547 52.1423 80.1497C52.6673 81.5457 53.5263 82.8157 54.5433 83.8947C55.5683 84.9607 56.8563 85.8087 58.2713 86.0467C58.6103 86.1017 59.0093 86.1317 59.3053 86.1027C59.6723 86.0357 60.1133 86.0457 60.4203 85.9147C60.7393 85.7907 61.0723 85.7267 61.3783 85.5157L61.8473 85.2507L62.2693 84.9067C63.3893 83.9707 64.1823 82.6427 64.7503 81.2467C65.3223 79.8497 65.7233 78.3497 65.9393 76.8617L66.6173 76.9897C66.3033 78.2367 66.0793 79.5357 65.9563 80.8267C65.8373 82.1187 65.8023 83.4247 65.9733 84.6957C66.1403 85.9547 66.5133 87.2287 67.3433 88.1347C68.1603 89.0557 69.4293 89.4227 70.6893 89.3267C73.2283 89.2427 75.5823 87.7207 76.9083 85.5837C77.5723 84.5257 78.0263 83.2987 78.0333 82.1107C78.0183 81.5297 77.8723 80.9527 77.5133 80.6007C77.1773 80.2297 76.6173 80.0937 76.0543 80.1147C75.5323 80.1337 75.1673 80.4027 75.0423 80.9257C74.9033 81.4367 74.9663 82.0637 75.1183 82.6567C75.4303 83.8567 76.0523 85.0007 76.8073 86.0217C77.5723 87.0397 78.4953 87.9477 79.5543 88.6457C80.6053 89.3527 81.8073 89.8377 83.0543 90.0037C84.2813 90.1707 85.6263 90.0217 86.7643 89.5717C87.9243 89.1197 88.8273 88.1717 89.1553 86.9667C89.5083 85.7707 89.4183 84.4477 89.1663 83.1867C88.9053 81.9217 88.4763 80.6717 87.9273 79.5017L87.9233 79.4937C87.8793 79.3997 87.9193 79.2887 88.0133 79.2447C88.1053 79.2017 88.2143 79.2397 88.2593 79.3297C88.8633 80.5277 89.3303 81.7757 89.6403 83.0827C89.9353 84.3827 90.0843 85.7707 89.7293 87.1287C89.3983 88.4987 88.3123 89.6607 87.0163 90.1727C85.7063 90.7017 84.3513 90.8557 82.9663 90.7007C81.5993 90.5367 80.2843 90.0217 79.1433 89.2767C77.9923 88.5387 76.9973 87.5827 76.1663 86.5067C75.3453 85.4237 74.6623 84.2207 74.2903 82.8707C74.1163 82.1957 74.0023 81.4697 74.1913 80.6967C74.3073 79.9007 75.2073 79.1757 76.0143 79.2077C76.7473 79.1617 77.5953 79.3557 78.1683 79.9727C78.7483 80.5717 78.9123 81.3847 78.9273 82.0997C78.9163 83.5617 78.3443 84.8807 77.5953 86.0277C76.0933 88.3237 73.4893 89.9467 70.7093 89.9807C69.3603 90.0527 67.8443 89.6307 66.8823 88.5577C65.9123 87.4977 65.5213 86.1067 65.3363 84.7817C65.1503 83.4397 65.1823 82.0927 65.2983 80.7637C65.4233 79.4317 65.6353 78.1237 65.9493 76.8127C65.9933 76.6267 66.1803 76.5127 66.3663 76.5567C66.5403 76.5977 66.6513 76.7667 66.6283 76.9397C66.4153 78.5227 66.0243 80.0457 65.4383 81.5257C64.8553 82.9927 64.0373 84.4307 62.7813 85.5087L62.3053 85.9027L61.7673 86.2187C61.4283 86.4557 60.9953 86.5697 60.5873 86.7147C60.1693 86.8697 59.8103 86.8507 59.4183 86.9267C58.9433 86.9767 58.5623 86.9397 58.1363 86.8817C56.4633 86.6187 55.0393 85.6407 53.9243 84.4917C52.7963 83.3317 51.9623 81.9217 51.4333 80.4007C51.1813 79.6357 50.9933 78.8347 51.0193 77.9947C51.0283 77.5777 51.1133 77.1447 51.2963 76.7397C51.4783 76.3377 51.8053 75.9607 52.2233 75.7737C52.6773 75.5787 53.0323 75.5007 53.5333 75.5647C53.9823 75.6697 54.3873 75.9127 54.6593 76.2327C55.2343 76.8567 55.5753 77.5967 55.8513 78.3427C56.3873 79.8457 56.5953 81.4217 56.6713 82.9907C56.7803 86.1247 56.2843 89.3237 54.9033 92.1977C53.5423 95.0677 50.9263 97.4367 47.7213 98.1597C47.3313 98.2557 46.9553 98.3017 46.5713 98.3757C46.1453 98.4417 45.7673 98.4497 45.3623 98.4877C44.9633 98.5127 44.5593 98.4847 44.1573 98.4847C43.7553 98.4467 43.3513 98.4037 42.9513 98.3337C41.3563 98.0307 39.8033 97.1937 38.7843 95.8807C37.7453 94.5927 37.1873 93.0037 36.9423 91.4237C36.6793 89.8347 36.7323 88.2207 36.9733 86.6457C37.2393 85.0747 37.6453 83.5107 38.4953 82.0767C38.7183 81.7237 38.9723 81.3797 39.3013 81.0697C39.4733 80.9217 39.6393 80.7677 39.9193 80.6397L40.1083 80.5497L40.2493 80.5137L40.3903 80.4777L40.4253 80.4687C40.4203 80.4667 40.5813 80.4427 40.5393 80.4537L40.6463 80.4557C41.2323 80.4337 41.7553 80.8417 41.9853 81.2297C42.2373 81.6247 42.3963 82.0357 42.4853 82.4437C42.8423 84.0757 42.7053 85.6867 42.3823 87.2387C42.0443 88.7877 41.4873 90.2967 40.6423 91.6467C39.8003 92.9867 38.6373 94.1857 37.1723 94.8747C35.7133 95.5947 34.0463 95.7017 32.4593 95.4607C30.9183 95.2137 29.3693 94.6277 28.0843 93.6767C26.7793 92.7407 25.7803 91.4247 25.1193 89.9807C23.7883 87.0687 23.6483 83.7867 24.0993 80.6887C24.3593 79.1367 24.7383 77.5897 25.5103 76.1617C25.7003 75.8047 25.9483 75.4667 26.2423 75.1517C26.4163 75.0077 26.5733 74.8507 26.8153 74.7557C27.0033 74.6327 27.4743 74.6357 27.5793 74.7037C28.0963 74.8747 28.4253 75.2817 28.5473 75.7517C28.6593 76.2127 28.5943 76.6517 28.4923 77.0517C28.0283 78.6487 27.0413 79.9257 25.9883 81.0937C24.9103 82.2427 23.6813 83.2717 22.2423 83.9757C21.5293 84.3197 20.7323 84.5907 19.9113 84.6037C19.0943 84.5917 18.2833 84.4647 17.5443 84.0867C16.0313 83.3297 15.2573 81.6547 15.1973 80.0677C15.1933 79.9647 15.2743 79.8777 15.3773 79.8737C15.4793 79.8697 15.5653 79.9477 15.5713 80.0497L15.5723 80.0657Z" fill="white"/>
<path d="M21.7753 50.4177C21.4183 51.6987 21.1643 53.0207 21.0203 54.3417C20.8783 55.6607 20.8293 57.0037 21.0733 58.2867C21.3043 59.5537 21.9113 60.8017 23.0383 61.3587C23.5893 61.6417 24.2253 61.7497 24.8623 61.7547L25.1013 61.7597C25.1363 61.7627 25.2553 61.7447 25.3273 61.7387C25.4923 61.7177 25.6673 61.7087 25.8233 61.6777C26.1153 61.5967 26.4093 61.5367 26.7023 61.3967C27.8823 60.9177 28.8663 59.9987 29.7173 59.0097C30.5593 57.9987 31.2593 56.8617 31.8713 55.6827C32.4783 54.5007 33.0003 53.2697 33.4223 52.0057C33.8363 50.7417 34.1903 49.4487 34.3693 48.1387C34.4563 47.4877 34.5203 46.8207 34.4443 46.1967C34.4053 45.8947 34.3193 45.5797 34.1743 45.4377C34.1033 45.3797 34.0383 45.3517 33.9283 45.3717C33.8773 45.3897 33.8043 45.3957 33.7693 45.4127L33.5433 45.5257C33.0613 45.8167 32.6383 46.3457 32.3563 46.9147C32.0603 47.4867 31.8573 48.1147 31.7263 48.7557C31.4573 50.0367 31.4243 51.3787 31.6573 52.6547C31.8833 53.9107 32.3983 55.1907 33.3503 55.8497C34.2943 56.5277 35.5943 56.3497 36.6123 55.7047C37.6603 55.0507 38.5173 54.0307 39.2743 52.9717C40.7833 50.8247 41.9313 48.3677 42.8223 45.8797C42.8983 45.6677 43.1313 45.5577 43.3423 45.6327C43.5303 45.6997 43.6383 45.8907 43.6083 46.0807C43.3213 47.8887 43.2203 49.7797 43.4323 51.5957C43.5413 52.5037 43.7503 53.3967 44.1163 54.2047C44.4883 55.0037 45.0463 55.7037 45.8143 56.0797C46.5993 56.4427 47.4633 56.5497 48.3663 56.3487C49.1893 56.1657 49.9903 55.6707 50.6443 55.0537C51.9553 53.7897 52.9023 52.1327 53.5743 50.4067C54.2433 48.6727 54.6593 46.8337 54.8203 45.0057C54.8813 44.1017 54.8973 43.1527 54.6663 42.3797C54.5443 41.9797 54.3093 41.8227 54.1913 41.8447C54.0943 41.8757 53.9163 41.9047 53.9293 41.9447C53.9153 41.9607 53.8993 41.9707 53.8783 41.9787L53.7973 42.0687C53.6853 42.1847 53.5803 42.3567 53.5023 42.5457C53.1693 43.3057 53.0923 44.2477 53.0743 45.1487C53.0683 46.0617 53.1673 46.9817 53.3363 47.8857C53.6853 49.6847 54.3193 51.4697 55.4163 52.9137C55.9643 53.6287 56.6483 54.2367 57.4413 54.6207C58.2323 55.0087 59.1303 55.1497 60.0163 55.0507C61.7803 54.8087 63.6043 54.0377 64.6893 52.6197C65.7993 51.2217 66.0503 49.2807 65.6003 47.5707C65.3713 46.7327 64.9883 45.8657 64.4113 45.3507C64.2713 45.2217 64.1193 45.1457 63.9983 45.1207C63.8713 45.0927 63.8003 45.1077 63.6793 45.1967C63.4903 45.3177 63.3473 45.7027 63.3183 46.1007C63.2653 46.9277 63.5033 47.8267 63.8333 48.6547C64.1723 49.4887 64.6383 50.2747 65.2013 50.9787C66.3213 52.3827 67.9423 53.4177 69.7283 53.5207C70.1673 53.5317 70.6273 53.5347 71.0503 53.4367L71.7453 53.3067C71.9663 53.2507 72.1603 53.1657 72.3693 53.0977C73.1873 52.7927 73.9653 52.2957 74.5323 51.6077C75.6833 50.2317 76.0883 48.2867 75.9793 46.4747L75.9783 46.4577C75.9723 46.3547 76.0503 46.2667 76.1533 46.2597C76.2543 46.2537 76.3403 46.3287 76.3503 46.4287C76.5333 48.3397 76.2133 50.3757 74.9903 51.9807C74.3753 52.7757 73.5173 53.3407 72.5873 53.7087C72.3503 53.7907 72.1083 53.8917 71.8743 53.9547L71.1813 54.0967C70.6853 54.2177 70.1923 54.2227 69.6913 54.2177C67.6673 54.1397 65.8253 52.9917 64.5843 51.4857C63.9563 50.7287 63.4373 49.8857 63.0493 48.9797C62.6743 48.0697 62.3793 47.1077 62.4213 46.0407C62.4703 45.5267 62.5633 44.8827 63.1643 44.4437C63.4153 44.2437 63.8493 44.1407 64.1813 44.2337C64.5193 44.3097 64.7883 44.4807 64.9953 44.6677C65.8243 45.4337 66.1793 46.4047 66.4153 47.3717C66.8483 49.3017 66.5203 51.4827 65.2163 53.0387C63.9143 54.5837 62.0103 55.3997 60.0833 55.6837C59.0983 55.8007 58.0613 55.6487 57.1563 55.2097C56.2463 54.7777 55.4883 54.0957 54.8803 53.3277C53.6673 51.7727 52.9853 49.9107 52.5903 48.0297C52.3983 47.0837 52.2823 46.1217 52.2713 45.1487C52.2803 44.1767 52.3193 43.1897 52.7213 42.2027C52.8213 41.9587 52.9513 41.7077 53.1633 41.4837C53.2163 41.4277 53.2643 41.3717 53.3243 41.3167C53.4023 41.2607 53.4853 41.2067 53.5703 41.1587C53.7673 41.0397 53.8383 41.0547 53.9633 41.0107C54.1463 40.9657 54.1703 40.9987 54.2823 40.9947C54.3733 41.0057 54.4643 40.9947 54.5523 41.0387C54.7343 41.1037 54.9023 41.1907 55.0173 41.3197C55.2753 41.5607 55.3853 41.8387 55.4813 42.0967C55.8003 43.1367 55.7313 44.1177 55.6173 45.0807C55.3803 47.0047 54.8073 48.8407 54.0863 50.6077C53.3453 52.3587 52.4553 54.0997 51.0483 55.4737C50.3393 56.1497 49.5003 56.7107 48.4833 56.9667C48.2183 57.0497 47.9993 57.0497 47.7623 57.0837C47.4773 57.1087 47.2513 57.0897 46.9923 57.0847C46.4903 57.0327 45.9823 56.9277 45.5113 56.7047C44.5593 56.2637 43.8573 55.4227 43.4313 54.5237C43.0113 53.6137 42.7853 52.6507 42.6623 51.6897C42.4273 49.7597 42.5173 47.8467 42.8073 45.9337L43.5933 46.1347C43.1463 47.4357 42.6213 48.6807 42.0443 49.9187C41.4663 51.1527 40.8263 52.3637 40.0513 53.5087C39.2683 54.6407 38.3713 55.7447 37.1343 56.5417C35.9413 57.3637 34.0853 57.5817 32.8113 56.5907C31.5573 55.6127 31.1463 54.1137 30.9563 52.7597C30.7943 51.3727 30.8783 49.9797 31.1893 48.6327C31.5483 47.3247 31.9813 45.8957 33.3043 45.0457C33.5073 44.9027 34.1613 44.6507 34.5363 45.0397C34.8683 45.3837 34.9183 45.7737 34.9793 46.1257C35.0663 46.8417 34.9973 47.5287 34.9103 48.2087C34.7293 49.5697 34.3723 50.8857 33.9543 52.1797C33.5333 53.4727 33.0113 54.7327 32.3973 55.9487C31.7793 57.1617 31.0683 58.3377 30.1953 59.4037C29.3063 60.4397 28.2843 61.4577 26.9423 61.9807C26.6223 62.1287 26.2553 62.2097 25.8953 62.2937C25.7213 62.3247 25.5583 62.3297 25.3893 62.3497C25.2943 62.3567 25.2463 62.3687 25.1133 62.3707L24.8483 62.3627C24.1463 62.3477 23.4183 62.2197 22.7683 61.8767C21.4243 61.1877 20.7673 59.7217 20.5433 58.3827C20.3033 57.0107 20.3673 55.6297 20.5383 54.2817C20.7233 52.9317 21.0163 51.6077 21.4173 50.3057C21.4483 50.2067 21.5523 50.1517 21.6513 50.1817C21.7483 50.2137 21.8023 50.3207 21.7753 50.4177Z" fill="white"/>
<path d="M50.5473 3.72671C49.2973 4.39571 47.7383 9.76471 47.7383 9.76471C47.7383 9.76471 42.1413 9.98571 41.8473 11.0167C41.5533 12.0477 45.5293 14.8457 45.5293 14.8457C45.5293 14.8457 43.5413 21.3997 44.7933 21.7677C46.0453 22.1357 51.0523 18.1597 51.0523 18.1597C51.0523 18.1597 55.3973 21.6207 56.4283 21.1787C57.4593 20.7367 55.8393 14.5507 55.8393 14.5507C55.8393 14.5507 59.0993 11.5217 59.0253 10.7107C58.9513 9.90071 53.6293 9.76371 53.6293 9.76371C53.6293 9.76371 51.0043 3.48171 50.5473 3.72671Z" fill="#F4BB56"/>
<path d="M42.6632 18.1757C42.6632 18.1757 42.3563 18.4777 41.8653 18.8857C41.6143 19.0827 41.3313 19.3247 41.0113 19.5607C40.6893 19.7937 40.3452 20.0417 40.0012 20.2897C39.3062 20.7747 38.5783 21.2127 38.0193 21.5207C37.4613 21.8307 37.0652 22.0017 37.0652 22.0017C36.9342 22.0587 36.7822 21.9977 36.7252 21.8667C36.6822 21.7667 36.7073 21.6547 36.7783 21.5817C36.7783 21.5817 37.0812 21.2747 37.5732 20.8677C38.0632 20.4587 38.7352 19.9397 39.4392 19.4677C39.7952 19.2377 40.1513 19.0077 40.4843 18.7917C40.8203 18.5797 41.1492 18.4037 41.4232 18.2417C41.9822 17.9327 42.3743 17.7557 42.3743 17.7557C42.5043 17.6967 42.6572 17.7547 42.7152 17.8847C42.7632 17.9867 42.7382 18.1017 42.6632 18.1757Z" fill="#DF992F"/>
<path d="M38.4403 10.8527C38.4403 10.8527 38.0783 10.7747 37.5563 10.6087C37.2993 10.5177 36.9933 10.4257 36.6763 10.3007C36.3613 10.1717 36.0253 10.0347 35.6903 9.89674C35.0243 9.60974 34.3813 9.26973 33.9093 8.99273C33.4363 8.71773 33.1383 8.49574 33.1383 8.49574C33.0233 8.40974 32.9993 8.24673 33.0853 8.13073C33.1473 8.04773 33.2493 8.01273 33.3443 8.03073C33.3443 8.03073 33.7093 8.10273 34.2303 8.27073C34.7523 8.43573 35.4353 8.68473 36.0943 8.98673C36.4213 9.14373 36.7483 9.30073 37.0553 9.44873C37.3603 9.59973 37.6333 9.76573 37.8733 9.89573C38.3463 10.1717 38.6463 10.3877 38.6463 10.3877C38.7623 10.4717 38.7893 10.6337 38.7053 10.7497C38.6433 10.8367 38.5383 10.8727 38.4403 10.8527Z" fill="#DF992F"/>
<path d="M68.6203 9.9287C68.6203 9.9287 68.2753 10.0627 67.7483 10.2097C67.4833 10.2747 67.1763 10.3657 66.8433 10.4357C66.5093 10.5007 66.1533 10.5707 65.7973 10.6397C65.0833 10.7657 64.3593 10.8347 63.8123 10.8627C63.2663 10.8937 62.8953 10.8707 62.8953 10.8707C62.7513 10.8617 62.6423 10.7387 62.6513 10.5947C62.6573 10.4917 62.7233 10.4057 62.8133 10.3687C62.8133 10.3687 63.1583 10.2287 63.6853 10.0827C64.2123 9.9337 64.9193 9.7677 65.6363 9.6577C65.9963 9.6097 66.3553 9.5617 66.6923 9.5157C67.0303 9.4747 67.3503 9.46271 67.6213 9.43971C68.1683 9.41071 68.5383 9.42671 68.5383 9.42671C68.6813 9.43271 68.7923 9.5537 68.7863 9.6967C68.7813 9.8037 68.7133 9.8927 68.6203 9.9287Z" fill="#DF992F"/>
<path d="M56.6103 4.76972C56.6103 4.76972 56.7963 4.42672 57.1153 3.94672C57.2823 3.71272 57.4643 3.42872 57.6823 3.14372C57.9033 2.86072 58.1393 2.55972 58.3743 2.25772C58.8563 1.66372 59.3823 1.10572 59.7953 0.702718C60.2063 0.298718 60.5133 0.0557184 60.5133 0.0557184C60.6263 -0.0332816 60.7893 -0.0132823 60.8783 0.0987177C60.9433 0.181718 60.9503 0.29172 60.9043 0.37972C60.9043 0.37972 60.7233 0.72672 60.4033 1.20572C60.0843 1.68672 59.6353 2.30772 59.1403 2.89072C58.8883 3.17872 58.6353 3.46572 58.3993 3.73572C58.1593 4.00272 57.9153 4.23472 57.7163 4.44172C57.3043 4.84572 57.0023 5.09172 57.0023 5.09172C56.8913 5.18172 56.7283 5.16572 56.6383 5.05472C56.5693 4.97272 56.5623 4.85872 56.6103 4.76972Z" fill="#DF992F"/>
<path d="M60.2452 16.4927C60.2452 16.4927 60.6323 16.6247 61.1863 16.8687C61.4593 16.9987 61.7852 17.1367 62.1202 17.3097C62.4532 17.4867 62.8082 17.6747 63.1632 17.8627C63.8672 18.2507 64.5423 18.6897 65.0373 19.0397C65.5333 19.3877 65.8423 19.6567 65.8423 19.6567C65.9503 19.7507 65.9613 19.9147 65.8673 20.0227C65.7973 20.1037 65.6873 20.1297 65.5923 20.0987C65.5923 20.0987 65.2023 19.9727 64.6483 19.7267C64.0933 19.4837 63.3693 19.1307 62.6743 18.7277C62.3303 18.5207 61.9853 18.3137 61.6623 18.1187C61.3413 17.9207 61.0553 17.7127 60.8033 17.5457C60.3083 17.1967 59.9952 16.9327 59.9952 16.9327C59.8862 16.8407 59.8723 16.6777 59.9643 16.5687C60.0343 16.4877 60.1472 16.4597 60.2452 16.4927Z" fill="#DF992F"/>
<path d="M43.8473 0.096726C43.8473 0.096726 44.0753 0.354724 44.3693 0.767724C44.5083 0.978724 44.6843 1.21673 44.8483 1.48573C45.0083 1.75673 45.1793 2.04672 45.3493 2.33572C45.6783 2.92072 45.9573 3.53372 46.1453 4.00472C46.3353 4.47472 46.4243 4.80872 46.4243 4.80872C46.4613 4.94872 46.3783 5.09172 46.2393 5.12872C46.1423 5.15472 46.0423 5.12173 45.9793 5.05273C45.9793 5.05273 45.7463 4.79773 45.4533 4.38373C45.1583 3.97173 44.7923 3.40572 44.4773 2.81272C44.3263 2.51272 44.1743 2.21373 44.0323 1.93173C43.8943 1.64873 43.7883 1.37172 43.6863 1.14072C43.4973 0.669725 43.4023 0.338727 43.4023 0.338727C43.3633 0.200727 43.4423 0.0567242 43.5813 0.0167242C43.6803 -0.0102758 43.7833 0.023726 43.8473 0.096726Z" fill="#DF992F"/>
<path opacity="0.17" d="M47.2173 137.354C47.0573 136.775 46.8323 136.075 46.2903 135.754C46.0133 135.59 45.6273 135.688 45.4673 135.97C45.2033 136.435 45.2733 137.005 45.2363 137.523C45.1953 138.112 45.0673 138.718 45.3023 139.281C45.6243 140.053 46.5733 140.249 47.0733 139.513C47.5103 138.87 47.4143 138.069 47.2173 137.354Z" fill="#5A287F"/>
<path opacity="0.17" d="M47.7153 149.686C47.2633 148.548 46.9503 147.557 46.7733 146.334C46.6153 145.243 46.5453 144.161 45.9253 143.218C45.6003 142.723 44.7693 142.762 44.6143 143.389C44.0603 145.627 43.9713 149.097 45.5863 150.925C46.3973 151.841 48.1873 150.874 47.7153 149.686Z" fill="#5A287F"/>
<path opacity="0.17" d="M50.0783 143.447C49.9993 142.601 50.0173 141.431 49.5063 140.72C49.2303 140.335 48.7433 140.335 48.4673 140.72C47.9763 141.404 47.9863 142.499 47.9083 143.312C47.8303 144.127 47.8453 145.394 48.9863 145.406C50.0583 145.418 50.1503 144.222 50.0783 143.447Z" fill="#5A287F"/>
<path opacity="0.17" d="M50.3932 136.594C50.3062 136.206 50.1363 135.697 49.8293 135.432C49.6203 135.251 49.3543 135.25 49.1443 135.432C48.8373 135.697 48.6673 136.206 48.5803 136.594C48.4513 137.17 48.5292 137.634 48.9402 138.071C49.2192 138.369 49.7542 138.369 50.0342 138.071C50.4442 137.634 50.5222 137.169 50.3932 136.594Z" fill="#5A287F"/>
<path opacity="0.17" d="M51.4793 146.986C51.2273 146.62 50.7463 146.62 50.4943 146.986C49.9873 147.721 49.6263 149.231 50.3623 149.898C50.7293 150.23 51.2423 150.232 51.6103 149.898C52.3483 149.231 51.9863 147.722 51.4793 146.986Z" fill="#5A287F"/>
<path opacity="0.17" d="M11.3153 120.796C11.0993 120.275 10.5913 119.998 10.0533 120.282C9.13527 120.767 8.78327 122.072 8.45527 122.982C8.23827 123.585 8.61126 124.199 9.08626 124.532C9.41426 124.762 9.77526 124.729 10.1433 124.67C10.5573 124.604 11.0433 124.13 11.1023 123.712C11.1703 123.224 11.2713 122.742 11.3383 122.255C11.4043 121.769 11.5103 121.263 11.3153 120.796Z" fill="#5A287F"/>
<path opacity="0.17" d="M15.6213 117.64C15.0713 116.967 14.0733 117.298 13.6583 117.893C13.3413 118.347 13.2652 118.938 13.2072 119.474C13.0542 120.888 15.1993 121.353 15.8293 120.184C16.2933 119.322 16.2403 118.399 15.6213 117.64Z" fill="#5A287F"/>
<path opacity="0.17" d="M13.3713 114.258C12.8743 113.527 11.7763 113.634 11.5003 114.502C11.3963 114.828 11.4003 115.098 11.2983 115.407C11.2773 115.472 11.2533 115.537 11.2263 115.6C11.2653 115.495 11.2513 115.511 11.1833 115.648C11.1583 115.69 11.1533 115.701 11.1473 115.713C11.1373 115.721 11.1193 115.739 11.0743 115.791C10.7163 116.204 10.4823 116.717 10.6343 117.271C10.7693 117.761 11.1803 118.093 11.6763 118.168C13.5773 118.457 14.2193 115.506 13.3713 114.258Z" fill="#5A287F"/>
<path opacity="0.17" d="M25.5713 105.875C25.5563 105.418 25.1513 104.871 24.6333 104.937C23.8863 105.034 23.3473 105.486 23.0253 106.165C22.6293 106.999 22.6023 108.287 23.5133 108.82C24.5103 109.403 25.4543 108.54 25.5173 107.533C25.5353 107.245 25.5073 106.958 25.5013 106.67C25.5073 106.705 25.5263 106.282 25.5343 106.22C25.5103 106.403 25.5733 105.937 25.5713 105.875Z" fill="#5A287F"/>
<path opacity="0.17" d="M29.2853 108.086C28.7363 107.815 28.2203 107.972 27.8493 108.425C27.7763 108.541 27.5853 108.829 27.5583 108.903C27.5343 108.969 27.4353 109.277 27.4543 109.235C27.3483 109.471 27.0443 109.902 26.9193 110.247C26.4183 111.624 28.4113 112.724 29.3653 111.671C30.1443 110.812 30.5823 108.726 29.2853 108.086Z" fill="#5A287F"/>
<path opacity="0.17" d="M27.7993 108.476C27.8143 108.456 27.8343 108.445 27.8493 108.425C27.8923 108.357 27.8953 108.347 27.7993 108.476Z" fill="#5A287F"/>
<path opacity="0.17" d="M35.5083 109.268C35.5083 109.224 35.5073 109.219 35.5023 109.252V109.251C35.6123 108.65 35.1733 107.917 34.4873 107.977C33.5843 108.056 33.0533 108.625 32.8073 109.481C32.5203 110.482 33.3983 111.428 34.3993 111.292C35.4093 111.156 35.8543 110.151 35.5083 109.268Z" fill="#5A287F"/>
<path opacity="0.17" d="M49.7993 104.476C49.1373 105.664 48.3013 106.99 48.5173 108.393C48.6863 109.493 50.4043 109.641 50.8813 108.702C51.1623 108.148 51.2083 107.559 51.3383 106.958C51.4583 106.402 51.6193 105.857 51.7843 105.313C52.1393 104.137 50.4003 103.398 49.7993 104.476Z" fill="#5A287F"/>
<path opacity="0.17" d="M55.1093 107.234C54.7443 106.455 54.1063 105.908 53.3043 105.622C52.1363 105.205 51.3523 106.811 52.1413 107.62C52.5973 108.087 52.5313 108.429 52.7023 109.074C52.9353 109.953 53.7893 110.678 54.6693 110.116C55.6343 109.5 55.5373 108.146 55.1093 107.234Z" fill="#5A287F"/>
<path opacity="0.17" d="M60.8493 126.475C60.0923 125.873 59.0763 126.258 58.9903 127.245C58.9223 128.026 59.1873 129.322 59.9823 129.663C60.7993 130.013 61.5903 129.746 61.9053 128.881C62.2133 128.037 61.5003 126.992 60.8493 126.475Z" fill="#5A287F"/>
<path opacity="0.17" d="M64.7533 125.39C64.0493 124.85 62.9663 125.748 63.2503 126.546C63.3893 126.937 63.3873 127.397 63.4423 127.861C63.5243 128.555 63.9783 129.155 64.7363 129.155C65.4403 129.155 66.0283 128.563 66.0303 127.861C66.0343 126.841 65.5433 125.995 64.7533 125.39Z" fill="#5A287F"/>
<path opacity="0.17" d="M77.5863 123.639C77.4213 123.123 77.0713 122.659 76.6393 122.336C76.3563 122.125 75.9073 122.235 75.6733 122.461C75.1903 122.927 75.0543 123.67 75.1873 124.301C75.5183 125.862 78.0793 125.175 77.5863 123.639Z" fill="#5A287F"/>
<path opacity="0.17" d="M82.4423 125.299C82.4453 125.304 82.4443 125.304 82.4463 125.309C82.4683 125.334 82.4573 125.265 82.4003 125.211C82.4083 125.232 82.4123 125.24 82.4193 125.254C82.4263 125.269 82.4353 125.284 82.4423 125.299Z" fill="#5A287F"/>
<path opacity="0.17" d="M82.4603 125.344C82.4593 125.338 82.4532 125.325 82.4462 125.309C82.4402 125.302 82.4302 125.279 82.4192 125.254C82.4102 125.236 82.4022 125.218 82.3922 125.201C82.3962 125.204 82.3972 125.208 82.4002 125.211C82.3992 125.207 82.3982 125.207 82.3962 125.203C82.3352 125.031 82.2762 124.858 82.2152 124.686C81.9842 124.038 81.3472 123.605 80.6492 123.797C79.9242 123.996 79.6522 124.682 79.7602 125.363C79.8102 125.682 79.8362 126.013 79.9362 126.321C80.1722 127.046 80.9452 127.62 81.7282 127.361C82.3562 127.153 82.7862 126.569 82.6852 125.895C82.6512 125.677 82.5663 125.501 82.4603 125.344Z" fill="#5A287F"/>
<path opacity="0.17" d="M82.3093 115.435C82.1443 114.953 81.9433 114.37 81.4863 114.099C81.3363 114.01 81.1403 114.01 80.9893 114.099C80.4803 114.401 80.3252 115.057 80.2592 115.609C80.1792 116.284 80.1343 116.974 80.2353 117.645C80.4503 119.077 82.8043 118.731 82.7513 117.305C82.7273 116.675 82.5123 116.03 82.3093 115.435Z" fill="#5A287F"/>
<path opacity="0.17" d="M84.1943 103.316C84.1783 103.279 84.1633 103.241 84.1473 103.204C83.6763 102.07 82.2993 102.068 81.8273 103.204C81.8113 103.241 81.7963 103.279 81.7803 103.316C81.4603 104.086 82.2503 104.9 82.9873 104.9C83.7273 104.901 84.5123 104.084 84.1943 103.316Z" fill="#5A287F"/>
<path opacity="0.17" d="M94.6953 113.079C94.6903 113.061 94.6813 113.046 94.6763 113.028C94.7813 112.307 94.2283 111.788 93.7963 111.155C93.4233 110.608 92.7183 110.364 92.1183 110.715C91.4863 111.084 91.4193 111.781 91.6783 112.393C92.0433 113.254 92.8533 114.271 93.8463 113.986C93.8933 113.991 93.9383 114.006 93.9873 114.008C94.4773 114.033 94.8053 113.521 94.6953 113.079Z" fill="#5A287F"/>
<path opacity="0.17" d="M18.2253 92.1487C18.1783 91.9297 18.1373 91.7007 18.0393 91.4977C17.9463 91.3037 17.8123 91.2347 17.6863 91.0747C17.6003 90.9657 17.3743 90.9647 17.2883 91.0747C17.1433 91.2607 16.9903 91.3487 16.8893 91.5757C16.7793 91.8227 16.7033 92.0857 16.5953 92.3337C16.3023 93.0037 15.9093 93.5757 16.3473 94.2947C16.6183 94.7397 17.2953 94.9927 17.7583 94.6647C17.7913 94.6417 17.8243 94.6177 17.8573 94.5947C18.1673 94.3747 18.4763 94.0147 18.4293 93.5977C18.3733 93.1107 18.3283 92.6287 18.2253 92.1487Z" fill="#5A287F"/>
<path opacity="0.17" d="M23.1143 91.2147C22.8693 91.9417 22.3503 92.3617 22.1073 93.0837C21.7513 94.1447 23.0523 95.0637 23.9683 94.5147C24.8713 93.9727 25.1713 92.8077 25.3593 91.8337C25.6423 90.3677 23.5953 89.7837 23.1143 91.2147Z" fill="#5A287F"/>
<path opacity="0.17" d="M32.3623 94.2137C31.9923 93.9367 31.3283 93.8847 31.0083 94.2947C30.4403 95.0207 30.0853 95.9337 30.5833 96.8027C31.0173 97.5597 32.2943 97.4407 32.4963 96.5527C32.5663 96.2457 32.4843 95.8237 32.6273 95.5447C32.8613 95.0887 32.7853 94.5307 32.3623 94.2137Z" fill="#5A287F"/>
<path opacity="0.17" d="M30.3773 90.2737C30.2993 89.6627 29.9093 89.1327 29.2363 89.1327C28.5993 89.1327 28.1183 89.6547 28.0953 90.2737C28.0923 90.3407 28.0533 90.5867 28.0673 90.5567C28.0783 90.5317 27.8893 90.7667 27.8833 90.7747C27.7543 90.9497 27.6723 91.1317 27.6163 91.3427C27.3303 92.4217 28.5053 93.2877 29.4643 92.7637C30.2843 92.3157 30.4883 91.1337 30.3773 90.2737Z" fill="#5A287F"/>
<path opacity="0.17" d="M25.6352 71.3447C25.4392 70.8667 24.9222 70.6917 24.5122 71.0487C23.9132 71.5697 23.5462 72.5127 23.2732 73.2397C22.9952 73.9807 23.6472 74.7657 24.3542 74.8617C25.1542 74.9697 25.7823 74.3687 25.8263 73.5847C25.8663 72.8937 25.9002 71.9927 25.6352 71.3447Z" fill="#5A287F"/>
<path opacity="0.17" d="M31.1722 68.8387C30.7422 68.4097 29.9502 68.4827 29.6502 69.0347C29.4582 69.3887 29.4362 69.7837 29.3022 70.1617C29.1892 70.4787 29.0123 71.0127 29.1923 71.4747C29.4113 72.0377 29.9622 72.4777 30.6042 72.2767C31.3752 72.0357 31.7732 71.3617 31.7502 70.5687C31.7342 69.9687 31.6092 69.2747 31.1722 68.8387Z" fill="#5A287F"/>
<path opacity="0.17" d="M34.5653 75.1347C34.2303 74.7147 33.6813 74.6127 33.2043 74.8627C32.1463 75.4187 31.5883 76.5237 31.8023 77.6957C32.0493 79.0507 34.1723 78.7057 34.1673 77.3757C34.1673 77.2347 34.1753 77.0947 34.1603 76.9547C34.1573 76.9287 34.1593 76.8907 34.1593 76.8637C34.2003 76.7647 34.3333 76.6357 34.4833 76.5197C34.8923 76.2027 34.8573 75.5017 34.5653 75.1347Z" fill="#5A287F"/>
<path opacity="0.17" d="M55.5093 70.7447C55.3223 70.4147 54.8513 69.9787 54.4413 70.2677C54.2133 70.4287 54.1443 70.5777 54.0113 70.8047C53.8903 71.0107 53.7053 71.1737 53.6003 71.4017C53.3043 72.0447 53.4663 72.7897 54.1683 73.0847C54.8173 73.3587 55.5783 73.0057 55.7703 72.3157C55.9243 71.7617 55.7803 71.2217 55.5093 70.7447Z" fill="#5A287F"/>
<path opacity="0.17" d="M59.9053 77.4427C59.7083 76.6897 58.7723 73.4067 57.5563 73.9637C57.0073 74.2147 57.1283 75.1597 57.1483 75.6387C57.1823 76.4487 57.2633 77.3317 57.4463 78.1207C57.8163 79.7147 60.3233 79.0377 59.9053 77.4427Z" fill="#5A287F"/>
<path opacity="0.17" d="M62.7943 71.2657C62.7843 71.2557 62.7833 71.2567 62.7833 71.2607C62.7813 71.2597 62.7793 71.2587 62.7773 71.2577C62.7453 71.1987 62.6663 71.0497 62.6473 71.0127C62.4063 70.5567 61.7373 70.4937 61.3883 70.8507C60.6523 71.6037 60.7842 72.6347 61.4562 73.3757C62.0182 73.9947 63.0723 73.8027 63.4743 73.1157C63.8763 72.4287 63.5283 71.5377 62.7943 71.2657Z" fill="#5A287F"/>
<path opacity="0.17" d="M66.0943 101.254C65.9883 100.885 65.7903 100.648 65.5683 100.347C65.7013 100.526 65.5513 100.315 65.5143 100.244C65.5953 100.4 65.4703 100.056 65.4653 100.031C65.3423 99.3227 64.4663 99.1177 63.9183 99.4007C63.6803 99.5227 63.4993 99.6867 63.3533 99.9097C63.2153 100.119 63.2313 100.352 63.3163 100.562C63.2503 101.256 63.5373 101.938 64.0363 102.451C64.3403 102.764 64.8163 102.884 65.2343 102.768C65.4753 102.701 65.5853 102.601 65.7773 102.451C66.1083 102.194 66.2033 101.635 66.0943 101.254Z" fill="#5A287F"/>
<path opacity="0.17" d="M70.4532 99.0067C70.2602 98.3227 70.0402 97.6517 69.8902 96.9557C69.6092 95.6587 67.4253 95.9197 67.5423 97.2737C67.6123 98.0847 67.7002 98.9187 67.9222 99.7047C68.3802 101.328 70.9142 100.638 70.4532 99.0067Z" fill="#5A287F"/>
<path opacity="0.17" d="M84.1213 95.7897C83.7893 95.1337 83.3153 94.4787 82.8443 93.9157C82.3763 93.3547 81.3253 93.8027 81.3773 94.5237C81.4363 95.3407 81.7033 96.2477 82.1593 96.9367C82.9683 98.1577 84.7833 97.0977 84.1213 95.7897Z" fill="#5A287F"/>
<path opacity="0.17" d="M89.4413 93.8227C89.3903 93.6747 89.3043 93.5467 89.1853 93.4397C88.8923 93.2217 88.8233 93.1667 88.9783 93.2747C88.9293 93.2307 88.8853 93.1817 88.8413 93.1327C88.8313 93.1167 88.8283 93.1097 88.8013 93.0717C88.7893 93.0487 88.7903 93.0517 88.7823 93.0367C88.7733 93.0007 88.7663 92.9707 88.7623 92.9637C88.7503 92.8177 88.7513 92.6667 88.7523 92.5237C88.7633 91.0717 86.6863 90.8377 86.2663 92.1867C86.0423 92.9047 86.1243 93.6987 86.4683 94.3667C86.8203 95.0517 87.5503 95.7407 88.3623 95.7037C89.3893 95.6567 89.8113 94.6957 89.4413 93.8227Z" fill="#5A287F"/>
<path opacity="0.17" d="M39.7783 59.4157C39.3823 59.1277 38.7113 59.3367 38.4953 59.7517C38.2543 60.2167 38.1363 60.8457 38.1663 61.3687C38.2073 62.0817 38.7443 62.6907 39.4893 62.6907C40.1513 62.6907 40.8803 62.0837 40.8113 61.3687C40.7383 60.6077 40.4043 59.8717 39.7783 59.4157Z" fill="#5A287F"/>
<path opacity="0.17" d="M43.5893 61.4217C43.2913 60.9737 42.6843 60.9737 42.3853 61.4217C41.7533 62.3717 41.5193 64.0287 41.7143 65.1247C41.9383 66.3847 44.0373 66.3857 44.2603 65.1247C44.4543 64.0287 44.2213 62.3717 43.5893 61.4217Z" fill="#5A287F"/>
<path opacity="0.17" d="M49.7183 60.3817C49.1923 60.1697 48.4173 60.3177 48.1573 60.8927C47.8133 61.6537 47.5313 62.5037 47.6303 63.3507C47.7133 64.0687 48.1863 64.6897 48.9693 64.6897C49.6873 64.6897 50.3173 64.0767 50.3083 63.3507C50.3013 62.8007 50.2863 62.3667 50.4433 61.8557C50.6233 61.2667 50.2763 60.6057 49.7183 60.3817Z" fill="#5A287F"/>
<path opacity="0.17" d="M62.3733 59.9177C62.0683 59.2507 61.8063 58.5967 61.5193 57.9207C61.3163 57.4427 60.6313 57.2447 60.1693 57.3717C59.6363 57.5177 59.3323 57.9957 59.2913 58.5247C59.2213 59.4417 59.5243 60.5287 59.9463 61.3367C60.2973 62.0087 61.2363 62.2107 61.8683 61.8407C62.5783 61.4247 62.6903 60.6097 62.3733 59.9177Z" fill="#5A287F"/>
<path opacity="0.17" d="M68.8253 58.4567C68.1783 57.9177 67.6403 57.3047 67.0933 56.6677C66.2023 55.6317 64.4253 56.9927 65.1913 58.1347C65.7103 58.9087 66.2153 59.7407 66.8983 60.3837C67.4343 60.8887 68.2943 60.9147 68.8253 60.3837C69.3103 59.8997 69.3943 58.9297 68.8253 58.4567Z" fill="#5A287F"/>
<path opacity="0.17" d="M75.7373 54.7817C74.4603 54.7817 74.4583 56.7657 75.7373 56.7657C77.0143 56.7657 77.0163 54.7817 75.7373 54.7817Z" fill="#5A287F"/>
<path opacity="0.17" d="M77.9083 58.0447C77.8333 57.8097 77.7343 57.5897 77.6283 57.3687C77.6133 57.3377 77.5643 57.2317 77.5523 57.2077C77.5073 57.0987 77.4663 56.9877 77.4253 56.8777C77.2503 56.4047 77.0993 55.9227 76.9593 55.4387C76.5023 53.8657 74.1793 54.5247 74.5183 56.1117C74.7403 57.1527 74.9443 58.5367 75.7103 59.3267C76.6043 60.2487 78.3133 59.3077 77.9083 58.0447Z" fill="#5A287F"/>
<path opacity="0.17" d="M58.7833 29.0887C58.4953 28.5497 58.2253 28.0037 57.9723 27.4477C57.5053 26.4267 55.7623 26.9247 55.8463 28.0237C55.9003 28.7307 56.0953 29.3407 56.3473 29.9977C56.6093 30.6817 56.7833 31.4117 57.2803 31.9647C58.0923 32.8687 59.3413 32.0677 59.4513 31.0657C59.5293 30.3627 59.1043 29.6887 58.7833 29.0887Z" fill="#5A287F"/>
<path opacity="0.17" d="M64.1812 33.5697C63.8632 33.2227 63.5692 32.8547 63.2552 32.5057C62.4932 31.6607 61.2092 32.5627 61.4402 33.5627C61.6952 34.6657 62.5772 36.3857 63.8702 36.3717C64.5272 36.3647 65.0732 35.8237 65.0782 35.1637C65.0842 34.4447 64.6252 34.0547 64.1812 33.5697Z" fill="#5A287F"/>
<path opacity="0.17" d="M60.7473 35.1017C60.1133 34.8117 59.5603 34.3947 58.9113 34.1407C58.5023 33.9807 58.0863 34.3847 58.0803 34.7737C58.0683 35.6507 58.6213 36.4767 59.2163 37.0857C59.7463 37.6277 60.6493 37.5447 61.1013 36.9577C61.5213 36.4137 61.4473 35.4217 60.7473 35.1017Z" fill="#5A287F"/>
<path opacity="0.17" d="M36.0173 38.2947C35.5203 37.9787 34.9173 38.1977 34.4593 38.4847C33.8973 38.8367 33.4203 39.2057 33.1833 39.8437C33.0203 40.2827 33.2613 40.8397 33.6123 41.1027C34.0233 41.4097 34.4873 41.4077 34.9423 41.1967C35.4523 40.9597 35.8613 40.2987 36.1133 39.8037C36.3443 39.3507 36.5463 38.6317 36.0173 38.2947Z" fill="#5A287F"/>
<path opacity="0.17" d="M38.7833 39.7047C38.5723 39.2827 37.9062 39.3017 37.6902 39.7047C37.5382 39.9887 37.3642 40.2857 37.1902 40.5587C37.0282 40.8127 36.7862 40.9827 36.6032 41.2187C36.2052 41.7327 36.1022 42.4217 36.6032 42.9227C37.0772 43.3967 37.8302 43.3687 38.3072 42.9227C39.1652 42.1217 39.2833 40.7037 38.7833 39.7047Z" fill="#5A287F"/>
<path opacity="0.17" d="M40.1193 34.2967C40.0103 33.9987 39.9943 33.7097 39.8303 33.4267C39.6403 33.0987 39.2153 33.0027 38.8893 33.1797C38.6023 33.3367 38.4513 33.5777 38.2223 33.7957C37.6003 34.3897 37.9143 35.4687 38.7233 35.6917C39.5053 35.9077 40.4253 35.1297 40.1193 34.2967Z" fill="#5A287F"/>
<path opacity="0.17" d="M25.3633 49.7537C24.3853 49.8327 23.3473 50.5297 23.4303 51.6267C23.5123 52.7117 24.8383 53.0937 25.4563 52.1757C25.8103 51.6497 25.7103 51.0657 25.9403 50.5117C26.0833 50.1647 25.7193 49.7247 25.3633 49.7537Z" fill="#5A287F"/>
</svg>
