<svg width="740" height="351" viewBox="0 0 740 351" fill="none" xmlns="http://www.w3.org/2000/svg">
<path d="M311.135 170.46C311.135 170.46 306.071 162.69 299.64 164.066C294.033 165.263 285.763 173.956 277.232 173.552C274.689 173.431 273.634 172.801 273.763 172.349C273.93 171.767 274.751 171.717 277.146 172.25C278.702 172.596 282.578 171.901 286.268 169.696C289.9 167.521 297.619 163.009 299.142 162.623C300.665 162.236 293.821 159.07 288.216 157.43C284.772 156.42 283.537 156.05 283.621 155.572C283.708 155.094 285.155 155.157 288.755 156.08C296.073 157.958 302.242 162.41 303.003 162.425C303.347 162.431 303.032 161.473 298.211 157.185C296.924 156.041 296.476 154.157 299.444 156.756C300.71 157.866 302.797 159.71 305.456 163.303C305.456 163.303 309.522 165.637 312.095 169.137L311.135 170.46Z" fill="#00043C"/>
<path d="M286.711 170.369C286.711 170.369 279.125 170.552 278.771 169.575C277.99 167.416 284.834 170.883 289.721 168.577L286.711 170.369Z" fill="#00043C"/>
<path d="M292.674 166.092C292.674 166.092 285.087 166.274 284.731 165.298C283.95 163.138 290.795 166.606 295.684 164.3L292.674 166.092Z" fill="#00043C"/>
<path d="M315.299 168.767C314.213 168.084 313.114 167.425 312.011 166.772C312.852 164.788 311.518 161.832 311.025 159.99C310.064 156.41 308.707 155.724 309.071 155.075C309.598 154.133 311.496 155.89 312.69 159.629C313.12 160.97 313.249 163.144 314.115 163.532C314.978 163.92 318.342 161.437 318.12 156.342C317.856 150.215 313.864 146.587 314.745 146.241C315.626 145.898 319.169 148.826 319.713 155.428C320.229 161.697 316.52 164.612 317.218 165.213C317.902 165.804 320.407 161.934 321.196 161.721C322.308 161.419 322.231 163.218 319.294 166.009C318.453 166.805 317.02 167.797 315.543 168.939C315.464 168.881 315.386 168.822 315.299 168.767Z" fill="#00043C"/>
<path d="M319.5 167.104C317.421 166.181 315.575 166.128 313.907 166.657C308.558 155.58 298.057 152.999 299.699 154.248C305.069 158.338 307.758 163.561 309.096 167.482C304.987 165.822 302.789 169.041 302.789 169.041C305.022 169.445 306.65 170.489 307.785 171.553C307.23 172.255 306.39 172.833 306.177 173.74C301.848 192.057 286.264 194.121 276.693 196.888C267.121 199.652 253.11 200.702 245.935 210.727C245.841 210.857 245.769 210.989 245.683 211.119C243.593 212.728 238.923 217.066 240.351 222.828C242.171 230.183 241.884 228.126 242.171 230.183C242.171 230.183 245.534 229.368 244.222 224.961C243.559 222.744 243.926 221.475 244.674 220.527C245.246 222.602 246.179 224.69 247.218 226.717C249.187 230.561 253.291 235.049 251.436 242.409C250.979 244.221 248.277 249.67 246.617 251.162C244.206 253.325 243.38 253.069 242.229 254.04C240.888 255.169 238.689 254.01 238.353 254.773C238.015 255.535 239.818 257.994 242.153 258.116C243.054 258.163 245.106 256.025 247.899 253.358C253.261 248.246 257.477 243.26 258.63 244.208C259.148 244.633 257.744 248.267 254.296 250.929C250.789 253.639 249.734 255.344 249.077 256.178C247.824 257.778 246.313 257.074 246.271 258.009C246.23 258.945 248.103 260.547 249.465 260.779C250.827 261.012 250.255 258.75 251.68 258.061C252.908 257.466 252.233 257.02 254.149 255.393C257.927 252.189 260.863 248.773 262.996 245.65C265.373 242.173 266.077 239.934 265.584 235.885C265.843 232.686 274.047 230.824 280.299 230.072C286.549 229.319 293.45 224.891 298.048 220.16C301.324 216.791 302.484 219.06 303.02 222.571C303.308 224.446 304.251 228.117 304.07 230.437C303.806 233.802 303.06 234.214 302.894 235.775C302.701 237.589 300.397 238.328 300.662 239.142C300.931 239.955 303.809 240.47 305.525 238.861C306.184 238.242 306.212 235.156 306.415 231.138C306.475 229.961 306.497 228.8 306.505 227.664C307.445 226.422 308.867 224.145 310.366 220.271C311.193 218.137 311.143 214.79 310.324 211.597C324.864 195.184 316.752 183.662 318.365 183.745C325.59 184.123 325.382 179.684 332.942 179.499C334.34 179.464 336.631 179.293 336.89 176.664C337.235 173.16 327.867 170.816 319.5 167.104ZM306.9 219.838C306.726 220.417 306.601 221.379 306.436 222.4C306.339 218.668 306.249 215.893 306.835 215.22C307.267 216.495 307.434 218.048 306.9 219.838Z" fill="#00043C"/>
<path d="M242.17 230.183C242.17 230.183 242.185 230.299 242.206 230.448C242.195 230.365 242.184 230.283 242.17 230.183Z" fill="#00043C"/>
<path d="M242.216 230.522C242.232 230.628 242.248 230.746 242.262 230.847C242.251 230.762 242.236 230.66 242.216 230.522Z" fill="#00043C"/>
<path d="M242.206 230.448C242.209 230.47 242.214 230.501 242.217 230.523C242.212 230.496 242.209 230.472 242.206 230.448Z" fill="#00043C"/>
<path d="M434.447 122.914C434.447 122.914 429.383 115.145 422.952 116.521C417.344 117.718 409.075 126.411 400.544 126.007C398 125.887 396.946 125.256 397.075 124.803C397.242 124.221 398.063 124.172 400.458 124.705C402.014 125.051 405.892 124.356 409.58 122.149C413.213 119.976 420.931 115.464 422.453 115.077C423.978 114.69 417.132 111.525 411.528 109.883C408.085 108.874 406.849 108.504 406.934 108.027C407.019 107.547 408.468 107.611 412.067 108.535C419.385 110.412 425.554 114.865 426.317 114.879C426.661 114.884 426.343 113.928 421.524 109.64C420.236 108.496 419.791 106.61 422.757 109.21C424.025 110.319 426.108 112.165 428.767 115.757C428.767 115.757 432.835 118.091 435.407 121.59L434.447 122.914Z" fill="#00043C"/>
<path d="M410.024 122.823C410.024 122.823 402.437 123.006 402.083 122.029C401.303 119.871 408.146 123.337 413.035 121.032L410.024 122.823Z" fill="#00043C"/>
<path d="M415.986 118.546C415.986 118.546 408.4 118.729 408.044 117.753C407.265 115.592 414.107 119.06 418.996 116.755L415.986 118.546Z" fill="#00043C"/>
<path d="M438.611 121.221C437.526 120.539 436.425 119.88 435.326 119.227C436.164 117.243 434.831 114.287 434.336 112.444C433.375 108.866 432.021 108.179 432.385 107.53C432.911 106.588 434.809 108.345 436.003 112.082C436.433 113.426 436.56 115.599 437.426 115.987C438.292 116.374 441.655 113.892 441.432 108.797C441.168 102.67 437.178 99.0414 438.06 98.6959C438.939 98.3534 442.479 101.282 443.026 107.882C443.543 114.152 439.835 117.066 440.529 117.669C441.215 118.259 443.718 114.389 444.508 114.176C445.623 113.874 445.545 115.673 442.605 118.465C441.767 119.26 440.331 120.252 438.855 121.394C438.776 121.336 438.699 121.276 438.611 121.221Z" fill="#00043C"/>
<path d="M442.813 119.557C440.732 118.636 438.887 118.582 437.219 119.112C431.87 108.034 421.369 105.453 423.011 106.703C428.381 110.793 431.072 116.016 432.41 119.936C428.301 118.276 426.102 121.496 426.102 121.496C428.336 121.899 429.965 122.944 431.099 124.007C430.543 124.71 429.704 125.288 429.489 126.194C425.162 144.511 409.577 146.576 400.003 149.343C390.433 152.107 376.422 153.158 369.245 163.183C369.153 163.312 369.081 163.444 368.996 163.573C366.906 165.183 362.237 169.521 363.663 175.282C365.483 182.638 365.196 180.581 365.483 182.638C365.483 182.638 368.847 181.822 367.532 177.416C366.871 175.199 367.237 173.93 367.986 172.982C368.558 175.057 369.491 177.144 370.53 179.171C372.499 183.014 376.603 187.504 374.747 194.864C374.292 196.674 371.591 202.123 369.927 203.617C367.518 205.779 366.692 205.523 365.541 206.495C364.202 207.623 362.001 206.463 361.663 207.228C361.327 207.99 363.131 210.449 365.466 210.571C366.366 210.617 368.417 208.481 371.213 205.813C376.575 200.7 380.79 195.715 381.943 196.663C382.46 197.087 381.056 200.721 377.608 203.383C374.102 206.092 373.046 207.798 372.389 208.633C371.136 210.233 369.625 209.529 369.584 210.464C369.542 211.401 371.414 213.002 372.777 213.234C374.141 213.467 373.567 211.204 374.993 210.515C376.218 209.921 375.545 209.475 377.459 207.849C381.239 204.644 384.175 201.227 386.309 198.106C388.685 194.629 389.39 192.39 388.896 188.339C389.155 185.142 397.36 183.279 403.611 182.528C409.863 181.774 416.762 177.347 421.36 172.615C424.634 169.247 425.796 171.515 426.332 175.027C426.622 176.9 427.563 180.572 427.382 182.893C427.118 186.257 426.372 186.67 426.207 188.231C426.013 190.044 423.708 190.784 423.976 191.597C424.242 192.411 427.121 192.926 428.837 191.317C429.496 190.697 429.526 187.611 429.728 183.593C429.787 182.416 429.811 181.254 429.819 180.119C430.757 178.877 432.178 176.602 433.678 172.727C434.505 170.591 434.454 167.245 433.634 164.054C448.178 147.638 440.064 136.118 441.677 136.201C448.903 136.578 448.695 132.14 456.256 131.955C457.652 131.92 459.945 131.748 460.204 129.119C460.548 125.615 451.179 123.271 442.813 119.557ZM430.212 172.292C430.039 172.872 429.911 173.835 429.75 174.854C429.651 171.122 429.56 168.348 430.147 167.675C430.582 168.949 430.746 170.502 430.212 172.292Z" fill="#00043C"/>
<path d="M365.483 182.638C365.483 182.638 365.498 182.753 365.521 182.902C365.506 182.821 365.497 182.738 365.483 182.638Z" fill="#00043C"/>
<path d="M365.53 182.976C365.545 183.083 365.56 183.201 365.575 183.302C365.563 183.217 365.549 183.116 365.53 182.976Z" fill="#00043C"/>
<path d="M365.52 182.903C365.523 182.925 365.526 182.954 365.531 182.976C365.525 182.951 365.522 182.927 365.52 182.903Z" fill="#00043C"/>
<path d="M557.762 75.3693C557.762 75.3693 552.695 67.5989 546.264 68.9743C540.658 70.1719 532.39 78.8654 523.856 78.4608C521.313 78.3406 520.258 77.7114 520.389 77.2576C520.554 76.6754 521.376 76.6267 523.77 77.159C525.327 77.5054 529.203 76.8108 532.892 74.6044C536.527 72.4304 544.244 67.9188 545.767 67.5321C547.292 67.144 540.446 63.9787 534.84 62.3382C531.397 61.3296 530.161 60.9591 530.246 60.4819C530.334 60.0018 531.782 60.0659 535.379 60.9898C542.698 62.8667 548.866 67.3188 549.628 67.3338C549.971 67.3405 549.657 66.3829 544.836 62.094C543.549 60.9509 543.103 59.0654 546.07 61.6648C547.335 62.7745 549.421 64.6199 552.081 68.2121C552.081 68.2121 556.147 70.5464 558.72 74.0471L557.762 75.3693Z" fill="#00043C"/>
<path d="M533.338 75.2773C533.338 75.2773 525.751 75.4604 525.396 74.4843C524.615 72.3254 531.46 75.7911 536.348 73.4867L533.338 75.2773Z" fill="#00043C"/>
<path d="M539.298 71.0004C539.298 71.0004 531.712 71.183 531.358 70.206C530.577 68.0472 537.419 71.5148 542.308 69.2089L539.298 71.0004Z" fill="#00043C"/>
<path d="M561.924 73.6761C560.838 72.9931 559.739 72.334 558.636 71.6808C559.477 69.697 558.144 66.7419 557.65 64.8986C556.689 61.3203 555.332 60.6336 555.696 59.9853C556.223 59.0428 558.123 60.7993 559.316 64.5369C559.745 65.881 559.874 68.053 560.74 68.441C561.602 68.8291 564.967 66.3468 564.745 61.2518C564.479 55.125 560.49 51.4952 561.37 51.1511C562.253 50.8068 565.793 53.7363 566.338 60.3374C566.856 66.6058 563.145 69.522 563.843 70.1237C564.527 70.7129 567.032 66.844 567.821 66.6314C568.935 66.3289 568.856 68.1278 565.919 70.9199C565.079 71.7148 563.644 72.7071 562.169 73.8485C562.089 73.7908 562.011 73.7315 561.924 73.6761Z" fill="#00043C"/>
<path d="M566.126 72.0119C564.045 71.0899 562.2 71.0369 560.532 71.5657C555.183 60.4885 544.683 57.9073 546.323 59.1567C551.694 63.2471 554.383 68.47 555.722 72.3915C551.613 70.731 549.416 73.949 549.416 73.949C551.647 74.3543 553.276 75.3989 554.41 76.4628C553.855 77.1645 553.017 77.7428 552.802 78.6491C548.473 96.9656 532.889 99.0303 523.318 101.797C513.747 104.562 499.736 105.612 492.56 115.636C492.466 115.767 492.394 115.899 492.308 116.028C490.218 117.637 485.548 121.975 486.976 127.736C488.796 135.093 488.509 133.036 488.796 135.093C488.796 135.093 492.159 134.277 490.847 129.87C490.184 127.654 490.551 126.384 491.299 125.436C491.871 127.512 492.804 129.599 493.843 131.626C495.814 135.468 499.916 139.959 498.061 147.318C497.604 149.129 494.904 154.577 493.242 156.071C490.83 158.233 490.003 157.978 488.854 158.948C487.515 160.078 485.314 158.918 484.978 159.681C484.64 160.444 486.444 162.903 488.778 163.025C489.678 163.071 491.731 160.934 494.526 158.266C499.888 153.154 504.102 148.17 505.257 149.116C505.773 149.541 504.369 153.176 500.921 155.837C497.414 158.547 496.359 160.252 495.704 161.087C494.449 162.687 492.938 161.982 492.897 162.917C492.856 163.853 494.729 165.455 496.091 165.688C497.455 165.921 496.88 163.658 498.305 162.969C499.533 162.374 498.858 161.929 500.775 160.303C504.553 157.097 507.488 153.682 509.622 150.56C511.999 147.082 512.703 144.843 512.21 140.793C512.47 137.595 520.672 135.733 526.924 134.981C533.175 134.228 540.075 129.799 544.674 125.069C547.95 121.7 549.11 123.969 549.645 127.48C549.935 129.354 550.877 133.025 550.696 135.347C550.431 138.711 549.687 139.122 549.52 140.683C549.327 142.497 547.023 143.237 547.288 144.05C547.556 144.863 550.436 145.379 552.15 143.77C552.812 143.15 552.839 140.065 553.041 136.046C553.1 134.87 553.124 133.707 553.131 132.573C554.072 131.329 555.493 129.054 556.993 125.179C557.818 123.045 557.768 119.699 556.949 116.506C571.491 100.092 563.377 88.5702 564.989 88.6552C572.216 89.032 572.008 84.5935 579.569 84.4077C580.966 84.3729 583.256 84.2017 583.517 81.5724C583.86 78.0697 574.492 75.7247 566.126 72.0119ZM553.524 124.747C553.351 125.327 553.225 126.288 553.06 127.309C552.964 123.576 552.874 120.802 553.459 120.129C553.893 121.404 554.059 122.957 553.524 124.747Z" fill="#00043C"/>
<path d="M488.795 135.093C488.795 135.093 488.811 135.209 488.831 135.357C488.82 135.275 488.809 135.192 488.795 135.093Z" fill="#00043C"/>
<path d="M488.841 135.431C488.857 135.538 488.874 135.655 488.887 135.756C488.875 135.671 488.863 135.57 488.841 135.431Z" fill="#00043C"/>
<path d="M488.831 135.357C488.835 135.378 488.839 135.409 488.842 135.432C488.839 135.405 488.836 135.381 488.831 135.357Z" fill="#00043C"/>
<path d="M681.073 27.8251C681.073 27.8251 676.008 20.0543 669.576 21.4296C663.969 22.6277 655.702 31.3207 647.169 30.9161C644.626 30.7958 643.571 30.1657 643.7 29.7122C643.867 29.1301 644.689 29.0816 647.084 29.6135C648.639 29.9604 652.517 29.2654 656.205 27.0581C659.839 24.8846 667.556 20.3735 669.078 19.9866C670.603 19.5994 663.757 16.4345 658.153 14.7932C654.711 13.7842 653.474 13.4133 653.561 12.9354C653.645 12.4571 655.093 12.5211 658.692 13.4435C666.011 15.3215 672.179 19.7746 672.943 19.789C673.286 19.7937 672.968 18.8371 668.149 14.5489C666.861 13.4049 666.416 11.5194 669.382 14.1198C670.65 15.2285 672.733 17.0748 675.392 20.6671C675.392 20.6671 679.46 23.0009 682.033 26.5006L681.073 27.8251Z" fill="#00043C"/>
<path d="M656.65 27.7325C656.65 27.7325 649.064 27.9147 648.708 26.9392C647.929 24.7798 654.771 28.2465 659.66 25.9415L656.65 27.7325Z" fill="#00043C"/>
<path d="M662.611 23.4554C662.611 23.4554 655.025 23.6378 654.671 22.661C653.89 20.5021 660.732 23.9696 665.623 21.6633L662.611 23.4554Z" fill="#00043C"/>
<path d="M685.238 26.1305C684.151 25.4479 683.052 24.788 681.951 24.1351C682.789 22.1519 681.458 19.1956 680.963 17.3534C680.002 13.7751 678.646 13.0879 679.01 12.4396C679.536 11.4977 681.435 13.2533 682.628 16.9911C683.057 18.335 683.186 20.507 684.051 20.8963C684.917 21.2834 688.28 18.8018 688.057 13.7066C687.793 7.57853 683.802 3.95004 684.684 3.60548C685.563 3.26217 689.104 6.19084 689.65 12.7914C690.168 19.0609 686.46 21.9763 687.153 22.5787C687.839 23.1678 690.342 19.2991 691.133 19.0851C692.249 18.7834 692.17 20.5822 689.232 23.3748C688.392 24.1686 686.957 25.1619 685.482 26.3033C685.401 26.2457 685.325 26.185 685.238 26.1305Z" fill="#00043C"/>
<path d="M689.44 24.4665C687.357 23.5449 685.512 23.492 683.844 24.0207C678.495 12.9436 667.996 10.362 669.636 11.6118C675.008 15.7017 677.697 20.9255 679.035 24.8461C674.927 23.1855 672.726 26.4046 672.726 26.4046C674.961 26.808 676.59 27.8536 677.724 28.9163C677.168 29.6194 676.329 30.1976 676.113 31.1031C671.787 49.4202 656.201 51.4854 646.63 54.2514C637.058 57.0159 623.047 58.0675 615.87 68.0916C615.778 68.2211 615.706 68.3528 615.621 68.482C613.531 70.0917 608.862 74.4294 610.287 80.1912C612.108 87.5465 611.821 85.4902 612.107 87.5465C612.107 87.5465 615.471 86.731 614.157 82.3255C613.496 80.1087 613.861 78.8395 614.611 77.8905C615.183 79.9656 616.116 82.0541 617.155 84.0808C619.126 87.9232 623.228 92.4134 621.371 99.772C620.916 101.584 618.216 107.032 616.554 108.526C614.142 110.687 613.317 110.433 612.166 111.403C610.826 112.532 608.626 111.373 608.288 112.136C607.952 112.898 609.756 115.358 612.092 115.48C612.991 115.526 615.041 113.389 617.839 110.721C623.2 105.609 627.414 100.624 628.569 101.571C629.085 101.995 627.68 105.63 624.233 108.292C620.727 111.001 619.67 112.707 619.015 113.541C617.76 115.141 616.251 114.436 616.21 115.372C616.167 116.308 618.038 117.91 619.402 118.143C620.766 118.375 620.192 116.112 621.618 115.423C622.843 114.831 622.17 114.383 624.086 112.758C627.864 109.552 630.799 106.136 632.933 103.014C635.31 99.5373 636.014 97.2981 635.521 93.248C635.78 90.0507 643.985 88.1875 650.236 87.4357C656.487 86.6827 663.387 82.2545 667.985 77.5237C671.259 74.1548 672.421 76.4231 672.958 79.9348C673.247 81.8093 674.188 85.4808 674.007 87.8008C673.745 91.1656 672.997 91.578 672.831 93.1386C672.638 94.9528 670.334 95.6923 670.601 96.5049C670.866 97.319 673.747 97.8344 675.461 96.2248C676.123 95.6055 676.15 92.5192 676.352 88.5011C676.411 87.325 676.435 86.1623 676.443 85.0266C677.382 83.7854 678.802 81.5092 680.304 77.6339C681.131 75.4994 681.079 72.1546 680.259 68.9614C694.802 52.548 686.688 41.0265 688.302 41.11C695.527 41.4864 695.321 37.0475 702.88 36.8621C704.277 36.8275 706.569 36.6568 706.828 34.0277C707.172 30.5238 697.804 28.18 689.44 24.4665ZM676.837 77.2019C676.664 77.782 676.538 78.7426 676.373 79.764C676.276 76.0309 676.186 73.2563 676.771 72.5843C677.207 73.8589 677.371 75.4121 676.837 77.2019Z" fill="#00043C"/>
<path d="M612.107 87.547C612.107 87.547 612.124 87.6629 612.145 87.8112C612.131 87.7307 612.122 87.6465 612.107 87.547Z" fill="#00043C"/>
<path d="M612.155 87.8863C612.17 87.9935 612.187 88.1103 612.2 88.2115C612.188 88.1258 612.174 88.0253 612.155 87.8863Z" fill="#00043C"/>
<path d="M612.145 87.8113C612.15 87.8329 612.153 87.864 612.156 87.8863C612.152 87.8601 612.147 87.8356 612.145 87.8113Z" fill="#00043C"/>
<path d="M195.804 280.85C192.958 281.41 196.628 284.641 194.761 292.367C194.538 293.529 193.892 294.988 193.425 296.035C193.492 295.88 193.433 296.01 193.443 295.983C189.545 302.81 189.836 302.181 159.287 310.487L151.392 286.593L149.025 287.282L155.169 311.61C146.874 313.88 136.559 316.752 123.694 320.475L115.911 296.922L113.547 297.61L119.619 321.655C114.719 323.066 109.834 324.493 105.023 325.918C98.655 327.809 93.1145 329.491 88.2743 330.977L80.4318 307.25L78.0662 307.938L84.2013 332.233C54.792 341.33 54.5467 342.03 47.5898 338.335C38.6145 332.301 40.6215 326.065 37.6422 326.968C36.8582 327.205 36.4257 328.074 36.6762 328.909C39.8352 339.38 48.0016 345.402 56.7366 345.029C62.7124 344.463 119.477 327.867 123.308 326.732C134.453 323.48 145.579 320.153 156.004 317.02C187.119 307.459 190.321 307.812 195.123 300.845C195.394 300.419 195.659 300 195.918 299.587C198.541 294.83 199.238 289.783 198.155 284.308C197.997 283.545 197.807 282.976 197.712 282.585C197.605 282.199 197.549 281.999 197.549 281.999C197.332 281.211 196.572 280.699 195.804 280.85Z" fill="#00043C"/>
<path d="M155.686 234.686C157.769 232.741 158.398 233.882 160.594 232.277C163.187 230.377 159.483 223.867 156.056 225.568C154.653 226.265 154.377 228.045 152.159 229.888C151.559 230.389 150.144 232.115 149.197 232.605C145.777 234.375 144.142 235.013 141.338 234.93C136.431 224.532 125.348 224.971 125.348 224.971C125.286 223.777 126.395 223.813 125.562 223.205C124.728 222.597 122.61 223.162 122.61 223.162C123.021 220.567 125.934 218.222 117.898 217.157C106.521 215.648 108.736 227.769 105.974 230.533C103.282 233.225 96.9432 229.808 96.9432 229.808C96.9432 229.808 99.4827 233.196 105.609 235.54C111.733 237.885 116.359 232.41 116.359 232.41C117.443 235.628 119.144 235.393 118.688 236.066C116.512 239.278 114.887 246.046 120.415 257.023C125.542 267.205 122.386 267.8 122.386 267.8C114.053 240.511 95.2965 248.189 92.5599 242.794C88.0833 233.973 92.9432 228.083 92.9432 228.083C86.0204 227.597 86.2877 234.019 86.2877 234.019C79.7057 235.11 81.8265 238.723 81.8265 238.723C75.4803 237.706 74.8146 243.267 74.8146 243.267C84.728 243.27 88.1097 244.324 88.1595 246.708C88.2454 251.016 82.7663 251.218 80.3389 260.902C77.7186 271.337 86.613 286.468 86.613 286.468C86.613 286.468 80.3253 286.234 77.5168 267.243C74.1194 244.254 46.8172 255.93 44.166 255.335C44.166 255.335 41.5419 248.825 46.3002 240.63C47.4709 238.612 47.4751 237.355 46.9329 236.93C46.0307 236.22 44.9576 237.772 43.2247 241.835C40.256 248.795 29.3967 242.116 32.4617 247.341C37.4767 255.889 24.5886 254.69 26.4534 257.087C27.9007 258.949 33.354 255.749 38.1534 258.891C23.779 278.449 35.5344 293.29 52.5212 304.234C55.2934 306.02 59.5128 328.251 68.024 325.773L170.698 295.884C189.659 287.011 180.382 253.806 155.664 260.589C154.225 251.309 148.825 241.859 148.825 241.859C147.459 239.981 149.052 240.767 151.75 238.777C153.713 237.327 154.925 235.399 155.686 234.686Z" fill="#00043C"/>
<path d="M339.836 187.991C268.366 208.797 200.909 224.198 156.798 230.592L156.443 228.386C268.798 212.101 532.995 137.28 627.526 63.894L628.818 65.7014C571.182 110.444 450.704 155.717 339.836 187.991Z" fill="#00043C"/>
</svg>
