<svg width="33" height="33" viewBox="0 0 33 33" fill="none" xmlns="http://www.w3.org/2000/svg">
<path d="M9.05701 0.340988C9.43201 1.90199 15.749 16.174 15.749 16.174C15.749 16.174 22.12 30.423 23.029 31.746C22.654 30.185 16.337 15.912 16.337 15.912C16.337 15.912 9.96601 1.66399 9.05701 0.340988Z" fill="white"/>
<path d="M22.207 0C21.368 1.368 15.743 15.928 15.743 15.928C15.743 15.928 10.173 30.509 9.87903 32.087C10.718 30.718 16.343 16.159 16.343 16.159C16.343 16.159 21.914 1.578 22.207 0Z" fill="white"/>
<path d="M31.746 9.058C30.185 9.432 15.912 15.75 15.912 15.75C15.912 15.75 1.66297 22.121 0.339966 23.03C1.90097 22.655 16.173 16.338 16.173 16.338C16.173 16.338 30.423 9.966 31.746 9.058Z" fill="white"/>
<path d="M32.087 22.207C30.718 21.368 16.159 15.743 16.159 15.743C16.159 15.743 1.578 10.173 0 9.879C1.368 10.718 15.928 16.343 15.928 16.343C15.928 16.343 30.509 21.914 32.087 22.207Z" fill="white"/>
<path d="M10.233 2.98199C10.233 2.98199 8.92599 2.374 7.76099 2.086C7.76099 2.086 8.52999 2.69699 10.394 3.34299L10.233 2.98199Z" fill="white"/>
<path d="M10.914 4.513C10.914 4.513 8.63302 3.719 7.46802 3.431C7.46802 3.431 8.94402 4.31899 11.117 4.96999L10.914 4.513Z" fill="white"/>
<path d="M12.719 8.56999C12.719 8.56999 9.51105 7.45399 7.87305 7.04799C7.87305 7.04799 9.94905 8.29699 13.0051 9.21199L12.719 8.56999Z" fill="white"/>
<path d="M14.2221 11.924C14.2221 11.924 11.709 11.05 10.425 10.732C10.425 10.732 12.0521 11.71 14.4461 12.428L14.2221 11.924Z" fill="white"/>
<path d="M9.02107 4.034C9.02107 4.034 8.06707 4.624 7.62207 4.959C7.62207 4.959 8.37407 4.68699 9.24507 4.09399L9.02107 4.034Z" fill="white"/>
<path d="M9.45003 7.668C9.45003 7.668 8.49603 8.25799 8.05103 8.59299C8.05103 8.59299 8.80403 8.321 9.67503 7.728L9.45003 7.668Z" fill="white"/>
<path d="M10.919 8.29999C10.919 8.29999 9.96502 8.88999 9.52002 9.22499C9.52002 9.22499 10.273 8.953 11.144 8.36L10.919 8.29999Z" fill="white"/>
<path d="M8.71803 2.44499C8.71803 2.44499 8.04303 2.86199 7.72803 3.09999C7.72803 3.09999 8.26003 2.90699 8.87703 2.48799L8.71803 2.44499Z" fill="white"/>
<path d="M9.821 4.258C9.821 4.258 9.231 3.30399 8.896 2.85899C8.896 2.85899 9.16799 3.61099 9.76099 4.48299L9.821 4.258Z" fill="white"/>
<path d="M10.3751 7.96199C10.3751 7.96199 9.78507 7.00799 9.45007 6.56299C9.45007 6.56299 9.72207 7.31499 10.3151 8.18599L10.3751 7.96199Z" fill="white"/>
<path d="M12.46 11.49C12.46 11.49 11.87 10.536 11.535 10.091C11.535 10.091 11.807 10.843 12.4 11.715L12.46 11.49Z" fill="white"/>
<path d="M13.4751 11.771C13.4751 11.771 12.885 10.817 12.55 10.372C12.55 10.372 12.8221 11.124 13.4151 11.996L13.4751 11.771Z" fill="white"/>
<path d="M11.791 8.336C11.791 8.336 11.201 7.382 10.866 6.937C10.866 6.937 11.138 7.689 11.731 8.56L11.791 8.336Z" fill="white"/>
<path d="M9.73402 2.80199C9.73402 2.80199 9.22203 1.975 8.93103 1.588C8.93103 1.588 9.16703 2.24099 9.68103 2.99599L9.73402 2.80199Z" fill="white"/>
<path d="M10.187 4.56599C10.187 4.56599 9.23296 5.156 8.78796 5.491C8.78796 5.491 9.53996 5.21899 10.412 4.62599L10.187 4.56599Z" fill="white"/>
<path d="M10.2421 2.97899C10.2421 2.97899 10.6661 1.60099 11.2321 0.541992C11.2321 0.541992 11.1711 1.52199 10.4031 3.33899L10.2421 2.97899Z" fill="white"/>
<path d="M10.922 4.50899C10.922 4.50899 11.86 2.28399 12.426 1.22499C12.426 1.22499 12.097 2.91599 11.126 4.96599L10.922 4.50899Z" fill="white"/>
<path d="M12.728 8.56599C12.728 8.56599 14.047 5.436 14.843 3.948C14.843 3.948 14.38 6.326 13.014 9.209L12.728 8.56599Z" fill="white"/>
<path d="M14.212 11.928C14.212 11.928 15.245 9.47599 15.869 8.30899C15.869 8.30899 15.506 10.172 14.436 12.431L14.212 11.928Z" fill="white"/>
<path d="M11.834 2.78299C11.834 2.78299 12.911 2.46899 13.458 2.36299C13.458 2.36299 12.752 2.73999 11.729 2.98999L11.834 2.78299Z" fill="white"/>
<path d="M14.245 5.534C14.245 5.534 15.322 5.22 15.869 5.114C15.869 5.114 15.163 5.491 14.14 5.741L14.245 5.534Z" fill="white"/>
<path d="M13.7321 7.04799C13.7321 7.04799 14.8091 6.73399 15.3561 6.62799C15.3561 6.62799 14.6501 7.00499 13.6271 7.25499L13.7321 7.04799Z" fill="white"/>
<path d="M10.856 1.49399C10.856 1.49399 11.618 1.27199 12.005 1.19699C12.005 1.19699 11.505 1.46299 10.781 1.64099L10.856 1.49399Z" fill="white"/>
<path d="M11.465 3.52599C11.465 3.52599 11.151 2.44899 11.045 1.90199C11.045 1.90199 11.422 2.608 11.672 3.631L11.465 3.52599Z" fill="white"/>
<path d="M13.845 6.418C13.845 6.418 13.531 5.34099 13.425 4.79399C13.425 4.79399 13.802 5.49999 14.052 6.52299L13.845 6.418Z" fill="white"/>
<path d="M15.0691 10.329C15.0691 10.329 14.755 9.25199 14.649 8.70499C14.649 8.70499 15.026 9.41099 15.276 10.434L15.0691 10.329Z" fill="white"/>
<path d="M14.5991 11.27C14.5991 11.27 14.2851 10.193 14.1791 9.646C14.1791 9.646 14.5561 10.352 14.8061 11.375L14.5991 11.27Z" fill="white"/>
<path d="M13.175 7.71999C13.175 7.71999 12.861 6.64299 12.755 6.09599C12.755 6.09599 13.132 6.802 13.382 7.825L13.175 7.71999Z" fill="white"/>
<path d="M10.441 2.487C10.441 2.487 10.169 1.55299 10.077 1.07799C10.077 1.07799 10.404 1.68999 10.621 2.57799L10.441 2.487Z" fill="white"/>
<path d="M11.449 4.00499C11.449 4.00499 12.526 3.69099 13.073 3.58499C13.073 3.58499 12.367 3.96199 11.344 4.21199L11.449 4.00499Z" fill="white"/>
<path d="M21.199 2.65799C21.199 2.65799 20.704 1.30399 20.085 0.275986C20.085 0.275986 20.196 1.25199 21.058 3.02599L21.199 2.65799Z" fill="white"/>
<path d="M20.598 4.222C20.598 4.222 19.546 2.04799 18.926 1.01999C18.926 1.01999 19.342 2.692 20.418 4.689L20.598 4.222Z" fill="white"/>
<path d="M19.006 8.36699C19.006 8.36699 17.527 5.31 16.655 3.864C16.655 3.864 17.24 6.21499 18.754 9.02299L19.006 8.36699Z" fill="white"/>
<path d="M17.697 11.802C17.697 11.802 16.538 9.40699 15.855 8.27399C15.855 8.27399 16.314 10.116 17.499 12.316L17.697 11.802Z" fill="white"/>
<path d="M19.599 2.545C19.599 2.545 18.507 2.28699 17.955 2.20999C17.955 2.20999 18.68 2.54999 19.714 2.74599L19.599 2.545Z" fill="white"/>
<path d="M17.333 5.418C17.333 5.418 16.241 5.15999 15.689 5.08299C15.689 5.08299 16.414 5.42299 17.448 5.61899L17.333 5.418Z" fill="white"/>
<path d="M17.924 6.903C17.924 6.903 16.832 6.64499 16.28 6.56799C16.28 6.56799 17.005 6.90799 18.04 7.10399L17.924 6.903Z" fill="white"/>
<path d="M20.508 1.20699C20.508 1.20699 19.736 1.02499 19.345 0.969986C19.345 0.969986 19.858 1.20999 20.59 1.34999L20.508 1.20699Z" fill="white"/>
<path d="M20.006 3.269C20.006 3.269 20.263 2.177 20.341 1.625C20.341 1.625 20.001 2.34899 19.804 3.38499L20.006 3.269Z" fill="white"/>
<path d="M17.7779 6.28C17.7779 6.28 18.0359 5.18799 18.1129 4.63599C18.1129 4.63599 17.7729 5.36099 17.5769 6.39499L17.7779 6.28Z" fill="white"/>
<path d="M16.7579 10.25C16.7579 10.25 17.0159 9.15799 17.0929 8.60599C17.0929 8.60599 16.7529 9.33099 16.5559 10.365L16.7579 10.25Z" fill="white"/>
<path d="M17.2769 11.165C17.2769 11.165 17.5339 10.073 17.6119 9.521C17.6119 9.521 17.2719 10.246 17.0759 11.28L17.2769 11.165Z" fill="white"/>
<path d="M18.515 7.545C18.515 7.545 18.773 6.45299 18.85 5.90099C18.85 5.90099 18.51 6.626 18.314 7.661L18.515 7.545Z" fill="white"/>
<path d="M20.9739 2.17799C20.9739 2.17799 21.1969 1.231 21.2649 0.751999C21.2649 0.751999 20.9699 1.38 20.7999 2.278L20.9739 2.17799Z" fill="white"/>
<path d="M20.047 3.74599C20.047 3.74599 18.955 3.488 18.403 3.411C18.403 3.411 19.1279 3.75099 20.1619 3.94699L20.047 3.74599Z" fill="white"/>
<path d="M21.208 2.66199C21.208 2.66199 22.482 1.98799 23.631 1.63899C23.631 1.63899 22.895 2.289 21.067 3.03L21.208 2.66199Z" fill="white"/>
<path d="M20.607 4.22499C20.607 4.22499 22.844 3.31399 23.992 2.96599C23.992 2.96599 22.564 3.92899 20.427 4.69199L20.607 4.22499Z" fill="white"/>
<path d="M19.0151 8.37099C19.0151 8.37099 22.1611 7.08999 23.7761 6.59999C23.7761 6.59999 21.7671 7.95399 18.7631 9.02699L19.0151 8.37099Z" fill="white"/>
<path d="M17.687 11.798C17.687 11.798 20.152 10.795 21.417 10.411C21.417 10.411 19.843 11.472 17.489 12.313L17.687 11.798Z" fill="white"/>
<path d="M22.473 3.64899C22.473 3.64899 23.456 4.18899 23.918 4.50099C23.918 4.50099 23.152 4.26799 22.252 3.72099L22.473 3.64899Z" fill="white"/>
<path d="M22.232 7.29999C22.232 7.29999 23.215 7.83999 23.677 8.15199C23.677 8.15199 22.912 7.91899 22.011 7.37299L22.232 7.29999Z" fill="white"/>
<path d="M20.798 8.008C20.798 8.008 21.781 8.548 22.243 8.86C22.243 8.86 21.477 8.62699 20.577 8.07999L20.798 8.008Z" fill="white"/>
<path d="M22.693 2.04599C22.693 2.04599 23.389 2.42799 23.716 2.64899C23.716 2.64899 23.174 2.484 22.537 2.097L22.693 2.04599Z" fill="white"/>
<path d="M21.686 3.91399C21.686 3.91399 22.226 2.93099 22.538 2.46899C22.538 2.46899 22.305 3.23499 21.758 4.13499L21.686 3.91399Z" fill="white"/>
<path d="M21.324 7.642C21.324 7.642 21.864 6.65899 22.176 6.19699C22.176 6.19699 21.943 6.96299 21.396 7.86299L21.324 7.642Z" fill="white"/>
<path d="M19.4241 11.274C19.4241 11.274 19.9641 10.291 20.2761 9.82899C20.2761 9.82899 20.0431 10.595 19.4961 11.495L19.4241 11.274Z" fill="white"/>
<path d="M18.426 11.606C18.426 11.606 18.966 10.623 19.278 10.161C19.278 10.161 19.045 10.927 18.498 11.827L18.426 11.606Z" fill="white"/>
<path d="M19.929 8.08899C19.929 8.08899 20.469 7.106 20.781 6.644C20.781 6.644 20.548 7.41 20.001 8.31L19.929 8.08899Z" fill="white"/>
<path d="M21.697 2.45499C21.697 2.45499 22.165 1.60199 22.436 1.20099C22.436 1.20099 22.234 1.865 21.76 2.646L21.697 2.45499Z" fill="white"/>
<path d="M21.336 4.241C21.336 4.241 22.319 4.78099 22.781 5.09299C22.781 5.09299 22.015 4.86 21.115 4.314L21.336 4.241Z" fill="white"/>
<path d="M29.182 10.184C29.182 10.184 29.79 8.87699 30.078 7.71199C30.078 7.71199 29.467 8.47999 28.822 10.345L29.182 10.184Z" fill="white"/>
<path d="M27.6521 10.864C27.6521 10.864 28.4461 8.583 28.7341 7.418C28.7341 7.418 27.8461 8.89399 27.1951 11.067L27.6521 10.864Z" fill="white"/>
<path d="M23.595 12.67C23.595 12.67 24.711 9.46199 25.117 7.82399C25.117 7.82399 23.868 9.89999 22.953 12.956L23.595 12.67Z" fill="white"/>
<path d="M20.2411 14.173C20.2411 14.173 21.1151 11.66 21.4331 10.376C21.4331 10.376 20.4551 12.003 19.7371 14.397L20.2411 14.173Z" fill="white"/>
<path d="M28.1311 8.972C28.1311 8.972 27.5411 8.018 27.2061 7.573C27.2061 7.573 27.4781 8.32599 28.0711 9.19699L28.1311 8.972Z" fill="white"/>
<path d="M24.497 9.40099C24.497 9.40099 23.907 8.447 23.572 8.002C23.572 8.002 23.844 8.75399 24.437 9.62599L24.497 9.40099Z" fill="white"/>
<path d="M23.8651 10.87C23.8651 10.87 23.2751 9.91599 22.9401 9.47099C22.9401 9.47099 23.2121 10.223 23.8051 11.094L23.8651 10.87Z" fill="white"/>
<path d="M29.7201 8.66899C29.7201 8.66899 29.3031 7.99399 29.0651 7.67899C29.0651 7.67899 29.2581 8.21099 29.6771 8.82799L29.7201 8.66899Z" fill="white"/>
<path d="M27.907 9.77199C27.907 9.77199 28.861 9.182 29.306 8.847C29.306 8.847 28.554 9.11899 27.682 9.71199L27.907 9.77199Z" fill="white"/>
<path d="M24.203 10.325C24.203 10.325 25.157 9.73499 25.602 9.39999C25.602 9.39999 24.85 9.672 23.979 10.265L24.203 10.325Z" fill="white"/>
<path d="M20.6751 12.411C20.6751 12.411 21.6291 11.821 22.0741 11.486C22.0741 11.486 21.3211 11.758 20.4501 12.351L20.6751 12.411Z" fill="white"/>
<path d="M20.3941 13.425C20.3941 13.425 21.3481 12.835 21.7931 12.5C21.7931 12.5 21.0401 12.772 20.1691 13.365L20.3941 13.425Z" fill="white"/>
<path d="M23.8291 11.742C23.8291 11.742 24.7831 11.152 25.2281 10.817C25.2281 10.817 24.4761 11.089 23.6051 11.682L23.8291 11.742Z" fill="white"/>
<path d="M29.3631 9.685C29.3631 9.685 30.1901 9.17299 30.5771 8.88199C30.5771 8.88199 29.9241 9.11799 29.1691 9.63199L29.3631 9.685Z" fill="white"/>
<path d="M27.5981 10.138C27.5981 10.138 27.0081 9.184 26.6731 8.739C26.6731 8.739 26.9451 9.49099 27.5381 10.363L27.5981 10.138Z" fill="white"/>
<path d="M29.186 10.192C29.186 10.192 30.564 10.616 31.622 11.182C31.622 11.182 30.642 11.121 28.825 10.353L29.186 10.192Z" fill="white"/>
<path d="M27.656 10.873C27.656 10.873 29.881 11.811 30.94 12.376C30.94 12.376 29.249 12.047 27.199 11.076L27.656 10.873Z" fill="white"/>
<path d="M23.5991 12.679C23.5991 12.679 26.7291 13.998 28.2171 14.793C28.2171 14.793 25.8391 14.33 22.9561 12.964L23.5991 12.679Z" fill="white"/>
<path d="M20.237 14.163C20.237 14.163 22.689 15.196 23.856 15.82C23.856 15.82 21.993 15.458 19.734 14.387L20.237 14.163Z" fill="white"/>
<path d="M29.382 11.785C29.382 11.785 29.696 12.862 29.802 13.409C29.802 13.409 29.425 12.703 29.175 11.68L29.382 11.785Z" fill="white"/>
<path d="M26.6311 14.196C26.6311 14.196 26.9451 15.273 27.0511 15.82C27.0511 15.82 26.6741 15.114 26.4241 14.091L26.6311 14.196Z" fill="white"/>
<path d="M25.117 13.683C25.117 13.683 25.431 14.76 25.537 15.307C25.537 15.307 25.16 14.601 24.91 13.578L25.117 13.683Z" fill="white"/>
<path d="M30.6711 10.807C30.6711 10.807 30.893 11.569 30.968 11.956C30.968 11.956 30.702 11.457 30.524 10.732L30.6711 10.807Z" fill="white"/>
<path d="M28.638 11.416C28.638 11.416 29.715 11.102 30.262 10.996C30.262 10.996 29.556 11.373 28.533 11.623L28.638 11.416Z" fill="white"/>
<path d="M25.747 13.796C25.747 13.796 26.824 13.482 27.371 13.376C27.371 13.376 26.665 13.753 25.642 14.003L25.747 13.796Z" fill="white"/>
<path d="M21.835 15.02C21.835 15.02 22.912 14.706 23.459 14.6C23.459 14.6 22.753 14.977 21.73 15.227L21.835 15.02Z" fill="white"/>
<path d="M20.8941 14.55C20.8941 14.55 21.9711 14.236 22.5181 14.13C22.5181 14.13 21.8121 14.507 20.7891 14.757L20.8941 14.55Z" fill="white"/>
<path d="M24.445 13.126C24.445 13.126 25.522 12.812 26.069 12.706C26.069 12.706 25.363 13.083 24.34 13.333L24.445 13.126Z" fill="white"/>
<path d="M29.678 10.392C29.678 10.392 30.612 10.12 31.087 10.028C31.087 10.028 30.475 10.355 29.587 10.572L29.678 10.392Z" fill="white"/>
<path d="M28.16 11.4C28.16 11.4 28.474 12.477 28.58 13.024C28.58 13.024 28.203 12.318 27.953 11.295L28.16 11.4Z" fill="white"/>
<path d="M29.5059 21.15C29.5059 21.15 30.8599 20.655 31.8879 20.035C31.8879 20.035 30.9119 20.146 29.1379 21.008L29.5059 21.15Z" fill="white"/>
<path d="M27.943 20.549C27.943 20.549 30.117 19.497 31.145 18.877C31.145 18.877 29.473 19.293 27.476 20.369L27.943 20.549Z" fill="white"/>
<path d="M23.797 18.957C23.797 18.957 26.854 17.478 28.3 16.606C28.3 16.606 25.949 17.191 23.141 18.705L23.797 18.957Z" fill="white"/>
<path d="M20.363 17.648C20.363 17.648 22.758 16.489 23.891 15.806C23.891 15.806 22.049 16.264 19.849 17.45L20.363 17.648Z" fill="white"/>
<path d="M29.62 19.55C29.62 19.55 29.877 18.458 29.955 17.906C29.955 17.906 29.615 18.631 29.418 19.666L29.62 19.55Z" fill="white"/>
<path d="M26.747 17.284C26.747 17.284 27.005 16.192 27.082 15.64C27.082 15.64 26.742 16.365 26.546 17.4L26.747 17.284Z" fill="white"/>
<path d="M25.262 17.875C25.262 17.875 25.519 16.783 25.597 16.231C25.597 16.231 25.257 16.955 25.061 17.99L25.262 17.875Z" fill="white"/>
<path d="M30.9579 20.459C30.9579 20.459 31.1399 19.687 31.1949 19.296C31.1949 19.296 30.9549 19.809 30.8149 20.541L30.9579 20.459Z" fill="white"/>
<path d="M28.896 19.957C28.896 19.957 29.988 20.214 30.54 20.292C30.54 20.292 29.815 19.952 28.781 19.756L28.896 19.957Z" fill="white"/>
<path d="M25.885 17.729C25.885 17.729 26.977 17.987 27.529 18.064C27.529 18.064 26.804 17.724 25.769 17.528L25.885 17.729Z" fill="white"/>
<path d="M21.9151 16.709C21.9151 16.709 23.0071 16.967 23.5591 17.044C23.5591 17.044 22.834 16.704 21.8 16.508L21.9151 16.709Z" fill="white"/>
<path d="M21 17.228C21 17.228 22.092 17.486 22.644 17.563C22.644 17.563 21.92 17.223 20.884 17.027L21 17.228Z" fill="white"/>
<path d="M24.619 18.466C24.619 18.466 25.711 18.723 26.263 18.801C26.263 18.801 25.539 18.461 24.504 18.265L24.619 18.466Z" fill="white"/>
<path d="M29.987 20.925C29.987 20.925 30.934 21.148 31.413 21.216C31.413 21.216 30.785 20.922 29.887 20.751L29.987 20.925Z" fill="white"/>
<path d="M28.419 19.998C28.419 19.998 28.677 18.906 28.754 18.354C28.754 18.354 28.414 19.079 28.218 20.114L28.419 19.998Z" fill="white"/>
<path d="M29.503 21.159C29.503 21.159 30.177 22.433 30.526 23.582C30.526 23.582 29.876 22.846 29.135 21.018L29.503 21.159Z" fill="white"/>
<path d="M27.94 20.558C27.94 20.558 28.85 22.795 29.199 23.943C29.199 23.943 28.236 22.515 27.473 20.378L27.94 20.558Z" fill="white"/>
<path d="M23.7941 18.966C23.7941 18.966 25.0741 22.112 25.5651 23.727C25.5651 23.727 24.2111 21.718 23.1381 18.714L23.7941 18.966Z" fill="white"/>
<path d="M20.3671 17.638C20.3671 17.638 21.3701 20.103 21.7541 21.368C21.7541 21.368 20.6931 19.794 19.8521 17.44L20.3671 17.638Z" fill="white"/>
<path d="M28.5151 22.423C28.5151 22.423 27.9751 23.406 27.6631 23.868C27.6631 23.868 27.8961 23.102 28.4431 22.202L28.5151 22.423Z" fill="white"/>
<path d="M24.8651 22.183C24.8651 22.183 24.3251 23.166 24.0131 23.628C24.0131 23.628 24.2461 22.862 24.7931 21.962L24.8651 22.183Z" fill="white"/>
<path d="M24.1571 20.749C24.1571 20.749 23.6171 21.732 23.3051 22.194C23.3051 22.194 23.5381 21.428 24.0851 20.528L24.1571 20.749Z" fill="white"/>
<path d="M30.1191 22.644C30.1191 22.644 29.7371 23.34 29.5161 23.667C29.5161 23.667 29.6811 23.125 30.0681 22.488L30.1191 22.644Z" fill="white"/>
<path d="M28.2501 21.637C28.2501 21.637 29.2331 22.177 29.6951 22.489C29.6951 22.489 28.9291 22.256 28.0291 21.709L28.2501 21.637Z" fill="white"/>
<path d="M24.523 21.275C24.523 21.275 25.506 21.815 25.968 22.127C25.968 22.127 25.203 21.894 24.302 21.347L24.523 21.275Z" fill="white"/>
<path d="M20.891 19.375C20.891 19.375 21.874 19.915 22.336 20.227C22.336 20.227 21.571 19.994 20.67 19.448L20.891 19.375Z" fill="white"/>
<path d="M20.559 18.377C20.559 18.377 21.542 18.917 22.004 19.229C22.004 19.229 21.238 18.996 20.338 18.45L20.559 18.377Z" fill="white"/>
<path d="M24.0761 19.88C24.0761 19.88 25.0591 20.42 25.5211 20.732C25.5211 20.732 24.7561 20.499 23.8551 19.952L24.0761 19.88Z" fill="white"/>
<path d="M29.7091 21.648C29.7091 21.648 30.5621 22.116 30.9631 22.387C30.9631 22.387 30.2991 22.185 29.5181 21.711L29.7091 21.648Z" fill="white"/>
<path d="M27.923 21.287C27.923 21.287 27.383 22.27 27.071 22.732C27.071 22.732 27.304 21.966 27.851 21.066L27.923 21.287Z" fill="white"/>
<path d="M21.9809 29.133C21.9809 29.133 23.2879 29.741 24.4529 30.029C24.4529 30.029 23.6849 29.418 21.8209 28.772L21.9809 29.133Z" fill="white"/>
<path d="M21.2999 27.603C21.2999 27.603 23.5809 28.397 24.7459 28.685C24.7459 28.685 23.2699 27.797 21.0969 27.146L21.2999 27.603Z" fill="white"/>
<path d="M19.495 23.546C19.495 23.546 22.703 24.662 24.341 25.068C24.341 25.068 22.265 23.819 19.209 22.904L19.495 23.546Z" fill="white"/>
<path d="M17.9919 20.192C17.9919 20.192 20.5049 21.066 21.7889 21.384C21.7889 21.384 20.1619 20.406 17.7679 19.688L17.9919 20.192Z" fill="white"/>
<path d="M23.193 28.082C23.193 28.082 24.147 27.492 24.592 27.157C24.592 27.157 23.84 27.429 22.969 28.022L23.193 28.082Z" fill="white"/>
<path d="M22.7639 24.448C22.7639 24.448 23.7179 23.858 24.1629 23.523C24.1629 23.523 23.4109 23.795 22.5389 24.388L22.7639 24.448Z" fill="white"/>
<path d="M21.2949 23.816C21.2949 23.816 22.2489 23.226 22.6939 22.891C22.6939 22.891 21.9419 23.163 21.0709 23.756L21.2949 23.816Z" fill="white"/>
<path d="M23.4959 29.671C23.4959 29.671 24.1709 29.254 24.4859 29.016C24.4859 29.016 23.9539 29.209 23.3369 29.628L23.4959 29.671Z" fill="white"/>
<path d="M22.3929 27.858C22.3929 27.858 22.9829 28.812 23.3179 29.257C23.3179 29.257 23.0459 28.505 22.4529 27.634L22.3929 27.858Z" fill="white"/>
<path d="M21.839 24.154C21.839 24.154 22.429 25.108 22.764 25.553C22.764 25.553 22.492 24.801 21.899 23.929L21.839 24.154Z" fill="white"/>
<path d="M19.7529 20.626C19.7529 20.626 20.3429 21.58 20.6779 22.025C20.6779 22.025 20.4059 21.273 19.8129 20.401L19.7529 20.626Z" fill="white"/>
<path d="M18.7389 20.345C18.7389 20.345 19.3289 21.299 19.6639 21.744C19.6639 21.744 19.3919 20.992 18.7989 20.12L18.7389 20.345Z" fill="white"/>
<path d="M20.423 23.78C20.423 23.78 21.013 24.734 21.348 25.179C21.348 25.179 21.076 24.427 20.483 23.555L20.423 23.78Z" fill="white"/>
<path d="M22.48 29.314C22.48 29.314 22.991 30.141 23.282 30.528C23.282 30.528 23.046 29.875 22.532 29.12L22.48 29.314Z" fill="white"/>
<path d="M22.027 27.549C22.027 27.549 22.981 26.959 23.426 26.624C23.426 26.624 22.674 26.896 21.803 27.489L22.027 27.549Z" fill="white"/>
<path d="M21.9719 29.137C21.9719 29.137 21.5479 30.515 20.9819 31.573C20.9819 31.573 21.0429 30.593 21.8109 28.776L21.9719 29.137Z" fill="white"/>
<path d="M21.292 27.607C21.292 27.607 20.354 29.832 19.788 30.891C19.788 30.891 20.117 29.2 21.088 27.15L21.292 27.607Z" fill="white"/>
<path d="M19.486 23.55C19.486 23.55 18.1669 26.68 17.3719 28.168C17.3719 28.168 17.835 25.79 19.201 22.907L19.486 23.55Z" fill="white"/>
<path d="M18.002 20.188C18.002 20.188 16.969 22.64 16.345 23.807C16.345 23.807 16.708 21.944 17.778 19.685L18.002 20.188Z" fill="white"/>
<path d="M20.38 29.333C20.38 29.333 19.303 29.647 18.756 29.753C18.756 29.753 19.462 29.376 20.485 29.126L20.38 29.333Z" fill="white"/>
<path d="M17.969 26.581C17.969 26.581 16.892 26.895 16.345 27.001C16.345 27.001 17.051 26.624 18.074 26.374L17.969 26.581Z" fill="white"/>
<path d="M18.4819 25.067C18.4819 25.067 17.4049 25.381 16.8579 25.487C16.8579 25.487 17.5639 25.11 18.5869 24.86L18.4819 25.067Z" fill="white"/>
<path d="M21.358 30.622C21.358 30.622 20.596 30.844 20.209 30.919C20.209 30.919 20.708 30.652 21.433 30.475L21.358 30.622Z" fill="white"/>
<path d="M20.749 28.589C20.749 28.589 21.063 29.666 21.169 30.213C21.169 30.213 20.792 29.507 20.542 28.484L20.749 28.589Z" fill="white"/>
<path d="M18.369 25.698C18.369 25.698 18.683 26.775 18.789 27.322C18.789 27.322 18.412 26.616 18.162 25.593L18.369 25.698Z" fill="white"/>
<path d="M17.145 21.786C17.145 21.786 17.459 22.863 17.565 23.41C17.565 23.41 17.188 22.704 16.938 21.681L17.145 21.786Z" fill="white"/>
<path d="M17.615 20.845C17.615 20.845 17.929 21.922 18.035 22.469C18.035 22.469 17.658 21.763 17.408 20.74L17.615 20.845Z" fill="white"/>
<path d="M19.039 24.396C19.039 24.396 19.353 25.473 19.459 26.02C19.459 26.02 19.082 25.314 18.832 24.291L19.039 24.396Z" fill="white"/>
<path d="M21.773 29.629C21.773 29.629 22.045 30.563 22.137 31.038C22.137 31.038 21.81 30.426 21.593 29.538L21.773 29.629Z" fill="white"/>
<path d="M20.765 28.111C20.765 28.111 19.688 28.425 19.141 28.531C19.141 28.531 19.847 28.154 20.87 27.904L20.765 28.111Z" fill="white"/>
<path d="M11.015 29.457C11.015 29.457 11.51 30.811 12.13 31.839C12.13 31.839 12.019 30.863 11.157 29.089L11.015 29.457Z" fill="white"/>
<path d="M11.615 27.894C11.615 27.894 12.667 30.068 13.287 31.096C13.287 31.096 12.871 29.424 11.795 27.427L11.615 27.894Z" fill="white"/>
<path d="M13.208 23.748C13.208 23.748 14.687 26.805 15.559 28.251C15.559 28.251 14.974 25.9 13.46 23.092L13.208 23.748Z" fill="white"/>
<path d="M14.517 20.314C14.517 20.314 15.676 22.709 16.359 23.842C16.359 23.842 15.9 22 14.715 19.8L14.517 20.314Z" fill="white"/>
<path d="M12.615 29.571C12.615 29.571 13.707 29.829 14.259 29.906C14.259 29.906 13.534 29.566 12.5 29.37L12.615 29.571Z" fill="white"/>
<path d="M14.881 26.698C14.881 26.698 15.973 26.956 16.525 27.033C16.525 27.033 15.8 26.693 14.765 26.497L14.881 26.698Z" fill="white"/>
<path d="M14.2899 25.212C14.2899 25.212 15.3819 25.47 15.9339 25.547C15.9339 25.547 15.2099 25.207 14.1749 25.01L14.2899 25.212Z" fill="white"/>
<path d="M11.706 30.909C11.706 30.909 12.478 31.091 12.869 31.146C12.869 31.146 12.356 30.906 11.624 30.766L11.706 30.909Z" fill="white"/>
<path d="M12.2079 28.847C12.2079 28.847 11.9499 29.939 11.8729 30.491C11.8729 30.491 12.2129 29.766 12.4099 28.731L12.2079 28.847Z" fill="white"/>
<path d="M14.436 25.836C14.436 25.836 14.178 26.928 14.101 27.48C14.101 27.48 14.4409 26.755 14.6369 25.721L14.436 25.836Z" fill="white"/>
<path d="M15.456 21.866C15.456 21.866 15.198 22.958 15.121 23.51C15.121 23.51 15.461 22.786 15.657 21.751L15.456 21.866Z" fill="white"/>
<path d="M14.9369 20.951C14.9369 20.951 14.6789 22.043 14.6019 22.595C14.6019 22.595 14.9419 21.87 15.1379 20.836L14.9369 20.951Z" fill="white"/>
<path d="M13.699 24.57C13.699 24.57 13.442 25.662 13.364 26.214C13.364 26.214 13.704 25.489 13.9 24.455L13.699 24.57Z" fill="white"/>
<path d="M11.24 29.938C11.24 29.938 11.017 30.885 10.949 31.364C10.949 31.364 11.244 30.736 11.414 29.838L11.24 29.938Z" fill="white"/>
<path d="M12.167 28.37C12.167 28.37 13.259 28.628 13.811 28.705C13.811 28.705 13.086 28.365 12.051 28.169L12.167 28.37Z" fill="white"/>
<path d="M11.006 29.454C11.006 29.454 9.73201 30.129 8.58301 30.477C8.58301 30.477 9.319 29.827 11.147 29.086L11.006 29.454Z" fill="white"/>
<path d="M11.6059 27.891C11.6059 27.891 9.36895 28.802 8.22095 29.15C8.22095 29.15 9.64894 28.187 11.7859 27.424L11.6059 27.891Z" fill="white"/>
<path d="M13.199 23.745C13.199 23.745 10.053 25.026 8.43799 25.516C8.43799 25.516 10.447 24.162 13.451 23.089L13.199 23.745Z" fill="white"/>
<path d="M14.527 20.318C14.527 20.318 12.062 21.321 10.797 21.705C10.797 21.705 12.371 20.644 14.725 19.803L14.527 20.318Z" fill="white"/>
<path d="M9.7409 28.466C9.7409 28.466 8.7579 27.926 8.2959 27.614C8.2959 27.614 9.0619 27.847 9.9619 28.394L9.7409 28.466Z" fill="white"/>
<path d="M9.98199 24.815C9.98199 24.815 8.99899 24.275 8.53699 23.963C8.53699 23.963 9.30199 24.196 10.203 24.742L9.98199 24.815Z" fill="white"/>
<path d="M11.4159 24.108C11.4159 24.108 10.4329 23.568 9.97095 23.256C9.97095 23.256 10.7359 23.489 11.6369 24.035L11.4159 24.108Z" fill="white"/>
<path d="M9.52093 30.069C9.52093 30.069 8.82492 29.687 8.49792 29.466C8.49792 29.466 9.03993 29.631 9.67693 30.017L9.52093 30.069Z" fill="white"/>
<path d="M10.5279 28.201C10.5279 28.201 9.9879 29.184 9.6759 29.646C9.6759 29.646 9.9089 28.88 10.4549 27.98L10.5279 28.201Z" fill="white"/>
<path d="M10.89 24.474C10.89 24.474 10.35 25.457 10.038 25.919C10.038 25.919 10.271 25.153 10.818 24.253L10.89 24.474Z" fill="white"/>
<path d="M12.79 20.842C12.79 20.842 12.25 21.825 11.938 22.287C11.938 22.287 12.171 21.521 12.718 20.621L12.79 20.842Z" fill="white"/>
<path d="M13.7879 20.51C13.7879 20.51 13.2479 21.493 12.9359 21.955C12.9359 21.955 13.1689 21.19 13.7149 20.289L13.7879 20.51Z" fill="white"/>
<path d="M12.285 24.027C12.285 24.027 11.745 25.01 11.433 25.472C11.433 25.472 11.666 24.706 12.213 23.806L12.285 24.027Z" fill="white"/>
<path d="M10.517 29.66C10.517 29.66 10.049 30.513 9.77795 30.914C9.77795 30.914 9.97995 30.25 10.4539 29.469L10.517 29.66Z" fill="white"/>
<path d="M10.878 27.874C10.878 27.874 9.89498 27.334 9.43298 27.022C9.43298 27.022 10.199 27.255 11.099 27.802L10.878 27.874Z" fill="white"/>
<path d="M3.03114 21.932C3.03114 21.932 2.42313 23.239 2.13513 24.404C2.13513 24.404 2.74614 23.636 3.39214 21.771L3.03114 21.932Z" fill="white"/>
<path d="M4.5621 21.251C4.5621 21.251 3.7691 23.532 3.4801 24.697C3.4801 24.697 4.3681 23.221 5.0191 21.048L4.5621 21.251Z" fill="white"/>
<path d="M8.61904 19.446C8.61904 19.446 7.50305 22.654 7.09705 24.292C7.09705 24.292 8.34504 22.216 9.26104 19.16L8.61904 19.446Z" fill="white"/>
<path d="M11.9731 17.943C11.9731 17.943 11.0991 20.456 10.7811 21.74C10.7811 21.74 11.7591 20.113 12.4771 17.719L11.9731 17.943Z" fill="white"/>
<path d="M4.08313 23.144C4.08313 23.144 4.67313 24.098 5.00813 24.543C5.00813 24.543 4.73613 23.79 4.14313 22.919L4.08313 23.144Z" fill="white"/>
<path d="M7.71704 22.714C7.71704 22.714 8.30704 23.668 8.64204 24.113C8.64204 24.113 8.37005 23.36 7.77705 22.489L7.71704 22.714Z" fill="white"/>
<path d="M8.34912 21.246C8.34912 21.246 8.93912 22.2 9.27412 22.645C9.27412 22.645 9.00212 21.893 8.40912 21.021L8.34912 21.246Z" fill="white"/>
<path d="M2.49414 23.447C2.49414 23.447 2.91114 24.122 3.14914 24.437C3.14914 24.437 2.95614 23.905 2.53714 23.288L2.49414 23.447Z" fill="white"/>
<path d="M4.30708 22.344C4.30708 22.344 3.35308 22.934 2.90808 23.269C2.90808 23.269 3.66008 22.997 4.53108 22.404L4.30708 22.344Z" fill="white"/>
<path d="M8.01105 21.79C8.01105 21.79 7.05706 22.38 6.61206 22.715C6.61206 22.715 7.36506 22.443 8.23606 21.85L8.01105 21.79Z" fill="white"/>
<path d="M11.5391 19.704C11.5391 19.704 10.5851 20.294 10.1401 20.629C10.1401 20.629 10.8921 20.357 11.7641 19.764L11.5391 19.704Z" fill="white"/>
<path d="M11.8201 18.69C11.8201 18.69 10.8661 19.28 10.4211 19.615C10.4211 19.615 11.1731 19.343 12.0441 18.75L11.8201 18.69Z" fill="white"/>
<path d="M8.38508 20.374C8.38508 20.374 7.43108 20.964 6.98608 21.299C6.98608 21.299 7.73908 21.027 8.61008 20.434L8.38508 20.374Z" fill="white"/>
<path d="M2.85109 22.431C2.85109 22.431 2.02408 22.943 1.63708 23.234C1.63708 23.234 2.29009 22.998 3.04509 22.484L2.85109 22.431Z" fill="white"/>
<path d="M4.61609 21.978C4.61609 21.978 5.20609 22.932 5.54109 23.377C5.54109 23.377 5.26909 22.624 4.67609 21.753L4.61609 21.978Z" fill="white"/>
<path d="M3.02805 21.923C3.02805 21.923 1.65004 21.499 0.592041 20.933C0.592041 20.933 1.57205 20.993 3.38905 21.762L3.02805 21.923Z" fill="white"/>
<path d="M4.55805 21.243C4.55805 21.243 2.33205 20.305 1.27405 19.739C1.27405 19.739 2.96505 20.068 5.01505 21.039L4.55805 21.243Z" fill="white"/>
<path d="M8.61507 19.437C8.61507 19.437 5.48507 18.118 3.99707 17.323C3.99707 17.323 6.37507 17.786 9.25807 19.152L8.61507 19.437Z" fill="white"/>
<path d="M11.977 17.953C11.977 17.953 9.52503 16.92 8.35803 16.296C8.35803 16.296 10.221 16.659 12.48 17.729L11.977 17.953Z" fill="white"/>
<path d="M2.83199 20.331C2.83199 20.331 2.51799 19.254 2.41199 18.707C2.41199 18.707 2.78899 19.413 3.03899 20.436L2.83199 20.331Z" fill="white"/>
<path d="M5.58309 17.92C5.58309 17.92 5.26909 16.843 5.16309 16.296C5.16309 16.296 5.54009 17.002 5.79009 18.025L5.58309 17.92Z" fill="white"/>
<path d="M7.09701 18.433C7.09701 18.433 6.783 17.356 6.677 16.809C6.677 16.809 7.05401 17.515 7.30401 18.538L7.09701 18.433Z" fill="white"/>
<path d="M1.5431 21.309C1.5431 21.309 1.32109 20.547 1.24609 20.16C1.24609 20.16 1.51309 20.659 1.68909 21.384L1.5431 21.309Z" fill="white"/>
<path d="M3.57603 20.7C3.57603 20.7 2.49903 21.014 1.95203 21.12C1.95203 21.12 2.65803 20.743 3.68103 20.493L3.57603 20.7Z" fill="white"/>
<path d="M6.46702 18.32C6.46702 18.32 5.39002 18.634 4.84302 18.74C4.84302 18.74 5.54902 18.363 6.57202 18.113L6.46702 18.32Z" fill="white"/>
<path d="M10.378 17.096C10.378 17.096 9.30103 17.41 8.75403 17.516C8.75403 17.516 9.46002 17.139 10.483 16.889L10.378 17.096Z" fill="white"/>
<path d="M11.32 17.566C11.32 17.566 10.243 17.88 9.69604 17.986C9.69604 17.986 10.402 17.609 11.425 17.359L11.32 17.566Z" fill="white"/>
<path d="M7.76902 18.99C7.76902 18.99 6.69202 19.304 6.14502 19.41C6.14502 19.41 6.85102 19.033 7.87402 18.783L7.76902 18.99Z" fill="white"/>
<path d="M2.53607 21.724C2.53607 21.724 1.60208 21.996 1.12708 22.088C1.12708 22.088 1.73908 21.761 2.62708 21.544L2.53607 21.724Z" fill="white"/>
<path d="M4.05404 20.716C4.05404 20.716 3.74003 19.639 3.63403 19.092C3.63403 19.092 4.01103 19.798 4.26103 20.821L4.05404 20.716Z" fill="white"/>
<path d="M2.70695 10.966C2.70695 10.966 1.35295 11.461 0.324951 12.081C0.324951 12.081 1.30095 11.97 3.07495 11.108L2.70695 10.966Z" fill="white"/>
<path d="M4.27097 11.566C4.27097 11.566 2.09697 12.618 1.06897 13.238C1.06897 13.238 2.74097 12.822 4.73797 11.746L4.27097 11.566Z" fill="white"/>
<path d="M8.41695 13.159C8.41695 13.159 5.35994 14.638 3.91394 15.51C3.91394 15.51 6.26494 14.925 9.07294 13.411L8.41695 13.159Z" fill="white"/>
<path d="M11.851 14.468C11.851 14.468 9.456 15.627 8.323 16.31C8.323 16.31 10.165 15.852 12.365 14.666L11.851 14.468Z" fill="white"/>
<path d="M2.59391 12.566C2.59391 12.566 2.33591 13.658 2.25891 14.21C2.25891 14.21 2.59891 13.485 2.79491 12.451L2.59391 12.566Z" fill="white"/>
<path d="M5.46696 14.832C5.46696 14.832 5.20996 15.924 5.13196 16.476C5.13196 16.476 5.47196 15.751 5.66796 14.716L5.46696 14.832Z" fill="white"/>
<path d="M6.95292 14.241C6.95292 14.241 6.69492 15.333 6.61792 15.885C6.61792 15.885 6.95792 15.16 7.15392 14.125L6.95292 14.241Z" fill="white"/>
<path d="M1.25592 11.656C1.25592 11.656 1.07392 12.428 1.01892 12.819C1.01892 12.819 1.25892 12.306 1.39892 11.574L1.25592 11.656Z" fill="white"/>
<path d="M3.31796 12.159C3.31796 12.159 2.22595 11.902 1.67395 11.824C1.67395 11.824 2.39795 12.164 3.43295 12.361L3.31796 12.159Z" fill="white"/>
<path d="M6.32893 14.387C6.32893 14.387 5.23694 14.129 4.68494 14.052C4.68494 14.052 5.40894 14.392 6.44394 14.588L6.32893 14.387Z" fill="white"/>
<path d="M10.2989 15.406C10.2989 15.406 9.20691 15.149 8.65491 15.071C8.65491 15.071 9.37991 15.411 10.4149 15.607L10.2989 15.406Z" fill="white"/>
<path d="M11.2139 14.888C11.2139 14.888 10.1219 14.63 9.56995 14.553C9.56995 14.553 10.2939 14.893 11.3289 15.089L11.2139 14.888Z" fill="white"/>
<path d="M7.59492 13.65C7.59492 13.65 6.50293 13.393 5.95093 13.315C5.95093 13.315 6.67493 13.655 7.70993 13.852L7.59492 13.65Z" fill="white"/>
<path d="M2.22691 11.191C2.22691 11.191 1.2799 10.968 0.800903 10.9C0.800903 10.9 1.4289 11.195 2.3269 11.365L2.22691 11.191Z" fill="white"/>
<path d="M3.79496 12.118C3.79496 12.118 3.53696 13.21 3.45996 13.762C3.45996 13.762 3.79996 13.037 3.99596 12.002L3.79496 12.118Z" fill="white"/>
<path d="M2.71099 10.957C2.71099 10.957 2.03599 9.683 1.68799 8.534C1.68799 8.534 2.33799 9.26999 3.07899 11.098L2.71099 10.957Z" fill="white"/>
<path d="M4.27401 11.557C4.27401 11.557 3.36301 9.32 3.01501 8.172C3.01501 8.172 3.97801 9.6 4.74101 11.737L4.27401 11.557Z" fill="white"/>
<path d="M8.41993 13.15C8.41993 13.15 7.13893 10.004 6.64893 8.38899C6.64893 8.38899 8.00293 10.398 9.07593 13.402L8.41993 13.15Z" fill="white"/>
<path d="M11.847 14.478C11.847 14.478 10.844 12.013 10.46 10.748C10.46 10.748 11.521 12.322 12.361 14.676L11.847 14.478Z" fill="white"/>
<path d="M3.698 9.69199C3.698 9.69199 4.238 8.70899 4.55 8.24699C4.55 8.24699 4.317 9.01299 3.77 9.91299L3.698 9.69199Z" fill="white"/>
<path d="M7.349 9.933C7.349 9.933 7.889 8.94999 8.201 8.48799C8.201 8.48799 7.968 9.25399 7.421 10.154L7.349 9.933Z" fill="white"/>
<path d="M8.05701 11.367C8.05701 11.367 8.597 10.384 8.909 9.922C8.909 9.922 8.67601 10.688 8.12901 11.588L8.05701 11.367Z" fill="white"/>
<path d="M2.09595 9.472C2.09595 9.472 2.47794 8.77599 2.69894 8.44899C2.69894 8.44899 2.53394 8.99099 2.14694 9.62799L2.09595 9.472Z" fill="white"/>
<path d="M3.96392 10.479C3.96392 10.479 2.98092 9.939 2.51892 9.627C2.51892 9.627 3.28492 9.86 4.18492 10.407L3.96392 10.479Z" fill="white"/>
<path d="M7.69097 10.841C7.69097 10.841 6.70797 10.301 6.24597 9.989C6.24597 9.989 7.01097 10.222 7.91197 10.769L7.69097 10.841Z" fill="white"/>
<path d="M11.3229 12.741C11.3229 12.741 10.3399 12.201 9.87793 11.889C9.87793 11.889 10.6429 12.122 11.5439 12.669L11.3229 12.741Z" fill="white"/>
<path d="M11.655 13.739C11.655 13.739 10.672 13.199 10.21 12.887C10.21 12.887 10.976 13.12 11.876 13.667L11.655 13.739Z" fill="white"/>
<path d="M8.13799 12.235C8.13799 12.235 7.15499 11.695 6.69299 11.383C6.69299 11.383 7.45899 11.616 8.35899 12.163L8.13799 12.235Z" fill="white"/>
<path d="M2.50497 10.468C2.50497 10.468 1.65198 9.99999 1.25098 9.72899C1.25098 9.72899 1.91498 9.931 2.69598 10.405L2.50497 10.468Z" fill="white"/>
<path d="M4.29102 10.829C4.29102 10.829 4.83101 9.84599 5.14301 9.38399C5.14301 9.38399 4.91001 10.15 4.36301 11.05L4.29102 10.829Z" fill="white"/>
</svg>
