<svg width="1324" height="93" viewBox="0 0 1324 93" fill="none" xmlns="http://www.w3.org/2000/svg">
<path d="M1280.69 52.857C1279.61 54.516 1279.59 56.236 1279.31 57.867C1278.88 60.362 1278.36 62.8099 1276.92 64.9589C1274.33 68.8319 1270.69 68.627 1268.59 64.447C1268.11 63.493 1267.74 62.4559 1267.51 61.4139C1266.41 56.4539 1264.95 51.5779 1264.13 46.5539C1264.01 45.7969 1263.78 45.057 1263.6 44.309C1262.99 41.752 1261.43 40.1849 1258.83 39.6789C1258.68 39.6499 1258.53 39.591 1258.38 39.555C1253.44 38.365 1253.14 38.488 1250.37 42.766C1250.15 43.111 1249.91 43.446 1249.68 43.785C1247.79 46.539 1245.32 48.194 1241.84 47.478C1238.45 46.779 1236.23 44.637 1235.06 41.4C1234.64 40.23 1234.46 39.004 1234.44 37.77C1234.42 36.272 1233.72 35.417 1232.28 35.005C1230.81 34.581 1229.35 34.061 1227.98 33.342C1225.49 32.033 1223.57 30.1799 1222.53 27.5109C1221.57 25.0389 1221.89 22.7999 1223.69 20.7849C1226.31 17.8609 1229.64 16.083 1233.27 14.84C1236.93 13.587 1240.68 12.787 1244.6 12.932C1245.88 12.979 1247.16 12.8149 1248.44 12.7699C1251.55 12.6619 1254.06 11.27 1256.16 9.07296C1260.22 4.81496 1265.27 2.53694 1270.96 1.43094C1275.86 0.479945 1280.56 1.16396 1285.17 2.88296C1288.31 4.05196 1291.28 5.55195 1294.21 7.16495C1296.46 8.40495 1298.74 9.57994 1300.95 10.8899C1303.6 12.4619 1306.36 13.0219 1309.37 12.2719C1309.72 12.1849 1310.07 12.136 1310.43 12.073C1317.44 10.825 1321.15 14.218 1323 21.579C1323.86 24.99 1323.56 28.5499 1323.3 32.0149C1323.06 35.1299 1322.79 38.253 1322.46 41.365C1322.07 44.995 1320.27 46.035 1316.83 44.687C1314.64 43.831 1313.31 42.459 1313.42 39.967C1313.45 39.259 1313.73 38.3089 1312.49 38.2479C1311.34 38.1909 1310.15 38.0719 1309.78 39.591C1309.4 41.194 1309.24 42.821 1309.18 44.469C1309.02 48.47 1308.86 52.4739 1307.96 56.3989C1307.57 58.1039 1307.05 59.771 1306.33 61.366C1306 62.11 1305.61 62.853 1305.12 63.501C1302.04 67.584 1297.34 67.0159 1295.32 62.3209C1294.46 60.3229 1294.31 58.1369 1293.76 56.0559C1293.65 55.6599 1293.59 55.253 1293.47 54.859C1292.81 52.557 1290.84 52.055 1289.2 53.836C1288.55 54.542 1288.13 55.4609 1287.59 56.2649C1285.94 58.6829 1284.33 58.648 1282.73 56.219C1282.06 55.204 1281.75 53.972 1280.69 52.857Z" fill="#F9FBFC"/>
<path d="M157.056 30.2087C157.035 32.3307 156.723 34.2457 156.119 36.1117C155.688 37.4437 154.933 38.4247 153.394 38.3777C151.8 38.3287 151.197 37.1787 150.945 35.8477C150.707 34.5907 150.671 33.2977 150.483 32.0287C150.066 29.2137 148.696 27.9737 145.846 27.9367C140.76 27.8707 135.673 27.8507 130.586 27.8427C127.398 27.8377 124.223 27.6327 121.047 27.3837C116.39 27.0187 111.836 27.8997 107.288 28.7017C100.085 29.9737 92.8691 30.8707 85.5331 30.0907C83.1411 29.8367 80.9601 28.9877 78.7811 28.0597C77.0971 27.3437 76.9121 27.4407 76.4061 29.1727C75.6861 31.6377 75.0251 34.1177 73.7211 36.3667C71.7091 39.8367 69.1291 40.0967 66.4691 37.0967C64.4791 34.8527 63.6741 32.1617 63.2001 29.2607C62.4621 24.7407 63.497 24.8577 58.017 25.6007C55.789 25.9027 53.6251 26.6497 51.4111 27.0877C48.1371 27.7357 45.0481 27.2827 42.8911 24.5157C40.6511 21.6427 40.448 18.4217 42.033 15.0867C45.479 7.83268 56.2301 0.918674 66.2661 3.64467C70.8251 4.88267 75.4341 5.90567 80.1561 6.35567C85.4241 6.85767 90.6081 5.95667 95.8251 5.54767C115.028 4.04267 134.163 1.64368 153.439 1.08268C157.6 0.961678 161.76 0.861686 165.885 1.63769C170.46 2.49769 174.136 4.69667 175.962 9.09267C177.214 12.1057 179.353 13.3187 182.389 13.7257C185.246 14.1087 188.016 14.8787 190.414 16.6447C193.922 19.2287 194.396 22.6717 191.731 26.1107C189.148 29.4437 185.4 30.2627 181.579 30.9737C178.928 31.4667 176.382 31.1177 173.875 30.1637C172.192 29.5227 171.966 29.6737 171.72 31.5097C171.239 35.0977 170.602 38.6237 168.393 41.6387C167.356 43.0547 166.365 44.5267 164.342 44.6107C162.089 44.7037 160.145 43.1787 159.392 40.5457C158.609 37.8077 158.566 34.9667 158.45 32.1457C158.414 31.2587 158.248 30.5397 157.056 30.2087Z" fill="#F9FBFC"/>
<path d="M75.9671 40.3916C75.8701 37.6806 77.348 35.3546 77.793 32.7856C77.945 31.9096 79.341 31.8526 79.884 32.7496C81.776 35.8766 83.0741 39.1886 82.3291 42.9496C81.9901 44.6586 80.781 45.8026 79.397 45.8746C77.976 45.9486 76.9111 45.0166 76.4021 43.1106C76.1651 42.2286 76.1061 41.2996 75.9671 40.3916Z" fill="#F9FBFC"/>
<path d="M178.568 38.4846C178.72 40.1426 177.78 41.7456 176.8 43.3026C176.096 44.4216 174.645 44.3346 174.097 43.1196C173.157 41.0386 173.065 38.8526 173.836 36.7006C174.307 35.3846 175.571 34.7496 176.759 35.0406C178.02 35.3496 178.633 36.4076 178.568 38.4846Z" fill="#F9FBFC"/>
<path d="M89.469 41.6047C89.509 42.8167 88.705 43.6887 87.525 43.6737C86.375 43.6587 85.714 43.0627 85.625 41.9107C85.536 40.7647 86.412 39.7517 87.488 39.7007C88.53 39.6507 89.432 40.5177 89.469 41.6047Z" fill="#F9FBFC"/>
<path d="M183.559 40.7247C183.401 41.6697 183.285 42.7917 181.963 42.7037C180.684 42.6187 180.572 41.5017 180.574 40.5137C180.575 39.4887 181.019 38.6527 182.184 38.6937C183.43 38.7377 183.53 39.7227 183.559 40.7247Z" fill="#F9FBFC"/>
<path d="M97.5151 40.7527C97.3541 41.3607 97.6891 42.2257 96.6731 42.1527C96.0251 42.1057 95.6561 41.6137 95.6951 40.9777C95.7341 40.3437 95.9751 39.7087 96.7251 39.6437C97.6231 39.5647 97.4301 40.3027 97.5151 40.7527Z" fill="#F9FBFC"/>
<path d="M163.056 42.2087C163.035 44.3307 162.723 46.2457 162.119 48.1117C161.688 49.4437 160.933 50.4247 159.394 50.3777C157.8 50.3287 157.197 49.1787 156.945 47.8477C156.707 46.5907 156.671 45.2977 156.483 44.0287C156.066 41.2137 154.696 39.9737 151.846 39.9367C146.76 39.8707 141.673 39.8507 136.586 39.8427C133.398 39.8377 130.223 39.6327 127.047 39.3837C122.39 39.0187 117.836 39.8997 113.288 40.7017C106.085 41.9737 98.8691 42.8707 91.5331 42.0907C89.1411 41.8367 86.9601 40.9877 84.7811 40.0597C83.0971 39.3437 82.9121 39.4407 82.4061 41.1727C81.6861 43.6377 81.0251 46.1177 79.7211 48.3667C77.7091 51.8367 75.1291 52.0967 72.4691 49.0967C70.4791 46.8527 69.6741 44.1617 69.2001 41.2607C68.4621 36.7407 69.497 36.8577 64.017 37.6007C61.789 37.9027 59.6251 38.6497 57.4111 39.0877C54.1371 39.7357 51.0481 39.2827 48.8911 36.5157C46.6511 33.6427 46.448 30.4217 48.033 27.0867C51.479 19.8327 62.2301 12.9187 72.2661 15.6447C76.8251 16.8827 81.4341 17.9057 86.1561 18.3557C91.4241 18.8577 96.6081 17.9567 101.825 17.5477C121.028 16.0427 140.163 13.6437 159.439 13.0827C163.6 12.9617 167.76 12.8617 171.885 13.6377C176.46 14.4977 180.136 16.6967 181.962 21.0927C183.214 24.1057 185.353 25.3187 188.389 25.7257C191.246 26.1087 194.016 26.8787 196.414 28.6447C199.922 31.2287 200.396 34.6717 197.731 38.1107C195.148 41.4437 191.4 42.2627 187.579 42.9737C184.928 43.4667 182.382 43.1177 179.875 42.1637C178.192 41.5227 177.966 41.6737 177.72 43.5097C177.239 47.0977 176.602 50.6237 174.393 53.6387C173.356 55.0547 172.365 56.5267 170.342 56.6107C168.089 56.7037 166.145 55.1787 165.392 52.5457C164.609 49.8077 164.566 46.9667 164.45 44.1457C164.414 43.2587 164.248 42.5397 163.056 42.2087Z" fill="#F9FBFC"/>
<path d="M81.9671 52.3916C81.8701 49.6806 83.348 47.3546 83.793 44.7856C83.945 43.9096 85.341 43.8526 85.884 44.7496C87.776 47.8766 89.0741 51.1886 88.3291 54.9496C87.9901 56.6586 86.781 57.8026 85.397 57.8746C83.976 57.9486 82.9111 57.0166 82.4021 55.1106C82.1651 54.2286 82.1061 53.2996 81.9671 52.3916Z" fill="#F9FBFC"/>
<path d="M184.568 50.4846C184.72 52.1426 183.78 53.7456 182.8 55.3026C182.096 56.4216 180.645 56.3346 180.097 55.1196C179.157 53.0386 179.065 50.8526 179.836 48.7006C180.307 47.3846 181.571 46.7496 182.759 47.0406C184.02 47.3496 184.633 48.4076 184.568 50.4846Z" fill="#F9FBFC"/>
<path d="M95.469 53.6047C95.509 54.8167 94.705 55.6887 93.525 55.6737C92.375 55.6587 91.714 55.0627 91.625 53.9107C91.536 52.7647 92.412 51.7517 93.488 51.7007C94.53 51.6507 95.432 52.5177 95.469 53.6047Z" fill="#F9FBFC"/>
<path d="M189.559 52.7247C189.401 53.6697 189.285 54.7917 187.963 54.7037C186.684 54.6187 186.572 53.5017 186.574 52.5137C186.575 51.4887 187.019 50.6527 188.184 50.6937C189.43 50.7377 189.53 51.7227 189.559 52.7247Z" fill="#F9FBFC"/>
<path d="M103.515 52.7527C103.354 53.3607 103.689 54.2257 102.673 54.1527C102.025 54.1057 101.656 53.6137 101.695 52.9777C101.734 52.3437 101.975 51.7087 102.725 51.6437C103.623 51.5647 103.43 52.3027 103.515 52.7527Z" fill="#F9FBFC"/>
<path d="M192.056 57.2087C192.035 59.3307 191.723 61.2457 191.119 63.1117C190.688 64.4437 189.933 65.4247 188.394 65.3777C186.8 65.3287 186.197 64.1787 185.945 62.8477C185.707 61.5907 185.671 60.2977 185.483 59.0287C185.066 56.2137 183.696 54.9737 180.846 54.9367C175.76 54.8707 170.673 54.8507 165.586 54.8427C162.398 54.8377 159.223 54.6327 156.047 54.3837C151.39 54.0187 146.836 54.8997 142.288 55.7017C135.085 56.9737 127.869 57.8707 120.533 57.0907C118.141 56.8367 115.96 55.9877 113.781 55.0597C112.097 54.3437 111.912 54.4407 111.406 56.1727C110.686 58.6377 110.025 61.1177 108.721 63.3667C106.709 66.8367 104.129 67.0967 101.469 64.0967C99.4791 61.8527 98.6741 59.1617 98.2001 56.2607C97.4621 51.7407 98.497 51.8577 93.017 52.6007C90.789 52.9027 88.6251 53.6497 86.4111 54.0877C83.1371 54.7357 80.0481 54.2827 77.8911 51.5157C75.6511 48.6427 75.448 45.4217 77.033 42.0867C80.479 34.8327 91.2301 27.9187 101.266 30.6447C105.825 31.8827 110.434 32.9057 115.156 33.3557C120.424 33.8577 125.608 32.9567 130.825 32.5477C150.028 31.0427 169.163 28.6437 188.439 28.0827C192.6 27.9617 196.76 27.8617 200.885 28.6377C205.46 29.4977 209.136 31.6967 210.962 36.0927C212.214 39.1057 214.353 40.3187 217.389 40.7257C220.246 41.1087 223.016 41.8787 225.414 43.6447C228.922 46.2287 229.396 49.6717 226.731 53.1107C224.148 56.4437 220.4 57.2627 216.579 57.9737C213.928 58.4667 211.382 58.1177 208.875 57.1637C207.192 56.5227 206.966 56.6737 206.72 58.5097C206.239 62.0977 205.602 65.6237 203.393 68.6387C202.356 70.0547 201.365 71.5267 199.342 71.6107C197.089 71.7037 195.145 70.1787 194.392 67.5457C193.609 64.8077 193.566 61.9667 193.45 59.1457C193.414 58.2587 193.248 57.5397 192.056 57.2087Z" fill="#F9FBFC"/>
<path d="M110.967 67.3916C110.87 64.6806 112.348 62.3546 112.793 59.7856C112.945 58.9096 114.341 58.8526 114.884 59.7496C116.776 62.8766 118.074 66.1886 117.329 69.9496C116.99 71.6586 115.781 72.8026 114.397 72.8746C112.976 72.9486 111.911 72.0166 111.402 70.1106C111.165 69.2286 111.106 68.2996 110.967 67.3916Z" fill="#F9FBFC"/>
<path d="M213.568 65.4846C213.72 67.1426 212.78 68.7456 211.8 70.3026C211.096 71.4216 209.645 71.3346 209.097 70.1196C208.157 68.0386 208.065 65.8526 208.836 63.7006C209.307 62.3846 210.571 61.7496 211.759 62.0406C213.02 62.3496 213.633 63.4076 213.568 65.4846Z" fill="#F9FBFC"/>
<path d="M124.469 68.6047C124.509 69.8167 123.705 70.6887 122.525 70.6737C121.375 70.6587 120.714 70.0627 120.625 68.9107C120.536 67.7647 121.412 66.7517 122.488 66.7007C123.53 66.6507 124.432 67.5177 124.469 68.6047Z" fill="#F9FBFC"/>
<path d="M218.559 67.7247C218.401 68.6697 218.285 69.7917 216.963 69.7037C215.684 69.6187 215.572 68.5017 215.574 67.5137C215.575 66.4887 216.019 65.6527 217.184 65.6937C218.43 65.7377 218.53 66.7227 218.559 67.7247Z" fill="#F9FBFC"/>
<path d="M132.515 67.7527C132.354 68.3607 132.689 69.2257 131.673 69.1527C131.025 69.1057 130.656 68.6137 130.695 67.9777C130.734 67.3437 130.975 66.7087 131.725 66.6437C132.623 66.5647 132.43 67.3027 132.515 67.7527Z" fill="#F9FBFC"/>
<path d="M116.056 45.2087C116.035 47.3307 115.723 49.2457 115.119 51.1117C114.688 52.4437 113.933 53.4247 112.394 53.3777C110.8 53.3287 110.197 52.1787 109.945 50.8477C109.707 49.5907 109.671 48.2977 109.483 47.0287C109.066 44.2137 107.696 42.9737 104.846 42.9367C99.7601 42.8707 94.673 42.8507 89.586 42.8427C86.398 42.8377 83.223 42.6327 80.047 42.3837C75.39 42.0187 70.836 42.8997 66.288 43.7017C59.085 44.9737 51.8691 45.8707 44.5331 45.0907C42.1411 44.8367 39.9601 43.9877 37.7811 43.0597C36.0971 42.3437 35.9121 42.4407 35.4061 44.1727C34.6861 46.6377 34.0251 49.1177 32.7211 51.3667C30.7091 54.8367 28.1291 55.0967 25.4691 52.0967C23.4791 49.8527 22.6741 47.1617 22.2001 44.2607C21.4621 39.7407 22.497 39.8577 17.017 40.6007C14.789 40.9027 12.6251 41.6497 10.4111 42.0877C7.13706 42.7357 4.04805 42.2827 1.89105 39.5157C-0.348949 36.6427 -0.551951 33.4217 1.03305 30.0867C4.47905 22.8327 15.2301 15.9187 25.2661 18.6447C29.8251 19.8827 34.4341 20.9057 39.1561 21.3557C44.4241 21.8577 49.6081 20.9567 54.8251 20.5477C74.0281 19.0427 93.163 16.6437 112.439 16.0827C116.6 15.9617 120.76 15.8617 124.885 16.6377C129.46 17.4977 133.136 19.6967 134.962 24.0927C136.214 27.1057 138.353 28.3187 141.389 28.7257C144.246 29.1087 147.016 29.8787 149.414 31.6447C152.922 34.2287 153.396 37.6717 150.731 41.1107C148.148 44.4437 144.4 45.2627 140.579 45.9737C137.928 46.4667 135.382 46.1177 132.875 45.1637C131.192 44.5227 130.966 44.6737 130.72 46.5097C130.239 50.0977 129.602 53.6237 127.393 56.6387C126.356 58.0547 125.365 59.5267 123.342 59.6107C121.089 59.7037 119.145 58.1787 118.392 55.5457C117.609 52.8077 117.566 49.9667 117.45 47.1457C117.414 46.2587 117.248 45.5397 116.056 45.2087Z" fill="#F9FBFC"/>
<path d="M34.9671 55.3916C34.8701 52.6806 36.348 50.3546 36.793 47.7856C36.945 46.9096 38.341 46.8526 38.884 47.7496C40.776 50.8766 42.0741 54.1886 41.3291 57.9496C40.9901 59.6586 39.781 60.8026 38.397 60.8746C36.976 60.9486 35.9111 60.0166 35.4021 58.1106C35.1651 57.2286 35.1061 56.2996 34.9671 55.3916Z" fill="#F9FBFC"/>
<path d="M137.568 53.4846C137.72 55.1426 136.78 56.7456 135.8 58.3026C135.096 59.4216 133.645 59.3346 133.097 58.1196C132.157 56.0386 132.065 53.8526 132.836 51.7006C133.307 50.3846 134.571 49.7496 135.759 50.0406C137.02 50.3496 137.633 51.4076 137.568 53.4846Z" fill="#F9FBFC"/>
<path d="M48.469 56.6047C48.509 57.8167 47.705 58.6887 46.525 58.6737C45.375 58.6587 44.714 58.0627 44.625 56.9107C44.536 55.7647 45.412 54.7517 46.488 54.7007C47.53 54.6507 48.432 55.5177 48.469 56.6047Z" fill="#F9FBFC"/>
<path d="M142.559 55.7247C142.401 56.6697 142.285 57.7917 140.963 57.7037C139.684 57.6187 139.572 56.5017 139.574 55.5137C139.575 54.4887 140.019 53.6527 141.184 53.6937C142.43 53.7377 142.53 54.7227 142.559 55.7247Z" fill="#F9FBFC"/>
<path d="M56.5151 55.7527C56.3541 56.3607 56.6891 57.2257 55.6731 57.1527C55.0251 57.1057 54.6561 56.6137 54.6951 55.9777C54.7341 55.3437 54.9751 54.7087 55.7251 54.6437C56.6231 54.5647 56.4301 55.3027 56.5151 55.7527Z" fill="#F9FBFC"/>
<path d="M138.655 42.2999C137.488 44.9449 136.206 47.1639 133.309 47.8879C131.199 48.4149 130.2 48.1749 128.915 46.4069C127.509 44.4719 126.636 42.2479 125.966 39.9969C124.16 33.9249 123.396 27.6599 123.022 21.3589C122.901 19.3189 123.275 17.2559 124.169 15.3579C127.233 8.84987 130.919 6.29387 139.708 6.68387C143.389 6.84687 147.026 7.60787 150.757 7.26587C153.65 7.00087 156.41 6.36587 159.141 5.40987C170.951 1.27587 183.052 -0.810126 195.609 0.291874C198.462 0.541874 201.175 1.30487 203.806 2.30487C210.041 4.67287 216.491 5.11088 223.06 4.81188C227.415 4.61388 231.779 4.12388 236.123 4.95188C240.969 5.87588 245.452 7.73588 249.665 10.2729C257.248 14.8399 256.221 24.4699 249.996 28.7829C245.984 31.5629 241.952 33.8029 237.063 34.4359C234.399 34.7809 232.68 36.5529 231.573 38.9159C230.789 40.5889 230.126 42.3189 229.311 43.9759C227.538 47.5799 224.764 48.4819 221.157 46.7109C218.236 45.2759 216.332 42.9599 215.22 39.9379C214.795 38.7819 214.361 37.6399 213.41 36.7619C211.112 34.6389 208.556 33.9919 205.618 35.2709C204.677 35.6809 203.731 36.0799 202.792 36.4949C200.061 37.7029 197.325 37.7329 194.578 36.5519C192.645 35.7199 190.734 34.8309 188.769 34.0819C186.541 33.2329 184.947 33.7629 183.538 35.7079C182.445 37.2159 181.745 38.9339 181.032 40.6399C180.28 42.4389 179.556 44.2509 178.76 46.0309C178.192 47.3009 177.439 48.4689 176.473 49.4849C173.942 52.1499 170.907 52.3319 168.148 49.9009C164.634 46.8029 163.496 42.6419 163.091 38.1889C162.951 36.6549 162.882 35.1149 162.785 33.5779C162.707 32.3409 161.99 31.8279 160.83 31.9639C156.742 32.4449 152.751 33.3949 148.825 34.6069C147.376 35.0539 146.561 36.0299 146.474 37.6559C146.386 39.3019 145.938 40.8999 145.143 42.3639C143.637 45.1359 141.529 45.4009 139.391 43.1109C139.187 42.8929 138.988 42.6679 138.655 42.2999Z" fill="#F9FBFC"/>
<path d="M161.928 44.4368C161.921 47.2948 160.933 48.6238 159.129 48.8498C157.383 49.0678 155.937 47.9348 155.613 45.7688C155.156 42.7148 155.964 39.7868 156.915 36.9138C157.172 36.1388 157.876 35.8848 158.648 35.9038C159.395 35.9218 159.978 36.3368 160.15 37.0198C160.821 39.6908 161.752 42.3058 161.928 44.4368Z" fill="#F9FBFC"/>
<path d="M212.947 46.0879C212.929 47.4259 212.763 48.7889 211.672 49.8419C210.378 51.0909 208.747 50.9399 207.712 49.4779C207.193 48.7449 206.901 47.9069 206.903 47.0269C206.908 44.4809 207.614 42.0619 208.444 39.6879C208.715 38.9129 209.423 38.5049 210.279 38.5339C211.187 38.5649 211.664 39.1579 211.869 39.9619C212.375 41.9509 212.823 43.9529 212.947 46.0879Z" fill="#F9FBFC"/>
<path d="M235.832 42.8148C235.787 41.6078 236.22 40.5078 236.638 39.4158C236.885 38.7708 237.114 37.9068 238.032 38.0508C238.96 38.1968 240.03 38.3368 240.32 39.5128C240.576 40.5498 240.846 41.5978 240.946 42.6558C241.133 44.6348 240.117 45.9708 238.495 46.0588C236.952 46.1418 235.85 44.7998 235.832 42.8148Z" fill="#F9FBFC"/>
<path d="M220.796 51.4028C220.802 52.6438 219.779 53.4968 218.288 53.4928C216.871 53.4888 215.811 52.4618 215.831 51.1128C215.85 49.8308 216.886 48.7928 218.18 48.7598C219.59 48.7238 220.789 49.9348 220.796 51.4028Z" fill="#F9FBFC"/>
<path d="M141.687 51.6519C140.462 51.5539 139.883 50.8979 139.946 49.7249C140.012 48.5109 140.678 47.7959 141.907 47.8349C143.07 47.8719 143.697 48.6059 143.647 49.7509C143.594 50.9619 142.848 51.5749 141.687 51.6519Z" fill="#F9FBFC"/>
<path d="M148.112 48.4589C148.044 49.2209 147.932 50.0289 146.959 49.9319C145.908 49.8279 145.335 49.0749 145.357 48.0369C145.374 47.2369 145.886 46.6699 146.724 46.6859C147.852 46.7079 148.126 47.5079 148.112 48.4589Z" fill="#F9FBFC"/>
<path d="M1170.39 58.0712C1169.07 58.4022 1169.24 59.5292 1169.16 60.4032C1168.98 62.3962 1168.45 64.2342 1167.15 65.7972C1164.86 68.5612 1162.17 68.3752 1160.3 65.3332C1158.49 62.4112 1158.23 59.0242 1157.38 55.8112C1156 50.5872 1158.49 46.7262 1162.85 44.5572C1166.03 42.9742 1169.46 42.3792 1172.97 42.1782C1174.36 42.0992 1175.75 42.0832 1177.13 41.9842C1179.6 41.8092 1180.19 41.2892 1180.51 38.8722C1180.91 35.8692 1181.23 32.8562 1181.58 29.8462C1182.84 18.9182 1192.81 14.0932 1200.13 14.0022C1206.54 13.9222 1212.34 16.0052 1217.81 19.1362C1220.26 20.5382 1222.61 22.1002 1224.99 23.6332C1226.88 24.8592 1228.71 25.0702 1230.94 24.2302C1239.34 21.0592 1247.98 24.1612 1252.76 31.7582C1254.4 34.3742 1254.55 37.1362 1254.15 40.0602C1253.75 42.8932 1253.79 42.8982 1256.23 44.1592C1258.46 45.3112 1259.57 47.2282 1259.14 49.7162C1258.54 53.2252 1258.64 56.7812 1258.23 60.2982C1258.08 61.5862 1257.76 62.8292 1256.85 63.8252C1255.03 65.8212 1252.3 65.4142 1251.19 62.9642C1250.58 61.6382 1250.42 60.1942 1250.24 58.7712C1250.13 57.8822 1249.7 57.4982 1248.87 57.4362C1248.66 57.4212 1248.46 57.3542 1248.26 57.3652C1242.1 57.6912 1235.93 57.3872 1229.77 57.6542C1226.04 57.8162 1222.32 59.1912 1218.62 58.3702C1216.26 57.8462 1214.69 59.5082 1212.66 59.6462C1212.14 59.6812 1211.98 60.3692 1211.74 60.8172C1211.4 61.4492 1211.14 62.1342 1210.73 62.7132C1209.81 64.0172 1208.51 64.7122 1206.89 64.5542C1205.25 64.3942 1204.41 63.2602 1203.88 61.8282C1203.52 60.8592 1203.28 59.8632 1203.29 58.8212C1203.3 57.4812 1202.66 56.8842 1201.3 56.8872C1196.88 56.8972 1192.48 57.3202 1188.08 57.6262C1185.37 57.8152 1182.65 57.6882 1179.94 58.0882C1177.7 58.4192 1177.18 58.8052 1176.79 61.0802C1176.28 64.0112 1176.97 66.9212 1176.84 69.8442C1176.79 71.1272 1176.84 72.4152 1176.48 73.6642C1176.05 75.1302 1175.33 76.4232 1174.05 77.3082C1172.56 78.3342 1170.99 77.9252 1170.18 76.3122C1169.69 75.3372 1169.43 74.2772 1169.4 73.1942C1169.28 68.5262 1168.97 63.8412 1170.45 59.2922C1170.53 59.0522 1170.57 58.7932 1170.58 58.5412C1170.58 58.4112 1170.48 58.2752 1170.39 58.0712Z" fill="#F9FBFC"/>
<path d="M1242.71 67.2653C1242.75 64.9603 1243.65 62.8642 1244.39 60.7472C1244.82 59.5402 1246.36 59.3812 1246.92 60.5202C1248.32 63.3642 1249.75 66.2322 1250.03 69.4662C1250.13 70.7582 1249.72 71.9192 1248.45 72.5662C1247.13 73.2432 1245.95 72.8052 1244.88 71.9762C1243.45 70.8682 1242.7 69.1913 1242.71 67.2653Z" fill="#F9FBFC"/>
<path d="M1179.57 66.0802C1179.54 64.9002 1179.62 63.7302 1179.85 62.5702C1180.01 61.7352 1180.4 61.0892 1181.33 61.1242C1182.19 61.1562 1182.34 61.8402 1182.42 62.5412C1182.77 65.2722 1183.97 67.8392 1183.94 70.6492C1183.93 71.7972 1183.84 72.9122 1182.5 73.1612C1181.08 73.4252 1180.51 72.3682 1180.16 71.2352C1179.65 69.5582 1179.62 67.8152 1179.57 66.0802Z" fill="#F9FBFC"/>
<path d="M1216.55 67.6193C1216.56 68.9443 1215.36 70.0732 1213.93 70.0732C1212.67 70.0732 1211.64 68.9822 1211.68 67.6632C1211.71 66.2672 1212.86 65.1212 1214.23 65.1202C1215.59 65.1192 1216.54 66.1433 1216.55 67.6193Z" fill="#F9FBFC"/>
<path d="M1241.12 65.3752C1241.04 66.2732 1240.76 67.1012 1239.53 67.0912C1238.36 67.0822 1237.28 66.1222 1237.23 65.0652C1237.18 63.9722 1238 63.0712 1239.08 63.0542C1240.21 63.0352 1241.1 64.0052 1241.12 65.3752Z" fill="#F9FBFC"/>
<path d="M1241.9 74.1312C1241.8 74.9672 1241.44 75.6412 1240.5 75.6542C1239.52 75.6682 1238.98 75.0702 1238.99 74.0962C1239 73.1782 1239.56 72.6552 1240.45 72.6492C1241.37 72.6442 1241.83 73.2092 1241.9 74.1312Z" fill="#F9FBFC"/>
<path d="M1219 65.1382C1218.97 64.2862 1219.23 63.7103 1219.99 63.7743C1220.9 63.8503 1221.69 64.2882 1221.74 65.3372C1221.78 66.1262 1221.4 66.7363 1220.5 66.7483C1219.33 66.7653 1219.21 65.8292 1219 65.1382Z" fill="#F9FBFC"/>
<path d="M1173.16 61.1671C1171.66 64.9221 1169.56 66.0921 1165.7 65.4991C1165.45 65.4601 1165.19 65.4352 1164.94 65.3982C1159.2 64.5692 1156.91 61.6831 1157.52 55.8831C1157.78 53.4571 1157.62 51.0651 1157.36 48.6631C1157.32 48.3561 1157.32 48.0391 1156.95 47.8781C1156.3 48.1801 1156.28 48.8381 1156.11 49.4141C1155.45 51.7471 1155.36 54.1751 1154.96 56.5521C1154.77 57.6791 1154.47 58.7632 1153.84 59.7222C1152.7 61.4472 1150.92 61.6852 1149.37 60.3132C1147.59 58.7402 1146.8 56.6352 1146.3 54.3982C1145.77 52.0372 1145.47 49.6381 1145.4 47.2251C1145.37 46.1161 1144.88 45.7461 1143.9 45.8271C1139.5 46.1921 1135.1 46.5811 1130.7 46.9391C1129.46 47.0401 1129.17 47.7271 1129.38 48.8221C1129.55 49.7301 1129.7 50.6421 1129.83 51.5571C1130.3 54.9301 1128.82 57.5821 1126 58.4311C1122.98 59.3431 1120.2 57.9661 1118.77 54.7671C1118.09 53.2721 1117.56 51.7161 1116.93 50.1981C1116.8 49.8761 1116.61 49.5501 1116.17 49.4011C1115.17 50.0391 1115.17 51.0682 1115.19 52.0972C1115.23 54.4062 1115.37 56.7231 1114.71 58.9791C1114.44 59.9021 1114.27 60.9701 1113 61.0561C1111.8 61.1361 1111.34 60.2231 1110.82 59.3841C1109.52 57.2881 1110.08 54.8661 1109.62 52.6251C1109.53 52.1741 1109.52 51.7051 1109.44 51.2511C1109.11 49.3891 1108.5 48.8632 1106.63 49.0542C1103.16 49.4092 1099.7 49.8562 1096.21 50.0582C1091.19 50.3492 1086.17 50.9281 1081.15 51.0481C1074.6 51.2061 1068.17 52.1861 1061.72 53.1901C1060.61 53.3641 1059.48 53.4882 1058.36 53.6232C1055.01 54.0262 1051.9 53.4112 1049.21 51.2862C1048 50.3312 1046.84 50.4061 1045.48 50.9621C1042.5 52.1891 1040.89 54.2791 1040.92 57.5611C1040.93 58.7951 1040.81 60.0252 1040.53 61.2302C1040.28 62.2912 1039.9 63.2901 1039.12 64.0941C1037.6 65.6561 1036.08 65.4871 1034.98 63.6121C1034.34 62.5151 1034.09 61.3302 1034.21 60.0622C1034.27 59.4272 1034.29 58.7881 1034.34 57.8481C1032.93 58.9191 1033.07 60.1642 1033.28 61.2312C1033.75 63.7382 1033.12 66.0132 1032.19 68.2732C1031.44 70.1022 1030.51 70.7381 1028.52 70.6391C1025.08 70.4691 1022.28 68.9022 1021.13 65.7052C1018.22 57.5642 1016.79 49.1632 1019.28 40.6442C1021.64 32.5702 1029.35 27.3242 1037.7 28.3212C1046.32 29.3512 1053.83 26.9651 1060.76 22.1161C1065.23 18.9891 1069.85 16.1591 1074.72 13.6851C1083.94 9.00014 1093.23 8.85915 1102.68 12.8241C1106.95 14.6141 1111.12 16.6332 1115.09 18.9892C1123.31 23.8742 1132.11 25.1231 1141.49 24.2331C1147.03 23.7071 1152.46 22.7051 1157.92 21.7251C1161.75 21.0371 1165.58 21.0381 1169.4 21.8481C1176.5 23.3531 1181.49 29.4731 1181.57 36.7191C1181.6 39.8511 1181.81 42.9801 1181.89 46.1111C1182 50.4461 1181.57 54.7291 1180.52 58.9431C1180.25 60.0421 1179.92 61.1241 1179.3 62.0901C1177.77 64.5071 1175.3 64.5211 1173.72 62.1251C1173.55 61.8731 1173.41 61.6001 1173.16 61.1671Z" fill="#F9FBFC"/>
<path d="M877.468 56.5638C876.52 57.5318 876.745 58.5609 876.72 59.4979C876.67 61.3989 876.675 63.3038 876.233 65.1628C875.621 67.7378 874.097 69.0169 871.884 68.9019C869.512 68.7789 867.176 67.0608 867.281 64.7578C867.447 61.1248 865.468 59.6849 862.602 58.3019C857.706 55.9389 856.114 52.1139 857.457 46.4559C858.881 40.4559 861.408 34.8439 864.837 29.7739C868.388 24.5229 873.821 22.0968 880.049 21.5558C886.313 21.0118 892.388 21.5449 898.273 24.2059C903.38 26.5159 908.934 26.0419 914.379 25.6709C920.214 25.2729 925.713 23.2749 931.367 22.0109C937.231 20.6989 943.136 19.5319 949.132 19.0919C957.749 18.4599 965.662 21.1689 973.306 24.7609C977.076 26.5329 980.75 28.4848 984.986 28.9218C991.726 29.6178 998.397 29.4348 1005.03 27.8488C1013.74 25.7668 1022.51 25.4109 1031.27 27.6389C1035.11 28.6149 1038.53 30.4819 1041.66 32.8719C1045.68 35.9419 1047.22 40.3669 1048.17 45.0919C1049.1 49.7279 1048.47 54.0799 1045.81 58.0669C1045.38 58.7069 1045.05 59.4069 1044.63 60.0529C1043.45 61.8799 1043.13 63.8219 1043.66 65.9449C1044.06 67.5599 1044.07 69.2009 1043.57 70.8159C1042.95 72.8539 1041.52 73.9568 1039.45 74.2448C1033.11 75.1278 1026.97 70.1378 1026.76 64.8268C1026.66 62.5388 1025.98 60.3799 1024.19 58.7329C1022.46 57.1379 1020.74 57.1319 1019.02 58.7649C1018.12 59.6209 1017.43 60.6409 1016.7 61.6369C1012.74 67.0529 1006.13 66.9928 1002.26 61.5168C1001.37 60.2528 1000.71 58.8599 1000.01 57.4889C998.741 55.0059 997.603 54.3749 994.804 54.7289C993.177 54.9349 991.546 55.1868 989.954 55.5728C985.331 56.6938 980.648 57.1699 975.901 57.0439C964.758 56.7499 953.627 56.1489 942.497 55.5569C939.233 55.3829 936.05 55.8829 932.86 56.4249C931.698 56.6229 930.542 56.8648 929.375 57.0168C927.56 57.2528 926.287 58.0679 925.947 59.9839C925.571 62.1039 925.283 64.2449 924.8 66.3409C924.252 68.7209 922.875 70.6109 920.547 71.4539C917.4 72.5939 914.516 71.1418 913.229 67.8998C911.979 64.7518 911.78 61.4059 911.589 58.0709C911.539 57.1999 911.514 56.3369 911.328 55.4729C911.135 54.5789 910.586 54.2609 909.78 54.3669C909.014 54.4679 908.449 54.8079 908.489 55.7629C908.588 58.1469 908.232 60.4819 907.485 62.7429C906.764 64.9279 905.641 66.8769 903.128 67.2369C900.507 67.6129 898.412 66.4629 896.877 64.3689C895.442 62.4139 894.782 60.1608 894.609 57.7538C894.48 55.9598 893.884 54.3478 892.669 52.9948C892.235 52.5108 891.685 52.1608 891.036 52.3698C890.291 52.6098 890.328 53.3379 890.387 53.9339C890.527 55.3629 890.777 56.7809 890.93 58.2089C891.627 64.6999 891.043 71.1309 889.943 77.5289C889.752 78.6389 889.344 79.7069 888.768 80.6929C887.138 83.4819 884.089 83.7469 882.05 81.2209C880.238 78.9769 879.657 76.2949 879.999 73.5279C880.541 69.1409 880.329 64.8219 879.507 60.5029C879.224 59.0179 878.763 57.6518 877.468 56.5638Z" fill="#F9FBFC"/>
<path d="M877.396 51.7865C878.386 52.7375 879.364 53.6355 880.06 54.7875C881.664 57.4445 881.415 60.2805 879.365 62.6085C879.029 62.9895 878.71 63.4005 878.465 63.8435C876.524 67.3595 874.303 68.3805 870.272 67.5985C868.176 67.1915 866.285 66.2795 864.43 65.2725C863.134 64.5695 862.535 64.8205 862.038 66.2455C861.742 67.0935 861.749 67.9745 861.809 68.8395C862.123 73.3225 860.011 76.7675 857.045 79.7815C854.712 82.1515 851.782 82.6685 848.845 81.1215C843.233 78.1675 839.57 73.8325 839.86 67.0865C839.93 65.4555 839.427 64.3115 838.046 63.4945C836.314 62.4705 834.541 63.2595 834.292 65.2705C833.971 67.8685 834.179 70.5035 833.776 73.1055C833.539 74.6365 833.212 76.1265 832.639 77.5675C832.137 78.8305 831.453 79.9225 829.941 79.9505C828.399 79.9795 827.131 79.3215 826.361 77.9435C825.467 76.3435 825.05 74.5995 825.086 72.7665C825.137 70.1425 824.23 67.7445 823.47 65.1295C820.714 65.9035 818.005 66.3725 815.292 66.8225C810.062 67.6895 804.769 67.8185 799.504 68.2695C792.854 68.8395 786.209 69.4885 779.517 69.2925C768.51 68.9705 757.627 67.8595 746.886 65.2315C741.696 63.9615 736.416 64.4515 731.222 66.0305C726.515 67.4615 721.968 67.3725 717.878 63.9075C714.983 61.4545 714.249 61.7275 712.209 65.0005C710.313 68.0435 707.962 67.9615 706.118 64.8315C705.563 63.8885 705.576 62.6165 704.452 61.9005C703.667 62.3965 703.687 63.1805 703.613 63.9235C703.466 65.4015 703.506 66.9065 703.003 68.3355C702.128 70.8235 700.333 72.1895 698.128 72.0475C695.997 71.9095 693.855 69.9105 693.375 67.6185C693.184 66.7035 693.162 65.7905 693.276 64.8615C693.381 64.0055 693.409 63.1395 693.475 62.2165C691.925 61.9945 691.051 62.8145 690.308 63.8215C687.601 67.4905 684.777 68.2205 680.641 66.2215C678.972 65.4145 677.244 64.7675 675.508 64.1355C674.287 63.6905 673.026 63.5015 671.724 63.5875C667.497 63.8665 667.087 64.2115 666.452 68.3265C666.167 70.1695 665.758 71.9545 664.752 73.5585C662.199 77.6285 657.803 78.7425 653.679 76.2825C649.767 73.9495 647.954 70.2545 647.196 65.9245C647.045 65.0645 646.948 64.1955 646.783 63.3385C646.344 61.0595 645.408 60.2695 643.056 60.3625C640.528 60.4625 638.104 61.2085 635.646 61.7275C629.051 63.1225 622.41 63.3525 615.728 62.5795C614.779 62.4695 614.057 62.7305 613.332 63.3235C611.132 65.1245 608.76 65.2435 606.379 63.6865C605.305 62.9845 604.277 62.2105 603.254 61.4355C602.322 60.7295 601.389 60.7155 600.378 61.2485C598.752 62.1075 597.407 63.2325 596.513 64.8835C595.386 66.9655 594.467 69.1395 593.565 71.3215C592.313 74.3515 590.594 77.0585 588.148 79.2775C583.752 83.2655 577.714 83.8775 572.609 80.8395C566.138 76.9895 563.987 71.1075 566.227 63.4735C566.527 62.4495 567.379 61.3955 567.006 60.4175C566.66 59.5095 565.339 59.3605 564.479 58.8185C557.958 54.7065 557.096 45.1095 562.768 39.1705C566.574 35.1845 571.412 33.8265 576.752 33.8815C579.73 33.9125 582.702 34.1135 585.677 34.2785C591.582 34.6055 597.487 34.3515 603.383 33.9205C606.451 33.6955 609.134 32.5055 611.623 30.7725C613.393 29.5405 615.159 28.3005 616.972 27.1325C620.08 25.1295 623.444 24.6885 627.019 25.5955C629.118 26.1285 631.207 26.7445 633.095 27.7755C638.872 30.9295 645.107 32.1275 651.591 32.4725C658.826 32.8575 666.057 33.2825 673.303 32.8085C679.503 32.4035 685.678 31.5345 691.897 31.5455C709.41 31.5755 726.919 31.0045 744.44 31.7535C757.473 32.3105 770.531 32.0135 783.459 29.7945C786.216 29.3215 788.823 28.4175 791.32 27.1755C792.933 26.3735 794.639 25.8075 796.307 25.1425C801.692 22.9965 806.728 24.0385 811.468 26.8945C817.045 30.2555 822.807 33.1125 829.219 34.4905C832.011 35.0905 834.828 35.0005 837.657 34.8795C843.455 34.6315 849.254 34.1355 855.06 34.4175C860.35 34.6735 865.591 35.3815 870.701 36.8495C872.584 37.3905 874.395 38.1175 876.025 39.2245C880.265 42.1035 881.035 47.0965 877.875 51.1225C877.721 51.3225 877.58 51.5315 877.396 51.7865Z" fill="#F9FBFC"/>
<path d="M630.878 76.8405C630.881 79.2755 629.823 80.8785 628.28 81.2775C626.589 81.7145 624.981 80.8855 624.142 78.8885C622.563 75.1255 622.869 71.2515 623.862 67.4205C624.205 66.0975 625.626 65.7575 626.329 66.8755C628.368 70.1155 630.322 73.4365 630.878 76.8405Z" fill="#F9FBFC"/>
<path d="M820.803 77.8966C820.833 81.1926 819.638 82.9856 817.815 83.0376C816.145 83.0856 814.749 81.0476 814.784 78.5306C814.824 75.6596 815.785 72.9955 816.726 70.3325C816.954 69.6875 817.454 69.3196 818.139 69.3566C818.846 69.3946 819.298 69.8996 819.41 70.5256C819.887 73.1986 820.675 75.8166 820.803 77.8966Z" fill="#F9FBFC"/>
<path d="M602.193 73.1925C602.23 74.1825 602.134 75.1555 601.671 76.0395C600.855 77.5965 599.161 77.6555 598.274 76.1365C597.447 74.7205 597.241 73.1166 597.325 71.5256C597.413 69.8426 597.677 68.1646 597.954 66.4996C598.056 65.8846 598.148 65.0856 599.016 64.9916C599.89 64.8966 600.272 65.5695 600.615 66.2075C601.786 68.3895 602.073 70.7745 602.193 73.1925Z" fill="#F9FBFC"/>
<path d="M688.667 75.9295C687.463 75.9605 686.588 75.0815 686.554 73.8085C686.518 72.4315 687.366 71.4285 688.569 71.4235C689.75 71.4185 690.712 72.4505 690.72 73.7305C690.73 74.9605 689.853 75.8985 688.667 75.9295Z" fill="#F9FBFC"/>
<path d="M801.696 73.6985C802.896 73.6735 803.84 74.6205 803.829 75.8375C803.817 77.0265 802.933 78.0645 801.932 78.0675C800.747 78.0705 799.696 76.9995 799.687 75.7815C799.678 74.6045 800.528 73.7225 801.696 73.6985Z" fill="#F9FBFC"/>
<path d="M867.118 75.8884C868.199 75.8894 869.164 76.8454 869.197 77.9464C869.226 78.9384 868.188 79.9505 867.098 79.9915C865.967 80.0345 865.086 79.1334 865.093 77.9414C865.099 76.7634 865.964 75.8874 867.118 75.8884Z" fill="#F9FBFC"/>
<path d="M604.497 81.1556C604.377 82.1076 604.299 83.2166 602.975 83.3816C602.069 83.4946 601.197 82.1706 601.229 80.8886C601.257 79.7906 601.693 78.9126 602.886 78.9146C604.244 78.9176 604.436 79.9956 604.497 81.1556Z" fill="#F9FBFC"/>
<path d="M833.298 83.1545C833.405 81.9695 833.985 81.2115 835.228 81.2055C836.424 81.1995 837.028 81.9525 837.007 83.0725C836.986 84.2595 836.292 84.9755 835.071 85.0275C833.798 85.0825 833.423 84.2295 833.298 83.1545Z" fill="#F9FBFC"/>
<path d="M693.025 78.8025C692.285 78.7505 691.879 78.3915 691.882 77.6485C691.885 76.9025 692.346 76.5215 693.017 76.4685C693.658 76.4175 694.1 76.7975 694.146 77.4465C694.201 78.2205 693.759 78.6585 693.025 78.8025Z" fill="#F9FBFC"/>
<path d="M469.07 75.3095C468.667 76.7887 468.324 78.3092 467.854 79.7218C466.818 82.8309 465.355 85.2329 462.983 85.2852C460.563 85.3407 459.001 82.8785 457.807 79.9185C456.582 76.8791 456.315 73.3927 456.318 69.8286C456.32 66.8114 456.202 66.691 454.382 67.3981C450.994 68.714 447.689 68.3842 444.377 66.6006C439.798 64.1352 439.282 64.6409 437.747 71.9626C437.246 74.3551 436.809 76.8014 436.159 79.0924C434.081 86.4093 429.661 88.6115 425.31 84.6272C423.208 82.7025 421.58 80.0833 420.469 76.6365C419.863 74.7546 419.214 72.8933 418.483 71.1287C416.453 66.2343 413.01 64.2255 409.477 65.903C407.708 66.7433 405.923 67.6026 404.244 68.7996C398.274 73.0534 392.192 73.055 386.014 70.2963C383.394 69.1262 380.765 67.9783 378.188 66.6022C373.858 64.2906 369.89 65.4987 366.119 69.2689C363.635 71.7517 361.362 74.6896 359.033 77.5054C354.929 82.4679 350.597 86.8485 345.78 89.8434C336.667 95.5099 328.258 93.62 320.676 83.5856C317.968 80.0025 315.662 75.82 313.75 71.1762C311.844 66.5451 309.277 64.6568 305.859 64.5648C301.275 64.4412 296.71 64.7646 292.149 65.3401C286.188 66.0916 280.23 65.5082 274.27 65.4876C266.162 65.4606 258.406 62.2437 250.571 59.6277C243.979 57.4255 238.017 59.3915 232.897 66.6307C232.245 67.5518 231.557 68.4096 230.883 69.2911C226.536 74.9908 222.245 74.8608 218.003 68.9027C215.735 65.7191 215.704 65.7444 213.499 69.0073C212.714 70.1695 211.897 71.3237 210.996 72.2369C208.332 74.9354 205.835 74.5168 203.562 71.0351C200.578 66.4642 199.615 60.5061 199.115 54.272C198.183 42.6696 202.901 27.3763 214.218 25.5118C223.471 23.9882 232.682 22.2664 242.037 22.8768C250.818 23.4491 259.424 20.8902 267.942 17.5464C275.783 14.4691 283.75 12.4571 291.809 11.4614C298.355 10.6528 304.689 12.8725 311.044 14.8765C324.428 19.0954 337.923 21.8652 351.589 22.1141C368.968 22.4328 386.328 24.1166 403.713 23.9675C409.522 23.9184 415.303 22.8783 421.104 22.4265C429.57 21.7685 437.956 22.8308 446.344 24.2529C452.228 25.2502 458.131 25.9335 464.039 26.0762C472.567 26.2823 481.108 27.4017 489.627 26.0318C493.866 25.3501 498.056 23.9025 502.292 23.1574C508.878 21.9984 515.509 21.6575 522.09 20.2655C526.383 19.357 530.488 17.8699 534.128 14.0299C540.4 7.41376 546.886 7.79268 553.504 12.4476C557.774 15.4505 561.935 18.8132 566.496 20.7332C569.602 22.0412 572.417 21.5878 575.299 19.3792C581.813 14.3866 588.773 12.0148 595.963 11.2442C600.014 10.8098 603.793 12.1987 607.382 15.2919C612.511 19.7106 617.239 25.0171 621.721 30.9008C623.912 33.7784 625.754 37.1744 627.264 41.0049C628.464 44.0506 629.088 47.3277 628.99 50.9695C628.857 55.9019 627.477 59.4977 624.667 61.6714C621.755 63.9243 618.614 64.5157 615.485 63.9148C610.959 63.0476 607.075 64.5855 603.679 69.5606C602.181 71.7549 600.417 73.529 598.685 75.2778C596.153 77.8367 593.869 77.3944 591.657 74.1712C590.258 72.1338 589.392 69.5733 588.765 66.7718C588.267 64.5506 587.865 62.2628 587.103 60.2112C585.874 56.9023 584.468 56.59 582.775 59.3106C582.015 60.533 581.363 61.8379 580.113 61.8933C579.352 61.9266 579.46 63.2283 579.37 64.021C579.128 66.1598 578.679 68.1004 577.699 69.6748C575.85 72.638 573.628 73.0423 571.434 70.7703C569.015 68.2653 566.642 65.5795 564.828 62.0218C561.909 56.2967 557.969 54.3656 553.627 53.4444C544.513 51.5102 536.073 55.014 528 61.3575C524.065 64.4491 519.952 66.7464 515.751 68.6363C511.731 70.4453 507.697 70.1964 503.83 67.5947C502.229 66.5165 500.72 66.8939 499.157 67.3552C497.541 67.8325 495.935 68.389 494.321 68.8852C491.194 69.846 488.093 69.8365 485.025 68.2859C484.195 67.8658 483.344 67.5201 482.49 67.2395C481.287 66.8431 480.014 66.0155 478.874 66.3279C477.49 66.7068 477.874 69.5987 477.093 71.0478C476.796 71.5995 476.606 72.2924 476.336 72.8853C474.13 77.7384 472.194 78.3932 469.07 75.3095Z" fill="#F9FBFC"/>
</svg>
