<svg width="323" height="62" viewBox="0 0 323 62" fill="none" xmlns="http://www.w3.org/2000/svg">
<path d="M318.396 27.7865C319.386 28.7375 320.364 29.6355 321.06 30.7875C322.664 33.4445 322.415 36.2805 320.365 38.6085C320.029 38.9895 319.71 39.4005 319.465 39.8435C317.524 43.3595 315.303 44.3805 311.272 43.5985C309.176 43.1915 307.285 42.2795 305.43 41.2725C304.134 40.5695 303.535 40.8205 303.038 42.2455C302.742 43.0935 302.749 43.9745 302.809 44.8395C303.123 49.3225 301.011 52.7675 298.045 55.7815C295.712 58.1515 292.782 58.6685 289.845 57.1215C284.233 54.1675 280.57 49.8325 280.86 43.0865C280.93 41.4555 280.427 40.3115 279.046 39.4945C277.314 38.4705 275.541 39.2595 275.292 41.2705C274.971 43.8685 275.179 46.5035 274.776 49.1055C274.539 50.6365 274.212 52.1265 273.639 53.5675C273.137 54.8305 272.453 55.9225 270.941 55.9505C269.399 55.9795 268.131 55.3215 267.361 53.9435C266.467 52.3435 266.05 50.5995 266.086 48.7665C266.137 46.1425 265.23 43.7445 264.47 41.1295C261.714 41.9035 259.005 42.3725 256.292 42.8225C251.062 43.6895 245.769 43.8185 240.504 44.2695C233.854 44.8395 227.209 45.4885 220.517 45.2925C209.51 44.9705 198.627 43.8595 187.886 41.2315C182.696 39.9615 177.416 40.4515 172.222 42.0305C167.515 43.4615 162.968 43.3725 158.878 39.9075C155.983 37.4545 155.249 37.7275 153.209 41.0005C151.313 44.0435 148.962 43.9615 147.118 40.8315C146.563 39.8885 146.576 38.6165 145.452 37.9005C144.667 38.3965 144.687 39.1805 144.613 39.9235C144.466 41.4015 144.506 42.9065 144.003 44.3355C143.128 46.8235 141.333 48.1895 139.128 48.0475C136.997 47.9095 134.855 45.9105 134.375 43.6185C134.184 42.7035 134.162 41.7905 134.276 40.8615C134.381 40.0055 134.409 39.1395 134.475 38.2165C132.925 37.9945 132.051 38.8145 131.308 39.8215C128.601 43.4905 125.777 44.2205 121.641 42.2215C119.972 41.4145 118.244 40.7675 116.508 40.1355C115.287 39.6905 114.026 39.5015 112.724 39.5875C108.497 39.8665 108.087 40.2115 107.452 44.3265C107.167 46.1695 106.758 47.9545 105.752 49.5585C103.199 53.6285 98.8026 54.7425 94.6786 52.2825C90.7666 49.9495 88.9536 46.2545 88.1956 41.9245C88.0446 41.0645 87.9476 40.1955 87.7826 39.3385C87.3436 37.0595 86.4076 36.2695 84.0556 36.3625C81.5276 36.4625 79.1036 37.2085 76.6456 37.7275C70.0506 39.1225 63.4096 39.3525 56.7276 38.5795C55.7786 38.4695 55.0566 38.7305 54.3316 39.3235C52.1316 41.1245 49.7597 41.2435 47.3787 39.6865C46.3047 38.9845 45.2767 38.2105 44.2537 37.4355C43.3217 36.7295 42.3887 36.7155 41.3777 37.2485C39.7517 38.1075 38.4067 39.2325 37.5127 40.8835C36.3857 42.9655 35.4666 45.1395 34.5646 47.3215C33.3126 50.3515 31.5936 53.0585 29.1476 55.2775C24.7516 59.2655 18.7137 59.8775 13.6087 56.8395C7.13765 52.9895 4.98665 47.1075 7.22665 39.4735C7.52665 38.4495 8.37865 37.3955 8.00565 36.4175C7.65965 35.5095 6.33865 35.3605 5.47865 34.8185C-1.04235 30.7065 -1.90435 21.1095 3.76765 15.1705C7.57365 11.1845 12.4116 9.82651 17.7516 9.88151C20.7296 9.91251 23.7017 10.1135 26.6767 10.2785C32.5817 10.6055 38.4866 10.3515 44.3826 9.92051C47.4506 9.69551 50.1336 8.5055 52.6226 6.7725C54.3926 5.5405 56.1587 4.30052 57.9717 3.13252C61.0797 1.12952 64.4436 0.688498 68.0186 1.5955C70.1176 2.1285 72.2066 2.74452 74.0946 3.77552C79.8716 6.92952 86.1066 8.12751 92.5906 8.47251C99.8256 8.85751 107.057 9.28251 114.303 8.80851C120.503 8.40351 126.678 7.53451 132.897 7.54551C150.41 7.57551 167.919 7.00452 185.44 7.75352C198.473 8.31052 211.531 8.0135 224.459 5.7945C227.216 5.3215 229.823 4.41752 232.32 3.17552C233.933 2.37352 235.639 1.80753 237.307 1.14253C242.692 -1.00347 247.728 0.0385094 252.468 2.89451C258.045 6.25551 263.807 9.11252 270.219 10.4905C273.011 11.0905 275.828 11.0005 278.657 10.8795C284.455 10.6315 290.254 10.1355 296.06 10.4175C301.35 10.6735 306.591 11.3815 311.701 12.8495C313.584 13.3905 315.395 14.1175 317.025 15.2245C321.265 18.1035 322.035 23.0965 318.875 27.1225C318.721 27.3225 318.58 27.5315 318.396 27.7865Z" fill="#F9FBFC"/>
<path d="M71.8776 52.8405C71.8806 55.2755 70.8226 56.8785 69.2796 57.2775C67.5886 57.7145 65.9806 56.8855 65.1416 54.8885C63.5626 51.1255 63.8686 47.2515 64.8616 43.4205C65.2046 42.0975 66.6256 41.7575 67.3286 42.8755C69.3676 46.1155 71.3216 49.4365 71.8776 52.8405Z" fill="#F9FBFC"/>
<path d="M261.803 53.8966C261.833 57.1926 260.638 58.9856 258.815 59.0376C257.145 59.0856 255.749 57.0476 255.784 54.5306C255.824 51.6596 256.785 48.9955 257.726 46.3325C257.954 45.6875 258.454 45.3196 259.139 45.3566C259.846 45.3946 260.298 45.8996 260.41 46.5256C260.887 49.1986 261.675 51.8166 261.803 53.8966Z" fill="#F9FBFC"/>
<path d="M43.1927 49.1925C43.2297 50.1825 43.1337 51.1555 42.6707 52.0395C41.8547 53.5965 40.1607 53.6555 39.2737 52.1365C38.4467 50.7205 38.2407 49.1166 38.3247 47.5256C38.4127 45.8426 38.6767 44.1646 38.9537 42.4996C39.0557 41.8846 39.1477 41.0856 40.0157 40.9916C40.8897 40.8966 41.2717 41.5695 41.6147 42.2075C42.7857 44.3895 43.0727 46.7745 43.1927 49.1925Z" fill="#F9FBFC"/>
<path d="M129.667 51.9295C128.463 51.9605 127.588 51.0815 127.554 49.8085C127.518 48.4315 128.366 47.4285 129.569 47.4235C130.75 47.4185 131.712 48.4505 131.72 49.7305C131.73 50.9605 130.853 51.8985 129.667 51.9295Z" fill="#F9FBFC"/>
<path d="M242.696 49.6985C243.896 49.6735 244.84 50.6205 244.829 51.8375C244.817 53.0265 243.933 54.0645 242.932 54.0675C241.747 54.0705 240.696 52.9995 240.687 51.7815C240.678 50.6045 241.528 49.7225 242.696 49.6985Z" fill="#F9FBFC"/>
<path d="M308.118 51.8884C309.199 51.8894 310.164 52.8454 310.197 53.9464C310.226 54.9384 309.188 55.9505 308.098 55.9915C306.967 56.0345 306.086 55.1334 306.093 53.9414C306.099 52.7634 306.964 51.8874 308.118 51.8884Z" fill="#F9FBFC"/>
<path d="M45.4966 57.1556C45.3766 58.1076 45.2986 59.2166 43.9746 59.3816C43.0686 59.4946 42.1966 58.1706 42.2286 56.8886C42.2566 55.7906 42.6926 54.9126 43.8856 54.9146C45.2436 54.9176 45.4356 55.9956 45.4966 57.1556Z" fill="#F9FBFC"/>
<path d="M274.298 59.1545C274.405 57.9695 274.985 57.2115 276.228 57.2055C277.424 57.1995 278.028 57.9525 278.007 59.0725C277.986 60.2595 277.292 60.9755 276.071 61.0275C274.798 61.0825 274.423 60.2295 274.298 59.1545Z" fill="#F9FBFC"/>
<path d="M134.025 54.8025C133.285 54.7505 132.879 54.3915 132.882 53.6485C132.885 52.9025 133.346 52.5215 134.017 52.4685C134.658 52.4175 135.1 52.7975 135.146 53.4465C135.201 54.2205 134.759 54.6585 134.025 54.8025Z" fill="#F9FBFC"/>
</svg>
