<svg width="56" height="56" viewBox="0 0 56 56" fill="none" xmlns="http://www.w3.org/2000/svg">
<path d="M26.1776 3.3866C25.9116 5.6646 27.3626 27.9196 27.3626 27.9196C27.3626 27.9196 28.8976 50.1686 29.4646 52.3906C29.7306 50.1126 28.2796 27.8576 28.2796 27.8576C28.2796 27.8576 26.7446 5.6086 26.1776 3.3866Z" fill="white"/>
<path d="M43.9846 9.40063C42.1856 10.8236 27.4756 27.5856 27.4756 27.5856C27.4756 27.5856 12.8286 44.4036 11.6586 46.3756C13.4576 44.9526 28.1676 28.1896 28.1676 28.1896C28.1676 28.1896 42.8146 11.3736 43.9846 9.40063Z" fill="white"/>
<path d="M52.3236 26.2446C50.0456 25.9786 27.7906 27.4296 27.7906 27.4296C27.7906 27.4296 5.5416 28.9646 3.3196 29.5316C5.5976 29.7976 27.8526 28.3466 27.8526 28.3466C27.8526 28.3466 50.1006 26.8126 52.3236 26.2446Z" fill="white"/>
<path d="M46.3086 44.0516C44.8856 42.2526 28.1226 27.5426 28.1226 27.5426C28.1226 27.5426 11.3056 12.8956 9.33361 11.7256C10.7566 13.5246 27.5186 28.2346 27.5186 28.2346C27.5186 28.2346 44.3366 42.8816 46.3086 44.0516Z" fill="white"/>
<path d="M26.1776 4.43565C26.757 4.43565 27.2266 3.966 27.2266 3.38665C27.2266 2.8073 26.757 2.33765 26.1776 2.33765C25.5983 2.33765 25.1286 2.8073 25.1286 3.38665C25.1286 3.966 25.5983 4.43565 26.1776 4.43565Z" fill="white"/>
<path d="M28.4976 4.28261C28.4976 4.28261 29.6326 2.88061 29.0956 2.13861C28.5596 1.39661 27.8456 1.82861 27.8456 1.82861C27.7646 -0.147394 25.9486 0.00260608 25.9486 0.00260608C25.9486 0.00260608 24.1296 0.0966059 24.3126 2.06561C24.3126 2.06561 23.5476 1.73261 23.1156 2.53961C22.6836 3.34661 23.9956 4.58461 23.9956 4.58461C23.9956 4.58461 22.9346 5.17161 23.8706 6.53261C24.8066 7.89261 25.6216 6.83361 26.5436 8.86461C27.1856 6.72861 28.1356 7.66961 28.8806 6.19661C29.6286 4.72361 28.4976 4.28261 28.4976 4.28261ZM27.7576 6.21661C26.6876 6.67861 26.4636 7.64261 26.4636 7.64261C26.4636 7.64261 26.1116 6.71761 24.9906 6.40161C23.8696 6.08561 23.8266 4.69361 24.5696 4.69961C24.5696 4.69961 23.5436 3.90361 23.8026 3.18861C24.0616 2.47361 24.8546 2.83861 24.8546 2.83861C24.8546 2.83861 24.6186 1.37561 26.0376 1.28061C27.4566 1.18561 27.4186 2.66661 27.4186 2.66661C27.4186 2.66661 28.1556 2.19861 28.5076 2.87261C28.8596 3.54661 27.9496 4.47261 27.9496 4.47261C28.6826 4.36861 28.8266 5.75361 27.7576 6.21661Z" fill="white"/>
<path d="M26.5616 9.1146C26.5616 9.1146 23.0946 6.2216 22.0406 7.5766C20.9876 8.9306 23.3126 10.3096 23.3126 10.3096C23.3126 10.3096 22.2906 10.4616 22.3706 11.6566C22.4506 12.8516 25.0386 13.5706 25.0386 13.5706C25.0386 13.5706 23.4646 12.8946 23.6236 11.7686C23.7826 10.6416 25.3066 11.3206 25.3066 11.3206C25.3066 11.3206 22.8446 9.5606 23.0346 8.6546C23.2246 7.7486 26.6106 9.8376 26.6106 9.8376L26.5616 9.1146Z" fill="white"/>
<path d="M26.7986 12.6426C26.7986 12.6426 25.2076 11.5216 25.3676 13.0736C25.5276 14.6256 23.6216 13.6645 23.6216 13.6645C23.6216 13.6645 24.4416 14.9485 25.3076 14.6115C26.1736 14.2745 25.6346 12.6366 26.8676 13.6696L26.7986 12.6426Z" fill="white"/>
<path d="M27.0626 16.5876C27.0626 16.5876 22.5566 15.6886 21.4486 13.7266C21.4486 13.7266 21.7396 15.6606 24.2226 16.3876C24.2226 16.3876 23.0836 16.0456 22.5296 16.5286C22.5296 16.5286 24.6266 16.5836 25.2576 17.2666C25.2576 17.2666 23.6876 17.5676 24.6596 18.7576C25.6326 19.9486 25.9696 20.8186 25.4276 21.0506C24.8856 21.2826 24.6606 20.8506 24.7826 20.5916C24.7826 20.5916 24.3626 21.4016 25.2816 21.7856C26.2006 22.1706 26.9906 21.0566 26.1906 19.9386C25.3896 18.8206 25.1456 17.4136 27.1656 18.1156L27.0626 16.5876Z" fill="white"/>
<path d="M27.4286 22.0326C27.4286 22.0326 25.9116 21.8836 25.8656 22.9186C25.8196 23.9536 27.6116 24.7546 27.6116 24.7546C27.6116 24.7546 26.5076 23.8236 26.5176 23.1256C26.5256 22.4276 27.4286 22.0326 27.4286 22.0326Z" fill="white"/>
<path d="M26.5616 9.11458C26.5616 9.11458 29.6116 5.78458 30.8366 6.98558C32.0616 8.18658 29.9416 9.86458 29.9416 9.86458C29.9416 9.86458 30.9756 9.87858 31.0556 11.0736C31.1356 12.2686 28.6676 13.3266 28.6676 13.3266C28.6676 13.3266 30.1366 12.4466 29.8296 11.3516C29.5226 10.2556 28.1016 11.1326 28.1016 11.1326C28.1016 11.1326 30.3066 9.05958 29.9966 8.18658C29.6866 7.31458 26.6106 9.83658 26.6106 9.83658L26.5616 9.11458Z" fill="white"/>
<path d="M26.7986 12.6426C26.7986 12.6426 28.2256 11.3186 28.2736 12.8786C28.3226 14.4376 30.0836 13.2316 30.0836 13.2316C30.0836 13.2316 29.4426 14.6136 28.5386 14.3956C27.6356 14.1776 27.9506 12.4816 26.8676 13.6706L26.7986 12.6426Z" fill="white"/>
<path d="M27.0626 16.5876C27.0626 16.5876 31.4076 15.0946 32.2446 13.0016C32.2446 13.0016 32.2146 14.9576 29.8516 16.0096C29.8516 16.0096 30.9346 15.5186 31.5486 15.9236C31.5486 15.9236 29.4776 16.2576 28.9436 17.0196C28.9436 17.0196 30.5396 17.1076 29.7346 18.4176C28.9296 19.7276 28.7116 20.6346 29.2796 20.7926C29.8486 20.9496 30.0126 20.4926 29.8576 20.2516C29.8576 20.2516 30.3816 20.9976 29.5226 21.5016C28.6636 22.0056 27.7316 21.0076 28.3756 19.7926C29.0196 18.5776 29.0746 17.1506 27.1666 18.1156L27.0626 16.5876Z" fill="white"/>
<path d="M27.4286 22.0326C27.4286 22.0326 28.9116 21.6816 29.0966 22.7016C29.2806 23.7216 27.6116 24.7546 27.6116 24.7546C27.6116 24.7546 28.5806 23.6846 28.4786 22.9946C28.3756 22.3036 27.4286 22.0326 27.4286 22.0326Z" fill="white"/>
<path d="M44.7426 10.0656C44.3616 10.5016 43.6986 10.5466 43.2616 10.1646C42.8256 9.78258 42.7806 9.11957 43.1626 8.68357C43.5446 8.24757 44.2066 8.20258 44.6436 8.58458C45.0796 8.96558 45.1236 9.62857 44.7426 10.0656Z" fill="white"/>
<path d="M44.9596 11.6496C44.9596 11.6496 46.7536 11.4606 46.8986 10.5566C47.0436 9.6526 46.2346 9.4536 46.2346 9.4536C47.5746 7.9986 46.1846 6.8216 46.1846 6.8216C46.1846 6.8216 44.8316 5.6016 43.5696 7.1236C43.5696 7.1236 43.2646 6.3476 42.3876 6.6126C41.5116 6.8776 41.5636 8.6806 41.5636 8.6806C41.5636 8.6806 40.3976 8.3456 40.0976 9.9696C39.7976 11.5936 41.1226 11.4206 40.3386 13.5086C42.3036 12.4526 42.3086 13.7886 43.8786 13.2746C45.4476 12.7596 44.9596 11.6496 44.9596 11.6496ZM43.0686 12.4926C41.9856 12.0636 41.1446 12.5856 41.1446 12.5856C41.1446 12.5856 41.5506 11.6826 40.9796 10.6666C40.4086 9.6506 41.3646 8.6356 41.8856 9.1656C41.8856 9.1656 41.7226 7.8766 42.4116 7.5546C43.1006 7.2326 43.4026 8.0506 43.4026 8.0506C43.4026 8.0506 44.2706 6.8496 45.3416 7.7856C46.4126 8.7216 45.3376 9.7426 45.3376 9.7426C45.3376 9.7426 46.1896 9.9326 45.9616 10.6586C45.7336 11.3846 44.4356 11.3956 44.4356 11.3956C45.0306 11.8396 44.1526 12.9216 43.0686 12.4926Z" fill="white"/>
<path d="M40.1736 13.6966C40.1736 13.6966 39.7676 9.19961 38.0646 9.41261C36.3626 9.62561 37.0316 12.2446 37.0316 12.2446C37.0316 12.2446 36.2006 11.6296 35.4126 12.5306C34.6246 13.4316 35.9456 15.7706 35.9456 15.7706C35.9456 15.7706 35.3106 14.1796 36.2196 13.4956C37.1286 12.8106 37.7266 14.3686 37.7266 14.3686C37.7266 14.3686 37.2306 11.3826 38.0056 10.8766C38.7806 10.3706 39.6976 14.2416 39.6976 14.2416L40.1736 13.6966Z" fill="white"/>
<path d="M37.8466 16.3586C37.8466 16.3586 37.5146 14.4416 36.5306 15.6516C35.5466 16.8626 34.8776 14.8356 34.8776 14.8356C34.8776 14.8356 34.5496 16.3236 35.4006 16.6976C36.2516 17.0716 37.0286 15.5316 37.1696 17.1346L37.8466 16.3586Z" fill="white"/>
<path d="M35.2446 19.3346C35.2446 19.3346 32.6946 15.5126 33.2976 13.3416C33.2976 13.3416 32.1366 14.9156 33.3776 17.1846C33.3776 17.1846 32.8136 16.1366 32.0806 16.0876C32.0806 16.0876 33.5246 17.6086 33.4886 18.5386C33.4886 18.5386 32.1656 17.6406 32.0116 19.1706C31.8576 20.7006 31.4806 21.5546 30.9336 21.3346C30.3866 21.1146 30.5326 20.6516 30.8026 20.5546C30.8026 20.5546 29.9326 20.8296 30.3106 21.7516C30.6886 22.6736 32.0346 22.4446 32.2586 21.0886C32.4836 19.7316 33.3046 18.5636 34.2366 20.4886L35.2446 19.3346Z" fill="white"/>
<path d="M31.6526 23.4436C31.6526 23.4436 30.6856 22.2656 29.9206 22.9646C29.1556 23.6636 29.8566 25.4976 29.8566 25.4976C29.8566 25.4976 29.7346 24.0597 30.2346 23.5717C30.7346 23.0847 31.6526 23.4436 31.6526 23.4436Z" fill="white"/>
<path d="M40.1736 13.6967C40.1736 13.6967 44.6846 13.4987 44.7016 15.2147C44.7176 16.9307 42.0336 16.6167 42.0336 16.6167C42.0336 16.6167 42.7546 17.3577 41.9666 18.2587C41.1786 19.1597 38.6846 18.1637 38.6846 18.1637C38.6846 18.1637 40.3456 18.5807 40.9026 17.5887C41.4596 16.5967 39.8356 16.2127 39.8356 16.2127C39.8356 16.2127 42.8606 16.3057 43.2586 15.4697C43.6566 14.6337 39.6976 14.2427 39.6976 14.2427L40.1736 13.6967Z" fill="white"/>
<path d="M37.8466 16.3586C37.8466 16.3586 39.7916 16.4316 38.7226 17.5686C37.6546 18.7056 39.7526 19.0976 39.7526 19.0976C39.7526 19.0976 38.3216 19.6216 37.8376 18.8286C37.3536 18.0356 38.7756 17.0596 37.1686 17.1346L37.8466 16.3586Z" fill="white"/>
<path d="M35.2446 19.3347C35.2446 19.3347 39.3726 21.3517 41.4436 20.4637C41.4436 20.4637 40.0386 21.8247 37.6246 20.8987C37.6246 20.8987 38.7376 21.3177 38.8846 22.0377C38.8846 22.0377 37.1846 20.8097 36.2676 20.9707C36.2676 20.9707 37.3336 22.1617 35.8386 22.5187C34.3436 22.8757 33.5466 23.3627 33.8376 23.8767C34.1286 24.3897 34.5686 24.1827 34.6286 23.9027C34.6286 23.9027 34.4716 24.8007 33.5076 24.5497C32.5436 24.2987 32.5906 22.9337 33.9046 22.5297C35.2196 22.1257 36.2666 21.1557 34.2356 20.4887L35.2446 19.3347Z" fill="white"/>
<path d="M31.6526 23.4436C31.6526 23.4436 32.9496 24.2446 32.3586 25.0966C31.7676 25.9486 29.8566 25.4986 29.8566 25.4986C29.8566 25.4986 31.2986 25.4276 31.7146 24.8666C32.1306 24.3056 31.6526 23.4436 31.6526 23.4436Z" fill="white"/>
<path d="M52.2876 27.2267C52.867 27.2267 53.3366 26.757 53.3366 26.1777C53.3366 25.5983 52.867 25.1287 52.2876 25.1287C51.7083 25.1287 51.2386 25.5983 51.2386 26.1777C51.2386 26.757 51.7083 27.2267 52.2876 27.2267Z" fill="white"/>
<path d="M51.3916 28.4986C51.3916 28.4986 52.7936 29.6336 53.5356 29.0976C54.2776 28.5616 53.8456 27.8476 53.8456 27.8476C55.8216 27.7666 55.6716 25.9506 55.6716 25.9506C55.6716 25.9506 55.5776 24.1316 53.6086 24.3146C53.6086 24.3146 53.9416 23.5496 53.1346 23.1176C52.3276 22.6856 51.0896 23.9976 51.0896 23.9976C51.0896 23.9976 50.5026 22.9366 49.1416 23.8726C47.7816 24.8086 48.8406 25.6236 46.8096 26.5456C48.9456 27.1876 48.0046 28.1376 49.4776 28.8836C50.9506 29.6286 51.3916 28.4986 51.3916 28.4986ZM49.4576 27.7576C48.9956 26.6876 48.0316 26.4626 48.0316 26.4626C48.0316 26.4626 48.9566 26.1116 49.2726 24.9896C49.5876 23.8676 50.9806 23.8256 50.9746 24.5686C50.9746 24.5686 51.7706 23.5426 52.4856 23.8016C53.2006 24.0606 52.8356 24.8536 52.8356 24.8536C52.8356 24.8536 54.2986 24.6176 54.3936 26.0366C54.4886 27.4556 53.0076 27.4176 53.0076 27.4176C53.0076 27.4176 53.4756 28.1536 52.8016 28.5066C52.1276 28.8596 51.2016 27.9486 51.2016 27.9486C51.3056 28.6826 49.9206 28.8276 49.4576 27.7576Z" fill="white"/>
<path d="M46.5596 26.5617C46.5596 26.5617 49.4526 23.0947 48.0976 22.0407C46.7436 20.9877 45.3646 23.3127 45.3646 23.3127C45.3646 23.3127 45.2126 22.2907 44.0176 22.3707C42.8226 22.4507 42.1036 25.0387 42.1036 25.0387C42.1036 25.0387 42.7796 23.4647 43.9066 23.6237C45.0336 23.7817 44.3546 25.3067 44.3546 25.3067C44.3546 25.3067 46.1146 22.8447 47.0206 23.0347C47.9266 23.2247 45.8376 26.6107 45.8376 26.6107L46.5596 26.5617Z" fill="white"/>
<path d="M43.0316 26.7986C43.0316 26.7986 44.1526 25.2076 42.6006 25.3676C41.0486 25.5276 42.0096 23.6216 42.0096 23.6216C42.0096 23.6216 40.7256 24.4416 41.0626 25.3076C41.3996 26.1736 43.0376 25.6346 42.0046 26.8676L43.0316 26.7986Z" fill="white"/>
<path d="M39.0866 27.0626C39.0866 27.0626 39.9856 22.5566 41.9476 21.4486C41.9476 21.4486 40.0136 21.7406 39.2866 24.2226C39.2866 24.2226 39.6286 23.0836 39.1456 22.5296C39.1456 22.5296 39.0906 24.6256 38.4076 25.2576C38.4076 25.2576 38.1066 23.6876 36.9166 24.6596C35.7256 25.6326 34.8556 25.9696 34.6236 25.4276C34.3916 24.8846 34.8236 24.6606 35.0826 24.7826C35.0826 24.7826 34.2736 24.3626 33.8886 25.2816C33.5036 26.2006 34.6176 26.9906 35.7356 26.1906C36.8536 25.3896 38.2606 25.1456 37.5586 27.1646L39.0866 27.0626Z" fill="white"/>
<path d="M33.6416 27.4286C33.6416 27.4286 33.7906 25.9116 32.7556 25.8656C31.7206 25.8196 30.9196 27.6116 30.9196 27.6116C30.9196 27.6116 31.8506 26.5086 32.5486 26.5176C33.2466 26.5256 33.6416 27.4286 33.6416 27.4286Z" fill="white"/>
<path d="M46.5596 26.5616C46.5596 26.5616 49.8896 29.6116 48.6886 30.8366C47.4866 32.0616 45.8096 29.9416 45.8096 29.9416C45.8096 29.9416 45.7956 30.9746 44.6006 31.0556C43.4056 31.1356 42.3476 28.6676 42.3476 28.6676C42.3476 28.6676 43.2276 30.1366 44.3226 29.8296C45.4186 29.5216 44.5416 28.1016 44.5416 28.1016C44.5416 28.1016 46.6146 30.3066 47.4876 29.9966C48.3596 29.6866 45.8376 26.6106 45.8376 26.6106L46.5596 26.5616Z" fill="white"/>
<path d="M43.0316 26.7986C43.0316 26.7986 44.3556 28.2256 42.7956 28.2736C41.2366 28.3226 42.4426 30.0836 42.4426 30.0836C42.4426 30.0836 41.0606 29.4426 41.2786 28.5386C41.4966 27.6356 43.1926 27.9506 42.0036 26.8676L43.0316 26.7986Z" fill="white"/>
<path d="M39.0866 27.0626C39.0866 27.0626 40.5796 31.4076 42.6716 32.2446C42.6716 32.2446 40.7156 32.2136 39.6636 29.8516C39.6636 29.8516 40.1546 30.9346 39.7496 31.5476C39.7496 31.5476 39.4156 29.4776 38.6536 28.9426C38.6536 28.9426 38.5656 30.5396 37.2556 29.7336C35.9456 28.9286 35.0386 28.7106 34.8806 29.2786C34.7236 29.8476 35.1806 30.0116 35.4216 29.8566C35.4216 29.8566 34.6756 30.3806 34.1716 29.5216C33.6676 28.6626 34.6656 27.7306 35.8806 28.3746C37.0956 29.0186 38.5226 29.0736 37.5576 27.1656L39.0866 27.0626Z" fill="white"/>
<path d="M33.6416 27.4286C33.6416 27.4286 33.9926 28.9116 32.9726 29.0966C31.9526 29.2806 30.9196 27.6116 30.9196 27.6116C30.9196 27.6116 31.9896 28.5806 32.6796 28.4786C33.3706 28.3756 33.6416 27.4286 33.6416 27.4286Z" fill="white"/>
<path d="M45.6086 44.7427C45.1726 44.3607 45.1276 43.6987 45.5096 43.2617C45.8916 42.8257 46.5536 42.7807 46.9906 43.1627C47.4266 43.5437 47.4716 44.2067 47.0896 44.6437C46.7086 45.0797 46.0456 45.1247 45.6086 44.7427Z" fill="white"/>
<path d="M44.0246 44.9597C44.0246 44.9597 44.2136 46.7527 45.1176 46.8987C46.0216 47.0447 46.2206 46.2347 46.2206 46.2347C47.6756 47.5737 48.8526 46.1847 48.8526 46.1847C48.8526 46.1847 50.0726 44.8317 48.5506 43.5697C48.5506 43.5697 49.3266 43.2647 49.0616 42.3877C48.7966 41.5117 46.9936 41.5637 46.9936 41.5637C46.9936 41.5637 47.3286 40.3977 45.7046 40.0977C44.0806 39.7977 44.2536 41.1227 42.1656 40.3387C43.2216 42.3037 41.8856 42.3097 42.3996 43.8787C42.9146 45.4477 44.0246 44.9597 44.0246 44.9597ZM43.1816 43.0697C43.6106 41.9867 43.0886 41.1457 43.0886 41.1457C43.0886 41.1457 43.9916 41.5517 45.0076 40.9807C46.0236 40.4107 47.0386 41.3647 46.5086 41.8857C46.5086 41.8857 47.7976 41.7227 48.1196 42.4117C48.4416 43.1007 47.6236 43.4027 47.6236 43.4027C47.6236 43.4027 48.8246 44.2707 47.8886 45.3417C46.9526 46.4127 45.9316 45.3377 45.9316 45.3377C45.9316 45.3377 45.7416 46.1897 45.0156 45.9617C44.2896 45.7347 44.2786 44.4357 44.2786 44.4357C43.8336 45.0307 42.7526 44.1527 43.1816 43.0697Z" fill="white"/>
<path d="M41.9776 40.1736C41.9776 40.1736 46.4746 39.7676 46.2626 38.0646C46.0496 36.3626 43.4306 37.0316 43.4306 37.0316C43.4306 37.0316 44.0456 36.2006 43.1446 35.4126C42.2436 34.6246 39.9046 35.9456 39.9046 35.9456C39.9046 35.9456 41.4956 35.3106 42.1796 36.2196C42.8646 37.1286 41.3066 37.7266 41.3066 37.7266C41.3066 37.7266 44.2926 37.2306 44.7986 38.0056C45.3046 38.7806 41.4336 39.6976 41.4336 39.6976L41.9776 40.1736Z" fill="white"/>
<path d="M39.3156 37.8467C39.3156 37.8467 41.2326 37.5147 40.0226 36.5307C38.8126 35.5467 40.8386 34.8777 40.8386 34.8777C40.8386 34.8777 39.3506 34.5497 38.9766 35.4007C38.6026 36.2517 40.1426 37.0287 38.5396 37.1697L39.3156 37.8467Z" fill="white"/>
<path d="M36.3386 35.2446C36.3386 35.2446 40.1606 32.6946 42.3316 33.2976C42.3316 33.2976 40.7576 32.1366 38.4886 33.3776C38.4886 33.3776 39.5356 32.8136 39.5856 32.0806C39.5856 32.0806 38.0646 33.5246 37.1346 33.4886C37.1346 33.4886 38.0326 32.1656 36.5026 32.0116C34.9726 31.8576 34.1186 31.4806 34.3386 30.9336C34.5586 30.3856 35.0216 30.5326 35.1186 30.8026C35.1186 30.8026 34.8436 29.9336 33.9216 30.3106C32.9996 30.6886 33.2286 32.0346 34.5846 32.2586C35.9416 32.4836 37.1096 33.3046 35.1846 34.2366L36.3386 35.2446Z" fill="white"/>
<path d="M32.2306 31.6527C32.2306 31.6527 33.4086 30.6857 32.7096 29.9207C32.0106 29.1557 30.1766 29.8567 30.1766 29.8567C30.1766 29.8567 31.6146 29.7347 32.1026 30.2347C32.5896 30.7347 32.2306 31.6527 32.2306 31.6527Z" fill="white"/>
<path d="M41.9776 40.1737C41.9776 40.1737 42.1756 44.6847 40.4596 44.7017C38.7446 44.7177 39.0576 42.0337 39.0576 42.0337C39.0576 42.0337 38.3166 42.7547 37.4156 41.9667C36.5146 41.1787 37.5106 38.6847 37.5106 38.6847C37.5106 38.6847 37.0936 40.3457 38.0856 40.9037C39.0776 41.4607 39.4616 39.8367 39.4616 39.8367C39.4616 39.8367 39.3686 42.8617 40.2046 43.2597C41.0406 43.6577 41.4316 39.6987 41.4316 39.6987L41.9776 40.1737Z" fill="white"/>
<path d="M39.3156 37.8467C39.3156 37.8467 39.2426 39.7917 38.1056 38.7237C36.9686 37.6557 36.5766 39.7537 36.5766 39.7537C36.5766 39.7537 36.0526 38.3227 36.8456 37.8387C37.6386 37.3547 38.6146 38.7767 38.5396 37.1697L39.3156 37.8467Z" fill="white"/>
<path d="M36.3386 35.2447C36.3386 35.2447 34.3216 39.3727 35.2096 41.4437C35.2096 41.4437 33.8486 40.0397 34.7756 37.6247C34.7756 37.6247 34.3566 38.7377 33.6366 38.8847C33.6366 38.8847 34.8646 37.1847 34.7046 36.2677C34.7046 36.2677 33.5136 37.3347 33.1566 35.8387C32.7996 34.3437 32.3126 33.5477 31.7986 33.8387C31.2856 34.1297 31.4926 34.5697 31.7726 34.6297C31.7726 34.6297 30.8746 34.4727 31.1256 33.5087C31.3766 32.5447 32.7416 32.5917 33.1456 33.9057C33.5496 35.2207 34.5196 36.2677 35.1866 34.2367L36.3386 35.2447Z" fill="white"/>
<path d="M32.2306 31.6527C32.2306 31.6527 31.4296 32.9497 30.5776 32.3587C29.7256 31.7677 30.1756 29.8567 30.1756 29.8567C30.1756 29.8567 30.2466 31.2987 30.8076 31.7147C31.3686 32.1307 32.2306 31.6527 32.2306 31.6527Z" fill="white"/>
<path d="M28.4496 52.3576C28.4106 51.7796 28.8486 51.2786 29.4266 51.2406C30.0046 51.2016 30.5056 51.6396 30.5436 52.2176C30.5826 52.7956 30.1456 53.2956 29.5666 53.3346C28.9886 53.3736 28.4886 52.9356 28.4496 52.3576Z" fill="white"/>
<path d="M27.1756 51.3916C27.1756 51.3916 26.0406 52.7936 26.5766 53.5356C27.1126 54.2776 27.8266 53.8456 27.8266 53.8456C27.9076 55.8216 29.7236 55.6716 29.7236 55.6716C29.7236 55.6716 31.5426 55.5776 31.3596 53.6086C31.3596 53.6086 32.1246 53.9416 32.5566 53.1346C32.9886 52.3276 31.6766 51.0896 31.6766 51.0896C31.6766 51.0896 32.7376 50.5016 31.8016 49.1416C30.8656 47.7816 30.0506 48.8406 29.1286 46.8096C28.4866 48.9456 27.5366 48.0046 26.7916 49.4776C26.0456 50.9506 27.1756 51.3916 27.1756 51.3916ZM27.9166 49.4586C28.9866 48.9966 29.2106 48.0326 29.2106 48.0326C29.2106 48.0326 29.5626 48.9576 30.6836 49.2736C31.8056 49.5886 31.8476 50.9816 31.1046 50.9756C31.1046 50.9756 32.1306 51.7716 31.8716 52.4866C31.6126 53.2016 30.8196 52.8366 30.8196 52.8366C30.8196 52.8366 31.0556 54.2996 29.6366 54.3946C28.2176 54.4896 28.2556 53.0086 28.2556 53.0086C28.2556 53.0086 27.5196 53.4766 27.1666 52.8026C26.8146 52.1286 27.7246 51.2026 27.7246 51.2026C26.9916 51.3066 26.8466 49.9206 27.9166 49.4586Z" fill="white"/>
<path d="M29.1126 46.5595C29.1126 46.5595 32.5796 49.4525 33.6336 48.0975C34.6866 46.7435 32.3616 45.3645 32.3616 45.3645C32.3616 45.3645 33.3836 45.2125 33.3036 44.0175C33.2236 42.8235 30.6356 42.1035 30.6356 42.1035C30.6356 42.1035 32.2096 42.7795 32.0506 43.9065C31.8916 45.0335 30.3676 44.3545 30.3676 44.3545C30.3676 44.3545 32.8296 46.1145 32.6396 47.0205C32.4496 47.9265 29.0636 45.8375 29.0636 45.8375L29.1126 46.5595Z" fill="white"/>
<path d="M28.8756 43.0315C28.8756 43.0315 30.4666 44.1525 30.3066 42.6005C30.1466 41.0485 32.0526 42.0095 32.0526 42.0095C32.0526 42.0095 31.2326 40.7245 30.3666 41.0625C29.5006 41.3995 30.0396 43.0375 28.8066 42.0045L28.8756 43.0315Z" fill="white"/>
<path d="M28.6106 39.0866C28.6106 39.0866 33.1166 39.9856 34.2246 41.9476C34.2246 41.9476 33.9326 40.0136 31.4506 39.2866C31.4506 39.2866 32.5896 39.6286 33.1436 39.1456C33.1436 39.1456 31.0476 39.0906 30.4156 38.4076C30.4156 38.4076 31.9856 38.1066 31.0136 36.9166C30.0406 35.7266 29.7036 34.8556 30.2456 34.6236C30.7876 34.3916 31.0126 34.8236 30.8906 35.0826C30.8906 35.0826 31.3106 34.2726 30.3916 33.8886C29.4726 33.5036 28.6826 34.6176 29.4826 35.7356C30.2836 36.8536 30.5276 38.2606 28.5086 37.5586L28.6106 39.0866Z" fill="white"/>
<path d="M28.2456 33.6416C28.2456 33.6416 29.7626 33.7906 29.8086 32.7556C29.8546 31.7206 28.0626 30.9196 28.0626 30.9196C28.0626 30.9196 29.1656 31.8496 29.1566 32.5486C29.1486 33.2466 28.2456 33.6416 28.2456 33.6416Z" fill="white"/>
<path d="M29.1126 46.5595C29.1126 46.5595 26.0626 49.8895 24.8376 48.6875C23.6126 47.4865 25.7326 45.8095 25.7326 45.8095C25.7326 45.8095 24.6996 45.7955 24.6186 44.6005C24.5386 43.4055 27.0066 42.3475 27.0066 42.3475C27.0066 42.3475 25.5376 43.2275 25.8446 44.3235C26.1526 45.4195 27.5726 44.5425 27.5726 44.5425C27.5726 44.5425 25.3676 46.6155 25.6776 47.4885C25.9876 48.3605 29.0636 45.8385 29.0636 45.8385L29.1126 46.5595Z" fill="white"/>
<path d="M28.8756 43.0316C28.8756 43.0316 27.4486 44.3556 27.4006 42.7956C27.3516 41.2366 25.5906 42.4426 25.5906 42.4426C25.5906 42.4426 26.2316 41.0606 27.1356 41.2786C28.0386 41.4966 27.7236 43.1926 28.8066 42.0036L28.8756 43.0316Z" fill="white"/>
<path d="M28.6106 39.0866C28.6106 39.0866 24.2656 40.5796 23.4286 42.6726C23.4286 42.6726 23.4596 40.7166 25.8216 39.6646C25.8216 39.6646 24.7386 40.1556 24.1256 39.7506C24.1256 39.7506 26.1956 39.4166 26.7306 38.6546C26.7306 38.6546 25.1346 38.5666 25.9396 37.2566C26.7446 35.9466 26.9626 35.0396 26.3946 34.8826C25.8256 34.7256 25.6616 35.1826 25.8166 35.4236C25.8166 35.4236 25.2926 34.6776 26.1516 34.1736C27.0106 33.6696 27.9426 34.6676 27.2986 35.8826C26.6546 37.0976 26.5996 38.5246 28.5076 37.5596L28.6106 39.0866Z" fill="white"/>
<path d="M28.2456 33.6416C28.2456 33.6416 26.7626 33.9926 26.5776 32.9716C26.3936 31.9516 28.0626 30.9186 28.0626 30.9186C28.0626 30.9186 27.0936 31.9886 27.1956 32.6786C27.2986 33.3706 28.2456 33.6416 28.2456 33.6416Z" fill="white"/>
<path d="M10.9316 45.6096C11.3136 45.1736 11.9756 45.1286 12.4126 45.5106C12.8486 45.8926 12.8936 46.5546 12.5116 46.9916C12.1306 47.4276 11.4676 47.4726 11.0306 47.0906C10.5946 46.7086 10.5496 46.0456 10.9316 45.6096Z" fill="white"/>
<path d="M10.7146 44.0256C10.7146 44.0256 8.92161 44.2146 8.77561 45.1186C8.62961 46.0226 9.43961 46.2216 9.43961 46.2216C8.10061 47.6766 9.48961 48.8536 9.48961 48.8536C9.48961 48.8536 10.8426 50.0736 12.1046 48.5516C12.1046 48.5516 12.4096 49.3276 13.2866 49.0626C14.1626 48.7976 14.1106 46.9946 14.1106 46.9946C14.1106 46.9946 15.2766 47.3296 15.5766 45.7056C15.8766 44.0816 14.5516 44.2546 15.3356 42.1666C13.3706 43.2226 13.3646 41.8866 11.7956 42.4006C10.2266 42.9146 10.7146 44.0256 10.7146 44.0256ZM12.6046 43.1816C13.6876 43.6106 14.5286 43.0886 14.5286 43.0886C14.5286 43.0886 14.1226 43.9916 14.6936 45.0076C15.2636 46.0236 14.3096 47.0386 13.7886 46.5086C13.7886 46.5086 13.9516 47.7976 13.2626 48.1196C12.5736 48.4416 12.2716 47.6236 12.2716 47.6236C12.2716 47.6236 11.4036 48.8246 10.3326 47.8886C9.2616 46.9526 10.3366 45.9316 10.3366 45.9316C10.3366 45.9316 9.48461 45.7416 9.71261 45.0156C9.93961 44.2896 11.2386 44.2786 11.2386 44.2786C10.6436 43.8346 11.5216 42.7526 12.6046 43.1816Z" fill="white"/>
<path d="M15.5006 41.9777C15.5006 41.9777 15.9066 46.4747 17.6096 46.2627C19.3116 46.0497 18.6426 43.4307 18.6426 43.4307C18.6426 43.4307 19.4736 44.0457 20.2616 43.1447C21.0496 42.2437 19.7286 39.9047 19.7286 39.9047C19.7286 39.9047 20.3636 41.4957 19.4546 42.1797C18.5456 42.8647 17.9476 41.3067 17.9476 41.3067C17.9476 41.3067 18.4436 44.2927 17.6686 44.7977C16.8936 45.3037 15.9766 41.4327 15.9766 41.4327L15.5006 41.9777Z" fill="white"/>
<path d="M17.8276 39.3157C17.8276 39.3157 18.1596 41.2337 19.1436 40.0227C20.1276 38.8127 20.7966 40.8387 20.7966 40.8387C20.7966 40.8387 21.1246 39.3507 20.2736 38.9767C19.4226 38.6027 18.6456 40.1427 18.5046 38.5397L17.8276 39.3157Z" fill="white"/>
<path d="M20.4296 36.3397C20.4296 36.3397 22.9796 40.1617 22.3766 42.3327C22.3766 42.3327 23.5376 40.7587 22.2966 38.4897C22.2966 38.4897 22.8606 39.5367 23.5936 39.5867C23.5936 39.5867 22.1496 38.0657 22.1856 37.1357C22.1856 37.1357 23.5086 38.0337 23.6626 36.5037C23.8166 34.9737 24.1936 34.1197 24.7406 34.3397C25.2886 34.5597 25.1416 35.0227 24.8716 35.1197C24.8716 35.1197 25.7416 34.8447 25.3636 33.9227C24.9856 33.0007 23.6396 33.2297 23.4156 34.5857C23.1906 35.9427 22.3696 37.1107 21.4376 35.1857L20.4296 36.3397Z" fill="white"/>
<path d="M24.0216 32.2306C24.0216 32.2306 24.9886 33.4086 25.7536 32.7096C26.5186 32.0096 25.8176 30.1766 25.8176 30.1766C25.8176 30.1766 25.9396 31.6146 25.4396 32.1026C24.9396 32.5896 24.0216 32.2306 24.0216 32.2306Z" fill="white"/>
<path d="M15.5006 41.9777C15.5006 41.9777 10.9896 42.1757 10.9726 40.4597C10.9566 38.7437 13.6406 39.0577 13.6406 39.0577C13.6406 39.0577 12.9196 38.3167 13.7076 37.4157C14.4956 36.5147 16.9896 37.5117 16.9896 37.5117C16.9896 37.5117 15.3286 37.0947 14.7706 38.0867C14.2136 39.0787 15.8376 39.4637 15.8376 39.4637C15.8376 39.4637 12.8126 39.3707 12.4146 40.2067C12.0166 41.0427 15.9756 41.4337 15.9756 41.4337L15.5006 41.9777Z" fill="white"/>
<path d="M17.8276 39.3157C17.8276 39.3157 15.8826 39.2427 16.9516 38.1057C18.0196 36.9687 15.9216 36.5767 15.9216 36.5767C15.9216 36.5767 17.3526 36.0527 17.8366 36.8457C18.3206 37.6387 16.8986 38.6147 18.5056 38.5407L17.8276 39.3157Z" fill="white"/>
<path d="M20.4296 36.3396C20.4296 36.3396 16.3016 34.3226 14.2306 35.2106C14.2306 35.2106 15.6346 33.8496 18.0496 34.7766C18.0496 34.7766 16.9366 34.3576 16.7896 33.6376C16.7896 33.6376 18.4896 34.8656 19.4066 34.7046C19.4066 34.7046 18.3396 33.5136 19.8356 33.1566C21.3306 32.7996 22.1266 32.3126 21.8356 31.7986C21.5446 31.2856 21.1046 31.4926 21.0446 31.7726C21.0446 31.7726 21.2016 30.8746 22.1656 31.1256C23.1296 31.3766 23.0826 32.7416 21.7686 33.1456C20.4546 33.5496 19.4066 34.5196 21.4376 35.1866L20.4296 36.3396Z" fill="white"/>
<path d="M24.0216 32.2306C24.0216 32.2306 22.7246 31.4296 23.3156 30.5776C23.9066 29.7256 25.8176 30.1756 25.8176 30.1756C25.8176 30.1756 24.3756 30.2466 23.9596 30.8076C23.5436 31.3686 24.0216 32.2306 24.0216 32.2306Z" fill="white"/>
<path d="M3.31661 28.4496C3.89461 28.4106 4.39561 28.8486 4.43361 29.4266C4.47261 30.0046 4.03461 30.5046 3.45661 30.5436C2.87861 30.5826 2.3776 30.1446 2.3396 29.5666C2.3006 28.9886 2.73761 28.4886 3.31661 28.4496Z" fill="white"/>
<path d="M4.28261 27.1765C4.28261 27.1765 2.8806 26.0415 2.1386 26.5775C1.3966 27.1135 1.8286 27.8275 1.8286 27.8275C-0.147397 27.9085 0.00260626 29.7245 0.00260626 29.7245C0.00260626 29.7245 0.0966021 31.5435 2.0656 31.3605C2.0656 31.3605 1.7326 32.1255 2.5396 32.5575C3.3466 32.9895 4.58461 31.6775 4.58461 31.6775C4.58461 31.6775 5.17161 32.7385 6.53261 31.8025C7.89261 30.8665 6.83361 30.0515 8.86461 29.1295C6.72861 28.4875 7.66961 27.5375 6.19661 26.7915C4.72261 26.0455 4.28261 27.1765 4.28261 27.1765ZM6.21561 27.9165C6.67761 28.9865 7.64161 29.2105 7.64161 29.2105C7.64161 29.2105 6.7166 29.5625 6.4016 30.6835C6.0856 31.8055 4.6936 31.8475 4.6996 31.1045C4.6996 31.1045 3.9036 32.1305 3.1886 31.8715C2.4736 31.6125 2.83861 30.8195 2.83861 30.8195C2.83861 30.8195 1.37561 31.0555 1.28061 29.6365C1.18561 28.2175 2.6666 28.2555 2.6666 28.2555C2.6666 28.2555 2.19861 27.5185 2.87261 27.1665C3.54661 26.8145 4.47262 27.7245 4.47262 27.7245C4.36762 26.9915 5.75361 26.8475 6.21561 27.9165Z" fill="white"/>
<path d="M9.11461 29.1126C9.11461 29.1126 6.22161 32.5796 7.57561 33.6336C8.92961 34.6866 10.3086 32.3616 10.3086 32.3616C10.3086 32.3616 10.4606 33.3836 11.6556 33.3036C12.8506 33.2236 13.5696 30.6356 13.5696 30.6356C13.5696 30.6356 12.8936 32.2096 11.7666 32.0506C10.6396 31.8916 11.3186 30.3676 11.3186 30.3676C11.3186 30.3676 9.55861 32.8296 8.65261 32.6396C7.74661 32.4496 9.8356 29.0636 9.8356 29.0636L9.11461 29.1126Z" fill="white"/>
<path d="M12.6426 28.8756C12.6426 28.8756 11.5216 30.4666 13.0736 30.3066C14.6256 30.1466 13.6646 32.0526 13.6646 32.0526C13.6646 32.0526 14.9486 31.2326 14.6116 30.3666C14.2746 29.5006 12.6366 30.0396 13.6696 28.8066L12.6426 28.8756Z" fill="white"/>
<path d="M16.5876 28.6117C16.5876 28.6117 15.6886 33.1177 13.7266 34.2257C13.7266 34.2257 15.6606 33.9347 16.3876 31.4517C16.3876 31.4517 16.0456 32.5907 16.5286 33.1447C16.5286 33.1447 16.5836 31.0477 17.2666 30.4167C17.2666 30.4167 17.5676 31.9867 18.7576 31.0147C19.9476 30.0417 20.8186 29.7047 21.0506 30.2467C21.2826 30.7897 20.8506 31.0137 20.5916 30.8917C20.5916 30.8917 21.4006 31.3117 21.7856 30.3927C22.1706 29.4737 21.0566 28.6837 19.9386 29.4837C18.8206 30.2837 17.4136 30.5287 18.1156 28.5087L16.5876 28.6117Z" fill="white"/>
<path d="M22.0326 28.2456C22.0326 28.2456 21.8836 29.7626 22.9186 29.8086C23.9546 29.8546 24.7546 28.0626 24.7546 28.0626C24.7546 28.0626 23.8246 29.1666 23.1256 29.1566C22.4276 29.1486 22.0326 28.2456 22.0326 28.2456Z" fill="white"/>
<path d="M9.11462 29.1125C9.11462 29.1125 5.7846 26.0625 6.9856 24.8375C8.1866 23.6125 9.86361 25.7325 9.86361 25.7325C9.86361 25.7325 9.87761 24.6985 11.0726 24.6185C12.2676 24.5385 13.3256 27.0065 13.3256 27.0065C13.3256 27.0065 12.4456 25.5375 11.3506 25.8445C10.2546 26.1515 11.1316 27.5725 11.1316 27.5725C11.1316 27.5725 9.05862 25.3675 8.18562 25.6775C7.31362 25.9875 9.83561 29.0635 9.83561 29.0635L9.11462 29.1125Z" fill="white"/>
<path d="M12.6426 28.8756C12.6426 28.8756 11.3186 27.4486 12.8786 27.4006C14.4386 27.3526 13.2316 25.5906 13.2316 25.5906C13.2316 25.5906 14.6136 26.2316 14.3956 27.1356C14.1776 28.0386 12.4816 27.7236 13.6706 28.8066L12.6426 28.8756Z" fill="white"/>
<path d="M16.5876 28.6116C16.5876 28.6116 15.0946 24.2666 13.0016 23.4296C13.0016 23.4296 14.9576 23.4606 16.0096 25.8226C16.0096 25.8226 15.5186 24.7396 15.9236 24.1266C15.9236 24.1266 16.2576 26.1966 17.0196 26.7316C17.0196 26.7316 17.1076 25.1346 18.4176 25.9406C19.7276 26.7456 20.6346 26.9636 20.7916 26.3956C20.9486 25.8266 20.4916 25.6626 20.2506 25.8176C20.2506 25.8176 20.9966 25.2936 21.5006 26.1526C22.0046 27.0116 21.0066 27.9436 19.7916 27.2996C18.5766 26.6556 17.1496 26.6006 18.1146 28.5086L16.5876 28.6116Z" fill="white"/>
<path d="M22.0326 28.2455C22.0326 28.2455 21.6816 26.7625 22.7016 26.5775C23.7216 26.3935 24.7546 28.0625 24.7546 28.0625C24.7546 28.0625 23.6846 27.0935 22.9946 27.1955C22.3036 27.2985 22.0326 28.2455 22.0326 28.2455Z" fill="white"/>
<path d="M10.0646 10.9317C10.5006 11.3127 10.5456 11.9757 10.1636 12.4127C9.78161 12.8487 9.11961 12.8937 8.68261 12.5117C8.24661 12.1307 8.20161 11.4677 8.58361 11.0307C8.96561 10.5947 9.62861 10.5507 10.0646 10.9317Z" fill="white"/>
<path d="M11.6486 10.7147C11.6486 10.7147 11.4596 8.92166 10.5556 8.77566C9.65161 8.62966 9.45262 9.43966 9.45262 9.43966C7.99762 8.09966 6.82061 9.48966 6.82061 9.48966C6.82061 9.48966 5.60061 10.8427 7.12261 12.1047C7.12261 12.1047 6.34661 12.4097 6.61161 13.2867C6.87661 14.1627 8.67961 14.1107 8.67961 14.1107C8.67961 14.1107 8.34461 15.2767 9.96861 15.5767C11.5926 15.8767 11.4196 14.5517 13.5076 15.3357C12.4516 13.3707 13.7876 13.3657 13.2736 11.7957C12.7596 10.2267 11.6486 10.7147 11.6486 10.7147ZM12.4926 12.6057C12.0636 13.6887 12.5856 14.5297 12.5856 14.5297C12.5856 14.5297 11.6826 14.1237 10.6666 14.6947C9.65061 15.2647 8.63561 14.3107 9.16561 13.7897C9.16561 13.7897 7.87661 13.9527 7.55461 13.2637C7.23261 12.5747 8.05061 12.2727 8.05061 12.2727C8.05061 12.2727 6.84861 11.4047 7.78561 10.3337C8.72161 9.26266 9.74261 10.3377 9.74261 10.3377C9.74261 10.3377 9.93261 9.48566 10.6586 9.71366C11.3846 9.94066 11.3956 11.2397 11.3956 11.2397C11.8396 10.6437 12.9216 11.5217 12.4926 12.6057Z" fill="white"/>
<path d="M13.6966 15.5006C13.6966 15.5006 9.19962 15.9066 9.41162 17.6096C9.62462 19.3116 12.2436 18.6426 12.2436 18.6426C12.2436 18.6426 11.6286 19.4726 12.5296 20.2606C13.4306 21.0486 15.7696 19.7276 15.7696 19.7276C15.7696 19.7276 14.1786 20.3626 13.4936 19.4536C12.8086 18.5446 14.3676 17.9466 14.3676 17.9466C14.3676 17.9466 11.3816 18.4426 10.8756 17.6676C10.3696 16.8926 14.2406 15.9756 14.2406 15.9756L13.6966 15.5006Z" fill="white"/>
<path d="M16.3586 17.8276C16.3586 17.8276 14.4406 18.1596 15.6516 19.1436C16.8616 20.1276 14.8356 20.7966 14.8356 20.7966C14.8356 20.7966 16.3236 21.1246 16.6976 20.2736C17.0716 19.4226 15.5316 18.6456 17.1346 18.5046L16.3586 17.8276Z" fill="white"/>
<path d="M19.3346 20.4296C19.3346 20.4296 15.5126 22.9796 13.3416 22.3766C13.3416 22.3766 14.9156 23.5376 17.1846 22.2966C17.1846 22.2966 16.1376 22.8606 16.0876 23.5936C16.0876 23.5936 17.6086 22.1496 18.5386 22.1856C18.5386 22.1856 17.6406 23.5086 19.1706 23.6626C20.7006 23.8166 21.5546 24.1936 21.3346 24.7406C21.1146 25.2886 20.6506 25.1416 20.5536 24.8716C20.5536 24.8716 20.8286 25.7406 21.7506 25.3636C22.6726 24.9856 22.4436 23.6396 21.0876 23.4156C19.7306 23.1906 18.5626 22.3696 20.4876 21.4376L19.3346 20.4296Z" fill="white"/>
<path d="M23.4436 24.0216C23.4436 24.0216 22.2656 24.9886 22.9646 25.7536C23.6636 26.5186 25.4976 25.8176 25.4976 25.8176C25.4976 25.8176 24.0596 25.9396 23.5716 25.4396C23.0846 24.9396 23.4436 24.0216 23.4436 24.0216Z" fill="white"/>
<path d="M13.6966 15.5006C13.6966 15.5006 13.4986 10.9896 15.2146 10.9726C16.9306 10.9566 16.6166 13.6406 16.6166 13.6406C16.6166 13.6406 17.3576 12.9196 18.2586 13.7076C19.1596 14.4956 18.1626 16.9896 18.1626 16.9896C18.1626 16.9896 18.5796 15.3286 17.5876 14.7716C16.5956 14.2146 16.2116 15.8386 16.2116 15.8386C16.2116 15.8386 16.3046 12.8136 15.4686 12.4156C14.6326 12.0176 14.2416 15.9766 14.2416 15.9766L13.6966 15.5006Z" fill="white"/>
<path d="M16.3586 17.8277C16.3586 17.8277 16.4316 15.8827 17.5686 16.9507C18.7056 18.0187 19.0976 15.9207 19.0976 15.9207C19.0976 15.9207 19.6216 17.3517 18.8286 17.8357C18.0356 18.3197 17.0596 16.8977 17.1336 18.5047L16.3586 17.8277Z" fill="white"/>
<path d="M19.3346 20.4296C19.3346 20.4296 21.3516 16.3016 20.4636 14.2306C20.4636 14.2306 21.8246 15.6356 20.8976 18.0496C20.8976 18.0496 21.3166 16.9366 22.0366 16.7896C22.0366 16.7896 20.8086 18.4896 20.9686 19.4066C20.9686 19.4066 22.1596 18.3396 22.5166 19.8356C22.8736 21.3306 23.3606 22.1276 23.8746 21.8366C24.3876 21.5456 24.1806 21.1056 23.9006 21.0456C23.9006 21.0456 24.7986 21.2026 24.5476 22.1666C24.2966 23.1306 22.9316 23.0836 22.5276 21.7696C22.1236 20.4546 21.1536 19.4076 20.4866 21.4386L19.3346 20.4296Z" fill="white"/>
<path d="M23.4436 24.0216C23.4436 24.0216 24.2446 22.7246 25.0966 23.3156C25.9486 23.9066 25.4986 25.8176 25.4986 25.8176C25.4986 25.8176 25.4276 24.3756 24.8666 23.9596C24.3056 23.5436 23.4436 24.0216 23.4436 24.0216Z" fill="white"/>
</svg>
