<svg width="123" height="147" viewBox="0 0 123 147" fill="none" xmlns="http://www.w3.org/2000/svg">
<path d="M77.6031 27.9146C64.6631 26.0546 38.913 33.6946 29.573 38.9846L29.373 38.6246C29.373 38.6246 33.963 15.2546 45.203 11.4846C52.993 8.88458 65.3931 12.7146 77.6031 27.9146Z" fill="#D14B4B"/>
<path d="M31.173 51.2346C30.903 53.0846 30.763 54.8446 30.763 56.5046L30.413 56.4946C30.413 56.4946 27.573 56.4146 26.303 54.3046C25.023 52.1946 24.433 43.0946 26.953 40.7746C27.553 40.2246 28.443 39.6246 29.573 38.9846C38.913 33.6946 64.663 26.0546 77.603 27.9146C78.003 27.9746 78.393 28.0446 78.763 28.1146C82.863 28.9346 88.223 39.0246 83.823 42.7646C82.273 40.2746 80.803 38.9846 80.803 38.9846L80.793 38.5646C53.683 38.9446 36.603 47.9046 31.173 51.2346Z" fill="#7F2C2C"/>
<path d="M83.823 42.7646C87.083 47.9246 90.743 58.2246 82.663 72.8346C82.663 72.8346 94.833 80.9146 101.123 96.7646C106.093 109.275 102.633 137.715 83.993 144.505C76.263 147.325 47.323 149.205 35.823 141.155C20.443 130.375 17.183 95.1746 39.103 78.2246C39.103 78.2246 30.603 70.9146 30.763 56.5046C30.763 54.8446 30.903 53.0846 31.173 51.2346C36.603 47.9046 53.683 38.9446 80.793 38.5646L80.803 38.9846C80.803 38.9846 82.273 40.2746 83.823 42.7646Z" fill="#FAF9F4"/>
<path d="M29.141 52.2646C29.141 52.2646 29.867 51.7736 31.137 50.9146C32.419 50.1036 34.321 48.9806 36.672 47.8286C37.851 47.2556 39.134 46.6386 40.521 46.0606C41.897 45.4556 43.375 44.8826 44.912 44.3096C46.46 43.7686 48.059 43.2096 49.711 42.7236C51.349 42.1906 53.051 41.7816 54.738 41.3236C56.443 40.9386 58.141 40.5166 59.838 40.2256C60.684 40.0676 61.523 39.9116 62.352 39.7566C63.186 39.6326 64.01 39.5096 64.82 39.3886C66.437 39.1176 68.015 38.9766 69.508 38.8226C70.999 38.6446 72.418 38.5796 73.724 38.4926C75.03 38.3976 76.229 38.3356 77.293 38.3376C78.356 38.3206 79.283 38.3056 80.046 38.2936C80.809 38.2736 81.41 38.2906 81.816 38.2936C82.224 38.2986 82.442 38.3006 82.442 38.3006C82.582 38.3016 82.695 38.4156 82.695 38.5556C82.694 38.6926 82.583 38.8036 82.447 38.8086C82.447 38.8086 82.23 38.8136 81.822 38.8236C81.413 38.8346 80.817 38.8396 80.058 38.8866C79.3 38.9256 78.378 38.9736 77.322 39.0286C76.265 39.0686 75.076 39.1666 73.78 39.2806C72.484 39.3926 71.077 39.4856 69.601 39.6916C68.123 39.8796 66.56 40.0446 64.958 40.3166C64.155 40.4416 63.339 40.5686 62.513 40.6976C61.692 40.8566 60.862 41.0176 60.024 41.1796C58.343 41.4736 56.667 41.9186 54.976 42.2906C53.303 42.7346 51.614 43.1286 49.989 43.6466C48.35 44.1176 46.763 44.6616 45.227 45.1876C43.706 45.7536 42.225 46.2746 40.854 46.8536C39.47 47.4006 38.19 47.9866 37.012 48.5316C34.654 49.6346 32.754 50.6396 31.44 51.4206C30.16 52.2256 29.428 52.6866 29.428 52.6866L29.421 52.6906C29.302 52.7656 29.146 52.7296 29.071 52.6106C28.995 52.4936 29.028 52.3406 29.141 52.2646Z" fill="#5F1E1C"/>
<path d="M52.712 9.36055C52.254 9.01355 51.833 8.71255 51.446 8.45555C53.085 7.43355 54.556 5.49557 53.515 3.51357C52.741 2.03957 49.878 2.67456 48.136 3.76656C47.95 2.75556 47.427 1.65156 46.395 0.900562C45.377 0.159562 44.813 0.841556 44.564 2.00756C43.946 0.790556 43.139 -0.113446 42.23 0.0115542C41.001 0.179554 40.643 1.75158 40.79 3.28258C40.669 3.31358 40.542 3.35658 40.405 3.42058C39.328 3.91958 39.352 5.05156 39.748 6.10256C38.332 5.03656 36.532 4.37157 35.958 6.37957C35.262 8.81557 37.702 10.4276 39.539 11.0256C38.656 11.4506 38.032 12.4556 39.252 14.4076C40.381 16.2146 41.783 15.8736 42.896 14.9226C42.915 15.7016 43.169 16.4696 43.834 17.0486C45.553 18.5456 47.628 16.4726 48.083 14.3646C48.47 14.7246 48.945 15.0956 49.547 15.4676C53.856 18.1326 56.306 12.0876 52.712 9.36055Z" fill="#7F2C2C"/>
<path d="M48.3761 56.4046C48.7191 57.5546 48.2561 58.7086 47.3411 58.9806C46.4271 59.2536 45.4071 58.5416 45.0651 57.3916C44.7221 56.2416 45.1851 55.0876 46.1001 54.8156C47.0141 54.5436 48.0331 55.2546 48.3761 56.4046Z" fill="black"/>
<path d="M69.4231 49.6306C69.7661 50.7806 69.3031 51.9346 68.3881 52.2066C67.4741 52.4796 66.4551 51.7676 66.1121 50.6176C65.7691 49.4676 66.2321 48.3136 67.1471 48.0416C68.0611 47.7696 69.0801 48.4806 69.4231 49.6306Z" fill="black"/>
<path d="M49.7561 69.4716C50.2731 65.9226 47.8151 62.6266 44.2661 62.1096C40.7171 61.5926 37.4211 64.0506 36.9041 67.5996C36.3871 71.1486 38.8451 74.4446 42.3941 74.9616C45.9431 75.4786 49.2391 73.0206 49.7561 69.4716Z" fill="#D98199"/>
<path d="M84.0291 61.3876C84.5461 57.8386 82.0881 54.5426 78.5391 54.0256C74.9901 53.5086 71.6941 55.9666 71.1771 59.5156C70.6601 63.0646 73.1181 66.3606 76.6671 66.8776C80.2161 67.3946 83.5121 64.9356 84.0291 61.3876Z" fill="#D98199"/>
<path d="M57.163 52.9126C54.572 52.6496 53.568 58.9516 54.985 60.0986C55.933 60.8666 70.781 60.4026 70.624 58.4936C70.526 57.2866 59.727 53.1726 57.163 52.9126Z" fill="#D1861B"/>
<path d="M51.198 63.2736C51.198 63.2736 51.232 63.3146 51.297 63.3926C51.365 63.4696 51.466 63.5826 51.594 63.7266C51.854 64.0136 52.238 64.4146 52.725 64.8406C53.215 65.2636 53.811 65.7126 54.488 66.0546C54.824 66.2306 55.186 66.3586 55.551 66.4736L56.11 66.6016L56.639 66.6566L57.339 66.6656C57.555 66.6616 57.722 66.6356 57.915 66.6266C58.297 66.5786 58.7 66.5196 59.067 66.4226C59.808 66.2296 60.474 65.9366 61.024 65.6256C62.122 64.9946 62.747 64.3316 62.723 64.3696C62.876 64.1346 63.191 64.0686 63.426 64.2216C63.661 64.3746 63.727 64.6896 63.574 64.9246C63.561 64.9396 63.457 65.1826 63.203 65.5546C62.949 65.9236 62.545 66.4286 61.946 66.9236C61.355 67.4236 60.56 67.9136 59.622 68.2316C59.151 68.3936 58.664 68.5166 58.133 68.5836C57.867 68.6086 57.573 68.6436 57.324 68.6526L56.624 68.6506C56.266 68.6226 56.052 68.5846 55.762 68.5486C55.497 68.4816 55.233 68.4146 54.971 68.3476C54.463 68.1686 53.989 67.9416 53.564 67.6816C52.716 67.1536 52.067 66.5126 51.59 65.9226C51.109 65.3336 50.795 64.7916 50.595 64.4026C50.492 64.2086 50.429 64.0486 50.379 63.9376C50.334 63.8256 50.309 63.7656 50.309 63.7656C50.203 63.5036 50.329 63.2056 50.591 63.1006C50.802 63.0146 51.037 63.0806 51.176 63.2476L51.198 63.2736Z" fill="black"/>
<path d="M67.483 88.6816C67.697 87.2126 66.68 85.8496 65.211 85.6356C63.743 85.4216 62.379 86.4386 62.165 87.9076C61.951 89.3766 62.968 90.7396 64.437 90.9536C65.905 91.1676 67.269 90.1506 67.483 88.6816Z" fill="#160400"/>
<path d="M68.03 103.572C68.244 102.103 67.227 100.74 65.758 100.526C64.289 100.312 62.926 101.329 62.712 102.798C62.498 104.267 63.515 105.63 64.984 105.844C66.452 106.058 67.816 105.041 68.03 103.572Z" fill="#160400"/>
<path d="M69.256 119.628C69.47 118.16 68.453 116.796 66.984 116.582C65.516 116.368 64.152 117.385 63.938 118.854C63.724 120.323 64.741 121.686 66.21 121.9C67.679 122.113 69.043 121.096 69.256 119.628Z" fill="#160400"/>
<path d="M32.6851 93.7566C31.5661 93.2706 30.4671 92.7576 29.3921 92.1976C28.3171 91.6396 27.2361 91.0876 26.1851 90.4836C25.1251 89.8946 24.0891 89.2656 23.0541 88.6336C22.0261 87.9886 21.0721 87.2336 20.1241 86.4696C19.1791 85.7036 18.1781 85.0156 17.1761 84.3256C16.1901 83.6096 15.1591 82.9556 14.1771 82.2126C13.6811 81.8486 13.1791 81.4976 12.7091 81.0906C12.2371 80.6886 11.7391 80.3196 11.2921 79.8826C10.8451 79.4396 10.4391 78.9556 10.0131 78.4966L8.79207 77.0106L8.76407 76.9766C8.59907 76.7756 8.51407 76.5356 8.50307 76.2946C8.44607 74.9776 8.41407 73.6966 8.40607 72.3996C8.39707 71.1066 8.40607 69.8146 8.43407 68.5236C8.52507 65.9406 8.65407 63.3586 8.94507 60.7906C8.98007 60.4796 9.26107 60.2566 9.57207 60.2916C9.85507 60.3236 10.0661 60.5636 10.0751 60.8396C10.1571 63.3926 10.2441 65.9386 10.4511 68.4796C10.5321 69.7496 10.6291 71.0196 10.7451 72.2866C10.8611 73.5496 10.9821 74.8266 11.1341 76.0646L10.8451 75.3496L12.0231 76.5586C12.4581 76.9386 12.9141 77.2946 13.3281 77.6906C13.7621 78.0716 14.1841 78.4786 14.6111 78.8756C15.0301 79.2786 15.4891 79.6546 15.9191 80.0566C16.3541 80.4546 16.7951 80.8476 17.2541 81.2246C17.7101 81.6036 18.1541 81.9986 18.6301 82.3536C19.5731 83.0776 20.5171 83.8046 21.5591 84.3946C22.5781 85.0156 23.6371 85.5766 24.6101 86.2656L27.5481 88.3176L30.4831 90.3916C31.4681 91.0726 32.4341 91.7926 33.4031 92.5016C33.7271 92.7376 33.7991 93.1916 33.5631 93.5156C33.3571 93.7976 32.9901 93.8876 32.6851 93.7566Z" fill="#AA6752"/>
<path d="M14.637 68.5446C14.637 68.5446 14.846 69.3046 14.983 70.4306C15.058 70.9936 15.112 71.6476 15.146 72.3466C15.197 73.0466 15.15 73.7866 15.04 74.5246C14.943 75.2626 14.873 76.0036 14.961 76.6976C15.059 77.3916 15.057 78.0346 15.088 78.5796C15.132 79.6846 15.196 80.3296 15.196 80.3296L15.198 80.3446C15.252 80.8946 14.85 81.3836 14.3 81.4376C13.763 81.4906 13.284 81.1056 13.211 80.5756C13.211 80.5756 13.098 79.7376 13.134 78.6036C13.144 78.3186 13.155 78.0096 13.166 77.6826C13.183 77.3566 13.23 77.0166 13.281 76.6636C13.396 75.9606 13.372 75.2106 13.329 74.4586C13.277 73.7066 13.294 72.9566 13.415 72.2606C13.519 71.5626 13.642 70.9146 13.782 70.3606C14.046 69.2526 14.355 68.5246 14.355 68.5246C14.387 68.4486 14.475 68.4126 14.551 68.4456C14.594 68.4656 14.625 68.5026 14.637 68.5446Z" fill="#AA6752"/>
<path d="M0.592072 59.3816C0.592072 59.3816 1.28007 60.3516 2.19107 61.8456C2.65607 62.5886 3.16507 63.4676 3.71107 64.4056C4.27207 65.3366 4.77407 66.3746 5.25507 67.4266C5.73707 68.4766 6.27707 69.5006 6.90707 70.3816C7.55507 71.2516 8.09207 72.0956 8.57707 72.8036C9.07007 73.5026 9.49107 74.0766 9.79107 74.4706C10.0851 74.8696 10.2531 75.0976 10.2531 75.0976L10.2791 75.1326C10.6061 75.5766 10.5121 76.2026 10.0671 76.5306C9.62407 76.8566 9.00207 76.7636 8.67307 76.3246C8.67307 76.3246 8.49407 76.0846 8.18007 75.6656C7.85507 75.2526 7.45507 74.6236 6.96307 73.8796C6.72907 73.5016 6.47607 73.0916 6.20807 72.6586C5.94607 72.2216 5.71107 71.7386 5.46307 71.2426C4.97607 70.2466 4.37607 69.2376 3.74707 68.2396C3.13407 67.2346 2.56007 66.2056 2.15807 65.1756C1.72807 64.1596 1.37307 63.1926 1.09907 62.3516C0.543072 60.6736 0.331073 59.4926 0.331073 59.4926C0.317073 59.4136 0.369071 59.3386 0.448071 59.3246C0.505071 59.3126 0.560072 59.3376 0.592072 59.3816Z" fill="#AA6752"/>
<path d="M0.173045 70.5006C0.173045 70.5006 0.904045 70.6196 1.91004 70.9646C2.41704 71.1306 2.99005 71.3566 3.59205 71.6216C4.20205 71.8716 4.80205 72.2326 5.37005 72.6506C5.94305 73.0596 6.52805 73.4486 7.14605 73.6846C7.76805 73.9126 8.30105 74.2146 8.76705 74.4546C9.69605 74.9416 10.296 75.3026 10.296 75.3026L10.334 75.3256C10.807 75.6106 10.959 76.2246 10.675 76.6976C10.398 77.1566 9.80905 77.3126 9.34205 77.0606C9.34205 77.0606 8.72705 76.7276 7.83505 76.1726C7.39105 75.8916 6.86104 75.5856 6.34504 75.1626C5.82404 74.7476 5.19504 74.4416 4.55404 74.1566C3.90804 73.8806 3.29405 73.5466 2.76605 73.1456C2.23005 72.7596 1.74104 72.3776 1.33704 72.0226C0.522045 71.3256 0.0390463 70.7496 0.0390463 70.7496L0.0350446 70.7446C-0.0179554 70.6816 -0.00995381 70.5866 0.0530462 70.5336C0.0870462 70.5046 0.131045 70.4946 0.173045 70.5006Z" fill="#AA6752"/>
<path d="M122.513 53.9836C122.513 53.9836 122.162 54.5376 121.547 55.5076C120.912 56.4616 120.004 57.8256 118.915 59.4616C117.811 61.0876 116.485 62.9576 115.045 64.9496C114.331 65.9506 113.549 66.9516 112.826 68.0256C112.092 69.0926 111.184 70.0456 110.316 71.0306C109.421 71.9936 108.527 72.9566 107.646 73.9046C106.762 74.8506 105.939 75.8166 105.191 76.8066C104.433 77.7856 103.698 78.7316 102.857 79.5046C102.044 80.3006 101.281 81.0556 100.514 81.7026C99.77 82.3686 99.07 82.9536 98.406 83.4426C97.744 83.9316 97.214 84.3886 96.684 84.6856C95.664 85.3146 95.076 85.6416 95.076 85.6416C94.728 85.8346 94.289 85.7096 94.096 85.3616C93.935 85.0726 93.994 84.7206 94.218 84.4986L94.281 84.4366C94.281 84.4366 94.739 83.9836 95.551 83.2466C95.957 82.8856 96.412 82.3576 96.963 81.8186C97.52 81.2856 98.087 80.5976 98.746 79.8976C99.403 79.1996 100.093 78.4086 100.827 77.5786C101.554 76.7466 102.384 75.9166 103.271 75.0836C104.184 74.2736 104.982 73.2976 105.792 72.3116C106.608 71.3296 107.361 70.2636 108.148 69.2316C108.945 68.2046 109.68 67.1296 110.572 66.2066C111.45 65.2706 112.256 64.3026 113.056 63.3806C114.638 61.5186 116.114 59.7816 117.38 58.2916C119.914 55.3076 121.603 53.3176 121.603 53.3176C121.804 53.0776 122.161 53.0456 122.401 53.2466C122.617 53.4296 122.66 53.7476 122.513 53.9836Z" fill="#AA6752"/>
<path d="M112.433 56.6126C112.433 56.6126 112.67 57.4596 112.775 58.7346C112.837 59.3726 112.855 60.1166 112.839 60.9146C112.831 61.7136 112.706 62.5576 112.482 63.3846C112.268 64.2146 112.064 65.0386 111.954 65.8466C111.867 66.6606 111.638 67.3986 111.407 68.0356C111.31 68.3556 111.168 68.6436 111.046 68.9006C110.928 69.1576 110.823 69.3816 110.692 69.5596C110.454 69.9186 110.318 70.1226 110.318 70.1226C110.014 70.5806 109.395 70.7056 108.937 70.4006C108.484 70.0996 108.357 69.4926 108.648 69.0366L108.735 68.9006C108.735 68.9006 108.827 68.7566 108.988 68.5036C109.15 68.2556 109.368 67.8436 109.592 67.3156C109.705 67.0506 109.833 66.7656 109.936 66.4396C110.06 66.1196 110.191 65.7816 110.327 65.4316C110.619 64.7286 110.727 63.9116 110.795 63.0986C110.837 62.6936 110.853 62.2816 110.911 61.8846C110.964 61.4866 111.029 61.0946 111.118 60.7186C111.269 59.9616 111.426 59.2526 111.577 58.6436C111.869 57.4236 112.152 56.6026 112.152 56.6026C112.179 56.5256 112.263 56.4846 112.34 56.5106C112.386 56.5286 112.42 56.5676 112.433 56.6126Z" fill="#AA6752"/>
<path d="M120.101 67.6956C120.101 67.6956 119.346 68.4446 118.1 69.3816C117.48 69.8576 116.736 70.3766 115.919 70.9026C115.115 71.4516 114.185 71.9096 113.236 72.3286C112.282 72.7396 111.343 73.1766 110.504 73.6836C110.08 73.9316 109.669 74.1696 109.265 74.3706C108.851 74.5586 108.46 74.7356 108.099 74.8986C107.368 75.2126 106.715 75.4516 106.238 75.5866C105.71 75.6936 105.408 75.7556 105.408 75.7556C104.869 75.8656 104.343 75.5166 104.234 74.9786C104.125 74.4436 104.467 73.9226 104.999 73.8066L105.164 73.7706C105.164 73.7706 105.365 73.7266 105.718 73.6506C106.104 73.5296 106.674 73.3716 107.371 73.1016C108.067 72.8366 108.87 72.4736 109.777 72.1676C110.674 71.8336 111.574 71.3506 112.443 70.8096C113.316 70.2746 114.199 69.7626 115.084 69.3826C115.958 68.9816 116.784 68.6216 117.505 68.3346C118.941 67.7496 119.957 67.4506 119.957 67.4506C120.034 67.4276 120.115 67.4716 120.138 67.5496C120.154 67.6036 120.137 67.6596 120.101 67.6956Z" fill="#AA6752"/>
<path opacity="0.11" d="M96.8811 103.485C96.7621 102.1 94.8441 102.097 94.7251 103.485C94.6581 104.263 94.541 105.02 94.973 105.72C95.356 106.341 96.2491 106.341 96.6331 105.72C97.0641 105.022 96.9481 104.261 96.8811 103.485Z" fill="#5A287F"/>
<path opacity="0.11" d="M97.3051 111.959C97.0931 110.968 95.5131 110.968 95.3011 111.959C95.1971 112.443 95.1661 112.837 95.2331 113.33C95.3761 114.39 97.2301 114.39 97.3731 113.33C97.4391 112.841 97.4081 112.442 97.3051 111.959Z" fill="#5A287F"/>
<path opacity="0.11" d="M92.9791 108.48C92.7501 107.608 91.2991 107.521 91.1261 108.48C91.0161 109.092 90.8271 109.588 90.9441 110.222C91.0501 110.799 91.7901 111.021 92.2521 110.754C93.0851 110.274 93.2051 109.339 92.9791 108.48Z" fill="#5A287F"/>
<path opacity="0.11" d="M93.303 115.641C92.543 115.641 91.848 116.598 92.359 117.287C92.449 117.409 92.534 117.54 92.652 117.637C93.066 117.978 93.539 117.98 93.956 117.637C94.074 117.54 94.158 117.409 94.249 117.287C94.758 116.599 94.063 115.641 93.303 115.641Z" fill="#5A287F"/>
<path opacity="0.11" d="M33.297 128.461C32.99 127.173 30.974 127.72 31.308 129.009C31.499 129.745 31.75 130.362 32.494 130.658C32.91 130.824 33.438 130.474 33.536 130.066C33.675 129.491 33.428 129.009 33.297 128.461Z" fill="#5A287F"/>
<path opacity="0.11" d="M36.1351 135.326C35.8901 134.633 35.5481 133.968 35.2691 133.287C34.9131 132.42 33.6361 132.724 33.8381 133.682C33.9871 134.39 34.1111 135.135 34.3541 135.817C34.5221 136.286 34.9841 136.601 35.4901 136.462C35.9451 136.337 36.3021 135.799 36.1351 135.326Z" fill="#5A287F"/>
<path opacity="0.11" d="M37.7441 130.225C37.5411 129.739 37.0981 129.39 36.5431 129.543C36.0741 129.672 35.6691 130.25 35.8611 130.744C36.1361 131.453 36.3831 132.135 37.0041 132.605C37.5191 132.995 38.4381 132.474 38.3571 131.828C38.2821 131.228 37.9741 130.774 37.7441 130.225Z" fill="#5A287F"/>
<path opacity="0.11" d="M33.099 118.77C32.893 118.317 32.236 118.206 31.838 118.439C31.372 118.712 31.301 119.245 31.507 119.7C31.593 119.89 31.622 120.101 31.671 120.302C31.912 121.286 33.476 121.086 33.446 120.062C33.433 119.587 33.293 119.198 33.099 118.77Z" fill="#5A287F"/>
<path opacity="0.11" d="M45.3221 132.786C44.7131 131.819 43.1811 132.703 43.7841 133.685C44.1981 134.36 44.5631 135.136 45.3791 135.368C45.8061 135.49 46.1891 135.154 46.2101 134.735C46.2471 133.969 45.7071 133.397 45.3221 132.786Z" fill="#5A287F"/>
<path opacity="0.11" d="M80.8291 43.4586C80.5881 43.1936 80.3391 42.9676 80.2171 42.6206C80.0361 42.1036 79.2201 42.3166 79.3881 42.8486C79.5511 43.3646 79.8491 43.8436 80.3551 44.0716C80.7501 44.2496 81.1421 43.8026 80.8291 43.4586Z" fill="#5A287F"/>
<path opacity="0.11" d="M80.7111 46.1336C80.5871 46.0186 80.5141 45.9116 80.4441 45.7556C80.2641 45.3536 79.7461 45.5516 79.6161 45.8636C79.4821 46.1856 79.4841 46.4686 79.5551 46.8056C79.6531 47.2676 80.1971 47.4076 80.5711 47.2186C80.6201 47.1946 80.6721 47.1486 80.7111 47.1106C80.9711 46.8566 80.9821 46.3866 80.7111 46.1336Z" fill="#5A287F"/>
<path opacity="0.11" d="M77.303 43.0006C76.358 43.0006 76.356 44.4696 77.303 44.4696C78.248 44.4696 78.249 43.0006 77.303 43.0006Z" fill="#5A287F"/>
</svg>
