<svg width="90" height="117" viewBox="0 0 90 117" fill="none" xmlns="http://www.w3.org/2000/svg">
<path d="M33.3966 110.61C33.3966 110.61 40.9035 99.3104 41.5007 85.1374C42.098 70.9645 41.2375 60.5096 38.0297 59.2907C34.8219 58.0719 29.5858 51.3176 29.2286 49.5085C28.8714 47.6982 24.9863 44.5994 21.4341 42.1292C17.8807 39.659 13.127 40.5462 11.8119 38.5897C10.4968 36.6344 1.31525 38.8135 1.31525 38.8135L2.86 36.6379C2.86 36.6379 6.5247 36.878 9.06217 36.5057C11.5996 36.1334 12.7431 37.5413 14.1789 37.6689C15.6134 37.7976 13.9284 33.3779 12.6422 32.769C11.3561 32.1602 7.94188 28.7321 7.94188 28.7321L10.4863 28.6776C10.4863 28.6776 12.7466 30.22 14.0594 32.1022C15.3722 33.9833 15.5995 37.1609 17.2069 37.9217C18.8143 38.6825 22.1775 39.7251 23.4566 40.0162C24.7358 40.3073 21.5872 36.7144 21.0212 35.1361C20.4553 33.5565 17.6766 30.1156 16.8683 29.4963C16.0599 28.877 15.5218 26.0241 15.5218 26.0241L17.6232 27.57C17.6232 27.57 18.4733 30.0982 20.0865 31.1768C21.7008 32.2565 22.3978 35.1048 22.7028 34.4623C23.0067 33.8198 23.423 30.946 23.5726 30.4659C23.7211 29.9857 25.1498 29.7955 25.1498 29.7955L26.1483 31.8425C26.1483 31.8425 24.2371 31.7242 24.2777 33.6331C24.3183 35.542 25.195 39.3412 26.1901 41.2292C27.1851 43.1173 28.8261 45.4692 30.5959 46.3854C32.3656 47.3027 30.8151 41.7662 30.7988 40.9706C30.7814 40.1751 27.6792 36.4233 27.6792 36.4233L29.2622 36.072C29.2622 36.072 31.0586 38.2615 31.722 39.5198C32.3853 40.7781 32.9234 36.1531 32.267 35.2126C31.6106 34.2721 30.7374 30.6305 30.7374 30.6305L32.5245 32.3423C32.5245 32.3423 33.6889 34.7035 34.0344 35.9699C34.38 37.2351 33.4928 40.4371 33.2157 42.3518C32.9385 44.2665 33.697 49.9793 34.0356 50.9268C34.3742 51.8743 38.5771 54.9661 39.4735 52.2431C40.37 49.5189 39.1453 44.2944 38.4576 41.9227C37.7711 39.5511 37.0532 35.7472 37.3408 34.3092C37.6284 32.8711 33.087 28.8307 32.1197 28.2149C31.1514 27.599 27.4368 24.9734 27.4368 24.9734L29.0071 23.9854C29.0071 23.9854 30.7768 24.9027 32.0664 25.6704C33.356 26.4382 34.8347 28.6347 35.3148 28.7831C35.7949 28.9316 34.2734 22.2284 33.3073 21.7192C32.3413 21.209 30.5077 19.764 29.4362 19.256C28.3646 18.7481 25.9442 19.6492 24.9944 19.8811C24.0446 20.113 21.281 19.8544 21.281 19.8544L22.7341 18.3387C22.7341 18.3387 24.9701 18.7156 26.6482 17.8307C28.3263 16.947 31.1154 18.3723 31.9725 18.7782C32.8295 19.1841 30.4358 16.3706 29.4663 15.6493C28.4956 14.9279 26.4707 14.4408 26.3536 13.912C26.2365 13.3843 23.9623 11.2052 23.9623 11.2052L25.7645 11.1669C25.7645 11.1669 26.7526 12.7372 27.8195 13.0329C28.8864 13.3287 30.9368 14.9824 31.7927 15.2816C32.6474 15.582 30.4347 11.2794 30.4161 10.4317C30.3976 9.58277 31.141 4.63425 31.141 4.63425L32.5454 5.82525C32.5454 5.82525 32.0652 8.16908 32.0965 9.65352C32.1279 11.138 33.0371 13.9827 33.8095 15.3454C34.5807 16.7081 34.7465 19.4624 35.1547 18.7109C35.563 17.9594 35.527 16.2628 35.1768 14.7853C34.8265 13.3078 36.7946 11.0382 36.7946 11.0382L37.4649 12.6154C37.4649 12.6154 36.4316 13.9108 36.6751 15.3906C36.9187 16.8705 36.7818 20.374 36.7122 22.073C36.6427 23.7719 37.5855 28.2067 37.8963 27.882C38.2071 27.5573 39.9803 26.1401 39.6313 24.6626C39.2822 23.1851 38.3927 21.2948 38.9088 20.6477C39.4248 20.0005 40.4373 17.5384 40.4373 17.5384L41.2189 19.5378C41.2189 19.5378 39.8725 21.0513 40.2146 22.211C40.5579 23.3707 41.561 25.682 40.4361 27.6164C39.31 29.5497 39.7913 32.1915 40.2447 33.5612C40.6982 34.9308 43.1557 45.6976 43.6451 43.7783C44.1345 41.859 43.6149 37.4149 44.2064 35.281C44.7967 33.1471 44.24 31.8853 44.1043 30.5099C43.9686 29.1333 42.396 25.0303 42.396 25.0303L43.4699 25.6437C43.4699 25.6437 44.7271 29.8593 45.2292 28.5767C45.7326 27.2929 44.5612 22.1205 44.0057 20.9654C43.4502 19.8104 43.5163 17.9003 42.4332 16.8624C41.35 15.8244 38.9111 15.8766 38.9111 15.8766L39.8296 14.1984C39.8296 14.1984 41.5274 14.2298 42.6059 15.0555C43.6845 15.8812 45.3197 19.3465 45.1144 16.4866C44.9092 13.6267 44.0266 12.0553 43.3748 11.3258C42.7231 10.5975 40.6831 9.47375 40.6681 8.73153C40.6518 7.98931 40.4709 4.43825 40.4709 4.43825L41.6608 5.52839C41.6608 5.52839 41.4984 7.86523 42.5723 8.47872C43.6462 9.09222 44.8546 11.5056 44.9915 10.2299C45.1283 8.95419 45.7813 5.22801 44.8535 3.76212C43.9257 2.29739 47.1648 0 47.1648 0L48.669 0.866322C48.669 0.866322 46.2591 2.24637 46.5049 3.83287C46.7508 5.41821 47.3306 7.73999 47.0512 9.54915C46.7717 11.3583 46.5038 13.6975 47.2321 13.0457C47.9604 12.3939 48.7165 8.02874 49.4587 8.01251C50.201 7.99627 51.5346 5.8473 51.5346 5.8473L52.2003 7.2123C52.2003 7.2123 51.3816 8.6086 50.3355 9.26733C49.2883 9.92605 48.9322 13.0863 48.7397 14.0071C48.5472 14.9279 47.5591 18.3433 48.0218 20.1362C48.4846 21.9292 49.6327 21.0571 50.6637 19.6561C51.6947 18.2552 52.2989 16.7568 53.0411 16.7417C53.7833 16.7255 55.2202 14.4675 55.2202 14.4675L55.2446 15.6342C55.2446 15.6342 54.347 18.305 53.1872 18.6483C52.0275 18.9916 52.5877 20.3577 50.9269 22.0904C49.2662 23.823 47.5904 24.8134 47.7284 26.2955C47.8664 27.7776 48.1575 31.4841 48.6736 30.837C49.1897 30.1898 50.5547 29.5242 51.2493 27.2813C51.944 25.0384 52.7605 23.5365 52.7605 23.5365L53.4308 25.1138C53.4308 25.1138 52.5262 27.4668 51.9289 29.2829C51.3317 31.0991 50.2821 31.6523 49.8832 32.8271C49.4843 34.0019 49.5654 37.8196 50.2868 36.849C51.0081 35.8783 54.3203 31.9897 55.5739 31.1142C56.8288 30.2386 57.3924 26.8325 56.8276 25.2529C56.264 23.6734 56.1956 20.4934 56.1956 20.4934L57.8853 20.1385C57.8853 20.1385 57.4933 21.6323 57.9421 22.7897C58.3909 23.9471 58.5857 28.0792 58.5857 28.0792C58.5857 28.0792 60.6431 25.0651 61.0444 23.9958C61.4456 22.9265 60.2302 20.6187 60.9307 18.6947C61.6323 16.7707 62.0974 13.723 62.0974 13.723L63.198 15.5704C63.198 15.5704 62.0927 18.4581 62.2284 19.8335C62.3641 21.2101 63.9008 21.8132 64.2893 21.0628C64.6778 20.3125 65.0964 15.0763 64.643 13.6684C64.1884 12.2605 63.0994 9.10147 64.0097 7.91507C64.9201 6.72868 61.4862 4.89286 61.4862 4.89286L63.9379 4.52174C63.9379 4.52174 66.1657 5.42864 65.2588 7.67618C64.3519 9.92372 65.1533 10.7553 65.7934 11.908C66.4347 13.0608 65.8723 16.5736 66.8986 14.9604C67.925 13.3472 67.4507 11.0243 68.3831 9.94345C69.3143 8.86259 69.3885 7.37582 69.0511 6.42833C68.7124 5.48084 69.7573 4.71657 69.7573 4.71657L70.5216 5.76148C70.5216 5.76148 70.6596 7.24361 70.5784 8.41261C70.4972 9.58161 69.1508 11.0951 68.9676 12.4774C68.7843 13.8598 68.0027 16.9528 68.9386 16.0842C69.8744 15.2155 70.481 13.7949 72.5963 13.4991C74.7117 13.2034 76.0268 10.2055 76.0268 10.2055L77.7675 7.30393L78.3451 9.519C78.3451 9.519 77.5193 10.5975 76.5997 12.2084C75.68 13.8192 74.0123 15.2341 72.4351 15.9032C70.8579 16.5735 68.0409 18.755 67.0146 20.3682C65.9882 21.9813 64.8737 24.4446 66.5542 23.6664C68.2346 22.8882 69.3375 19.8939 70.3975 19.8718C71.4575 19.8486 73.8512 17.6765 73.8512 17.6765L73.901 20.0087C73.901 20.0087 72.4374 20.9944 71.1826 21.87C69.929 22.7456 69.421 23.8172 68.2752 24.796C67.1294 25.7748 64.912 26.2468 63.5494 27.018C62.1867 27.7892 60.5352 29.9463 60.0284 31.0179C59.5205 32.0895 56.7174 34.9076 58.087 34.4541C59.4567 34.0007 60.5097 33.6597 61.5338 31.941C62.5578 30.2223 65.2854 28.7854 65.2854 28.7854L67.395 28.2102L66.6934 30.1342C66.6934 30.1342 65.0384 30.2757 64.5107 31.3473C63.9842 32.4188 62.8535 34.141 60.7556 35.2462C58.6576 36.3514 55.5044 37.6921 54.1603 39.3122C52.8161 40.9323 50.7379 42.992 50.1407 44.8081C49.5434 46.6242 52.5053 46.2427 54.0686 44.9368C55.6319 43.631 57.2811 41.3672 58.2146 40.3931C59.1482 39.4189 58.8211 39.0014 60.4007 38.4366C61.9802 37.873 63.394 34.5539 63.394 34.5539L64.0527 35.6011C64.0527 35.6011 64.1814 36.6588 63.1504 38.0597C62.1194 39.4607 60.8565 39.9118 60.1409 41.2002C59.4254 42.4887 58.0836 44.2144 59.5506 43.3341C61.0165 42.4539 63.8706 40.1658 64.6859 39.5117C65.5011 38.8576 66.1599 37.9948 66.3222 36.6124C66.4846 35.23 67.9284 32.3353 67.9284 32.3353L68.5721 28.7147L69.5312 28.906C69.5312 28.906 69.6669 30.2815 69.1659 31.672C68.6649 33.0613 68.0873 35.8319 68.6138 35.6081C69.1392 35.3843 69.7168 32.6148 70.8718 32.0593C72.0269 31.5038 71.6477 28.6486 71.5189 27.5909C71.3902 26.5332 72.8202 23.9563 72.8202 23.9563L73.7839 24.3599C73.7839 24.3599 72.5546 26.401 72.8955 27.4552C73.2365 28.5082 73.4708 29.5647 73.284 30.7349C73.0973 31.9062 73.0382 34.134 74.293 33.2596C75.5478 32.384 77.27 28.6346 78.2268 28.7205C79.1835 28.8063 78.3706 25.5347 77.9195 24.2718C77.4683 23.0088 75.7264 20.9237 76.2274 19.5343C76.7284 18.145 76.1509 15.9299 76.1509 15.9299L77.6515 16.6408C77.6515 16.6408 77.2793 19.089 77.8394 20.4552C78.3984 21.8225 79.1731 23.2907 79.3575 22.0138C79.543 20.737 80.131 18.4964 80.3247 17.644C80.5184 16.7916 80.2551 14.3573 80.2551 14.3573L81.4508 15.7107C81.4508 15.7107 81.9994 16.5481 81.525 19.2096C81.0519 21.8712 80.1763 25.6031 81.2525 26.3222C82.3287 27.0412 83.7331 23.2988 84.8975 23.1677C86.0619 23.0367 89.1363 22.9717 89.1363 22.9717L89.9191 24.8644C89.9191 24.8644 87.8861 24.0596 86.208 24.9433C84.5299 25.8281 82.1548 28.848 80.3792 30.1597C78.6037 31.4702 76.8722 34.7963 78.3404 34.0216C79.8086 33.248 82.6801 33.611 83.732 33.1634C84.7827 32.7169 86.6556 30.9796 86.6556 30.9796L86.8018 32.8862C86.8018 32.8862 85.9018 35.4515 84.6296 35.4782C83.3574 35.5048 81.4264 34.4855 79.4317 35.4828C77.4382 36.4802 75.2242 37.1632 72.4931 38.3891C69.762 39.6137 63.5227 45.475 65.3295 45.6489C67.1363 45.8229 69.7527 44.1749 71.2221 43.4014C72.6903 42.6278 74.4542 40.7862 75.5212 41.0819C76.5881 41.3777 80.051 39.6068 80.051 39.6068L79.4642 41.9529C79.4642 41.9529 75.8957 43.7261 73.7816 44.0891C71.6674 44.4521 70.8382 45.3184 68.4306 46.855C66.023 48.3917 64.1988 47.37 61.8979 48.9043C59.597 50.4386 57.1964 57.2554 58.8826 56.6999C60.5677 56.1456 63.3916 54.2819 63.997 52.7835C64.6012 51.2852 67.3312 49.955 67.3312 49.955L67.4692 51.4371C67.4692 51.4371 66.001 52.2106 65.7076 53.3842C65.4142 54.5579 69.0893 52.7812 69.61 52.3463C70.1308 51.9103 71.1304 49.026 71.3496 49.3392C71.5688 49.6523 72.1255 50.9141 72.1255 50.9141C72.1255 50.9141 71.5259 52.6247 70.0658 53.8226C68.6069 55.0206 67.0227 55.372 65.863 55.7153C64.7033 56.0586 62.5149 57.9083 61.0606 59.3185C59.6063 60.7288 61.1035 61.333 61.9362 60.5734C62.7688 59.8126 64.6569 58.8175 64.6569 58.8175L65.2228 60.5026C65.2228 60.5026 63.7697 62.0184 61.9884 63.0111C60.2059 64.0038 56.2199 66.1041 54.7471 71.6522C53.2742 77.1991 54.6589 92.3381 54.7447 96.367C54.8306 100.396 60.0087 110.415 60.0087 110.415L33.3966 110.61Z" fill="#5F564A"/>
<path d="M5.77203 34.9609C2.39261 35.1674 1.18301 35.1071 0.242477 36.2877C-0.699217 37.4683 1.19693 37.9588 4.28642 37.7965C7.37592 37.6341 8.52173 36.9325 10.4631 37.3268C12.4045 37.7199 13.737 38.5352 14.485 37.59C15.233 36.6448 12.7118 36.2633 10.3831 35.8783C8.05552 35.4932 7.75399 34.8403 5.77203 34.9609Z" fill="white"/>
<path d="M16.3417 25.1659C14.2844 25.21 15.015 26.9264 16.3904 27.4366C17.7647 27.9469 18.3364 30.2954 19.7235 31.861C21.1105 33.4266 22.7213 36.4245 23.2618 34.5817C23.8022 32.7401 23.7361 31.8714 24.832 31.1709C25.9291 30.4705 25.7041 29.0255 24.3554 29.1994C23.0055 29.3734 22.9278 32.5162 21.8411 31.4284C20.7544 30.3394 19.7339 27.7996 18.551 26.7617C17.3681 25.7237 17.549 25.1404 16.3417 25.1659Z" fill="white"/>
<path d="M26.8453 23.6374C25.6114 24.818 27.7917 25.1091 29.0476 24.8957C30.3036 24.6823 31.6385 26.2421 33.1125 27.4193C34.5876 28.5964 36.1068 29.5787 36.0349 28.4688C35.963 27.3589 33.9266 24.7925 31.9249 23.8682C29.9244 22.9427 27.4136 23.0935 26.8453 23.6374Z" fill="white"/>
<path d="M22.6425 16.9597C20.2778 17.107 20.1201 19.1238 21.2752 19.8567C22.4302 20.5897 23.2165 19.2676 25.2878 18.7886C27.359 18.3097 31.4111 19.9391 31.7289 19.2317C32.0466 18.5231 29.7875 16.6153 27.5144 16.5179C25.2414 16.4216 22.6425 16.9597 22.6425 16.9597Z" fill="white"/>
<path d="M23.0704 9.79727C22.8118 11.2527 24.701 11.4545 25.7308 12.1573C26.7606 12.8601 28.7808 14.4431 30.2838 14.8629C31.7868 15.2828 32.9292 15.684 31.8298 14.399C30.7303 13.1141 28.3135 10.8456 26.7026 10.1057C25.0906 9.36816 23.0704 9.79727 23.0704 9.79727Z" fill="white"/>
<path d="M31.6477 4.05675C30.0833 4.09038 30.1586 7.0268 30.2932 8.53212C30.4289 10.0374 31.0783 9.09573 31.2952 7.93021C31.512 6.76585 33.414 7.54636 33.2365 6.05264C33.0603 4.55776 33.1449 4.02427 31.6477 4.05675Z" fill="white"/>
<path d="M38.7127 13.5235C38.1851 14.4583 39.5617 14.7819 40.7272 15.0857C41.8939 15.3895 42.9376 16.7685 44.0161 17.4713C45.0947 18.1729 45.9842 16.8496 43.9582 14.7656C41.9333 12.6816 39.4584 12.2026 38.7127 13.5235Z" fill="white"/>
<path d="M36.9778 11.4894C36.0975 13.2892 36.849 16.6559 35.7659 15.8093C34.6838 14.9627 33.7329 13.4366 34.5203 11.8721C35.3089 10.3088 36.776 8.87538 37.4753 9.92377C38.1746 10.9733 36.9778 11.4894 36.9778 11.4894Z" fill="white"/>
<path d="M39.9571 3.8793C39.2961 4.86275 42.113 7.50691 42.5189 6.14424C42.9248 4.78273 40.8466 2.5549 39.9571 3.8793Z" fill="white"/>
<path d="M50.6208 5.34283C49.0319 5.61885 49.2036 6.87136 48.7397 7.79914C48.2758 8.72691 47.6635 9.60249 47.21 10.877C46.7565 12.1516 46.5084 14.2275 47.2715 13.7763C48.0346 13.3252 48.1633 10.2589 49.2059 9.30329C50.2485 8.34768 52.3963 7.05689 52.3302 6.23117C52.2664 5.40429 50.6208 5.34283 50.6208 5.34283Z" fill="white"/>
<path d="M42.258 7.50342C41.1783 8.18302 42.3948 9.38563 43.427 10.1847C44.4591 10.9837 45.4426 11.2157 45.1376 9.66976C44.8326 8.12501 43.4502 6.75309 42.258 7.50342Z" fill="white"/>
<path d="M27.3428 35.6127C26.5681 36.784 28.5629 36.1671 29.3549 37.0195C30.147 37.873 32.4908 41.2536 32.608 39.9953C32.7263 38.7358 31.7764 37.2468 30.3488 36.0499C28.9212 34.8543 27.7638 34.976 27.3428 35.6127Z" fill="white"/>
<path d="M7.95344 28.4387C7.68786 29.7121 10.1963 29.3398 11.1844 30.343C12.1725 31.3461 15.2678 33.5994 14.4966 31.4899C13.7254 29.3792 13.2742 28.6161 11.5706 28.0722C9.86698 27.5272 8.21669 27.1758 7.95344 28.4387Z" fill="white"/>
<path d="M16.5424 36.8582C15.8372 38.0608 17.8876 38.7625 19.5947 39.4513C21.3007 40.1402 24.8471 40.9822 24.0945 39.6937C23.3418 38.4053 20.8229 38.12 19.4486 37.1342C18.0744 36.1484 16.9158 36.2215 16.5424 36.8582Z" fill="white"/>
<path d="M33.7526 49.6419C32.6277 50.6369 34.184 52.3927 36.7076 53.0352C39.2311 53.6777 39.7832 52.3614 40.1369 50.8549C40.4918 49.3496 40.2076 47.3735 39.3019 47.973C38.3961 48.5726 38.5075 51.5392 37.2306 50.565C35.9538 49.5908 34.532 48.9518 33.7526 49.6419Z" fill="white"/>
<path d="M26.9439 41.808C25.9013 42.5096 28.8667 45.8264 30.2828 46.5211C31.6988 47.2157 31.9609 45.9053 31.8948 45.0366C31.8275 44.168 31.5944 42.2881 30.5483 43.0837C29.5023 43.8792 28.5698 43.2228 28.2208 42.7473C27.8717 42.2719 27.6108 41.3592 26.9439 41.808Z" fill="white"/>
<path d="M58.0279 55.6921C58.5034 54.6692 59.6642 55.3674 61.0408 54.1775C62.4174 52.9876 63.2629 51.8581 64.3031 50.7726C65.3434 49.6871 68.1835 49.164 68.1998 49.9028C68.2149 50.6415 66.1506 51.2655 65.2552 52.3475C64.3599 53.4295 63.7557 54.5544 61.2762 56.1537C58.7968 57.7541 57.4747 56.8831 58.0279 55.6921Z" fill="white"/>
<path d="M65.8514 52.9691C64.8586 54.1451 66.2167 54.406 67.7023 53.7948C69.1879 53.1837 70.9576 52.3243 71.4018 50.5256C71.8471 48.728 70.7361 48.7767 70.1713 49.5016C69.6065 50.2264 69.2957 51.4893 68.2415 51.9474C67.1885 52.4032 65.8514 52.9691 65.8514 52.9691Z" fill="white"/>
<path d="M60.4703 60.1617C59.7895 61.1637 60.9597 61.7192 62.3455 60.9654C63.7314 60.2104 65.834 59.1029 65.2402 58.4383C64.6464 57.7738 63.2722 59.06 62.1693 59.4705C61.0664 59.8811 60.9179 59.5018 60.4703 60.1617Z" fill="white"/>
<path d="M65.043 44.6678C63.823 45.2326 65.0859 46.7321 66.9542 45.9493C68.8226 45.1665 72.6983 43.3434 73.9381 42.5444C75.1778 41.7442 78.5897 40.8152 79.5987 40.5693C80.6088 40.3235 80.9764 39.4456 79.8527 38.8889C78.7289 38.3334 75.3727 39.6126 73.2272 40.9637C71.0805 42.3147 69.6494 43.1671 68.0641 43.6357C66.4788 44.1042 65.8108 44.3129 65.043 44.6678Z" fill="white"/>
<path d="M50.1302 44.8047C49.4378 46.0003 50.9814 47.1345 53.7427 45.1711C56.504 43.2065 57.8725 41.6317 59.1946 40.2017C60.5178 38.7718 62.3745 37.6121 63.0761 36.3967C63.7778 35.1813 63.8972 33.6725 62.6563 34.6177C61.4154 35.5628 59.4323 39.1812 57.5559 39.9953C55.6794 40.8083 55.117 41.6421 54.1208 42.5339C53.1257 43.4234 50.6613 43.8873 50.1302 44.8047Z" fill="white"/>
<path d="M47.4849 28.2229C48.6133 28.1499 48.9009 30.0193 49.6083 28.6566C50.3169 27.2928 51.0672 26.2618 51.3815 25.1439C51.6958 24.0259 51.7225 22.7502 52.7511 23.5353C53.781 24.3193 52.1945 27.0029 51.3583 28.6196C50.5233 30.2374 49.2047 31.9085 48.3767 31.5884C47.5498 31.266 47.0662 28.2496 47.4849 28.2229Z" fill="white"/>
<path d="M47.4373 19.234C47.9151 18.3595 48.4567 20.5781 49.4123 19.4879C50.3679 18.3978 50.63 17.0873 51.8732 16.4808C53.1165 15.8743 53.5977 15.7455 54.1614 14.9708C54.725 14.1961 55.6864 13.934 55.6504 14.5151C55.6145 15.0961 54.3028 17.0259 53.3449 17.4724C52.3881 17.9189 52.3278 19.6608 50.5639 20.7613C48.7988 21.8619 47.486 21.4548 47.4617 20.3438C47.4373 19.234 47.4373 19.234 47.4373 19.234Z" fill="white"/>
<path d="M36.8514 25.9778C37.3791 25.297 38.7429 26.6214 38.8392 25.3144C38.9354 24.0074 40.3758 25.8131 39.7206 26.8417C39.0665 27.8704 38.1839 29.581 37.4835 28.4851C36.7853 27.388 36.5742 26.3361 36.8514 25.9778Z" fill="white"/>
<path d="M38.1804 20.1084C38.3683 21.2565 38.9342 21.5905 39.4491 20.8541C39.9652 20.1176 41.3349 18.6077 40.8327 17.739C40.3305 16.8716 39.5118 17.0026 39.0931 17.7762C38.6745 18.5509 38.1271 19.7883 38.1804 20.1084Z" fill="white"/>
<path d="M77.4671 33.48C77.1505 34.0795 78.1954 34.0575 80.4209 33.9554C82.6464 33.8522 84.531 33.8128 85.8125 32.7215C87.094 31.6314 87.784 29.973 86.1511 30.4427C84.5182 30.9123 82.2232 32.1265 80.9695 32.224C79.7135 32.3202 78.3961 31.7195 77.4671 33.48Z" fill="white"/>
<path d="M80.821 25.6089C80.9961 24.5107 82.5386 24.2845 83.3863 23.2512C84.2341 22.2179 85.0181 22.008 86.9154 21.7737C88.8115 21.5395 90.8062 22.1251 89.6662 23.068C88.5262 24.0108 86.8597 22.8859 85.41 24.0282C83.9604 25.1706 83.6171 26.2421 82.1396 26.6109C80.6633 26.9832 80.821 25.6089 80.821 25.6089Z" fill="white"/>
<path d="M58.0708 26.0149C58.8721 25.079 59.6317 24.4354 60.0469 23.5076C60.4621 22.581 61.1695 21.7436 61.5778 22.7978C61.9872 23.852 60.1072 28.6289 58.6634 28.9014C57.2195 29.1751 58.0708 26.0149 58.0708 26.0149Z" fill="white"/>
<path d="M50.4387 37.2468C48.916 36.4095 49.9551 35.2753 50.7588 34.3881C51.5613 33.5009 52.1203 32.5244 53.7323 31.0632C55.3443 29.6019 55.8476 28.2868 56.2802 28.1326C56.7116 27.9783 57.3819 29.3178 56.584 30.7361C55.7862 32.1545 53.0469 35.0654 51.9556 36.0546C50.8631 37.0439 50.4387 37.2468 50.4387 37.2468Z" fill="white"/>
<path d="M59.4346 33.284C59.4671 34.7835 60.8182 32.4328 62.8674 31.084C64.9166 29.7353 67.8032 29.0939 67.6373 28.1302C67.4715 27.1676 65.4095 27.6721 63.4983 28.8121C61.5859 29.9521 59.408 32.028 59.4346 33.284Z" fill="white"/>
<path d="M74.1851 33.7433C72.7134 33.4487 73.9566 32.1046 74.6165 31.3171C75.2764 30.5297 75.8806 29.4314 76.6356 28.5326C77.3894 27.6339 77.6573 27.1247 77.9924 26.4127C78.3264 25.6994 79.7309 26.3268 79.5233 27.9261C79.3157 29.5253 77.9403 29.5474 77.3546 31.0133C76.769 32.4792 75.0595 33.9172 74.1851 33.7433Z" fill="white"/>
<path d="M66.5449 23.6642C65.6925 23.2327 66.8383 22.3478 67.7324 21.2171C68.6266 20.0864 68.7518 19.1656 70.481 18.6449C72.2101 18.1242 74.0077 16.2953 74.2709 17.3297C74.5342 18.3642 73.4835 18.9186 72.0025 19.7721C70.5227 20.6257 69.8675 21.6544 68.7773 22.6448C67.686 23.6352 66.5449 23.6642 66.5449 23.6642Z" fill="white"/>
<path d="M69.9834 15.756C68.6486 16.6061 68.7147 15.1877 69.944 13.8888C71.1733 12.5888 73.7328 12.5343 74.6177 10.9211C75.5014 9.30679 76.2599 6.34253 77.6747 6.94095C79.0896 7.53936 77.8707 10.2717 76.1253 11.8072C74.38 13.3426 73.1414 14.1904 71.9909 14.6508C70.8393 15.11 69.9834 15.756 69.9834 15.756Z" fill="white"/>
<path d="M61.9292 18.8281C62.8419 18.5672 63.7175 21.1105 64.0178 19.3152C64.3182 17.52 65.3237 17.0642 65.348 18.2239C65.3724 19.3836 65.4629 21.3633 64.2138 21.6799C62.9637 21.9965 61.6938 21.2983 61.5732 20.1896C61.4514 19.0798 61.9292 18.8281 61.9292 18.8281Z" fill="white"/>
<path d="M77.1065 19.3976C77.1888 18.4489 78.0829 21.6068 79.0223 20.3474C79.9629 19.0879 79.4456 17.237 80.2099 18.0709C80.973 18.9047 80.8988 19.9519 80.4952 21.3958C80.0904 22.8385 80.0904 23.4728 78.6071 22.7283C77.125 21.9837 77.0195 20.3903 77.1065 19.3976Z" fill="white"/>
<path d="M69.2006 35.6858C68.0873 35.5512 68.2427 33.8592 69.4674 32.34C70.692 30.8207 70.5366 30.1609 71.0666 29.2667C71.5966 28.3714 72.6798 28.8712 72.6079 30.0205C72.536 31.1686 71.8413 32.7922 71.171 34.1538C70.5018 35.513 70.2177 35.8087 69.2006 35.6858Z" fill="white"/>
<path d="M62.9579 3.53253C60.5654 4.79199 61.6091 5.92155 62.4777 6.05608C63.3452 6.19061 66.1367 5.39852 65.2959 4.49742C64.4551 3.59748 62.9579 3.53253 62.9579 3.53253Z" fill="white"/>
<path d="M69.5451 4.26198C68.0664 5.16308 69.0162 6.64175 68.5141 8.05429C68.0131 9.46683 68.4294 10.9072 69.0986 9.3949C69.7666 7.88262 69.2679 7.11953 70.2235 6.61621C71.1791 6.11289 71.8831 5.10277 70.9066 4.63076C69.9289 4.1576 69.5451 4.26198 69.5451 4.26198Z" fill="white"/>
<path d="M64.9062 11.1275C66.2619 11.1704 66.5205 14.2831 66.9206 12.6792C67.3219 11.0753 68.5187 11.1472 68.3598 12.5029C68.2021 13.8598 67.918 15.7988 66.7258 15.7281C65.5336 15.6573 65.5011 14.1114 65.2356 13.005C64.9711 11.8998 63.9877 11.0996 64.9062 11.1275Z" fill="white"/>
<path d="M62.6865 15.8185C63.4229 16.3311 64.1176 14.8026 63.1573 14.0337C62.1971 13.2648 61.5859 14.0987 61.1811 15.5089C60.7764 16.9191 61.3679 17.4862 61.783 16.5596C62.1994 15.6318 62.6865 15.8185 62.6865 15.8185Z" fill="white"/>
<path d="M56.3509 19.8405C55.487 20.4633 55.8928 23.5539 56.8137 22.7062C57.7345 21.8596 57.8307 21.5708 58.2935 20.5955C58.7562 19.6201 57.2138 19.2177 56.3509 19.8405Z" fill="white"/>
<path d="M73.284 23.1759C71.9352 23.3986 71.5664 24.2289 71.2591 25.6855C70.9518 27.1421 71.9561 26.0798 72.798 25.3364C73.6412 24.5931 74.7858 24.6441 74.4472 23.9749C74.1074 23.3046 73.284 23.1759 73.284 23.1759Z" fill="white"/>
<path d="M77.2178 15.0497C75.6371 14.7853 75.5791 17.5211 75.6406 18.1485C75.702 18.7759 75.7403 18.2888 76.7957 17.9293C77.8522 17.5698 79.158 15.3745 77.2178 15.0497Z" fill="white"/>
<path d="M81.1794 14.943C80.0058 13.8366 79.6671 14.246 80.022 15.2526C80.3757 16.2593 80.77 16.1039 81.0344 17.187C81.2988 18.2702 82.3043 17.833 82.1825 16.6176C82.0584 15.4011 81.6514 15.3872 81.1794 14.943Z" fill="white"/>
<path d="M25.8537 108.53C25.8537 108.53 30.1748 107.796 33.9903 104.78C37.8058 101.763 39.3517 102.345 38.7243 104.679C38.0981 107.012 42.4493 98.0347 45.3486 102.56C48.2479 107.085 49.9933 107.311 50.9976 104.548C52.002 101.785 55.1691 109.582 55.8673 106.246C56.5654 102.909 57.8968 106.203 62.5775 108.132C67.2581 110.062 68.9954 109.929 66.5182 111.624C64.041 113.321 57.7866 116.354 47.4176 116.575C37.0508 116.798 16.6571 112.4 25.8537 108.53Z" fill="white"/>
</svg>
